<?xml version="1.0" encoding="utf-8"?>
<!-- Generator: Adobe Illustrator 18.0.0, SVG Export Plug-In . SVG Version: 6.00 Build 0)  -->
<!DOCTYPE svg PUBLIC "-//W3C//DTD SVG 1.1//EN" "http://www.w3.org/Graphics/SVG/1.1/DTD/svg11.dtd">
<svg version="1.1" id="Layer_1" xmlns="http://www.w3.org/2000/svg" xmlns:xlink="http://www.w3.org/1999/xlink" x="0px" y="0px"
	 viewBox="0 0 48 48" enable-background="new 0 0 48 48" xml:space="preserve">
<g>
	<path fill="#010101" d="M46.9,35.9H1.3l-0.2-0.8C1,34.6,1,34.1,1,33.7c0-12.7,10.3-23,23-23c12.7,0,23,10.3,23,23
		c0,0.2,0,0.5-0.1,0.7c0,0.2,0,0.3,0,0.5V35.9z M3,33.9h42c0-0.1,0-0.1,0-0.2c0-11.6-9.4-21-21-21c-11.6,0-21,9.4-21,21
		C3,33.8,3,33.8,3,33.9z"/>
	<path fill="#010101" d="M48,46.8H0v-8.3h48V46.8z M2,44.8h44v-4.3H2V44.8z"/>
	<path fill="#010101" d="M24,10c-2.4,0-4.4-2-4.4-4.4s2-4.4,4.4-4.4c2.4,0,4.4,2,4.4,4.4S26.4,10,24,10z M24,3.2
		c-1.3,0-2.4,1.1-2.4,2.4S22.7,8,24,8s2.4-1.1,2.4-2.4S25.3,3.2,24,3.2z"/>
	<path fill="#010101" d="M10.2,27.4l-1.8-0.8c0.2-0.4,4.1-9.1,12.6-10.7l0.4,2C13.9,19.3,10.3,27.3,10.2,27.4z"/>
</g>
</svg>
