<?xml version="1.0" encoding="utf-8"?>
<!-- Generator: Adobe Illustrator 18.0.0, SVG Export Plug-In . SVG Version: 6.00 Build 0)  -->
<!DOCTYPE svg PUBLIC "-//W3C//DTD SVG 1.1//EN" "http://www.w3.org/Graphics/SVG/1.1/DTD/svg11.dtd">
<svg version="1.1" id="Layer_1" xmlns="http://www.w3.org/2000/svg" xmlns:xlink="http://www.w3.org/1999/xlink" x="0px" y="0px"
	 viewBox="0 0 48 48" enable-background="new 0 0 48 48" xml:space="preserve">
<g>
	<path fill="#010101" d="M8.9,48c-4.2,0-7.7-3.5-7.7-7.7V12c0-4.2,3.5-7.7,7.7-7.7c4.2,0,7.7,3.5,7.7,7.7v28.3
		C16.6,44.5,13.1,48,8.9,48z M8.9,6.3c-3.1,0-5.7,2.6-5.7,5.7v28.3c0,3.1,2.6,5.7,5.7,5.7s5.7-2.6,5.7-5.7V12
		C14.6,8.9,12,6.3,8.9,6.3z"/>
	<path fill="#010101" d="M27,48c-4.2,0-7.7-3.5-7.7-7.7V12c0-4.2,3.5-7.7,7.7-7.7s7.7,3.5,7.7,7.7v28.3C34.7,44.5,31.2,48,27,48z
		 M27,6.3c-3.1,0-5.7,2.6-5.7,5.7v28.3c0,3.1,2.6,5.7,5.7,5.7c3.1,0,5.7-2.6,5.7-5.7V12C32.7,8.9,30.1,6.3,27,6.3z"/>
	<path fill="#010101" d="M15.6,17.8H2.2c-0.6,0-1-0.4-1-1s0.4-1,1-1h13.4c0.6,0,1,0.4,1,1S16.2,17.8,15.6,17.8z"/>
	<path fill="#010101" d="M15.6,38.2H2.2c-0.6,0-1-0.4-1-1s0.4-1,1-1h13.4c0.6,0,1,0.4,1,1S16.2,38.2,15.6,38.2z"/>
	<path fill="#010101" d="M33.7,17.8H20.3c-0.6,0-1-0.4-1-1s0.4-1,1-1h13.4c0.6,0,1,0.4,1,1S34.3,17.8,33.7,17.8z"/>
	<path fill="#010101" d="M33.7,38.2H20.3c-0.6,0-1-0.4-1-1s0.4-1,1-1h13.4c0.6,0,1,0.4,1,1S34.3,38.2,33.7,38.2z"/>
	<path fill="#010101" d="M11.6,6.7H6.2c-0.6,0-1-0.4-1-1V1c0-0.6,0.4-1,1-1h5.4c0.6,0,1,0.4,1,1v4.7C12.6,6.3,12.2,6.7,11.6,6.7z
		 M7.2,4.7h3.4V2H7.2V4.7z"/>
	<path fill="#010101" d="M29.7,6.7h-5.4c-0.6,0-1-0.4-1-1V1c0-0.6,0.4-1,1-1h5.4c0.6,0,1,0.4,1,1v4.7C30.7,6.3,30.3,6.7,29.7,6.7z
		 M25.3,4.7h3.4V2h-3.4V4.7z"/>
	<path fill="#010101" d="M44.1,30.2c-0.1,0-0.2,0-0.3,0c-0.5-0.2-0.8-0.7-0.7-1.2C47.5,14.5,46,7.9,44,4.8C42.3,2.3,40.1,2,40,2L1,2
		C0.4,2,0,1.6,0,1s0.4-1,1-1h39.1c0.2,0,3.2,0.3,5.5,3.6c3.4,5,3.2,13.7-0.5,25.9C44.9,29.9,44.5,30.2,44.1,30.2z"/>
	<path fill="#010101" d="M41.6,40.5c-3.5,0-6.4-2.9-6.4-6.5s2.9-6.5,6.4-6.5c3.5,0,6.4,2.9,6.4,6.5S45.1,40.5,41.6,40.5z M41.6,29.5
		c-2.4,0-4.4,2-4.4,4.5s2,4.5,4.4,4.5c2.4,0,4.4-2,4.4-4.5S44,29.5,41.6,29.5z"/>
</g>
</svg>
