<?xml version="1.0" encoding="utf-8"?>
<!-- Generator: Adobe Illustrator 18.0.0, SVG Export Plug-In . SVG Version: 6.00 Build 0)  -->
<!DOCTYPE svg PUBLIC "-//W3C//DTD SVG 1.1//EN" "http://www.w3.org/Graphics/SVG/1.1/DTD/svg11.dtd">
<svg version="1.1" id="Layer_1" xmlns="http://www.w3.org/2000/svg" xmlns:xlink="http://www.w3.org/1999/xlink" x="0px" y="0px"
	 viewBox="0 0 48 48" enable-background="new 0 0 48 48" xml:space="preserve">
<g>
	<rect x="1" y="8.6" fill="none" stroke="#010101" stroke-width="2" stroke-miterlimit="10" width="46" height="38.4"/>
	<g>
		<rect x="10.4" y="37.7" fill="none" stroke="#010101" stroke-width="2" stroke-miterlimit="10" width="13.6" height="9.3"/>
		<rect x="24" y="37.7" fill="none" stroke="#010101" stroke-width="2" stroke-miterlimit="10" width="13.6" height="9.3"/>
	</g>
	<rect x="5.7" y="14.1" fill="none" stroke="#010101" stroke-width="2" stroke-miterlimit="10" width="5" height="5.7"/>
	<rect x="16.1" y="14.1" fill="none" stroke="#010101" stroke-width="2" stroke-miterlimit="10" width="5" height="5.7"/>
	<rect x="26.5" y="14.1" fill="none" stroke="#010101" stroke-width="2" stroke-miterlimit="10" width="5" height="5.7"/>
	<rect x="36.9" y="14.1" fill="none" stroke="#010101" stroke-width="2" stroke-miterlimit="10" width="5" height="5.7"/>
	<rect x="5.7" y="26" fill="none" stroke="#010101" stroke-width="2" stroke-miterlimit="10" width="5" height="5.7"/>
	<rect x="16.1" y="26" fill="none" stroke="#010101" stroke-width="2" stroke-miterlimit="10" width="5" height="5.7"/>
	<rect x="26.5" y="26" fill="none" stroke="#010101" stroke-width="2" stroke-miterlimit="10" width="5" height="5.7"/>
	<rect x="36.9" y="26" fill="none" stroke="#010101" stroke-width="2" stroke-miterlimit="10" width="5" height="5.7"/>
	<rect x="8.7" y="1" fill="none" stroke="#010101" stroke-width="2" stroke-miterlimit="10" width="30.6" height="7.6"/>
	<g>
		<path fill="#010101" d="M14.6,3.1v1.3h2.1V3.1h0.9v3.3h-0.9V5h-2.1v1.5h-0.9V3.1H14.6z"/>
		<path fill="#010101" d="M23.1,4.8c0,1.1-1,1.8-2.4,1.8c-1.4,0-2.3-0.7-2.3-1.7c0-1,1-1.8,2.4-1.8C22.2,3.1,23.1,3.8,23.1,4.8z
			 M19.4,4.8c0,0.7,0.5,1.2,1.4,1.2c0.9,0,1.4-0.5,1.4-1.2c0-0.6-0.5-1.2-1.4-1.2C19.8,3.6,19.4,4.1,19.4,4.8z"/>
		<path fill="#010101" d="M24.6,3.6h-1.4V3.1H27v0.5h-1.4v2.8h-0.9V3.6z"/>
		<path fill="#010101" d="M30.3,5h-1.9v1h2.1v0.5h-3V3.1h2.9v0.5h-2v0.9h1.9V5z"/>
		<path fill="#010101" d="M31.4,3.1h0.9V6h2v0.5h-3V3.1z"/>
	</g>
</g>
</svg>
