<?xml version="1.0" encoding="UTF-8"?>
<svg width="16px" height="16px" viewBox="0 0 16 16" version="1.1" xmlns="http://www.w3.org/2000/svg" xmlns:xlink="http://www.w3.org/1999/xlink">
    <!-- Generator: Sketch 61 (89581) - https://sketch.com -->
    <title>Shape</title>
    <desc>Created with Sketch.</desc>
    <g id="Page-1" stroke="none" stroke-width="1" fill="none" fill-rule="evenodd">
        <g id="Artboard" transform="translate(-225.000000, -667.000000)" fill="#000000" fill-rule="nonzero">
            <g id="stroke-icons" transform="translate(109.000000, 0.000000)">
                <path d="M131.064898,674.331321 L125.744921,670.80079 C125.744921,670.554137 125.744921,670.381963 125.744921,670.317156 C125.744921,669.349887 125.261287,667.41535 123.810384,667.41535 C122.359481,667.41535 121.875847,669.349887 121.875847,670.317156 C121.875847,670.423555 121.875847,670.589926 121.875847,670.80079 L116.555869,674.331321 C116.555869,674.331321 116.072235,674.596352 116.072235,675.298589 L116.072235,675.540406 C116.150584,676.199116 117.523138,675.97471 117.523138,675.97471 L121.875847,675.153499 C121.875847,676.24748 121.875847,677.088036 121.875847,677.088036 C121.875847,677.670332 122.031577,678.716916 122.279198,679.763501 L121.392212,680.473476 C121.392212,680.473476 120.908578,680.957111 120.908578,681.440745 C120.908578,681.924379 121.392212,681.924379 121.392212,681.924379 L122.971762,681.924379 C122.971762,681.924379 122.971762,681.923412 122.970795,681.922445 C122.970795,681.923412 122.970795,681.924379 122.970795,681.924379 L122.970795,681.924379 L122.970795,681.924379 C122.987238,681.960168 123.002714,681.994023 123.019158,682.027877 C123.021093,682.032713 123.023027,682.036582 123.024962,682.041419 C123.038503,682.06947 123.052045,682.096553 123.065587,682.123637 C123.069456,682.132342 123.073325,682.14008 123.078161,682.148786 C123.089769,682.171033 123.101376,682.19328 123.11395,682.21456 C123.118787,682.224233 123.123623,682.232938 123.128459,682.240676 C123.140067,682.260989 123.151674,682.283236 123.163281,682.302581 C123.168117,682.311287 123.171986,682.319025 123.176823,682.325796 C123.190365,682.34901 123.203906,682.372225 123.217448,682.394472 C123.219383,682.398341 123.222284,682.40221 123.224219,682.406079 C123.240663,682.432195 123.257106,682.458312 123.27355,682.482493 C123.275484,682.485395 123.277419,682.488297 123.279353,682.491199 C123.293862,682.511511 123.307404,682.530857 123.321913,682.551169 C123.326749,682.55794 123.331586,682.563744 123.337389,682.571482 C123.348997,682.586958 123.359637,682.6005 123.372211,682.615009 C123.378015,682.62178 123.382851,682.628551 123.389622,682.635322 C123.400262,682.647896 123.411869,682.659503 123.422509,682.673045 C123.428313,682.678849 123.434116,682.684652 123.43992,682.690456 C123.452494,682.703998 123.464102,682.715605 123.476676,682.727212 C123.481512,682.732049 123.485381,682.735918 123.490218,682.739787 C123.507629,682.75623 123.524072,682.769772 123.540516,682.783314 C123.54245,682.785248 123.544385,682.785248 123.546319,682.787183 C123.560828,682.79879 123.575337,682.808463 123.590814,682.818135 C123.59565,682.822005 123.601454,682.824906 123.607257,682.828775 C123.618865,682.834579 123.629505,682.842317 123.641112,682.848121 C123.646915,682.851023 123.653686,682.853924 123.65949,682.856826 C123.67013,682.861663 123.68077,682.865532 123.692377,682.869401 C123.698181,682.872302 123.704951,682.874237 123.710755,682.876172 C123.722362,682.880041 123.73397,682.882942 123.745577,682.884877 C123.750413,682.885844 123.756217,682.886812 123.76202,682.888746 C123.778464,682.890681 123.795875,682.892615 123.812318,682.892615 C123.828762,682.892615 123.846173,682.890681 123.862616,682.888746 C123.86842,682.886812 123.873256,682.885844 123.87906,682.884877 C123.890667,682.882942 123.902274,682.880041 123.913881,682.876172 C123.919685,682.874237 123.926456,682.872302 123.93226,682.869401 C123.9429,682.865532 123.95354,682.861663 123.965147,682.855859 C123.97095,682.853924 123.977721,682.851023 123.983525,682.848121 C123.995132,682.842317 124.005772,682.834579 124.017379,682.828775 C124.022216,682.824906 124.028019,682.822005 124.033823,682.818135 C124.049299,682.808463 124.063808,682.797823 124.078317,682.787183 C124.080252,682.785248 124.082186,682.785248 124.084121,682.783314 C124.100564,682.769772 124.117975,682.75623 124.134419,682.739787 C124.138288,682.735918 124.143124,682.732049 124.146993,682.728179 C124.159568,682.715605 124.172142,682.703998 124.184717,682.690456 C124.189553,682.684652 124.195357,682.678849 124.20116,682.673045 C124.2118,682.659503 124.223407,682.647896 124.235015,682.634354 C124.240818,682.627584 124.245655,682.620813 124.251458,682.614042 C124.263065,682.599533 124.274673,682.585991 124.28628,682.570515 C124.291116,682.562777 124.295953,682.556973 124.300789,682.550202 C124.315298,682.529889 124.32884,682.511511 124.343349,682.490231 C124.345283,682.48733 124.347218,682.484428 124.349152,682.481526 C124.365596,682.457344 124.38204,682.431228 124.398483,682.405112 C124.400418,682.401243 124.403319,682.397374 124.405254,682.393505 C124.418796,682.371257 124.433305,682.348043 124.446847,682.324828 C124.450716,682.31709 124.455552,682.309352 124.459421,682.302581 C124.471995,682.282269 124.483603,682.260021 124.49521,682.239709 C124.499079,682.231003 124.503915,682.222298 124.508752,682.213593 C124.520359,682.192313 124.532933,682.169098 124.544541,682.145884 C124.54841,682.138146 124.552279,682.130407 124.556148,682.123637 C124.570657,682.095586 124.584199,682.066568 124.598708,682.036582 C124.599675,682.033681 124.601609,682.030779 124.602577,682.027877 C124.61902,681.994023 124.635464,681.959201 124.65094,681.923412 L126.23049,681.923412 C126.23049,681.923412 126.714124,681.923412 126.714124,681.439778 C126.714124,680.956143 126.23049,680.472509 126.23049,680.472509 L125.343505,679.762534 C125.592093,678.715949 125.746856,677.669365 125.746856,677.087069 C125.746856,677.087069 125.746856,676.244578 125.746856,675.152532 L130.099564,675.97471 C130.099564,675.97471 131.472119,676.198149 131.550467,675.540406 L131.550467,675.298589 C131.548533,674.597319 131.064898,674.331321 131.064898,674.331321 Z M117.571501,675.153499 C116.767701,675.329542 116.99114,675.105135 116.99114,675.105135 L121.875847,671.768059 C121.875847,672.485772 121.875847,673.358248 121.875847,674.18623 C121.875847,674.18623 118.375301,674.977456 117.571501,675.153499 Z M123.810384,681.440745 C123.810384,681.440745 122.843115,678.055305 122.843115,677.088036 C122.843115,677.088036 122.843115,670.80079 122.843115,670.317156 C122.843115,669.833521 123.157477,668.382619 123.810384,668.382619 C124.46329,668.382619 124.777652,669.833521 124.777652,670.317156 C124.777652,670.80079 124.777652,677.088036 124.777652,677.088036 C124.777652,678.055305 123.810384,681.440745 123.810384,681.440745 Z M130.049266,675.153499 C129.244499,674.977456 125.744921,674.18623 125.744921,674.18623 C125.744921,673.352445 125.744921,672.477067 125.744921,671.768059 L130.629628,675.105135 C130.629628,675.105135 130.853067,675.329542 130.049266,675.153499 Z" id="Shape"></path>
            </g>
        </g>
    </g>
</svg>