<?xml version="1.0" encoding="utf-8"?>
<!-- Generator: Adobe Illustrator 18.0.0, SVG Export Plug-In . SVG Version: 6.00 Build 0)  -->
<!DOCTYPE svg PUBLIC "-//W3C//DTD SVG 1.1//EN" "http://www.w3.org/Graphics/SVG/1.1/DTD/svg11.dtd">
<svg version="1.1" id="Layer_1" xmlns="http://www.w3.org/2000/svg" xmlns:xlink="http://www.w3.org/1999/xlink" x="0px" y="0px"
	 viewBox="0 0 48 48" enable-background="new 0 0 48 48" xml:space="preserve">
<g>
	<rect x="14.8" y="29.8" fill="#010101" width="19.6" height="2"/>
	<path fill="#010101" d="M43.3,31.9v-2c0.8,0,2.8-0.2,2.8-1.9v-3.3c0-0.7-0.5-1.4-1.1-1.7c-4.3-2.2-7-5.8-8.5-8.5
		c-0.3-0.6-1-1-1.6-1H21.4c-0.8,0-1.5,0.5-1.8,1.2L18,19.1c-0.4,1.1-1.3,2-2.5,2.4L3.6,25.1c-0.7,0.2-1.2,0.7-1.3,1.3l-0.2,1.1
		c-0.1,0.6,0,1.2,0.4,1.6c0.4,0.5,0.9,0.7,1.5,0.7H6v2H3.9c-1.2,0-2.3-0.5-3-1.5c-0.7-0.9-1-2.1-0.8-3.3L0.3,26
		c0.3-1.4,1.3-2.5,2.7-2.9l11.9-3.5c0.6-0.2,1-0.6,1.2-1.2l1.6-4.4c0.5-1.5,2-2.6,3.6-2.6h13.4c1.4,0,2.7,0.8,3.4,2
		c1.1,2,3.6,5.6,7.7,7.7c1.4,0.7,2.2,2.1,2.2,3.5V28C48.1,29.8,46.8,31.9,43.3,31.9z"/>
	<path fill="#010101" d="M10.4,36.5c-3,0-5.4-2.4-5.4-5.4s2.4-5.4,5.4-5.4s5.4,2.4,5.4,5.4S13.4,36.5,10.4,36.5z M10.4,27.7
		c-1.9,0-3.4,1.5-3.4,3.4c0,1.9,1.5,3.4,3.4,3.4s3.4-1.5,3.4-3.4C13.8,29.2,12.3,27.7,10.4,27.7z"/>
	<path fill="#010101" d="M38.8,36.5c-3,0-5.4-2.4-5.4-5.4s2.4-5.4,5.4-5.4s5.4,2.4,5.4,5.4S41.8,36.5,38.8,36.5z M38.8,27.7
		c-1.9,0-3.4,1.5-3.4,3.4c0,1.9,1.5,3.4,3.4,3.4c1.9,0,3.4-1.5,3.4-3.4C42.2,29.2,40.7,27.7,38.8,27.7z"/>
	<rect x="16" y="19.1" fill="#010101" width="25.9" height="2"/>
	<rect x="26.9" y="12.8" fill="#010101" width="2" height="7"/>
</g>
</svg>
