<?xml version="1.0" encoding="utf-8"?>
<!-- Generator: Adobe Illustrator 18.0.0, SVG Export Plug-In . SVG Version: 6.00 Build 0)  -->
<!DOCTYPE svg PUBLIC "-//W3C//DTD SVG 1.1//EN" "http://www.w3.org/Graphics/SVG/1.1/DTD/svg11.dtd">
<svg version="1.1" id="Layer_1" xmlns="http://www.w3.org/2000/svg" xmlns:xlink="http://www.w3.org/1999/xlink" x="0px" y="0px"
	 viewBox="0 0 48 48" enable-background="new 0 0 48 48" xml:space="preserve">
<g>
	<path fill="#010101" d="M17.9,30.8c-0.3,0-0.5-0.1-0.7-0.3L0.3,14.2c-0.3-0.3-0.4-0.7-0.2-1.1c0.2-0.4,0.5-0.6,0.9-0.6h33.8
		c0.4,0,0.8,0.2,0.9,0.6c0.2,0.4,0.1,0.8-0.2,1.1L18.6,30.5C18.4,30.7,18.2,30.8,17.9,30.8z M3.5,14.5l14.4,13.9l14.4-13.9H3.5z"/>
	<rect x="16.9" y="29.8" fill="#010101" width="2" height="17.2"/>
	<rect x="11.9" y="46" fill="#010101" width="12" height="2"/>
	<rect x="8.2" y="19" fill="#010101" width="19.4" height="2"/>
	<path fill="#010101" d="M34.8,25.7c-1.6,0-3.2-0.3-4.8-0.9c-1.5-0.5-2.8-1.3-4.1-2.5l1.3-1.5c1.1,1,2.2,1.7,3.4,2.1
		c5.8,2.2,12.4-0.5,14.6-6.1c1.1-2.6,1.1-5.5-0.1-8.1c-1.2-2.7-3.4-4.8-6.3-5.9C33,0.6,26.5,3.4,24.3,9c-0.6,1.4-0.8,2.9-0.7,4.3
		l-2,0.1c-0.1-1.7,0.2-3.4,0.9-5.1C25.1,1.6,32.7-1.6,39.6,1c3.4,1.3,6,3.8,7.4,7c1.3,3.1,1.4,6.5,0.1,9.6
		C45,22.6,40.1,25.7,34.8,25.7z"/>
	<rect x="35.9" y="2.1" transform="matrix(0.926 0.3775 -0.3775 0.926 5.6187 -13.3647)" fill="#010101" width="2" height="11.1"/>
	
		<rect x="24.7" y="8.4" transform="matrix(0.7979 0.6028 -0.6028 0.7979 11.7908 -16.3654)" fill="#010101" width="11.3" height="2"/>
	
		<rect x="34.8" y="12.2" transform="matrix(0.9969 7.873375e-002 -7.873375e-002 0.9969 1.1689 -3.1476)" fill="#010101" width="11.4" height="2"/>
	
		<rect x="30.9" y="17.1" transform="matrix(0.2972 0.9548 -0.9548 0.2972 42.8976 -22.0824)" fill="#010101" width="11.1" height="2"/>
	
		<rect x="-3.3" y="10.5" transform="matrix(0.5853 0.8108 -0.8108 0.5853 12.309 -0.9672)" fill="#010101" width="20.8" height="2"/>
</g>
</svg>
