<?xml version="1.0" encoding="UTF-8"?>
<svg width="7px" height="6px" viewBox="0 0 7 6" version="1.1" xmlns="http://www.w3.org/2000/svg" xmlns:xlink="http://www.w3.org/1999/xlink">
    <!-- Generator: Sketch 61 (89581) - https://sketch.com -->
    <title>Shape</title>
    <desc>Created with Sketch.</desc>
    <g id="Page-1" stroke="none" stroke-width="1" fill="none" fill-rule="evenodd">
        <g id="Artboard" transform="translate(-96.000000, -22.000000)" fill="#000000" fill-rule="nonzero">
            <g id="lineart" transform="translate(61.000000, 10.000000)">
                <path d="M41.2972367,14.4795699 L39.0041007,12.1864339 C39.0041007,12.1864339 38.8857468,12.048 38.7551087,12.048 C38.6244706,12.048 38.5063529,12.1535972 38.5063529,12.2842353 L38.5063529,13.7016471 L35.9330419,13.7016471 C35.8024038,13.7016471 35.6715294,13.8072442 35.6715294,13.9378824 L35.6715294,15.3552941 C35.6715294,15.4859322 35.80264,15.5915294 35.9330419,15.5915294 L38.5063529,15.5915294 L38.5063529,17.0089412 C38.5063529,17.1395793 38.6247068,17.2451765 38.7553449,17.2451765 C38.8859831,17.2451765 38.9979586,17.1067426 38.9979586,17.1067426 L41.2941656,14.8136066 C41.3862974,14.7212386 41.3896047,14.5719379 41.2972367,14.4795699 Z M38.9788235,16.4386692 L38.9788235,15.1190588 L36.144,15.1190588 L36.144,14.1741176 L38.9788235,14.1741176 L38.9788235,12.8545073 L40.7709045,14.6465882 L38.9788235,16.4386692 Z" id="Shape"></path>
            </g>
        </g>
    </g>
</svg>