<?xml version="1.0" encoding="UTF-8"?>
<svg width="219px" height="179px" viewBox="0 0 219 179" version="1.1" xmlns="http://www.w3.org/2000/svg" xmlns:xlink="http://www.w3.org/1999/xlink">
    <!-- Generator: Sketch 61 (89581) - https://sketch.com -->
    <title>iconfinder_Valentine_Day_Calendar_Love_love_calendar_love_day_valentine_day_4805230</title>
    <desc>Created with Sketch.</desc>
    <g id="Page-1" stroke="none" stroke-width="1" fill="none" fill-rule="evenodd">
        <g id="Artboard" transform="translate(-217.000000, -217.000000)">
            <g id="iconfinder_Valentine_Day_Calendar_Love_love_calendar_love_day_valentine_day_4805230" transform="translate(216.000000, 217.000000)">
                <g id="Layer_x0020_1" fill="#000000" fill-rule="nonzero">
                    <g id="_456326096">
                        <g id="Group">
                            <path d="M9.901485,54.157716 L210.521682,54.157716 C212.87701,54.157716 215.016997,55.1192009 216.567264,56.668257 C218.117527,58.2173131 219.07976,60.3556268 219.07976,62.7091346 L219.07976,169.709135 C219.07976,172.06263 218.117527,174.200952 216.567264,175.750012 C215.017001,177.299068 212.877022,178.260553 210.521682,178.260553 L9.901485,178.260553 C7.5461571,178.260553 5.4061695,177.299068 3.85590267,175.750012 C2.30564012,174.200956 1.34340642,172.062642 1.34340642,169.709135 L1.34340642,62.7091346 C1.34340642,60.3556396 2.30564012,58.2173174 3.85590267,56.668257 C5.40616522,55.1192009 7.54614425,54.157716 9.901485,54.157716 Z M210.521682,57.7246081 L9.901485,57.7246081 C8.53149082,57.7246081 7.28460392,58.2858958 6.37970692,59.1900886 C5.47480992,60.0942814 4.91308502,61.340198 4.91308502,62.709126 L4.91308502,169.709126 C4.91308502,171.078054 5.47480992,172.323971 6.37970692,173.228163 C7.28460392,174.132356 8.53149082,174.693644 9.901485,174.693644 L210.521682,174.693644 C211.891676,174.693644 213.138563,174.132356 214.04346,173.228163 C214.948357,172.323971 215.510082,171.078054 215.510082,169.709126 L215.510082,62.709126 C215.510082,61.340198 214.948357,60.0942814 214.04346,59.1900886 C213.138563,58.2858958 211.891676,57.7246081 210.521682,57.7246081 Z" id="_456327896"></path>
                            <path d="M11.7960033,18.3837632 L35.8661522,18.3837632 C36.8518243,18.3837632 37.6509872,19.182305 37.6509872,20.16721 L37.6509872,27.5798704 C37.6509872,29.7463251 38.5395261,31.7176546 39.9703951,33.1474228 C41.401264,34.5771782 43.3741287,35.4650257 45.5422835,35.4650257 C47.7104255,35.4650257 49.6832903,34.5771782 51.1141721,33.1474228 C52.545041,31.7176674 53.4335799,29.746338 53.4335799,27.5798704 L53.4335799,20.16721 C53.4335799,19.182305 54.2327428,18.3837632 55.2184149,18.3837632 L165.204992,18.3837632 C166.190664,18.3837632 166.989827,19.182305 166.989827,20.16721 L166.989827,27.5798704 C166.989827,29.7463251 167.878366,31.7176546 169.309234,33.1474228 C170.740103,34.5771782 172.712968,35.4650257 174.881123,35.4650257 C177.049432,35.4650257 179.02213,34.5771782 180.453011,33.1474228 C181.88388,31.7176674 182.772419,29.746338 182.772419,27.5798704 L182.772419,20.16721 C182.772419,19.182305 183.571582,18.3837632 184.557254,18.3837632 L208.627232,18.3837632 C211.50364,18.3837632 214.11748,19.5584057 216.010928,21.4503669 C217.904362,23.342328 219.079919,25.9541253 219.079919,28.8281453 L219.079919,62.1054877 C219.079919,62.2488844 219.076546,62.0446578 219.070981,62.2989304 L219.063561,62.2987619 L219.063898,62.3036485 L219.077558,62.3039855 C219.076377,62.3590862 219.072499,62.413176 219.066428,62.466929 L219.066259,62.4708046 L219.065922,62.4708046 L219.065416,62.4751857 L219.072499,62.4753542 C219.043156,63.4597542 218.220385,64.2340318 217.235219,64.2047096 C216.252074,64.1753899 215.47838,63.3566276 215.504349,62.374924 C215.4202,61.1015384 214.845491,59.950488 213.96707,59.1091513 C213.073134,58.2529844 211.857948,57.7247211 210.521852,57.7247211 L9.90165513,57.7247211 C8.56555925,57.7247211 7.3503733,58.2529801 6.45643735,59.1091513 C5.55120197,59.9761038 4.96857012,61.1719786 4.91274972,62.4916995 L3.13499933,62.4221075 L4.91814672,62.4975973 C4.87649383,63.4814923 4.04411113,64.2454894 3.0594499,64.2038664 C2.07478867,64.1622459 1.31019653,63.330511 1.35185195,62.346616 L1.3535383,62.346616 L1.35269513,62.3171279 L1.34628701,62.3172964 C1.34358885,62.2679249 1.34358885,62.2190584 1.34797336,62.1705296 C1.34358885,62.1380083 1.34358885,62.2043989 1.34358885,62.1054869 L1.34358885,28.8281445 C1.34358885,25.9541416 2.5191454,23.3423401 4.41258005,21.4503661 C6.3060147,19.5584049 8.91984605,18.3837632 11.7962757,18.3837632 L11.7960033,18.3837632 Z M34.08133,21.9506561 L11.7960033,21.9506561 C9.9049288,21.9506561 8.18417673,22.7251007 6.9360905,23.9721985 C5.6880214,25.2192964 4.91297365,26.9387093 4.91297365,28.8281581 L4.91297365,55.7752949 C6.32141503,54.7585424 8.04570942,54.1578273 9.90138648,54.1578273 L210.521583,54.1578273 C212.377243,54.1578273 214.101537,54.7585424 215.509996,55.7752949 L215.509996,28.8281581 C215.509996,26.9387222 214.734948,25.2193092 213.486879,23.9721985 C212.23881,22.7251007 210.518058,21.9506561 208.626966,21.9506561 L186.341811,21.9506561 L186.341811,27.5798833 C186.341811,30.7309049 185.052763,33.5946101 182.976529,35.6692545 C180.900294,37.7438732 178.034504,39.0319178 174.880857,39.0319178 C171.727382,39.0319178 168.861446,37.7438732 166.785186,35.6692545 C164.708952,33.5946358 163.419904,30.7309049 163.419904,27.5798833 L163.419904,21.9506561 L57.0030572,21.9506561 L57.0030572,27.5798833 C57.0030572,30.7309049 55.7140095,33.5946101 53.637775,35.6692545 C51.5615405,37.7438732 48.6955793,39.0319178 45.5421037,39.0319178 C42.388628,39.0319178 39.5226925,37.7438732 37.4464323,35.6692545 C35.3701979,33.5946358 34.0811501,30.7309049 34.0811501,27.5798833 L34.0811501,21.9506561 L34.08133,21.9506561 Z" id="_456327584"></path>
                            <g transform="translate(33.833333, 0.000000)">
                                <path d="M11.7089117,0.335432 C14.8623873,0.335432 17.7283228,1.6234766 19.804583,3.69809532 C21.8808175,5.77271404 23.1698652,8.63627372 23.1698652,11.7874665 L23.1698652,27.5798105 C23.1698652,30.7308321 21.8808175,33.5945373 19.804583,35.6691817 C17.7283485,37.7438004 14.8623873,39.031845 11.7089117,39.031845 C8.555436,39.031845 5.6895005,37.7438004 3.61324033,35.6691817 C1.53700587,33.594563 0.247958117,30.7308321 0.247958117,27.5798105 L0.247958117,11.7874665 C0.247958117,8.63644492 1.53700587,5.77273972 3.61324033,3.69809532 C5.6894748,1.6234766 8.555436,0.335432 11.7089117,0.335432 Z M17.2808002,6.2199184 C15.8499312,4.790163 13.8770665,3.90231552 11.7089117,3.90231552 C9.54076972,3.90231552 7.56790493,4.790163 6.13702317,6.2199184 C4.70615425,7.6496738 3.8176153,9.62100328 3.8176153,11.7874708 L3.8176153,27.5798148 C3.8176153,29.7462695 4.70615425,31.717599 6.13702317,33.1473672 C7.56789208,34.5771226 9.54075687,35.4649701 11.7089117,35.4649701 C13.8770536,35.4649701 15.8499184,34.5771226 17.2808002,33.1473672 C18.7116691,31.7176118 19.600208,29.7462823 19.600208,27.5798148 L19.600208,11.7874708 C19.600208,9.6208492 18.7116691,7.64968664 17.2808002,6.2199184 L17.2808002,6.2199184 Z" id="_456327560"></path>
                                <path d="M141.047588,0.335432 C144.201235,0.335432 147.066999,1.6234766 149.14326,3.69809532 C151.219494,5.77271404 152.508542,8.63627372 152.508542,11.7874665 L152.508542,27.5798105 C152.508542,30.7308321 151.219494,33.5945373 149.14326,35.6691817 C147.067025,37.7438004 144.201235,39.031845 141.047588,39.031845 C137.894113,39.031845 135.028177,37.7438004 132.951917,35.6691817 C130.875683,33.594563 129.586635,30.7308321 129.586635,27.5798105 L129.586635,11.7874665 C129.586635,8.63644492 130.875683,5.77273972 132.951917,3.69809532 C135.028151,1.6234766 137.894113,0.335432 141.047588,0.335432 Z M146.619477,6.2199184 C145.188608,4.790163 143.215914,3.90231552 141.047588,3.90231552 C138.879446,3.90231552 136.906582,4.790163 135.4757,6.2199184 C134.044831,7.6496738 133.156292,9.62100328 133.156292,11.7874708 L133.156292,27.5798148 C133.156292,29.7462695 134.044831,31.717599 135.4757,33.1473672 C136.906569,34.5771226 138.879434,35.4649701 141.047588,35.4649701 C143.215897,35.4649701 145.188595,34.5771226 146.619477,33.1473672 C148.050346,31.7176118 148.938885,29.7462823 148.938885,27.5798148 L148.938885,11.7874708 C148.938885,9.6208492 148.050346,7.64968664 146.619477,6.2199184 L146.619477,6.2199184 Z" id="_456327680"></path>
                            </g>
                            <path d="M20.0499867,135.547052 C20.0499867,136.531957 20.8491496,137.330498 21.8348217,137.330498 C22.8204938,137.330498 23.6196567,136.531957 23.6196567,135.547052 L23.6196567,55.941192 C23.6196567,54.956287 22.8204938,54.157746 21.8348217,54.157746 C20.8491496,54.157746 20.0499867,54.956287 20.0499867,55.941192 L20.0499867,135.547052 Z" id="_456326456"></path>
                            <path d="M23.6197167,151.661252 C23.6197167,150.676347 22.8205537,149.877806 21.8348817,149.877806 C20.8492096,149.877806 20.0500466,150.676347 20.0500466,151.661252 L20.0500466,158.107189 C20.0500466,159.092094 20.8492096,159.890635 21.8348817,159.890635 C22.8205537,159.890635 23.6197167,159.092094 23.6197167,158.107189 L23.6197167,151.661252 Z" id="_456326384"></path>
                            <path d="M170.783485,89.1587 C181.429753,89.1587 191.068452,93.4708856 198.045403,100.442406 C205.022353,107.413927 209.337897,117.045254 209.337897,127.683108 C209.337897,138.321091 205.022353,147.95229 198.045403,154.92381 C191.068452,161.895331 181.429796,166.207517 170.783485,166.207517 C160.137388,166.207517 150.498518,161.895331 143.521739,154.92381 C136.544789,147.95229 132.229245,138.321134 132.229245,127.683108 C132.229245,117.045126 136.544789,107.413927 143.521739,100.442406 C150.498518,93.4708856 160.137346,89.1587 170.783485,89.1587 L170.783485,89.1587 Z M195.521577,102.964225 C189.190853,96.638428 180.444415,92.7256092 170.783485,92.7256092 C161.122726,92.7256092 152.376117,96.6384408 146.045565,102.964225 C139.714841,109.290022 135.798974,118.029654 135.798974,127.683066 C135.798974,137.336477 139.714854,146.076109 146.045564,152.401906 C152.376117,158.727703 161.122726,162.640522 170.783485,162.640522 C180.444415,162.640522 189.190853,158.72769 195.521577,152.401906 C201.852301,146.076109 205.768167,137.336477 205.768167,127.683066 C205.768167,118.029825 201.852288,109.290022 195.521577,102.964225 L195.521577,102.964225 Z" id="_456326912"></path>
                            <path d="M170.789053,111.568352 C171.676581,110.197909 172.630381,109.072979 173.737469,108.187995 C175.630736,106.67466 177.857564,105.917575 180.782695,105.917575 C184.034992,105.917575 186.981064,107.236286 189.113607,109.367358 C191.246335,111.498425 192.566077,114.442025 192.566077,117.691787 C192.566077,123.124348 189.921204,128.459025 185.954409,133.744141 C182.10042,138.879113 177.072917,143.902721 172.045698,148.925686 L170.783802,147.664772 L172.045698,148.925857 C171.348727,149.622114 170.218535,149.622114 169.521735,148.925688 L169.515327,148.919117 C164.490506,143.898377 159.465684,138.876953 155.613383,133.744163 C151.646408,128.459048 149.001544,123.12437 149.001544,117.691809 C149.001544,114.442043 150.321453,111.498435 152.454013,109.36738 C154.586741,107.236312 157.532805,105.917575 160.785097,105.917575 C165.580246,105.917575 168.382445,107.80164 170.789036,111.568396 L170.789053,111.568352 Z M175.954368,110.960558 C174.65065,112.002755 173.559916,113.640107 172.444056,115.848189 C172.288406,116.243331 171.991946,116.584551 171.581993,116.789284 C170.700538,117.229585 169.628184,116.872525 169.187541,115.991753 L169.194286,115.988383 C167.024795,111.652615 164.90894,109.484453 160.785118,109.484453 C158.518155,109.484453 156.464519,110.403642 154.977817,111.889171 C153.491299,113.374532 152.571226,115.426573 152.571226,117.691781 C152.571226,122.250323 154.926049,126.907091 158.45794,131.612566 C161.794048,136.057517 166.241956,140.596201 170.783831,145.142245 C175.325664,140.596329 179.773777,136.057517 183.109894,131.612566 C186.641622,126.907091 188.996436,122.250323 188.996436,117.691781 C188.996436,115.426582 188.07653,113.374716 186.589845,111.889171 C185.103327,110.403809 183.049687,109.484453 180.782716,109.484453 C178.70867,109.484453 177.185221,109.976653 175.954371,110.960547 L175.954368,110.960558 Z" id="_456327128"></path>
                            <path d="M39.423075,87.031112 L52.6255077,87.031112 L52.6255077,73.8391248 L39.423075,73.8391248 L39.423075,87.031112 L39.423075,87.031112 Z M54.4103727,90.5980041 L37.6382528,90.5980041 C36.6525807,90.5980041 35.8534178,89.7994631 35.8534178,88.814558 L35.8534178,72.0556616 C35.8534178,71.0707566 36.6525807,70.2722156 37.6382528,70.2722156 L54.4103727,70.2722156 C55.3960448,70.2722156 56.1952077,71.0707566 56.1952077,72.0556616 L56.1952077,88.814558 C56.1952077,89.7994631 55.3960448,90.5980041 54.4103727,90.5980041 Z" id="_456326576"></path>
                            <path d="M69.4192583,87.031112 L82.621691,87.031112 L82.621691,73.8391248 L69.4192583,73.8391248 L69.4192583,87.031112 Z M84.406556,90.5980041 L67.6344362,90.5980041 C66.6487641,90.5980041 65.8496012,89.7994631 65.8496012,88.814558 L65.8496012,72.0556616 C65.8496012,71.0707566 66.6487641,70.2722156 67.6344362,70.2722156 L84.406556,70.2722156 C85.3922281,70.2722156 86.191391,71.0707566 86.191391,72.0556616 L86.191391,88.814558 C86.191391,89.7994631 85.3922281,90.5980041 84.406556,90.5980041 L84.406556,90.5980041 Z" id="_456326480"></path>
                            <path d="M99.4154417,87.031112 L112.617874,87.031112 L112.617874,73.8391248 L99.4154417,73.8391248 L99.4154417,87.031112 Z M114.402739,90.5980041 L97.6306195,90.5980041 C96.6449474,90.5980041 95.8457845,89.7994631 95.8457845,88.814558 L95.8457845,72.0556616 C95.8457845,71.0707566 96.6449474,70.2722156 97.6306195,70.2722156 L114.402739,70.2722156 C115.388411,70.2722156 116.187574,71.0707566 116.187574,72.0556616 L116.187574,88.814558 C116.187574,89.7994631 115.388411,90.5980041 114.402739,90.5980041 Z" id="_456326528"></path>
                            <path d="M129.411625,87.031112 L142.614058,87.031112 L142.614058,73.8391248 L129.411625,73.8391248 L129.411625,87.031112 L129.411625,87.031112 Z M144.398923,90.5980041 L127.626803,90.5980041 C126.641131,90.5980041 125.841968,89.7994631 125.841968,88.814558 L125.841968,72.0556616 C125.841968,71.0707566 126.641131,70.2722156 127.626803,70.2722156 L144.398923,70.2722156 C145.384595,70.2722156 146.183758,71.0707566 146.183758,72.0556616 L146.183758,88.814558 C146.183758,89.7994631 145.384595,90.5980041 144.398923,90.5980041 Z" id="_456326504"></path>
                            <path d="M39.423075,120.87136 L52.6255077,120.87136 L52.6255077,107.679373 L39.423075,107.679373 L39.423075,120.87136 L39.423075,120.87136 Z M54.4103727,124.438252 L37.6382528,124.438252 C36.6525807,124.438252 35.8534178,123.639711 35.8534178,122.654806 L35.8534178,105.89591 C35.8534178,104.911005 36.6525807,104.112464 37.6382528,104.112464 L54.4103727,104.112464 C55.3960448,104.112464 56.1952077,104.911005 56.1952077,105.89591 L56.1952077,122.654806 C56.1952077,123.639711 55.3960448,124.438252 54.4103727,124.438252 Z" id="_456326768"></path>
                            <path d="M69.4192583,120.87136 L82.621691,120.87136 L82.621691,107.679373 L69.4192583,107.679373 L69.4192583,120.87136 Z M84.406556,124.438252 L67.6344362,124.438252 C66.6487641,124.438252 65.8496012,123.639711 65.8496012,122.654806 L65.8496012,105.89591 C65.8496012,104.911005 66.6487641,104.112464 67.6344362,104.112464 L84.406556,104.112464 C85.3922281,104.112464 86.191391,104.911005 86.191391,105.89591 L86.191391,122.654806 C86.191391,123.639711 85.3922281,124.438252 84.406556,124.438252 L84.406556,124.438252 Z" id="_456326600"></path>
                            <path d="M99.4154417,120.87136 L112.617874,120.87136 L112.617874,107.679373 L99.4154417,107.679373 L99.4154417,120.87136 Z M114.402739,124.438252 L97.6306195,124.438252 C96.6449474,124.438252 95.8457845,123.639711 95.8457845,122.654806 L95.8457845,105.89591 C95.8457845,104.911005 96.6449474,104.112464 97.6306195,104.112464 L114.402739,104.112464 C115.388411,104.112464 116.187574,104.911005 116.187574,105.89591 L116.187574,122.654806 C116.187574,123.639711 115.388411,124.438252 114.402739,124.438252 Z" id="_456326216"></path>
                            <path d="M39.423075,154.712036 L52.6255077,154.712036 L52.6255077,141.520049 L39.423075,141.520049 L39.423075,154.712036 L39.423075,154.712036 Z M54.4103727,158.278928 L37.6382528,158.278928 C36.6525807,158.278928 35.8534178,157.480387 35.8534178,156.495482 L35.8534178,139.736586 C35.8534178,138.751681 36.6525807,137.95314 37.6382528,137.95314 L54.4103727,137.95314 C55.3960448,137.95314 56.1952077,138.751681 56.1952077,139.736586 L56.1952077,156.495482 C56.1952077,157.480387 55.3960448,158.278928 54.4103727,158.278928 Z" id="_456326048"></path>
                            <path d="M69.4192583,154.712036 L82.621691,154.712036 L82.621691,141.520049 L69.4192583,141.520049 L69.4192583,154.712036 Z M84.406556,158.278928 L67.6344362,158.278928 C66.6487641,158.278928 65.8496012,157.480387 65.8496012,156.495482 L65.8496012,139.736586 C65.8496012,138.751681 66.6487641,137.95314 67.6344362,137.95314 L84.406556,137.95314 C85.3922281,137.95314 86.191391,138.751681 86.191391,139.736586 L86.191391,156.495482 C86.191391,157.480387 85.3922281,158.278928 84.406556,158.278928 L84.406556,158.278928 Z" id="_456326024"></path>
                        </g>
                    </g>
                </g>
                <rect id="Rectangle" x="0" y="0" width="220" height="179"></rect>
            </g>
        </g>
    </g>
</svg>