<?xml version="1.0" encoding="UTF-8"?>
<svg width="489px" height="428px" viewBox="0 0 489 428" version="1.1" xmlns="http://www.w3.org/2000/svg" xmlns:xlink="http://www.w3.org/1999/xlink">
    <!-- Generator: Sketch 61 (89581) - https://sketch.com -->
    <title>electronics</title>
    <desc>Created with Sketch.</desc>
    <g id="Page-1" stroke="none" stroke-width="1" fill="none" fill-rule="evenodd">
        <g id="GridViewQuickPDP-Copy-6" transform="translate(-98.000000, -460.000000)" fill="#EAEAEA" fill-rule="nonzero">
            <g id="electronics" transform="translate(98.000000, 460.000000)">
                <g id="Group-3" transform="translate(0.000000, 0.522000)">
                    <path d="M287.396,185.795 C311.241,209.64 311.241,248.3 287.396,272.145 C263.551,295.99 224.891,295.99 201.046,272.145 C177.201,248.3 177.201,209.64 201.046,185.795 C224.891,161.95 263.551,161.95 287.396,185.795" id="Path"></path>
                    <path d="M427.397,61.059 L385.21,61.059 L354.666,1.13686838e-13 L133.76,1.13686838e-13 L103.245,61.089 L61.118,61.164 C27.533,61.224 0.193,88.593 0.164,122.193 L5.68434189e-14,366.338 C5.68434189e-14,400.013 27.384,427.412 61.059,427.412 L427.397,427.412 C461.072,427.412 488.456,400.028 488.456,366.353 L488.456,122.117 C488.456,88.443 461.071,61.059 427.397,61.059 Z M244.22,351.088 C176.885,351.088 122.102,296.305 122.102,228.97 C122.102,161.635 176.885,106.852 244.22,106.852 C311.555,106.852 366.338,161.635 366.338,228.97 C366.338,296.305 311.555,351.088 244.22,351.088 Z" id="Shape"></path>
                </g>
            </g>
        </g>
    </g>
</svg>