<?xml version="1.0" encoding="UTF-8"?>
<svg width="16px" height="12px" viewBox="0 0 16 12" version="1.1" xmlns="http://www.w3.org/2000/svg" xmlns:xlink="http://www.w3.org/1999/xlink">
    <!-- Generator: Sketch 61 (89581) - https://sketch.com -->
    <title>Shape</title>
    <desc>Created with Sketch.</desc>
    <g id="Page-1" stroke="none" stroke-width="1" fill="none" fill-rule="evenodd">
        <g id="Artboard" transform="translate(-196.000000, -497.000000)" fill="#000000" fill-rule="nonzero">
            <g id="stroke-icons" transform="translate(109.000000, 0.000000)">
                <path d="M102.258672,498.809789 L100.889019,497.455613 C100.50985,497.08128 99.8975688,497.08128 99.5183995,497.455613 L93.1025068,503.763172 L90.0788251,500.807199 C89.6996558,500.432866 89.0873747,500.432866 88.7082054,500.807199 L87.3375858,502.161375 C86.9593837,502.535708 86.9593837,503.142185 87.3375858,503.515551 L91.0480282,507.147644 L92.4176806,508.501821 C92.7968499,508.876153 93.4091309,508.876153 93.7883002,508.501821 L95.1579526,507.147644 L102.258672,500.162998 C102.636874,499.789632 102.636874,499.184122 102.258672,498.809789 Z M93.4449199,507.487156 C93.2930587,507.637082 93.0647833,507.667068 92.8839041,507.575177 C92.8819695,507.57421 92.8268352,507.543257 92.8036208,507.524879 C92.7881445,507.512305 92.4176806,507.147644 92.4176806,507.147644 L88.3657923,503.177007 C88.1771749,502.990324 88.1771749,502.686602 88.3657923,502.499919 L89.0515858,501.823798 C89.2402032,501.637115 89.5477946,501.637115 89.736412,501.823798 L93.1025068,505.11638 L99.8608126,498.471245 C100.04943,498.284562 100.357021,498.284562 100.545639,498.471245 L101.231432,499.148333 C101.42005,499.335016 101.42005,499.638738 101.231432,499.825421 L93.4449199,507.487156 Z" id="Shape"></path>
            </g>
        </g>
    </g>
</svg>