<?xml version="1.0" encoding="UTF-8"?>
<svg width="32px" height="31px" viewBox="0 0 32 31" version="1.1" xmlns="http://www.w3.org/2000/svg" xmlns:xlink="http://www.w3.org/1999/xlink">
    <!-- Generator: Sketch 61 (89581) - https://sketch.com -->
    <title>Shape</title>
    <desc>Created with Sketch.</desc>
    <g id="Page-1" stroke="none" stroke-width="1" fill="none" fill-rule="evenodd">
        <g id="CalendarView" transform="translate(-392.000000, -51.000000)" fill="#474A53">
            <g id="SliderMenu" transform="translate(95.000000, 32.000000)">
                <g id="Search-Results-Copy" transform="translate(231.000000, 5.000000)">
                    <g id="Group-2">
                        <path d="M99.0996791,26.0441705 L85.3410584,26.0441705 L85.3410584,12.2855498 C85.3410584,10.4755532 83.8751929,10.3200325 82.0651964,10.3200325 C80.2551999,10.3200325 78.7893343,10.4755532 78.7893343,12.2855498 L78.7893343,26.0441705 L65.0307136,26.0441705 C63.2207171,26.0441705 63.0651964,27.510036 63.0651964,29.3200325 C63.0651964,31.130029 63.2207171,32.5958946 65.0307136,32.5958946 L78.7893343,32.5958946 L78.7893343,46.3545153 C78.7893343,48.1645118 80.2551999,48.3200325 82.0651964,48.3200325 C83.8751929,48.3200325 85.3410584,48.1645118 85.3410584,46.3545153 L85.3410584,32.5958946 L99.0996791,32.5958946 C100.909676,32.5958946 101.065196,31.130029 101.065196,29.3200325 C101.065196,27.510036 100.909676,26.0441705 99.0996791,26.0441705 L99.0996791,26.0441705 Z" id="Shape" transform="translate(82.065196, 29.320033) rotate(-316.000000) translate(-82.065196, -29.320033) "></path>
                    </g>
                </g>
            </g>
        </g>
    </g>
</svg>