<?xml version="1.0" encoding="UTF-8"?>
<svg width="15px" height="15px" viewBox="0 0 15 15" version="1.1" xmlns="http://www.w3.org/2000/svg" xmlns:xlink="http://www.w3.org/1999/xlink">
    <!-- Generator: Sketch 61 (89581) - https://sketch.com -->
    <title>Shape</title>
    <desc>Created with Sketch.</desc>
    <g id="Page-1" stroke="none" stroke-width="1" fill="none" fill-rule="evenodd">
        <g id="Split-Screen-View" transform="translate(-1410.000000, -10.000000)" fill="#FFFFFF">
            <g id="Close-Side" transform="translate(1395.000000, 0.000000)">
                <path d="M30.1206897,16.0344828 L23.9655172,16.0344828 L23.9655172,9.87931034 C23.9655172,9.06957506 23.3097353,9 22.5,9 C21.6902647,9 21.0344828,9.06957506 21.0344828,9.87931034 L21.0344828,16.0344828 L14.8793103,16.0344828 C14.0695751,16.0344828 14,16.6902647 14,17.5 C14,18.3097353 14.0695751,18.9655172 14.8793103,18.9655172 L21.0344828,18.9655172 L21.0344828,25.1206897 C21.0344828,25.9304249 21.6902647,26 22.5,26 C23.3097353,26 23.9655172,25.9304249 23.9655172,25.1206897 L23.9655172,18.9655172 L30.1206897,18.9655172 C30.9304249,18.9655172 31,18.3097353 31,17.5 C31,16.6902647 30.9304249,16.0344828 30.1206897,16.0344828 L30.1206897,16.0344828 Z" id="Shape" transform="translate(22.500000, 17.500000) rotate(-316.000000) translate(-22.500000, -17.500000) "></path>
            </g>
        </g>
    </g>
</svg>