<?xml version="1.0" encoding="UTF-8"?>
<svg width="7px" height="5px" viewBox="0 0 7 5" version="1.1" xmlns="http://www.w3.org/2000/svg" xmlns:xlink="http://www.w3.org/1999/xlink">
    <!-- Generator: Sketch 61 (89581) - https://sketch.com -->
    <title>compare-arrow</title>
    <desc>Created with Sketch.</desc>
    <g id="Page-1" stroke="none" stroke-width="1" fill="none" fill-rule="evenodd">
        <g id="Artboard" transform="translate(-139.000000, -93.000000)" fill="#000000" fill-rule="nonzero">
            <g id="lineart" transform="translate(57.000000, -2.000000)">
                <g id="compare-arrow" transform="translate(82.918588, 94.966588)">
                    <path d="M4.72470588,3.54352941 L1.41741176,3.54352941 C0.895568,3.54352941 0.472470588,3.120432 0.472470588,2.59858824 L0.472470588,1.88988235 L0,1.41741176 L0,2.59858824 C0,3.38123576 0.634764235,4.016 1.41741176,4.016 L4.72470588,4.016 L4.72470588,4.72470588 L5.66941082,3.77976471 L4.72470588,2.83482353 L4.72470588,3.54352941 Z" id="Path"></path>
                    <path d="M4.25199906,0.708705882 L0.944941176,0.708705882 L0.944941176,0 L0.000236235294,0.944941176 L0.944941176,1.88988235 L0.944941176,1.18117647 L4.25199906,1.18117647 C4.77384282,1.18117647 5.19717647,1.60427388 5.19717647,2.12611765 L5.19717647,2.83482353 L5.66964706,3.30729412 L5.66964706,2.12611765 C5.66964706,1.34347012 5.03464659,0.708705882 4.25199906,0.708705882 Z" id="Path"></path>
                </g>
            </g>
        </g>
    </g>
</svg>