<?xml version="1.0" encoding="utf-8"?>
<!-- Generator: Adobe Illustrator 18.0.0, SVG Export Plug-In . SVG Version: 6.00 Build 0)  -->
<!DOCTYPE svg PUBLIC "-//W3C//DTD SVG 1.1//EN" "http://www.w3.org/Graphics/SVG/1.1/DTD/svg11.dtd">
<svg version="1.1" id="Layer_1" xmlns="http://www.w3.org/2000/svg" xmlns:xlink="http://www.w3.org/1999/xlink" x="0px" y="0px"
	 viewBox="0 0 48 48" enable-background="new 0 0 48 48" xml:space="preserve">
<g>
	<path fill="#010101" d="M48,15.9H30v-1.5c0-5,4-9,9-9s9,4,9,9V15.9z M32,13.9h14c-0.3-3.6-3.3-6.5-7-6.5S32.3,10.3,32,13.9z"/>
	<path fill="#010101" d="M39,6c-1.2,0-2.2-1-2.2-2.2c0-1.2,1-2.2,2.2-2.2s2.2,1,2.2,2.2C41.2,5,40.2,6,39,6z M39,3.6
		c-0.1,0-0.2,0.1-0.2,0.2c0,0.2,0.4,0.2,0.4,0C39.2,3.7,39.1,3.6,39,3.6z"/>
	<path fill="#010101" d="M16.2,11.2c-3.1,0-5.6-2.5-5.6-5.6S13.1,0,16.2,0c3.1,0,5.6,2.5,5.6,5.6S19.3,11.2,16.2,11.2z M16.2,2
		c-2,0-3.6,1.6-3.6,3.6s1.6,3.6,3.6,3.6s3.6-1.6,3.6-3.6S18.2,2,16.2,2z"/>
	<path fill="#010101" d="M23.4,48h-6.5V33.8H16V48H9.5V19.1H9.4L6.6,26c-0.8,1.7-2,2.5-3.5,2.5c-0.4,0-0.8-0.1-1.1-0.1
		c-0.7-0.1-1.3-0.5-1.6-1.1c-0.5-0.8-0.6-1.8-0.2-2.8c1.2-3.6,3-9,3.3-9.9v0l0.1-0.2c0.8-2,4.3-2.8,7.4-2.8h2.7l2.6,7.6l2.6-7.6h2
		c0.3,0,7.6,0,7.8,3c0.1,0.3,0.4,1.8,0.7,3.1c0.1-0.1,0.2-0.1,0.3-0.2c0.4-0.3,0.8-0.5,1.5-1c1.1-0.8,2.8-0.6,3.8,0.4
		c0.8,0.9,0.8,1.8,0.8,2.3c-0.1,0.8-0.5,1.5-1.2,1.9c-0.8,0.6-2.6,2-3.8,2.9c-0.7,0.6-1.3,1-1.4,1.1L29.2,25
		c-0.6,0.3-1.1,0.4-1.7,0.4c0,0,0,0,0,0c-1.3,0-2.5-0.8-3-1.5l-0.1-0.2l-1.1-3V48z M18.9,46h2.5V17.1h2.9l2,5.7
		c0.2,0.2,0.6,0.6,1.2,0.6l0,0c0.2,0,0.5-0.1,0.8-0.2c0.2-0.1,0.6-0.5,1.2-0.9c1.3-1,3-2.3,3.9-2.9c0.1-0.1,0.3-0.3,0.3-0.6
		c0-0.2-0.1-0.4-0.3-0.7c-0.2-0.2-0.8-0.3-1.1-0.1c-0.7,0.5-1.1,0.8-1.5,1.1c-0.4,0.3-0.8,0.5-1.5,1L28.2,21l-0.3-1.4
		c-0.9-3.9-1.1-4.6-1.1-4.8c-0.4-0.4-2.6-1.2-5.8-1.2h-0.6l-4,11.8l-4-11.8H11c-3.2,0-5.3,0.9-5.6,1.6l0,0c-0.2,0.7-0.9,2.7-3.3,10
		c-0.1,0.5-0.1,0.9,0,1.2c0.1,0.1,0.2,0.2,0.3,0.2c0.2,0,0.4,0.1,0.7,0.1c0.5,0,1.1-0.2,1.6-1.3L8,17.1h3.5V46H14V31.8h4.9V46z"/>
</g>
</svg>
