<svg xmlns="http://www.w3.org/2000/svg" width="16.018" height="15.887" viewBox="0 0 16.018 15.887"><g fill="#fff"><path data-name="Path 52" d="M14.293 7.293l-6.285 6.195-6.285-6.2a1.016 1.016 0 0 0-1.428 0 .994.994 0 0 0 0 1.414l7 6.9a1.046 1.046 0 0 0 1.429 0l7-6.9a.994.994 0 0 0 0-1.414 1.019 1.019 0 0 0-1.431.005z"/><path data-name="Path 53" d="M7.294 8.606a1.046 1.046 0 0 0 1.429 0l7-6.9a.994.994 0 0 0 0-1.414 1.016 1.016 0 0 0-1.428 0L8.008 6.488 1.723.293a1.016 1.016 0 0 0-1.428 0 .994.994 0 0 0 0 1.414z"/></g></svg>