<?xml version="1.0" encoding="UTF-8"?>
<svg width="179px" height="150px" viewBox="0 0 179 150" version="1.1" xmlns="http://www.w3.org/2000/svg" xmlns:xlink="http://www.w3.org/1999/xlink">
    <!-- Generator: Sketch 61 (89581) - https://sketch.com -->
    <title>iconfinder_3_3838838</title>
    <desc>Created with Sketch.</desc>
    <g id="Page-1" stroke="none" stroke-width="1" fill="none" fill-rule="evenodd">
        <g id="Artboard" transform="translate(-826.000000, -458.000000)" fill="#1A1A1A">
            <g id="iconfinder_3_3838838" transform="translate(826.000000, 458.000000)">
                <path d="M11.0974867,150 C-15.635976,68.2771123 11.0974867,5.15229039 36.8761829,5.15229039 C59.1995336,5.15229039 96.7082185,-14.1245369 89.4792719,21.8950747 C83.8416029,49.7242972 179,27.4609192 179,94.2963041 C179,116.559682 170.952682,117.962456 179,150 C171.543728,150 166.6335,150 159.177228,150 C159.177228,133.392968 152.266537,121.808771 155.085372,150 L132.170975,150 C162.268853,117.193193 73.0663807,67.6436015 100.66368,150 C93.2074079,150 85.751136,150 78.249399,150 C86.4785772,94.2963041 -12.0897004,-0.413554126 22.3273596,150 C18.5537586,150 14.8256226,150 11.0974867,150 Z M35.6031609,37.6423421 C22.8274754,31.2619837 29.2835158,28.7731915 35.9668814,29.6329561 C48.242451,31.2619837 43.832339,41.760162 35.6031609,37.6423421 Z" id="Shape"></path>
            </g>
        </g>
    </g>
</svg>