<svg xmlns="http://www.w3.org/2000/svg" width="141.78" height="36.24" viewBox="0 0 141.78 36.24"><path data-name="Path 61" d="M90.85 27.44l-.06-26.1h-3.47v-.4h12.78v.4h-3.47l.08 28.62c.77 3.28 2.13 5.77 6.79 5.8a8.98 8.98 0 0 0 9-6.56V1.34h-3.96V.96H141l.06 12.53h-.3c-.61-8.1-3.73-11.15-9.2-12.04a44.562 44.562 0 0 0-6.34-.1v16c2.17.16 4.48.02 6.04-1.31 1.42-1.22 1.82-4.03 1.92-5.17h.28v13.92h-.3c-.09 0-.2-3.5-1.9-5.15a6.61 6.61 0 0 0-6.04-1.68v17.09c3.04 0 5.46.25 7.57-.32 6.4-1.76 8.65-7.15 8.63-12.57h.36v13.29h-25.47v-.4h2.88V1.34h-6.22V29.2c-.7 2.66-3.29 7.07-9.89 7.04-6.14-.03-12.23-2.8-12.24-8.8zm-31.48-9.82C59.33 8.52 66.63.44 72.8.04a16.623 16.623 0 0 1 6.78 1.6c1.21.52 3.7-.24 4.13-1.64h.24v12.4h-.24c0-.52-2.3-12.04-10.9-12.04-6.37 0-6.98 11.17-6.98 17.26s.19 18.15 7.6 18.15c3.6 0 6.26-1.57 6.95-4.75v-9.67h-3.01v-.41h11.7v.41h-2.9v14.14h-.23a2.8 2.8 0 0 0-2.85-2.04c-3.04.01-5.9 2.65-9.4 2.62-9.25-.08-14.28-9.34-14.32-18.45zM41.35.15c-8.27.06-15.02 9.24-15.02 17.26 0 8.42 4.95 18.7 15.02 18.67s15.3-11.1 15.3-18.67c0-8.37-7.04-17.3-15.3-17.25zm0 .32c6.91 0 8.78 7.63 8.78 16.93 0 12.26-2.25 18.31-8.78 18.3s-8.66-4.96-8.66-18.3c0-8.36 1.74-16.93 8.66-16.93zm-37.71.91H0V.97h12.75v.4h-3.2l9.12 24.75c2.85-8.77 5.06-15.26 8.03-24.74h-3.16V.97h6.73v.4h-3.06L16.12 35.91z" fill="#fff" fill-rule="evenodd"/></svg>