<svg xmlns="http://www.w3.org/2000/svg" width="102.569" height="39.251" viewBox="0 0 102.569 39.251"><g fill="#fff"><path data-name="Subtraction 2" d="M19.476 20.294a6.261 6.261 0 0 1-4.436-1.827 6.426 6.426 0 0 1-1.8-4.44 11 11 0 0 1 7.331-10.52 3.847 3.847 0 0 1 1.233-.2 6.529 6.529 0 0 1 3.387 1.149.4.4 0 0 0 .223.079c.216 0 .37-.241.506-.453a2.151 2.151 0 0 1 .151-.216l.7-.03c-.127.471-.234.959-.337 1.43-.068.31-.137.627-.212.94a15.952 15.952 0 0 0-.34 1.86l-.68.03a14.323 14.323 0 0 0-.55-2.27l-.026-.04a3.483 3.483 0 0 0-1.454-1.49 3.246 3.246 0 0 0-1.181-.222 3.262 3.262 0 0 0-2.679 1.4 8.551 8.551 0 0 0-.865 1.927l-.015.043a63.405 63.405 0 0 0-1.67 7.233l-.14.736c-.008.1-.018.195-.027.294-.1 1.106-.223 2.359.657 3.156a4.189 4.189 0 0 0 2.394.685 5.5 5.5 0 0 0 1.206-.135 5.877 5.877 0 0 0 3.99-3.9l.741-.05-.18.52c-.047.33-.117.66-.184.979-.047.223-.1.452-.136.681l-.24.99c-.069.419-.12.842-.169 1.252v.008l-.67.11-.3-.64-.4-.26-.6.3a6.746 6.746 0 0 1-1.834.731 6.294 6.294 0 0 1-1.394.16zm80.34 0a4.14 4.14 0 0 1-1.706-.365 3.575 3.575 0 0 1-1.55-1.66 7.724 7.724 0 0 1-.5-2.45 22.876 22.876 0 0 0-.58-3.44c-.326-.711-1.047-.809-1.777-.809h-.743l-.08.45c-.291 1.256-.549 2.539-.8 3.78-.213 1.061-.432 2.154-.672 3.23l-.03.239h2.03l-.07.661c-1.23-.01-2.48-.01-3.688-.01s-2.456 0-3.681-.01l.18-.64h1.939c.454-2.383.951-4.79 1.432-7.119.52-2.516 1.056-5.114 1.538-7.681l-2.1-.01.21-.63v-.01c.707-.006 1.436-.009 2.228-.009h4.452a8.8 8.8 0 0 1 4.5.85 2.985 2.985 0 0 1 1.381 2.77 3.807 3.807 0 0 1-2.14 3.4 7.606 7.606 0 0 1-2.96.76l-.16-.229a.454.454 0 0 0 .22.3c.135.077.276.152.413.224a4.83 4.83 0 0 1 1.236.826 5.221 5.221 0 0 1 .826 1.216l.007.013.117.211c.114.574.2 1.167.292 1.74v.008l.106.683a4.887 4.887 0 0 1 .013.732c-.02.647-.04 1.316.527 1.718a1.19 1.19 0 0 0 .664.178 3.916 3.916 0 0 0 .814-.119c.137-.03.265-.058.392-.079l.05.55a4.141 4.141 0 0 1-2.33.73zm-6.462-9.378c.221 0 .448.005.662.01h.089c.19 0 .387.008.582.008a6.334 6.334 0 0 0 1.793-.208 3.454 3.454 0 0 0 1.507-2.209l.093-.26a10.391 10.391 0 0 0 .23-3.29 4.062 4.062 0 0 0-2.209-.5c-.28 0-.564.011-.839.023-.239.01-.485.02-.723.021-.4 1.713-.8 3.6-1.26 5.95l-.16.46h.1zM49.549 20.29a6.522 6.522 0 0 1-3.91-1.311 7.006 7.006 0 0 1-1.8-2.37 10.66 10.66 0 0 1-.292-4.761v-.019c.109-.289.2-.593.293-.887v-.009c.035-.112.069-.224.1-.334l.409-1a11.8 11.8 0 0 1 5.2-5.36l-.01.01a7.273 7.273 0 0 1 3.325-.809 7.229 7.229 0 0 1 2.124.319 5.6 5.6 0 0 1 3.55 3.84 10.071 10.071 0 0 1-1.5 7.86 12.636 12.636 0 0 1-4.649 4.17 6.51 6.51 0 0 1-2.84.659zm3.142-16.168A3.655 3.655 0 0 0 49.2 6.198h.01a40.4 40.4 0 0 0-1.8 6.662c-.141.672-.287 1.368-.441 2.048a9.918 9.918 0 0 0-.25 3.17 2.287 2.287 0 0 0 1.371 1.3 4.322 4.322 0 0 0 1.366.221 4.369 4.369 0 0 0 2.594-.86 6.07 6.07 0 0 0 1.563-3.094l.036-.126c.589-2.19 1.114-4.435 1.561-6.67.028-.2.062-.4.094-.6v-.006a6.477 6.477 0 0 0 .054-2.793c-.263-.964-1.376-1.2-2.19-1.3a4.377 4.377 0 0 0-.477-.029zM6.217 20.289a5.389 5.389 0 0 1-1.687-.27 6.12 6.12 0 0 1-1.73-.923c-.176-.12-.358-.244-.54-.358a4.356 4.356 0 0 0-1.159.98h-.7c.156-.679.308-1.374.456-2.045v-.014c.193-.877.392-1.784.6-2.67l.56.049a5.253 5.253 0 0 0 1.3 3.361 4.332 4.332 0 0 0 2.937 1.112 3.8 3.8 0 0 0 2.7-1.043 2.9 2.9 0 0 0 .877-2.106 2.331 2.331 0 0 0-.738-1.733 12.907 12.907 0 0 0-2.349-1.548 11.4 11.4 0 0 1-2.641-1.823 3.625 3.625 0 0 1-.9-2.62 5.77 5.77 0 0 1 2.2-4.54l-.01-.01A4.409 4.409 0 0 1 8.038 3.2a4.348 4.348 0 0 1 1.886.427 3.287 3.287 0 0 1 .654.429 2.4 2.4 0 0 0 .906.512 4.3 4.3 0 0 0 .609-.589l.1-.111.769-.06a83.9 83.9 0 0 1-.269 1.16c-.225.951-.458 1.933-.6 2.911l-.69.06a4.367 4.367 0 0 0-.8-2.79 3.108 3.108 0 0 0-2.53-1.2 2.965 2.965 0 0 0-2.45 1.175 1.931 1.931 0 0 0 .13 2.63 12.553 12.553 0 0 0 2.239 1.4 10.522 10.522 0 0 1 2.611 1.747 4 4 0 0 1 1.2 2.9 6.391 6.391 0 0 1-2.1 5.2 5.407 5.407 0 0 1-3.486 1.287zm79.124-.311h-13.13l.13-.7h1.841l3.049-14.8h-2.139l.149-.63c1.361-.017 2.8-.024 4.661-.024h4.515c1.361 0 2.4 0 3.378-.01l-.159.777-.063.3v.006a120.54 120.54 0 0 0-.687 3.512l-.62-.111a17.578 17.578 0 0 1-.045-.515c-.081-1.026-.173-2.188-1.105-2.8a4.8 4.8 0 0 0-2.358-.48c-.258 0-.517.008-.767.015s-.5.015-.766.015c-.238 0-.447-.007-.639-.021-.251 1.117-.479 2.252-.7 3.349s-.45 2.235-.7 3.351c.131 0 .265.005.406.01.179.005.359.011.539.011a2.208 2.208 0 0 0 2.1-.881 2.847 2.847 0 0 0 .425-.787c.2-.485.407-.986.986-1.113-.293 2.039-.751 4.073-1.194 6.04l-.126.559-.58.15a8.1 8.1 0 0 1 .031-.929 2.949 2.949 0 0 0-.451-2.311 2.866 2.866 0 0 0-1.026-.155c-.188 0-.378.009-.561.018s-.38.018-.566.018h-.126l-1.49 7.43h2.266c.651 0 1.183-.005 1.674-.017a3.5 3.5 0 0 0 2.54-1.5 14.96 14.96 0 0 0 1.63-2.7l.71-.06-.241 1.182v.01a316.6 316.6 0 0 1-.786 3.777zm-25.507-.046c-.35 0-.707 0-1.052-.006h-.227c-.4 0-.829-.008-1.247-.008h-.414l.04-.519c.151-.015.305-.019.468-.023a2.1 2.1 0 0 0 1.351-.337 3.139 3.139 0 0 0 .606-1.374l.073-.272 2.26-10.759a6.767 6.767 0 0 0 .22-1.9 6.634 6.634 0 0 0-1.73-.291l.1-.6c1.23-.013 2.154-.019 3-.019.877 0 1.673.006 2.433.019l.9 2.107.008.018c1.193 2.788 2.426 5.67 3.651 8.5.259-1.2.535-2.415.8-3.589.423-1.862.859-3.782 1.238-5.681-.021-.631-.56-.718-1.14-.718h-.493c-.1 0-.173 0-.237-.009l.13-.64h4.59l-.19.62a3.382 3.382 0 0 1-.528.037c-.532.011-1.083.022-1.251.573-.687 3.091-1.358 6.24-2.006 9.286l-.009.042c-.367 1.724-.782 3.677-1.186 5.542h-.85c-.851-2-1.727-4.039-2.573-6.007l-.013-.03-.008-.019a961.455 961.455 0 0 1-3.686-8.645 351.846 351.846 0 0 0-1.4 6.492c-.422 2.013-.857 4.093-1.318 6.128l-.025.136v.006a1.784 1.784 0 0 0 .006 1.039 1.678 1.678 0 0 0 1.221.311 4 4 0 0 1 .579.028 6.303 6.303 0 0 0-.186.349c-.035.07-.068.134-.094.181-.546.02-1.115.031-1.815.031zm-31.983 0c-.931 0-1.762 0-2.54-.014l.2-.58a6.872 6.872 0 0 1 .984-.07 6.986 6.986 0 0 0 1-.071v-.014c.049-.374.1-.76.178-1.145.173-.726.322-1.469.466-2.187v-.012c.105-.525.214-1.067.332-1.6l.22-1c.184-.949.388-1.906.581-2.8l.21-.98c.049-.268.105-.541.16-.8v-.005c.057-.276.117-.562.169-.85.06-.233.109-.468.157-.7l.1-.474.018-.086c.064-.3.13-.613.212-.914.047-.353.1-.749.13-1.15l-2.059-.01.03-.6h-.01a110.15 110.15 0 0 1 3.555-.049c.809 0 1.632.005 2.428.01h.1l1.453.008-.031.63h-.279c-.68 0-1.25.007-1.821.039l-.1 1.12c-.09.3-.165.607-.237.905l-.023.095c-.072.339-.124.69-.17 1-.071.262-.118.533-.164.795v.012l-.034.194c-.048.191-.089.382-.129.567v.01c-.043.2-.087.4-.138.6-.09.532-.2 1.084-.31 1.6l.526.006c.822.009 1.673.018 2.509.018 1.039 0 1.905-.014 2.725-.043a19.12 19.12 0 0 1 .329-1.9c.086-.41.174-.834.242-1.254.123-.554.28-1.283.4-2.011.121-.536.257-1.141.36-1.74a35.515 35.515 0 0 0-1.023-.012H37.53l.021-.62a140.16 140.16 0 0 1 3.436-.036c.875 0 1.79.005 2.6.01l1.367.007-.02.63-1.95.01a144.59 144.59 0 0 1-.99 4.74l-.008.045c-.057.311-.115.63-.192.935-.162.856-.35 1.752-.59 2.821a15.92 15.92 0 0 1-.2 1 16.42 16.42 0 0 1-.21.98c-.081.451-.176.9-.269 1.344s-.183.871-.261 1.306l-.36 1.63h2.039l-.02.651h-7.42l.03-.641h1.98l.07-.47c.059-.191.106-.39.152-.581s.1-.405.158-.6l.1-.81c.05-.175.092-.357.133-.534.05-.218.1-.442.168-.656.1-.678.247-1.362.387-2.023.109-.513.221-1.043.312-1.567-.646-.014-1.36-.021-2.246-.021-.556 0-1.121 0-1.667.005h-.043c-.545 0-1.11.005-1.663.005-.041.177-.081.356-.12.534v.008c-.075.337-.153.686-.238 1.027a16.05 16.05 0 0 1-.2 1 22.961 22.961 0 0 1-.4 1.811c-.046.3-.1.651-.18 1l-.249 1-.09.869h2.08l-.041.63h-.289c-.759 0-1.517 0-2.25.006h-.045c-.822.012-1.671.015-2.502.015zm27.482-16.96c-.259 0-.921-.107-1.463-1.093.012-.084.021-.169.03-.252a1.7 1.7 0 0 1 .459-1.208A1.376 1.376 0 0 1 55.37.005a1.451 1.451 0 0 1 1.2.6 1.419 1.419 0 0 1 .159 1.491 1.342 1.342 0 0 1-1.159.849 1.286 1.286 0 0 1-.24.026zm-4.3 0a1.308 1.308 0 0 1-.507-.1 1.413 1.413 0 0 1-.923-1.358 1.4 1.4 0 0 1 .833-1.393v.011a1.4 1.4 0 0 1 .59-.127 1.6 1.6 0 0 1 1.13.477 1.274 1.274 0 0 1 .37.95 1.305 1.305 0 0 1-.345 1.017 1.574 1.574 0 0 1-1.144.519z"/><path data-name="Subtraction 1" d="M24.944 39.252a6.86 6.86 0 0 1-1.954-.284 5.973 5.973 0 0 1-3.94-4.03 9.53 9.53 0 0 1 .551-5.95 11.8 11.8 0 0 1 5.719-5.91 7.2 7.2 0 0 1 3.023-.66 7.248 7.248 0 0 1 2 .28 5.7 5.7 0 0 1 3.7 3.97c.027.174.05.35.073.52.046.341.093.693.167 1.04v.62c-.05.328-.086.662-.121.985s-.07.648-.119.975l-.02.063a19.839 19.839 0 0 1-.83 2.337 12.9 12.9 0 0 1-4.84 5.14 6.877 6.877 0 0 1-3.409.904zm3.2-16.168a3.854 3.854 0 0 0-3.494 1.944v.01l-.25.76a31.14 31.14 0 0 0-1.14 4.039l-.17.811-.22.98c-.082.471-.191.95-.3 1.413a11.539 11.539 0 0 0-.425 3.607 1.729 1.729 0 0 0 .94 1.5 4.3 4.3 0 0 0 1.849.421 4.284 4.284 0 0 0 2.082-.542 3.677 3.677 0 0 0 1.58-2.01l.069-.209c.065-.2.127-.389.2-.581.079-.274.156-.553.231-.822V34.4c.123-.445.25-.9.387-1.352l.09-.63.291-.99c.1-.554.231-1.123.409-1.79.12-.641.255-1.307.4-1.98a12.269 12.269 0 0 1 .22-1.36c.027-.468.041-.972.041-1.54-.051-.1-.1-.205-.142-.307a1.619 1.619 0 0 0-.658-.883 4.238 4.238 0 0 0-1.99-.484zM7.05 38.628c.164-2.4.275-4.79.37-7.019l-5.92 6.97-.619-.03c.178-2.688.328-5.417.473-8.057v-.021c.132-2.407.269-4.9.426-7.341H0l.09-.64H.1c1.5 0 3.07 0 4.455-.007h.083c1.435 0 2.918-.006 4.377-.006 2.583 0 4.692.01 6.636.033a9.063 9.063 0 0 0-.067.2 8.48 8.48 0 0 1-.134.379 9.624 9.624 0 0 1-1 .056h-.2c-.366.444-.736.9-1.093 1.339l-.018.023c-.553.68-1.124 1.384-1.7 2.068-.038.05-.081.1-.119.147a1.052 1.052 0 0 0-.331.683 144.885 144.885 0 0 0-.43 6.6l6.27-8.43c.1-.133.2-.266.3-.395a6.576 6.576 0 0 0 1.109-1.815 4.5 4.5 0 0 0-1.509-.27l.04-.6a71.249 71.249 0 0 1 2-.024c.615 0 1.258.005 1.825.01h.575l-.05.4-.339.17a1.9 1.9 0 0 0-1.6.67c-3.609 4.7-7.329 9.662-10.319 13.648-.116.142-.222.293-.324.438a4.005 4.005 0 0 1-.617.744 9.39 9.39 0 0 1-.869.07zm-2.01-15.5c-.084 1.6-.2 3.225-.31 4.8-.141 1.987-.286 4.041-.37 6.062a167.55 167.55 0 0 1 3.2-3.927c.1-2.267.249-4.569.393-6.795v-.014l.008-.124h-2.92zm92.28 15.459l-.859-.049c-.211-.553-.448-1.1-.678-1.634l-.3-.706-1.1-2.55-1.9-4.441-2.27-5.3c-.316 1.235-.577 2.5-.83 3.73v.012c-.161.785-.328 1.6-.508 2.388-.187.87-.374 1.756-.554 2.614v.008a441 441 0 0 1-.814 3.809 5.007 5.007 0 0 0-.1 1.23 3.869 3.869 0 0 0 1.76.3l-.049.58h-4.8v-.519a4.915 4.915 0 0 1 .522-.04 1.866 1.866 0 0 0 1.267-.361 3.324 3.324 0 0 0 .631-1.5v-.012c.027-.113.056-.23.086-.341l2.181-10.35c.03-.151.062-.3.094-.453a9.71 9.71 0 0 0 .226-1.388c-.27-.455-.79-.47-1.293-.484a3.563 3.563 0 0 1-.577-.046l.018-.058c.085-.274.173-.558.457-.558a.532.532 0 0 1 .126.016c.5-.006 1.051-.009 1.677-.009h3.344c.225.567.477 1.136.721 1.686.094.211.187.422.279.634l.52 1.24.68 1.57 1.2 2.8c.086.2.18.416.262.6.147.335.3.681.437 1.027l.471 1.07c.175-.939.4-1.889.609-2.808l.2-.872c.12-.595.254-1.2.4-1.8a34.97 34.97 0 0 1 .4-1.79l.034-.149a8.118 8.118 0 0 0 .305-2.371 4.792 4.792 0 0 0-1.653-.218h-.157l.05-.589c.7-.031 1.408-.045 2.179-.045s1.588.014 2.56.045l-.3.589a6.243 6.243 0 0 0-1.65.24c-.043.2-.089.4-.135.6-.081.36-.165.73-.235 1.1a14.63 14.63 0 0 0-.2.97 36.436 36.436 0 0 0-.4 1.82l-.22.98-.381 1.82-.013.057c-.133.571-.27 1.162-.377 1.763-.277 1.22-.553 2.5-.82 3.79l-.126.583a63.928 63.928 0 0 1-.394 1.756zm-59.54 0c-1.3 0-2.366-.025-3.34-.078l.35-.54a8.363 8.363 0 0 1 1.107-.049h.038c.231 0 .47 0 .706-.011v-.021c.058-.407.119-.826.217-1.229.062-.29.122-.586.18-.873.13-.642.264-1.3.43-1.947l.12-.81.109-.425c.061-.241.123-.487.192-.725l.09-.66.28-1.181.021-.112c.053-.292.108-.595.179-.887.091-.5.2-1 .3-1.482.08-.372.163-.756.237-1.138.049-.2.088-.408.125-.607.024-.128.048-.257.075-.383.041-.159.08-.327.114-.475.054-.232.11-.471.176-.705l.1-1.12H38.53c-.43 0-.758 0-1.064-.012l.25-.6v.01a75.985 75.985 0 0 1 3.161-.055c.621 0 1.249 0 1.856.008h.236c.556 0 1.131.007 1.7.007h.441l-.04.63-1.97.01c-.194.765-.347 1.552-.5 2.313a48.416 48.416 0 0 1-.415 1.986c-.03.14-.057.285-.081.413-.036.191-.073.389-.12.588l-.044.216v.017c-.051.249-.1.5-.172.757l-.09.66h3.324c.908 0 1.607-.008 2.266-.025a1.921 1.921 0 0 0 .258-.744c.019-.1.038-.193.063-.287.194-1.062.411-2.134.62-3.17.181-.9.368-1.819.539-2.729h-.836c-.384 0-.838 0-1.293-.022l.17-.58a66.72 66.72 0 0 1 3.02-.057c.514 0 1.036 0 1.542.006h.018c.522 0 1.061.006 1.6.006.427 0 .81 0 1.171-.006l-.059.641h-.339c-.481 0-1.046 0-1.592.019-.274 1.378-.568 2.775-.852 4.126-.36 1.71-.732 3.477-1.067 5.224l-.07.11c-.194 1.158-.447 2.323-.691 3.45-.134.615-.271 1.25-.4 1.88h2.06l-.041.64h-7.43c0-.193.018-.4.04-.63h1.96l.18-.68.14-.82c.188-.81.354-1.642.515-2.445.113-.565.23-1.148.354-1.725l.32-1.57c-.954-.016-1.9-.018-2.783-.018h-2.848l-.35 1.54-.009.048c-.056.313-.115.637-.191.952l-.074.353v.015c-.041.2-.083.413-.133.612l-.37 1.82-.083.354c-.049.215-.1.433-.157.645l-.13.91h2.1l-.05.63h-.126c-.686 0-1.4.007-2.028.013-.706.016-1.439.023-2.156.023zm14.869-.009l.071-.529a7.24 7.24 0 0 1 .431-.023 1.976 1.976 0 0 0 1.418-.406 4.014 4.014 0 0 0 .6-1.533l.073-.3 2.12-10.12c.028-.131.057-.263.087-.394a6.547 6.547 0 0 0 .234-1.916 7.716 7.716 0 0 0-1.8-.26l.2-.62h5.37c.825 1.9 1.65 3.821 2.448 5.681.692 1.615 1.409 3.284 2.121 4.929.327-1.4.646-2.833.954-4.218v-.018c.218-.982.444-2 .672-2.993.043-.224.1-.452.147-.671a6.77 6.77 0 0 0 .253-1.839 5.7 5.7 0 0 0-1.65-.243h-.19l.09-.619a151.67 151.67 0 0 1 1.954-.012c.839 0 1.686.005 2.626.012l-.139.619a8.558 8.558 0 0 0-1.67.211 18.184 18.184 0 0 0-.474 1.919c-.062.3-.126.6-.2.9a900.581 900.581 0 0 1-1.132 5.3l-.007.034v.006c-.5 2.318-1.015 4.716-1.5 7.075l-.869.02q-.942-2.195-1.878-4.39l-.025-.059-.012-.029c-1.433-3.354-2.914-6.821-4.395-10.222a916.925 916.925 0 0 1-1.786 8.466v.022c-.282 1.317-.6 2.81-.909 4.261l-.017.112v.009c-.066.41-.148.92.279 1.119a2.7 2.7 0 0 0 .93.115h.092c.124 0 .252 0 .377.005l-.03.57c-.827.015-1.627.017-2.367.017h-2.494zm17.092 0l.1-.639 1.849-.01c.536-2.728 1.112-5.5 1.669-8.173l.008-.037a949.66 949.66 0 0 0 1.354-6.59h-2.1l.09-.63h-.01a1258.518 1258.518 0 0 1 12.55-.009c-.18 1.015-.391 2.042-.595 3.036v.009c-.1.492-.2 1-.3 1.5l-.6-.03c-.012-.138-.021-.277-.031-.424-.076-1.109-.161-2.366-1.179-2.976a5.873 5.873 0 0 0-2.635-.473c-.237 0-.476 0-.706.009s-.481.01-.714.01c-.155 0-.293 0-.425-.006-.184.92-.383 1.877-.558 2.722v.019c-.272 1.31-.553 2.664-.808 4h.888a3.417 3.417 0 0 0 1.512-.263 4.248 4.248 0 0 0 1.361-2.072l.007-.017.111-.27h.006c.166 0 .475-.033.615-.05l-1.35 6.52h-.64c0-.241.021-.493.039-.736a3.751 3.751 0 0 0-.279-2.223 1.728 1.728 0 0 0-1.184-.35c-.155 0-.318.008-.462.015s-.311.016-.464.016c-.1 0-.195 0-.28-.011-.335 1.482-.631 3-.917 4.464-.194.991-.393 2.016-.6 3.016h.008c.385 0 .778 0 1.159.008h.02c.391 0 .795.009 1.2.009.646 0 1.173-.012 1.659-.037a3.356 3.356 0 0 0 2.229-1.26 14.266 14.266 0 0 0 1.86-2.96l.67.02c-.122.657-.263 1.32-.4 1.961-.2.945-.41 1.922-.559 2.9-1.436.013-2.945.018-4.894.018h-5.339a174.02 174.02 0 0 0-2.935-.007z"/></g></svg>