<svg xmlns="http://www.w3.org/2000/svg" width="219.01" height="39" viewBox="0 0 219.01 39"><path data-name="Path 57" d="M14.2 9.3H9.69l.02-4.87-6.68 1V9.2L0 9.66v3h3.13l-.02 13.11a4.916 4.916 0 0 0 5.33 4.46c5.16-.3 5.6-.9 6.06-1.2-.03.03 0-2.56 0-2.56l-2.8.08a2.075 2.075 0 0 1-1.84-1.88L9.81 12.7l4.39.03V9.3zM23.9 0l-9.02 1.3.02 1.75 2.4 1.08.02 22.78-2.27.9.03 1.87 11.06.01v-1.85l-2.23-.98.01-13.47a7.97 7.97 0 0 1 3-.57c1.75 0 2.56 1.13 2.56 1.83V26.9l-2.04.91v1.88h11.03v-1.8l-2.27-1.12v-13.8s.06-4.4-4.97-4.17a11.06 11.06 0 0 0-7.34 2.7zm33.63 20.04c.26-4.5-.2-11.66-9.17-11.23-8.79.42-9.9 7.22-9.84 11.61.5 7.1 4.12 9.74 10.92 9.84 5.37-.18 7.32-3.04 7.32-3.04V25.3a19.966 19.966 0 0 1-5.18.74c-6.27-.04-6.2-6-6.2-6h12.15zm-12.16-2.4a19.11 19.11 0 0 1 .53-4.73 2.412 2.412 0 0 1 2.44-1.95c1.77 0 2.21 1 2.41 2.23a24.445 24.445 0 0 1 .22 4.2l-5.6.26z" fill="#fff" fill-rule="evenodd"/><path data-name="Path 58" d="M74.55 25.28h-8a1.4 1.4 0 0 1-1.25-1.36 1.47 1.47 0 0 1 .81-1.55 13.7 13.7 0 0 0 3.5.52c1.78 0 8.79-.75 8.79-6.89a5.81 5.81 0 0 0-2.17-4.38l3.88 1.05-.07-4.03-5.6 1.05a18.1 18.1 0 0 0-4.96-1.07c-1.39 0-8.55.55-8.81 6.91a6.544 6.544 0 0 0 3.53 6.17c-.02 0-3.56 2.22-3.59 4.98-.02 2.65 2.97 3.47 3.2 3.52-.3 0-4.88.87-4.88 4.13 0 3.12 5.1 4.64 10.5 4.67s11.34-1.52 11.34-8c0-6.46-6.22-5.72-6.22-5.72zm-5.12-14.21c2.48-.02 2.5 2.59 2.5 3.68v1.95s.34 3.5-2.29 3.52-2.54-2.04-2.54-3.52v-2.3s-.16-3.32 2.33-3.33zm.01 25.45c-3.7 0-5.02-1.52-5.02-2.99a2.478 2.478 0 0 1 .9-2.07l8.02-.01s1.6.18 1.6 1.6c0 2.17-1.8 3.47-5.5 3.47zM89.77 8.76l-9.03 1.42v1.78l2.32 1.13v11.47s.12 5.64 5.59 5.7a8.316 8.316 0 0 0 6.65-3.07v3.02l8.74-1.06v-1.62l-2.23-1.3V8.8l-8.98 1.42v1.7l2.37 1.21V25.4a5.044 5.044 0 0 1-2.58.67 3.091 3.091 0 0 1-2.85-1.73V8.76zm16.11 1.47a27.392 27.392 0 0 1 7.86-1.59c3.55 0 8.69 1.23 8.69 5.7V26.7l2.2 1.17v1.47a8.759 8.759 0 0 1-3.88.86c-2.3 0-4.3-1.19-4.3-2.97-.5 0-.69 2.93-6.1 2.93-6.3 0-5.82-5.65-5.82-5.76a5.04 5.04 0 0 1 4.42-5.1c4.54-.88 6.65-1.22 6.65-1.22l-.02-4.16s-.38-2.52-2.52-2.5-2.13.04-2.13.04l-1.51 4.17h-3.55l.01-5.41zm9.89 15.58v-5.62s-4.52-.4-4.53 3.26c0 2.76 1.7 3.08 2.48 3.08a4.221 4.221 0 0 0 2.05-.72zm18.09-17.24l-8.82 1.4v1.86l2.27 1.1v13.8l-2.1 1.1v1.74h11.6V27.9l-2.77-1.13.01-11.39a10.964 10.964 0 0 1 3.55-.71 13.446 13.446 0 0 1 2.67.2V8.9s-3.77-1.2-6.45 4.14l.04-4.47zm17.46-6.8v1.8l2.22 1.08v4.89a8.76 8.76 0 0 0-3.43-.75c-1.87 0-9.53.3-9.75 10.94s7.97 10.5 7.9 10.5 3.74.1 5.47-2.15l-.01 2.14 8.66-1.07v-1.73l-2.09-1.08-.01-25.99-8.96 1.42zm2.2 10.56v13.83a4.7 4.7 0 0 1-2.04.37c-2.16 0-4-1.5-3.98-6.3.01-4.18.62-7.48 2.43-8.34a3.58 3.58 0 0 1 3.6.44zm18.73-8.59a3.685 3.685 0 1 1-7.37 0 3.685 3.685 0 1 1 7.37 0zm-.16 4.92l-9.15 1.31v1.78l2.4 1.19v13.81l-2.2 1v1.9h11.02v-1.81l-2.1-1.03.03-18.15zm4.18 1.55a27.3 27.3 0 0 1 7.86-1.59c3.55 0 8.68 1.22 8.68 5.69v12.38l2.2 1.16v1.48a8.687 8.687 0 0 1-3.87.86c-2.3 0-4.3-1.19-4.3-2.97-.51 0-.7 2.93-6.1 2.93-6.3 0-5.82-5.65-5.82-5.76a5.033 5.033 0 0 1 4.41-5.1c4.55-.88 6.65-1.23 6.65-1.23l-.02-4.15s-.37-2.52-2.52-2.5-2.12.04-2.12.04l-1.52 4.17h-3.55l.02-5.41zm9.88 15.57v-5.61s-4.52-.41-4.53 3.25c0 2.76 1.7 3.08 2.49 3.08a3.991 3.991 0 0 0 2.04-.72zM204.33 8.6l-9 1.45v1.73l2.43 1.16v13.92l-2.22.9v1.93h11.01v-1.9l-2.04-.98V13.35a6.881 6.881 0 0 1 2.7-.52c1.61 0 2.86.72 2.86 2.32v11.66l-2.26 1.12-.01 1.71h11.21v-1.83l-2.19-.93V13.97s.16-5.16-5.02-5.16-7.44 2.76-7.44 2.76z" fill="#fff" fill-rule="evenodd"/></svg>