<svg xmlns="http://www.w3.org/2000/svg" width="122.83" height="35.55" viewBox="0 0 122.83 35.55"><path data-name="Path 54" d="M66.55 22.98c0 3.86-4.73 3.63-4.73 3.63h-4.74v-6.98h4.74c4.87-.03 4.73 3.35 4.73 3.35zm-9.47-14h3.61c3.75.2 3.6 3.04 3.6 3.04 0 3.52-4.13 3.57-4.13 3.57h-3.08V9zm8.6 7.99a5.665 5.665 0 0 0 3.21-5.13s.5-6.09-7.46-6.83h-8.82v25.55h10.11s8.45.03 8.45-7.21c0 0 .2-4.92-5.5-6.38zM42.83 0h37.15v35.55H42.84V0zM23.71 22.98c0 3.86-4.73 3.63-4.73 3.63h-4.73v-6.98h4.73c4.87-.03 4.73 3.35 4.73 3.35zm-9.46-14h3.6c3.75.2 3.6 3.04 3.6 3.04 0 3.52-4.13 3.57-4.13 3.57h-3.07V9zm8.59 7.99a5.665 5.665 0 0 0 3.21-5.13s.5-6.09-7.46-6.83H9.77v25.55h10.11s8.45.03 8.45-7.21c0 0 .2-4.92-5.5-6.38zM0 0h37.15v35.55H0zm115.25 6.84v4.72a21.118 21.118 0 0 0-9.55-2.9s-9.35-.18-9.78 9.12c0 0-.33 8.54 9.67 9.03 0 0 4.2.52 9.89-3.18v4.9a19.844 19.844 0 0 1-16.49 1.06 12.923 12.923 0 0 1-7.72-11.81 13.034 13.034 0 0 1 9.61-12.4 17.543 17.543 0 0 1 7.41-.57 26.289 26.289 0 0 1 6.96 2.03zM85.68 35.55h37.15V0H85.68v35.55z" fill="#fff" fill-rule="evenodd"/></svg>