<svg xmlns="http://www.w3.org/2000/svg" width="281.74" height="35.94" viewBox="0 0 281.74 35.94"><path data-name="Path 66" d="M276.33 26.91v-5.77c-.68-.32-1.84-.87-2.51-1.21l-5.56 5.73.04.04a6.85 6.85 0 0 1 3.58-.94 6.684 6.684 0 0 1 4.38 2.19zm5.4-2.25a39.006 39.006 0 0 0-8.77 5.2 5.87 5.87 0 0 0-4.09-1.87c-1.63 0-2.36.59-2.36 1.15 0 .34.68.29.68.78a.514.514 0 0 1-.5.5c-.39 0-.76-.56-.76-1.25 0-1.29.58-2.42 2.62-4.55l3.58-3.73q-2.384-1.175-4.83-2.22v-.18a.875.875 0 0 0 .6-.86v-3.08a1.049 1.049 0 0 0-.6-1v-.15a43.7 43.7 0 0 0 9.03-4.76 4.858 4.858 0 0 0 3.15 1.68c1.16 0 1.44-.56 1.44-.97 0-.23-.44-.36-.44-.71 0-.31.17-.43.4-.43.34 0 .64.31.64.96a4.745 4.745 0 0 1-4.76 4.41 4.55 4.55 0 0 1-3.98-2.11l-.07.03v4.8l2.65 1.3 1.18-1.26a48.662 48.662 0 0 0 5.2 2.76v.1a1.067 1.067 0 0 0-.61 1.01v3.4a1 1 0 0 0 .6.9v.15zm-20.06-7.28c-1-1.4-2.94-4.08-4.05-5.73l-.1.03v8.28zm4.34-2.18l-8.5 5.3v3.62a42.694 42.694 0 0 1 4.77 2.47l1.83-1.9c.5-.52.35-1.4 1.07-1.4a.4.4 0 0 1 .43.43.8.8 0 0 1-.36.61l-5.55 5.52a63 63 0 0 0-7.63-3.8v-.14c.3-.11.64-.32.64-1.11V14.73c0-.83-.3-1.12-.64-1.18v-.15a43.61 43.61 0 0 0 9.31-4.73q2.2 3.347 4.63 6.53zm-59.06 10.6V7.6l-.83.03a21.5 21.5 0 0 1-4.76-.86 10.8 10.8 0 0 0-9 10.86c0 5.66 4.03 9.28 9.75 9.28a9.763 9.763 0 0 0 4.84-1.1zm4.94-23.08c0 2.89-2.2 4.44-4.58 4.8v18.03c2.9-1.61 3.83-3.4 3.83-4.23 0-.18-.36-.42-.36-.75a.463.463 0 0 1 .43-.47c.33 0 .47.3.47.83 0 4.2-4.02 9.85-12.54 9.85a11.7 11.7 0 0 1-11.83-11.54c0-9.24 7.74-12.43 13.11-12.75a39.213 39.213 0 0 0-7.74-1.11c-3.04 0-5.55 1.79-5.55 3.4 0 .6.5.72.5 1.15 0 .23-.1.53-.43.53-.5 0-.57-.46-.57-.86 0-3.5 2.16-8.56 7.45-8.56 5.37 0 9.44 1.93 13.62 1.93 2.76 0 3.58-.96 3.48-2.58l.46.18a7.11 7.11 0 0 1 .25 2.15zm-39.13 24.2v-5.78c-.68-.32-1.84-.87-2.5-1.21l-5.56 5.73.03.04a6.85 6.85 0 0 1 3.59-.94 6.682 6.682 0 0 1 4.37 2.19l.07-.04zm5.41-2.26a38.639 38.639 0 0 0-8.78 5.2 5.87 5.87 0 0 0-4.08-1.87c-1.64 0-2.37.59-2.37 1.15 0 .34.68.29.68.78a.514.514 0 0 1-.5.5c-.38 0-.75-.56-.75-1.25 0-1.29.57-2.42 2.61-4.55l3.59-3.73q-2.389-1.175-4.84-2.22v-.18a.875.875 0 0 0 .6-.86v-3.08a1.049 1.049 0 0 0-.6-1v-.15a43.71 43.71 0 0 0 9.03-4.76 4.858 4.858 0 0 0 3.15 1.68c1.17 0 1.44-.56 1.44-.97 0-.23-.43-.36-.43-.71 0-.31.16-.43.4-.43.33 0 .64.31.64.96a4.8 4.8 0 0 1-4.77 4.48 4.628 4.628 0 0 1-3.98-2.18l-.07.03v4.8l2.65 1.3 1.18-1.26a48.666 48.666 0 0 0 5.2 2.76v.1a1.061 1.061 0 0 0-.6 1.01v3.4a1 1 0 0 0 .6.9v.15zm-20.07-7.28c-1-1.4-2.94-4.08-4.05-5.73l-.1.03v8.28l4.15-2.58zm4.34-2.18l-8.5 5.3v3.62a42.694 42.694 0 0 1 4.77 2.47l1.83-1.9c.5-.52.36-1.4 1.07-1.4a.394.394 0 0 1 .43.43.822.822 0 0 1-.35.61l-5.56 5.52a63.021 63.021 0 0 0-7.63-3.8v-.14c.3-.11.64-.32.64-1.11V14.73c0-.83-.3-1.12-.64-1.18v-.15a43.6 43.6 0 0 0 9.32-4.73q2.193 3.346 4.62 6.53zm-28.6 2.18c-1-1.4-2.94-4.08-4.05-5.73l-.1.03v8.28l4.15-2.58zm4.34-2.18l-8.5 5.3v3.62a42.694 42.694 0 0 1 4.77 2.47l1.83-1.9c.5-.52.35-1.4 1.07-1.4a.4.4 0 0 1 .43.43.8.8 0 0 1-.36.61l-5.55 5.52a62.96 62.96 0 0 0-7.63-3.8v-.14c.3-.11.64-.32.64-1.11V14.73c0-.83-.3-1.12-.64-1.18v-.15a43.6 43.6 0 0 0 9.31-4.73c1.44 2.15 3.27 4.8 4.63 6.53zm-21.9 11.43v-11.5a38.859 38.859 0 0 1-5.23-3.7l-.07.04v12.58a34.058 34.058 0 0 1 4.9 2.9zm6.74 1.61c-.12 4.55-2.38 7.7-6.63 7.7-3.33 0-5.76-1.72-8.78-1.72a3.917 3.917 0 0 0-3.23 1.19l-.21-.15a5.146 5.146 0 0 1 5.48-5.12c3.29 0 5.7 2.11 9.18 2.11 2.22 0 3.36-1.18 3.58-2.36l-.04-.07a3.582 3.582 0 0 1-1.97.64 4.08 4.08 0 0 1-4.05-3.44c-.85.6-2.78 2.1-3.62 2.83a64.4 64.4 0 0 0-7.13-3.8v-.14a1 1 0 0 0 .57-.97V14.7c0-.6-.22-1.07-.64-1.14v-.15a38.64 38.64 0 0 0 9.07-4.8 70.122 70.122 0 0 0 7.13 4.62v.18c-.43.18-.65.47-.65 1.44V25.9c0 1.42.12 2.4 1.15 2.4a.821.821 0 0 0 .54-.32l.25.25zM74.78 18.06L71.1 6.74l-4.05 11.32h7.74zm10.61 7.6l-4.55 4.2q-2.089-1.488-4.27-2.84v-.18a1.008 1.008 0 0 0 .61-1 2.57 2.57 0 0 0-.1-.65l-1.4-4.37h-9.64l-1.3 3.66a10.609 10.609 0 0 1 4.3.79l.76-1.4.47.25-3.12 5.77a8.95 8.95 0 0 0-4.44-1.33 6.248 6.248 0 0 0-4.16 1.22c-.15.14-.37.09-.29-.21a6.643 6.643 0 0 1 5.99-5.06L70.9 6.06c-.78-2.29-1.68-2.8-3.37-2.8-1.57 0-3.11.72-3.11 2.65 0 .9.86.82.86 1.47a.514.514 0 0 1-.5.5c-.58 0-.97-.78-.97-2.29A5.275 5.275 0 0 1 69.25.18a4.7 4.7 0 0 1 4.38 2.08 2.355 2.355 0 0 1 2-1.61l.11.14a2.768 2.768 0 0 0-.75 1.86 6.535 6.535 0 0 0 .4 1.58l7.23 20.96 1.4.94 1-.9.36.43zm-36.9 1.25v-5.77c-.68-.32-1.84-.87-2.51-1.21l-5.56 5.73.04.04a6.85 6.85 0 0 1 3.58-.94 6.684 6.684 0 0 1 4.38 2.19l.07-.04zm5.4-2.25a39.006 39.006 0 0 0-8.77 5.2 5.87 5.87 0 0 0-4.09-1.87c-1.63 0-2.36.59-2.36 1.15 0 .34.68.29.68.78a.514.514 0 0 1-.5.5c-.39 0-.76-.56-.76-1.25 0-1.29.57-2.42 2.62-4.55l3.58-3.73q-2.385-1.175-4.83-2.22v-.18a.888.888 0 0 0 .6-.86v-3.08a1.049 1.049 0 0 0-.6-1v-.15a43.7 43.7 0 0 0 9.03-4.76 4.858 4.858 0 0 0 3.15 1.68c1.16 0 1.43-.56 1.43-.97 0-.23-.43-.36-.43-.71 0-.31.17-.43.4-.43.34 0 .64.31.64.96a4.8 4.8 0 0 1-4.76 4.48 4.616 4.616 0 0 1-3.98-2.18l-.07.03v4.8l2.65 1.3 1.18-1.26a48.9 48.9 0 0 0 5.2 2.76v.1a1.067 1.067 0 0 0-.61 1.01v3.4a1 1 0 0 0 .6.9v.15zM32 27.02v-11.9a36.29 36.29 0 0 1-5.23-3.69l-.07.04V23.5a36.088 36.088 0 0 1 5.23 3.55l.07-.04zm5.45-2.36a41.738 41.738 0 0 0-9.03 5.2q-3.474-2.515-7.17-4.7v-.11c.5-.18.65-.57.65-1.18v-9.03c0-.83-.22-1.15-.65-1.3v-.14a41.8 41.8 0 0 0 9.07-4.76q3.463 2.464 7.13 4.62v.14a1.145 1.145 0 0 0-.65 1.15v8.96c0 .64.26.9.65 1v.15zm-24.87-1.22V6.63a6.966 6.966 0 0 1-4.52-2.87L5.81 5.6a17.052 17.052 0 0 0 1.6 6.81 17.894 17.894 0 0 1 1.7 5.95c0 2.74-1.51 4.48-5.13 7.88l.1.11a15.94 15.94 0 0 1 8.5-2.9zm8.35.43l-3.3 6.09a13.857 13.857 0 0 0-7.3-2.08c-4.95 0-8.36.9-10.11 2L0 29.65a10.344 10.344 0 0 0 4.2-8.6 18.1 18.1 0 0 0-1.48-6.1 11.609 11.609 0 0 1-1.25-5.3C1.47 5.2 3.85 2.68 7.6.79l.28.36a5.92 5.92 0 0 0-2.07 3.87L11.79 0c1.53 2.16 2.98 2.97 4.87 2.97 1.56 0 2.01-.67 2.01-1.21 0-.4-.54-.48-.54-.86a.432.432 0 0 1 .47-.47c.47 0 .6.61.6 1.08a5.179 5.179 0 0 1-5.08 5.26 8.413 8.413 0 0 1-1.18-.03v16.7a16.041 16.041 0 0 1 6.7 1.68l.82-1.47.47.22zm230.81 2.04c-1.14.97-3.33 2.9-4.4 3.94-1-.9-3.09-2.54-4.38-3.47v-.15c.38-.12.65-.48.65-1.32v-9.97c-1.04-.75-3.08-2.04-4.2-2.76l-.78.69V25.4l1.75 1.29s-2.43 2.11-3.5 3.15a46.023 46.023 0 0 0-3.7-2.97v-.15c.37-.12.64-.48.64-1.32V14.94c-1.03-.75-3.08-2.04-4.19-2.76l-.97.83v12.4l1.76 1.29s-2.37 1.98-3.51 3.12c-1.08-.97-2.26-1.85-3.7-2.94v-.1a1.287 1.287 0 0 0 .65-1.23v-12l-1.54-1.37-.97.83-.36-.4c1.08-.9 2.87-2.47 4.41-3.94l3.26 2.94v.83l4.45-3.77c1.4 1 5.52 3.62 5.52 3.62l4.26-3.62a71.2 71.2 0 0 0 6.2 4.02v.14c-.57.15-.65.9-.65 1.29v10.79l1.98 1.47.93-.86.4.39z" fill="#fff" fill-rule="evenodd"/><path data-name="Path 67" d="M221.14 4.77c-1.15 1.6-2.08 2.36-3.94 2.36a4.17 4.17 0 0 1-3.23-1.9l-.9.83-.35-.43 4.37-3.91c1.25 2.54 2.76 2.94 3.98 2.9zm1.07 21.14q-2.259 1.9-4.4 3.94-2.112-1.806-4.34-3.47v-.11a1.265 1.265 0 0 0 .64-1.22v-11.5l-1.54-1.37-.96.83-.36-.4c1.07-.9 2.86-2.47 4.4-3.94l3.91 3.48v.14c-.46.15-.64.44-.64 1.5v11.12l1.97 1.43.93-.82.4.39zm-74.57 0q-2.259 1.9-4.4 3.94-2.117-1.806-4.35-3.47v-.11a1.271 1.271 0 0 0 .65-1.22V6.45L138 5.09l-.97.82-.36-.4c1.08-.89 2.62-2.46 4.16-3.93l4.16 3.47v.15c-.47.14-.65.43-.65 1.5v18.2l1.97 1.44.93-.82.4.39zm-42.93 0c-1.15.97-3.34 2.9-4.41 3.94-1-.9-3.05-2.54-4.34-3.47v-.15c.37-.12.65-.48.65-1.32v-9.97c-1.04-.75-3.09-2.04-4.2-2.76l-.96.83v12.4l1.75 1.29s-2.37 1.98-3.51 3.12c-1.07-.97-2.26-1.85-3.7-2.94v-.1a1.27 1.27 0 0 0 .65-1.23v-12l-1.54-1.37-.96.83-.36-.4c1.07-.9 2.86-2.47 4.4-3.94l3.27 2.94v.83l4.44-3.77a70.551 70.551 0 0 0 6.16 4.02v.14c-.57.15-.64.9-.64 1.29v10.79l1.97 1.47.93-.86.4.39z" fill="#fff" fill-rule="evenodd"/><path data-name="Path 68" d="M279.77 12.15V12a6.14 6.14 0 0 1-2.08.53 4.56 4.56 0 0 1-3.98-1.9l-.72.47a4.381 4.381 0 0 0 3.95 2.08 4.991 4.991 0 0 0 2.83-1.04zm-6.92 8.03q-2.057-1.03-4.2-1.87v-.07c.28-.15.33-.47.33-.9v-2.86a1.7 1.7 0 0 0-.46-1.22l-.65.25a1.429 1.429 0 0 1 .4.83v3.22a.958.958 0 0 1-.4.93v.07q2.319.94 4.55 2.08l.43-.46zm4.55 6.3v-6.05c-.63-.26-2.11-.93-2.8-1.33l-.5.54c.72.32 1.87.9 2.59 1.25v5.99l.71-.4zm-14.69-9.67q-2.186-2.959-4.27-5.99l-.68.36c1.19 1.72 3.23 4.62 4.3 6.02l.65-.4zm10.82 12.04a5.8 5.8 0 0 0-3.8-1.76 3.2 3.2 0 0 0-2.04.58v.14a3.941 3.941 0 0 1 1.18-.14 5.6 5.6 0 0 1 4.09 1.68zM260.1 29a43.381 43.381 0 0 0-6.67-3.3v-.08c.27-.15.36-.55.36-1.29v-9.78c0-.79-.25-1.04-.5-1.22l-.61.22a1.321 1.321 0 0 1 .39 1.1V25.1a.827.827 0 0 1-.4.82v.07a55.408 55.408 0 0 1 7 3.48l.42-.47zm-12.26-.08q-1.686-1.447-3.51-2.72v-.07c.26-.16.35-.6.35-1.33V14.23c-1.25-.83-3.04-2.01-4.3-2.87l-.64.57c1.22.76 3.15 2.01 4.23 2.76v10.15c0 .9-.07 1.29-.47 1.43v.07a36.772 36.772 0 0 1 3.8 3.12l.54-.54zm-10.47-.04a21.5 21.5 0 0 0-2.83-2.18v-.07c.27-.16.36-.6.36-1.33V14.23c-1.25-.83-3.05-2.01-4.3-2.87l-.64.57c1.21.76 3.15 2.01 4.22 2.76v10.65c0 .9-.07 1.29-.46 1.43v.07a31.206 31.206 0 0 1 3.15 2.55l.5-.5zm-18.3-22.5v-.14a4.62 4.62 0 0 1-4.1-1.9l-.68.6a3.946 3.946 0 0 0 3.05 1.83 3.8 3.8 0 0 0 1.72-.4zm8.34 22.5a26.2 26.2 0 0 0-2.83-2.18v-.07a1.259 1.259 0 0 0 .36-1.08V13.01l-1.8-1.65-.57.54 1.65 1.47v12.22c0 .57-.05.95-.43 1.18v.07a38.862 38.862 0 0 1 3.12 2.55l.5-.5zm-9.1.04a39.852 39.852 0 0 0-3.48-2.72v-.07a1.259 1.259 0 0 0 .36-1.08V13.01l-1.76-1.61-.57.53 1.61 1.44v11.72c0 .57-.04.95-.43 1.18v.07q1.949 1.46 3.77 3.08l.5-.5zm-7.85-23.3l-.07-.2a6.024 6.024 0 0 1-3.8 1.03c-4.17 0-7.35-2.3-13.44-2.3a4.548 4.548 0 0 0-2.87 1.05l.04.18a5.83 5.83 0 0 1 2.44-.4c6.27 0 9.73 2.22 13.33 2.22a5.884 5.884 0 0 0 4.37-1.57zm-3.94 22.98l-.07-.22a17 17 0 0 1-6.92 1.11 10.54 10.54 0 0 1-10.75-10.75 13.1 13.1 0 0 1 2.72-8.17l-.18-.07a11.39 11.39 0 0 0-3.47 8.64 11.267 11.267 0 0 0 11.36 11.18 14.965 14.965 0 0 0 7.3-1.72zM176.2 12.15V12a6.3 6.3 0 0 1-2.08.6 4.6 4.6 0 0 1-3.98-1.97l-.71.47a4.4 4.4 0 0 0 3.94 2.15 4.989 4.989 0 0 0 2.83-1.11zm-6.92 8.03q-2.052-1.029-4.19-1.87v-.07c.27-.15.32-.47.32-.9v-2.86a1.7 1.7 0 0 0-.46-1.22l-.65.25a1.429 1.429 0 0 1 .4.83v3.22a.959.959 0 0 1-.4.93v.07c1.15.47 3.05 1.3 4.55 2.08zm4.56 6.3v-6.05a29.311 29.311 0 0 1-2.8-1.33l-.5.54c.71.32 1.86.9 2.58 1.25v5.99l.72-.4zm-14.7-9.67q-2.181-2.958-4.26-5.99l-.68.36c1.18 1.72 3.22 4.62 4.3 6.02l.64-.4zm10.82 12.04a5.8 5.8 0 0 0-3.8-1.76 3.2 3.2 0 0 0-2.04.58v.14a3.969 3.969 0 0 1 1.19-.14 5.6 5.6 0 0 1 4.08 1.68l.57-.5zm-13.4.11a61.3 61.3 0 0 0-6.7-3.26v-.08c.27-.15.36-.55.36-1.29v-9.78c0-.79-.25-1.04-.5-1.22l-.61.22a1.32 1.32 0 0 1 .4 1.1V25.1a.844.844 0 0 1-.4.82v.07a63.892 63.892 0 0 1 6.99 3.48l.46-.5zm-12.83-.04a39.848 39.848 0 0 0-3.47-2.72v-.07c.26-.2.35-.54.35-1.08V5.91l-1.79-1.65-.57.54 1.65 1.47V25.1c0 .57-.05.95-.43 1.18v.07c1.04.75 2.94 2.33 3.76 3.08l.5-.5zm-8.85-12.11q-2.181-2.959-4.26-5.99l-.69.36q2.089 3.053 4.3 6.02l.65-.4zm-2.58 12.15a70.2 70.2 0 0 0-6.7-3.3v-.07c.27-.16.36-.55.36-1.3v-9.74c0-.79-.25-1.04-.5-1.22l-.61.22a1.321 1.321 0 0 1 .39 1.1V25.1a.827.827 0 0 1-.4.82v.07a55.408 55.408 0 0 1 7 3.48l.46-.5zm-10.07.6v-.1a7.129 7.129 0 0 1-1.54.18 3.34 3.34 0 0 1-3.33-3.51V14.4a30.65 30.65 0 0 1-5.42-3.7l-.68.44a33.89 33.89 0 0 0 5.38 3.72v11.58a3.631 3.631 0 0 0 3.76 3.62 3.308 3.308 0 0 0 1.83-.5zm-8.93-.64q-3.077-1.818-6.3-3.37v-.07c.21-.22.25-.5.25-1.15v-9.67a1.758 1.758 0 0 0-.5-1.4l-.65.25c.34.19.43.65.43 1.22v10.25a.935.935 0 0 1-.32.86v.07a64.273 64.273 0 0 1 6.49 3.55l.6-.54zm7.5 4.91v-.21a5.89 5.89 0 0 1-4.05 1.29c-3.52 0-6.07-1.72-8.42-1.72a3.4 3.4 0 0 0-2.7.93v.1a6.1 6.1 0 0 1 2.27-.32c2.68 0 5.5 1.76 8.45 1.76a5.869 5.869 0 0 0 4.45-1.83zm-19.96-4.98q-1.722-1.428-3.52-2.76v-.07c.27-.16.36-.59.36-1.33V14.23c-1.25-.83-3.04-2.01-4.3-2.87l-.64.57c1.21.76 3.15 2.01 4.23 2.76v10.15c0 .9-.08 1.29-.47 1.43v.07c.9.68 2.72 2.08 3.8 3.05l.54-.54zm-10.65.03a26.24 26.24 0 0 0-2.83-2.18v-.07a1.259 1.259 0 0 0 .36-1.08V13.01l-1.8-1.65-.57.54L87 13.37v12.22c0 .57-.04.95-.43 1.18v.07a38.862 38.862 0 0 1 3.12 2.55l.5-.5zM76.14 18.06L72.02 5.38c-.73-2.26-1.75-3.16-3.65-3.12a4.514 4.514 0 0 0-2.4.68l-.04.25a4.25 4.25 0 0 1 1.72-.36c1.94 0 2.9.65 3.73 3.23l3.87 12h.9zm5.42 10.64c-.83-.6-2.51-1.71-3.37-2.22a1.031 1.031 0 0 0 .32-.71 3.574 3.574 0 0 0-.18-.86l-1.65-5.13H66.4l-.22.68H76l1.54 4.66a2.154 2.154 0 0 1 .1.75 1.1 1.1 0 0 1-.42.97 34.275 34.275 0 0 1 3.58 2.55l.76-.68m-14.12-.15a7.13 7.13 0 0 0-4.2-1.14 5.1 5.1 0 0 0-2.72.9l.04.13a11.069 11.069 0 0 1 2.18-.28 7.7 7.7 0 0 1 4.23 1.22l.47-.83zM51.93 12.22v-.14a6.14 6.14 0 0 1-2.08.53 4.6 4.6 0 0 1-3.98-1.97l-.72.47a4.431 4.431 0 0 0 3.95 2.15 4.991 4.991 0 0 0 2.83-1.04zM45 20.18q-2.057-1.03-4.2-1.87v-.07c.28-.15.33-.47.33-.9v-2.86a1.662 1.662 0 0 0-.47-1.22l-.64.25a1.429 1.429 0 0 1 .4.83v3.22a.958.958 0 0 1-.4.93v.07c1.15.47 3.05 1.3 4.55 2.08zm4.56 6.3v-6.05c-.63-.26-2.11-.93-2.8-1.33l-.5.54c.72.32 1.87.9 2.59 1.25v5.99l.71-.4zm-3.87 2.37a5.8 5.8 0 0 0-3.8-1.76 3.2 3.2 0 0 0-2.04.58v.14a3.941 3.941 0 0 1 1.18-.14 5.6 5.6 0 0 1 4.09 1.68zM33.08 26.4v-12a32.27 32.27 0 0 1-5.41-3.66l-.68.4a32.287 32.287 0 0 0 5.37 3.72V26.8zM16.9 5.45l-.03-.25a5.689 5.689 0 0 1-2.26.68 7.21 7.21 0 0 1-5.52-3.01l-.68.57a6.816 6.816 0 0 0 5.56 2.98 5.3 5.3 0 0 0 2.93-.97zm12.02 23.58a61.25 61.25 0 0 0-6.27-4.09v-.07c.22-.19.32-.5.32-1.11v-9.17a1.625 1.625 0 0 0-.5-1.33l-.65.25c.33.18.43.68.43 1.18v9.46a.993.993 0 0 1-.39.9v.07a66.9 66.9 0 0 1 6.56 4.3l.5-.4zm-23.47-8.5c0-4.06-2.87-7.2-2.87-11.57a9.467 9.467 0 0 1 .5-3.55l-.18.04a9.6 9.6 0 0 0-.93 4.19c0 4.45 2.65 6.88 2.65 11.25a8.809 8.809 0 0 1-.5 3.3h.22a6.46 6.46 0 0 0 1.1-3.66zm12.47 8.07a14.223 14.223 0 0 0-6.88-1.87 21.319 21.319 0 0 0-7.92 1.37v.21a28.465 28.465 0 0 1 7.38-.82 14.483 14.483 0 0 1 6.99 1.9l.43-.8" fill="rgba(0,0,0,0)" fill-rule="evenodd"/><path data-name="Path 69" d="M205.3 9.17a.361.361 0 0 1-.4.36c-.3 0-.57-.6-1.43-.6a2.448 2.448 0 0 0-2.33 2.43c0 3.33 3.3 4.7 3.3 8.5 0 3.18-3.12 5.02-6.34 5.44l-.61-.43c1.76-.23 2.61-.83 2.61-2.97 0-2.9-3-5.26-3-8.68 0-2.76 2.57-4.9 6.12-4.9a4.247 4.247 0 0 1 1.76.39.489.489 0 0 1 .32.46" fill="#fff" fill-rule="evenodd"/><path data-name="Path 70" d="M201.46 21.32c0-2.99-3.11-5.4-3.11-8.67a4.4 4.4 0 0 1 .57-2.36l-.18-.04a4.116 4.116 0 0 0-1.15 2.76c0 3.36 2.98 5.38 2.98 8.7a3.854 3.854 0 0 1-.79 2.52l.22.07a3.33 3.33 0 0 0 1.46-2.98" fill="rgba(0,0,0,0)" fill-rule="evenodd"/></svg>