<svg xmlns="http://www.w3.org/2000/svg" width="96.54" height="67.973" viewBox="0 0 96.54 67.973"><path d="M48.858 32.315a21.448 21.448 0 0 0 4.471-6.171 13.948 13.948 0 0 0-4.471-.943zm-1.1-.085a18.913 18.913 0 0 1-4.549-6.086 12.029 12.029 0 0 1 4.549-.943zm1.1-31.543a19.916 19.916 0 0 1 4.471 6.086 11.964 11.964 0 0 1-4.471.943zm-1.1 0a18.9 18.9 0 0 0-4.549 6.086 13.941 13.941 0 0 0 4.549.943zm1.1 23.315v-6.943h6.666a19.868 19.868 0 0 1-1.725 7.972 13.81 13.81 0 0 0-4.94-1.028zm14.508-6.944h-6.744a24.053 24.053 0 0 1-1.725 8.488 17.848 17.848 0 0 1 4 2.743 18.058 18.058 0 0 0 4.466-11.232zm-5.333 12a14.413 14.413 0 0 0-3.685-2.485 21.036 21.036 0 0 1-4.549 6.342 14.637 14.637 0 0 0 8.234-3.858zm-10.27-5.057v-6.943h-6.745a20.964 20.964 0 0 0 1.726 7.972 14.233 14.233 0 0 1 5.019-1.029zm-14.587-6.944h6.744a24.48 24.48 0 0 0 1.8 8.486 16.653 16.653 0 0 0-4.078 2.743 17.865 17.865 0 0 1-4.468-11.229zm5.333 12a13.62 13.62 0 0 1 3.685-2.485 21.052 21.052 0 0 0 4.548 6.342 14.638 14.638 0 0 1-8.235-3.857zM48.86 8.915v6.942h6.666A20.274 20.274 0 0 0 53.801 7.8a14.292 14.292 0 0 1-4.94 1.115zm14.508 6.942h-6.744a25.9 25.9 0 0 0-1.725-8.486 17.844 17.844 0 0 0 4-2.742 17.571 17.571 0 0 1 4.464 11.228zM58.035 3.771a13.955 13.955 0 0 1-3.685 2.572A22.152 22.152 0 0 0 49.801 0a14.522 14.522 0 0 1 8.232 3.771zM47.763 8.915v6.942h-6.745A22.134 22.134 0 0 1 42.744 7.8a14.32 14.32 0 0 0 5.019 1.115zm-14.587 6.942h6.744a23.68 23.68 0 0 1 1.8-8.486 16.65 16.65 0 0 1-4.078-2.742 17.442 17.442 0 0 0-4.468 11.228zm5.333-12.086a13.945 13.945 0 0 0 3.685 2.572A21.065 21.065 0 0 1 46.742 0a14.523 14.523 0 0 0-8.235 3.771zM0 21.946h30.115c1.1 6.086 4.94 11.144 12.625 14.658-.862 2.914-3.842 5.571-6.9 5.571H19.45c-2.51 0-4.471-2.313-5.255-4.2h16.626c1.019-.171 1.019-1.028.079-1.2H14.508c-2.117 0-4-1.972-5.1-4.114h18.979c1.019-.172 1.019-1.028 0-1.2H9.254c-1.96 0-3.685-2.487-4.391-4.116h21.018c1.019-.171 1.019-1.2 0-1.286H4.471c-1.725 0-3.294-1.97-4.47-4.113zm96.54 0H66.424c-1.1 6.086-4.94 11.144-12.625 14.658.862 2.914 3.842 5.571 6.9 5.571h16.39c2.509 0 4.47-2.313 5.255-4.2H65.718c-1.018-.171-1.018-1.028-.079-1.2H82.03c2.116 0 4-1.972 5.1-4.114H68.15c-1.02-.172-1.02-1.028 0-1.2h19.135c1.962 0 3.686-2.487 4.392-4.116H70.663c-1.02-.171-1.02-1.2 0-1.286h21.41c1.726 0 3.294-1.97 4.471-4.113zM62.583 67.973l9.645-21.6h6.353l4 21.6h-6.039l-.234-2.57h-6.352l-1.02 2.57zm8.939-7.028H75.6l-1.02-7.971zm-21.567 7.028l2.275-16.2h-5.646l.941-5.485h17.252l-.94 5.485h-5.333l-2.2 16.2zm-25.88 0l9.725-21.6h6.352l3.921 21.6h-5.88l-.393-2.57h-6.273l-1.02 2.57zm9.018-7.028h4.079l-1.1-7.971zm-19.371 7.028l3.922-21.6h6.431l-3.922 21.6h-6.431" fill="#fff"/></svg>