<svg viewBox="0 0 66 66" xmlns="http://www.w3.org/2000/svg"><path d="M64.9 19L60.3 6.6c-.2-.3-.6-.6-1-.6H6.7c-.4 0-.8.3-1 .6L1.1 19c-.1.3-.1.7.1.9.2.3.5.4.8.4h3.7V59c0 .6.4 1 1 1h52.7c.6 0 1-.4 1-1V20.4H64c.3 0 .6-.2.8-.4.2-.4.3-.7.1-1zM38 58H28v-9.1c0-2.8 2.2-5 5-5s5 2.2 5 5V58zm20.3 0H40v-9.1c0-3.9-3.1-7-7-7s-7 3.1-7 7V58H7.7V20.4h15c.2 0 .5-.1.6-.2l9.6-7.9 9.1 7.9c.2.2.4.2.7.2h15.8V58zM42.9 18.4l-9.4-8.2c-.4-.3-.9-.3-1.3 0l-10 8.2H3.4L7.4 8h51.3l3.9 10.4H42.9z"/><path d="M20.9 24.6h-9.4c-.6 0-1 .4-1 1v10.3c0 .6.4 1 1 1h9.4c.6 0 1-.4 1-1V25.6c0-.6-.5-1-1-1zm-1 10.3h-7.4v-8.3h7.4v8.3zm1 7.3h-9.4c-.6 0-1 .4-1 1v10.3c0 .6.4 1 1 1h9.4c.6 0 1-.4 1-1V43.2c0-.6-.5-1-1-1zm-1 10.3h-7.4v-8.3h7.4v8.3zm25.3-15.6h9.4c.6 0 1-.4 1-1V25.6c0-.6-.4-1-1-1h-9.4c-.6 0-1 .4-1 1v10.3c0 .5.4 1 1 1zm1-10.3h7.4v8.3h-7.4v-8.3zm-1 27.9h9.4c.6 0 1-.4 1-1V43.2c0-.6-.4-1-1-1h-9.4c-.6 0-1 .4-1 1v10.3c0 .5.4 1 1 1zm1-10.3h7.4v8.3h-7.4v-8.3zM33 19.6c-3.3 0-6 2.7-6 6s2.7 6 6 6 6-2.7 6-6-2.7-6-6-6zm0 10c-2.2 0-4-1.8-4-4s1.8-4 4-4 4 1.8 4 4-1.8 4-4 4z"/></svg>