<svg xmlns="http://www.w3.org/2000/svg" width="269.356" height="36.95" viewBox="0 0 269.356 36.95"><g fill="#fff" fill-rule="evenodd"><path data-name="Path 63" d="M21.77 1.03c-.25 2.46-3.07 6.09-6.38 6.27-3.41.12-7.04-3.2-10.6-3.08C2.89 4.3.66 5.1.57 7.46c-.02 1.9 1.55 2.77 3.94 2.74A6.783 6.783 0 0 0 8.6 8.82a5.24 5.24 0 0 1-4.1 2.4A4.309 4.309 0 0 1 0 7.24 7.03 7.03 0 0 1 7.11.32c4.48 0 8.07 2.78 10.6 2.84 1.78-.03 2.88-1 4.06-2.13"/><path data-name="Path 64" d="M16.86 11.36a2.182 2.182 0 0 1 2.06 2.25 2.14 2.14 0 0 1-2.07 2.09 1.873 1.873 0 0 1-1.57-3 2.333 2.333 0 0 0-1.22 2.73c1.6 1.23 3.89 3.14 3.44 6.35-.5 3.6-5.83 4.46-6.7 7.63-.93-2.25-2.36-3.31-4.2-3.29a4.741 4.741 0 0 0-4.9 4.38c.14 2.9 2 4.11 6.03 4.01a8.744 8.744 0 0 0 7.65-4.38 8.134 8.134 0 0 1-7.9 6.1c-5.1-.07-6.74-3.8-6.8-6.5a6.86 6.86 0 0 1 6.77-7.06c2.91-.03 4.15 1.3 5.86 3.06a4.546 4.546 0 0 0-.15-3.89c-1.97-3.37-5.22-2.68-5.97-6.85-.63-3.48 4.12-7.14 5.54-7.57-1.1 1.14-2.86 2.4-1.74 5.25.49 1.25 2.49 2.26 2.49 2.26-.03-1.07.9-3.6 3.38-3.57m3.89 1.97l2.6-3.66a4.467 4.467 0 0 1 3.15 2.85l2.11-2.77a2.214 2.214 0 0 0 3.78.15s-1.03 4.03-3.65 4.15a3.862 3.862 0 0 1-2-.74v11.1s-.2 1.28 1.6 1.69a31.169 31.169 0 0 0-3 3.66 26.506 26.506 0 0 0-3.37-3.36 1.535 1.535 0 0 0 .85-1.54V14.04s-.18-1.68-2.07-.7M39.5 9.78a21.644 21.644 0 0 1-5.42 3.3 2.722 2.722 0 0 0-1.91 2.55v10.11s-.46 1.94 3.58 4.13a20.2 20.2 0 0 1 2.81-3.75 4.531 4.531 0 0 0 2.96 3.55 8.189 8.189 0 0 1 2.46-3.35 2.362 2.362 0 0 1-1.8-2.36l-.03-9.88s-.09-.38.67-1.2l-3.32-3.1zm-2.64 2.64a1.939 1.939 0 0 0-1.06 1.97v9.67c-.03.87.5 1.9 1.4 1.9 1.26 0 1.26-1.4 1.26-1.4V14.5s.1-.96-1.6-2.09zM48.45 9.9q-1.4 1.975-2.96 3.83s1.81.23 1.74 1.55l.02 9.49c0 1.45-.92 1.52-.92 1.52a13.486 13.486 0 0 1 2.9 3.52 19.791 19.791 0 0 1 2.65-3.56s-.92.04-.92-1.58l-.03-9.36c.02-.56.75-1.47 1.37-1.47 1.29 0 1.53 1.04 1.5 1.85v9.7c-.02 1.3-.02 2.63 2.55 4.38a17.724 17.724 0 0 1 2.99-3.53 1.621 1.621 0 0 1-1.77-1.83l-.02-9.78s0-1.3.46-1.62a21.046 21.046 0 0 1-3.29-3.18l-3.7 4.1c-.65-3.54-2.57-4.03-2.57-4.03m20.54-7.02c-.37-.44-.85.23-.85.23l-1.9 2.33-.02-1.26a3.44 3.44 0 0 1 1.42-2.87s-2.91-.26-3.84 3.32a4.047 4.047 0 0 0-1.83-.62 3.108 3.108 0 0 1 .24 1.13v5.32h-.98v1.7h1.02l-.02 12.6a1.525 1.525 0 0 1-.87 1.48 10.574 10.574 0 0 1 3.08 3.87 8.387 8.387 0 0 1 3.7-3.71s-1.9-.4-1.93-1.87l.01-12.37h1.68v-1.7h-1.66v-.29l2.33-2.04c2.46-2.42 1.12-4.83.42-5.25zm-2.78 3.09v3.78s2.57-1.91 0-3.78zM77.97.57s-1.66 4.93-6.44 5.15l.01 4.45h-1.15v1.84h1.12l.02 24.94h.8v-4.76s-.08-2.08 1.2-2.3l1.1-.16a.91.91 0 0 0 .9-1.02l-.01-16.67 1.95-.02v-1.84h-1.88V4.55s4.75 4.03 6.46-3.6c0 0-1.92 3.1-4.08-.4"/><path data-name="Path 65" d="M82.17 9.8a12.351 12.351 0 0 1-2.98 3.18 1.677 1.677 0 0 1 1.3 1.67l.07 10.65c0 1.12-.72 1.35-.72 1.35a27.167 27.167 0 0 1 3.14 3.32 32.023 32.023 0 0 1 4.35-4.39c-.52 2.5 2.65 4.29 2.65 4.29l2.53-3.51a1.945 1.945 0 0 1-1.41-1.8l-.03-10.11a2.3 2.3 0 0 1 .75-1.72 6.392 6.392 0 0 1-2.55-3.13 9.1 9.1 0 0 1-2.89 3.41 1.948 1.948 0 0 1 .86 1.38l.02 9.73a1.713 1.713 0 0 1-1.56 1.81c-.88 0-1.31-1.06-1.38-1.53l-.06-10.72a5.233 5.233 0 0 0-2.09-3.89m12.27 3.7l2.63-3.68a4.926 4.926 0 0 1 2.55 2.95l1.6-2.98a1.517 1.517 0 0 0 2.74.18s.18 4.74-2.4 4.77a2.631 2.631 0 0 1-1.81-.96V24.4s-.26 2.08 2.13 1.95a11.926 11.926 0 0 0-3.21 3.56 19.733 19.733 0 0 0-3.65-3.31 1.534 1.534 0 0 0 1.06-1.43l-.03-9.9a1.714 1.714 0 0 0-1.6-1.78m11.72-3.12h-.79v1.94h.82l.04 13.08a1.519 1.519 0 0 1-.62 1.3 19.9 19.9 0 0 1 2.93 2.96 11.69 11.69 0 0 1 3.55-3.2s-2.08-.22-2.08-1.47l-.03-12.7 2.04.01v-1.92h-2.01l-.02-5.8-3.82 1.4-.01 4.4m15.01-.67a8.794 8.794 0 0 1-3.43 2.01c-1.58.84-3.78 1.4-3.76 4.36l.02 8.73c.03 3.71 3.11 3.97 4.97 4.98a15.118 15.118 0 0 1 3.95-4.3l-.41-.25a3.278 3.278 0 0 1-2.26 1 2.537 2.537 0 0 1-2.4-2.57v-3.8a17.183 17.183 0 0 0 4.79-3.1 3.056 3.056 0 0 0 1-2.32c.05-1.83-1.44-3.07-2.47-4.73zm-2.88 2.51s-.48.27-.44 2.43v4.88s5.05-2.02.44-7.3zm6.1.73a19.067 19.067 0 0 0 2.84-3.39s1.45.52 2.52 3.03a19.044 19.044 0 0 0 1.74-3.06s1.61 2.8 3.46 0c0 0-.4 4.74-3.1 5-1.05.1-2-1.26-2-1.26V24.1c0 1.77 2.16 2.06 2.16 2.06a8.863 8.863 0 0 0-3.33 3.48 26.735 26.735 0 0 0-3.3-3.32s.66-.13.71-1.28l.01-10.35a1.553 1.553 0 0 0-1.7-1.76m22.58-6.31a4.946 4.946 0 0 1-2.19.83 1.679 1.679 0 0 1-1.65-1.62c0-1.2 1.3-1.8 2.5-1.8 2.44 0 2.93 3.38 2.93 3.38l-5.71 16.39c-2.9.03-5.34 2.87-5.31 6.3.03 3.55 2.97 6.08 6.81 6.06 5.92-.04 7.67-5.62 7.67-5.62-1.16 1.21-2.27 3.92-7.79 3.9-2.76-.02-5.78-1.16-5.84-3.56a3.038 3.038 0 0 1 3.15-2.71 4.68 4.68 0 0 1 3.31 1.43l4.24-4.52-.33-.36-1.03 1.02a7.028 7.028 0 0 0-3.97-1.92l1.75-5.14 5.68.01 1.94 8.23c.6 2.15 1.76 1.6 3.71 3.05l2.15-4.37a1.8 1.8 0 0 1-2.2-1.46l-4.55-19.37S151.33 0 146.68 0c-2.68 0-5.1 1.81-5.1 4.6a3.36 3.36 0 0 0 3.25 3.36 2.712 2.712 0 0 0 2.16-1.34zm1.94 2.23l-2.9 8.47 4.84.01-1.94-8.48zm11.79 15.9c.04.87-1.23 1.27-1.23 1.27a26.225 26.225 0 0 1 3.32 3.88 8.437 8.437 0 0 1 3.31-3.56s-1.52-.11-1.52-1.36V2.03l-3.88 1.85v20.87m8.41-.11a1.9 1.9 0 0 1-.84 1.52 24.1 24.1 0 0 1 3 3.77 8.083 8.083 0 0 1 3.39-3.61s-1.68-.1-1.68-1.34V1.69l-3.87 2.2v20.75m15.66-15.16c-4.42 3.18-7.47 2.38-7.5 5.41l.03 10.78c0 1.98 1.59 3.04 3.3 4.16l3.12-3.68v2.04c-.02 2.39 1.76 2.26 1.73 4.57a2.536 2.536 0 0 1-2.75 2.53c-2.43-.01-3.04-1.39-3.04-1.39s.04.2.66.19a1.763 1.763 0 0 0 1.94-1.85 1.824 1.824 0 0 0-1.95-1.83 1.91 1.91 0 0 0-1.96 1.85c0 1.53.91 3.56 4.62 3.54 3.7 0 6.23-2.79 6.23-4.97 0-1.7-1.6-2.1-1.6-4.07l-.1-13.18a2.233 2.233 0 0 1 .67-1.42 14.81 14.81 0 0 1-3.4-2.68zm-1.1 4.39l-1.92-1.97s-.63.37-.64 1.97l.02 10.61c.06 1.13.45 1.63 1.4 1.6.86-.03 1.18-.5 1.18-1.68l-.02-10.54zm15.4-4.4a18.749 18.749 0 0 1-4.07 2.28c-3.5 1.22-3.55 1.7-3.55 4.32v8.89c0 3.98 3.11 3.4 5.11 4.83.44-1.99 3.22-4.32 3.22-4.32l-.15-.17a3.131 3.131 0 0 1-2.03.58 2.239 2.239 0 0 1-2.35-2.22V20.2a28.431 28.431 0 0 0 4.64-3.34 2.986 2.986 0 0 0 1-2.43c.06-1.83-.98-2.26-1.82-4.97zm-3.3 2.52s-.55.5-.52 2.65v5.16s4.72-1.63.51-7.81zm9.55-2.54l-3.09 3.67s1.8.12 1.8 1.38l.05 10.29c-.02 1.35-.6 1.66-.6 1.66a15.337 15.337 0 0 1 2.72 3.38 12.368 12.368 0 0 1 2.66-3.6 2.657 2.657 0 0 1-.84-1.7l-.03-9.34a1.429 1.429 0 0 1 1.25-1.32 1.236 1.236 0 0 1 1.26 1.2l.07 9.66a1.764 1.764 0 0 1-.57 1.37 23.423 23.423 0 0 1 2.4 3.82 10.24 10.24 0 0 1 2.86-3.7 2.758 2.758 0 0 1-.95-2.03l-.03-9.35a1.352 1.352 0 0 1 1.19-1.28 1.21 1.21 0 0 1 1.35 1.03l.08 11.34c0 1.87 1.56 2.78 3.2 3.76a10.468 10.468 0 0 1 2.6-3.75s-2.11.22-2.11-1.72l-.05-10.63a1.86 1.86 0 0 1 .74-1.38 11.613 11.613 0 0 1-3.55-2.73l-3.52 4.27c.16-2.23-2.45-4.21-2.45-4.21l-3.8 4.62c-.28-3.96-2.64-4.71-2.64-4.71m26.61-.03c-5.4 4.16-7 3.5-7 5.58v11c0 2.42 2.07 2.37 4.06 3.8a13.643 13.643 0 0 1 4.29-4.36l-.2-.21a3.637 3.637 0 0 1-2.17.69c-2.63-.05-2.35-2.26-2.35-2.26v-3.53a24.96 24.96 0 0 0 4.03-2.8 4.2 4.2 0 0 0 1.4-2.85c.1-1.96-1.1-2.44-2.06-5.06zm-3.25 2.75a8.721 8.721 0 0 0-.12 2.47v5.02c.56-.34 4.44-2.34.12-7.49zm38.73-2.87c-3.24 3.3-7.34 3.06-7.4 6.33l.01 10.36c.08 1.95 1.81 2.32 3.8 3.76a17.331 17.331 0 0 1 5.13-4.57l-.2-.21a5.7 5.7 0 0 1-2.84 1.2 2.134 2.134 0 0 1-2.26-2.51v-3.8a31.51 31.51 0 0 0 4.03-2.5 3.491 3.491 0 0 0 1.65-2.54c.09-1.97-.92-2.22-1.92-5.53zm-3.34 2.72s-.45.46-.42 2.62v4.84c2.26-.98 3.42-4.74.42-7.46zm-17.56-2.46l-2.56 3.41s1.91.28 1.84 1.6l.04 10.4c.03.48-.69 1.16-.69 1.16a12.2 12.2 0 0 1 2.3 3.55 20.853 20.853 0 0 1 3-3.55 1.843 1.843 0 0 1-.96-1.5v-9.4c.28-.83.79-1.37 1.44-1.4a1.215 1.215 0 0 1 1.26 1.19l.03 10.26a4.764 4.764 0 0 0 2.84 4.33l2.43-3.51s-1.58 0-1.61-1.2l-.04-10.94a2.451 2.451 0 0 1 .66-1.5 8.458 8.458 0 0 1-3.18-2.49l-3.72 4.1a4.62 4.62 0 0 0-3.08-4.5m-7.78.03a16.149 16.149 0 0 1-3.21 3.14s1.5.21 1.5 1.47v10.62a1.818 1.818 0 0 1-.86 1.44 19.817 19.817 0 0 1 2.53 3.41 23.778 23.778 0 0 1 2.84-3.45 1.787 1.787 0 0 1-.82-1.43l-.04-10.67a1.989 1.989 0 0 1 .82-1.5 17.8 17.8 0 0 1-2.76-3.03m-2.05-5.83a2.12 2.12 0 1 1 2.115 1.974A2.12 2.12 0 0 1 236.7 3.77"/></g></svg>