<svg xmlns="http://www.w3.org/2000/svg" width="120.31" height="36.851" viewBox="0 0 120.31 36.851"><path d="M4.53 11.981c0 1.45.4 1.6 2.05 1.68v.51H.02v-.51c1.36-.07 1.75-.23 1.75-1.68v-9.45c0-1.45-.4-1.6-1.72-1.67v-.53h11.59l.07 3.05h-.57c-.49-1.54-1.01-2.03-3.73-2.03h-2.1c-.63 0-.77.14-.77.71v4.38h2.37c2.16 0 2.63-.39 2.89-1.83h.53v4.89H9.8c-.29-1.63-1.1-2.04-2.9-2.04H4.55v4.52zm13.67 0c0 1.45.38 1.6 2.04 1.68v.51h-6.85v-.51c1.65-.07 2.03-.23 2.03-1.68v-9.45c0-1.45-.38-1.6-2.03-1.67v-.53h6.85v.53c-1.66.06-2.04.22-2.04 1.67zm16.33-9.06c0-1.34-.37-1.9-1.88-2.06v-.53h4.9v.53c-1.51.17-1.88.72-1.88 2.06v11.6h-.7l-9.44-10.94v8c0 1.35.36 1.9 1.87 2.07v.51h-4.9v-.51c1.52-.17 1.88-.72 1.88-2.07v-9.31A2.65 2.65 0 0 0 22.5.861v-.53h3.77l8.26 9.54zm7.4 6.3l2.08-5.49 2.06 5.48h-4.14zm9.92 4.95v-.51c-1.04.02-1.3-.43-1.83-1.74L45.15.001h-.67l-5.08 12.35a1.932 1.932 0 0 1-1.7 1.3v.52h4.4v-.51c-.95 0-1.42-.21-1.42-.88a12.656 12.656 0 0 1 .8-2.55h5.01a12.107 12.107 0 0 1 .84 2.55c0 .67-.5.88-1.47.88v.51h6zm13.44-11.25c0-1.34-.37-1.9-1.87-2.06v-.53h4.89v.53c-1.51.17-1.88.72-1.88 2.06v11.6h-.7l-9.44-10.94v8c0 1.35.37 1.9 1.87 2.07v.51h-4.89v-.51c1.51-.17 1.88-.72 1.88-2.07v-9.31a2.66 2.66 0 0 0-1.89-1.41v-.53h3.77l8.26 9.54zm17.5 8a6.567 6.567 0 0 1-6.22 3.6c-4.5 0-7.17-2.97-7.17-7.39a7.2 7.2 0 0 1 7.32-7.13 20.03 20.03 0 0 1 3.8.82c.41 0 .53-.22.87-.82h.69l.28 4.63h-.6c-.83-2.14-2.28-3.69-4.71-3.69-3.26 0-4.69 3.53-4.69 6.2 0 3.73 1.61 6.23 5.06 6.23a5.978 5.978 0 0 0 4.81-2.87l.55.42zm6.71 1.06c0 1.45.4 1.6 2.04 1.68v.51h-6.85v-.51c1.66-.07 2.04-.23 2.04-1.68v-9.45c0-1.45-.38-1.6-2.04-1.67v-.53h6.85v.53c-1.65.06-2.04.22-2.04 1.67zm7.72-2.77l2.08-5.48 2.06 5.48zm9.93 4.96v-.51c-1.04.02-1.3-.43-1.83-1.74L100.43.001h-.67l-5.08 12.35a1.908 1.908 0 0 1-1.69 1.3v.52h4.4v-.51c-.95 0-1.42-.21-1.42-.88a12.05 12.05 0 0 1 .8-2.55h5a12.107 12.107 0 0 1 .84 2.55c0 .67-.5.88-1.46.88v.51h6zm1.21 0v-.51c1.33-.06 1.72-.23 1.72-1.68v-9.45c0-1.45-.4-1.6-1.72-1.67v-.53h6.4v.53c-1.52.06-1.91.22-1.91 1.67v9.72c0 .84.24 1.12 1.8 1.12 2.48 0 3.95-.45 5.13-2.9h.53l-.94 3.7h-11zM3.06 36.001c1.57-.06 1.95-.23 1.95-1.67v-10.64h-1.7c-1.62 0-2.25.65-2.7 2.53H0l.33-3.54h12.15l.32 3.54h-.61c-.45-1.88-1.08-2.53-2.69-2.53H7.79v10.64c0 1.44.39 1.6 1.95 1.67v.52H3.06zm15.98-1.67c0 1.44.39 1.6 2.04 1.67v.52h-6.85v-.52c1.65-.06 2.04-.23 2.04-1.67v-9.46c0-1.44-.39-1.6-2.04-1.66v-.54h6.85v.54c-1.65.06-2.04.22-2.04 1.66zm16.6-11.65h4.76v.53c-1.32.06-1.7.22-1.7 1.66v9.46c0 1.44.38 1.6 1.7 1.67v.52h-6.24v-.52c1.37-.06 1.76-.23 1.76-1.67v-9.74h-.04l-4.63 12.1h-.63l-4.53-12.1h-.04v9.35c0 1.35.37 1.9 1.88 2.06v.52h-4.9v-.52c1.51-.17 1.88-.71 1.88-2.06v-9.4c0-.97-.4-1.33-1.87-1.33v-.53h5.03l3.7 9.6 3.86-9.6zm6.73 13.84v-.52c1.32-.06 1.71-.23 1.71-1.67v-9.46c0-1.44-.39-1.6-1.7-1.66v-.53h11.57l.08 3.05h-.57c-.49-1.55-1.02-2.04-3.73-2.04h-2.1c-.63 0-.77.15-.77.71v4.39h2.36c2.16 0 2.63-.39 2.9-1.84h.53v4.89h-.53c-.3-1.63-1.1-2.03-2.9-2.03h-2.36v4.79c0 .83.24 1.11 2.69 1.11 2.48 0 3.95-.44 5.13-2.9h.53l-.93 3.7h-11.9zm14.64-4.35h.54c.59 1.83 2.34 3.75 4.38 3.75a2.2 2.2 0 0 0 2.39-2.3c0-3.19-7.18-3.77-7.18-7.72a3.853 3.853 0 0 1 3.97-3.55c2.08 0 2.82.73 3.74.73.38 0 .63-.3.73-.73h.53v4.4h-.53c-.57-2-2-3.46-3.87-3.46a1.9 1.9 0 0 0-2.13 1.94c0 2.82 7.18 2.9 7.18 7.77a3.972 3.972 0 0 1-4.28 3.85c-2.45 0-3.08-.85-4.04-.85-.36 0-.6.24-.69.7h-.74v-4.53z" fill="#fff" fill-rule="evenodd"/></svg>