<svg width="93" height="64" viewBox="0 0 93 64" fill="none" xmlns="http://www.w3.org/2000/svg"><path d="M69.707 57.363a.067.067 0 0 1-.02 0l-58.836-.017a1 1 0 0 1-.939-.657L5.547 44.715a1 1 0 0 1 .296-1.108L50.865 5.73a1 1 0 0 1 1.583.423l18.115 49.692a1 1 0 0 1-.856 1.518zm-58.155-2.016l56.707.017-17.2-47.182L7.665 44.688l3.887 10.659z" fill="#000"/><path d="M6.766 61.013a1 1 0 0 1-.939-.657L.061 44.54a1 1 0 0 1 .993-1.341l5.607.304c.4.022.749.28.886.656l4.255 11.671a.996.996 0 0 1-.256 1.072l-4.097 3.84a1 1 0 0 1-.683.271zM2.458 45.277l4.729 12.97 2.51-2.354-3.802-10.43-3.437-.186zm31.865 18.566h-9.68a4.54 4.54 0 0 1-4.534-4.534v-2.958a1 1 0 1 1 2 0v2.958a2.537 2.537 0 0 0 2.534 2.534h9.68a2.538 2.538 0 0 0 2.535-2.534v-2.958a1 1 0 1 1 2 0v2.958a4.54 4.54 0 0 1-4.535 4.534zm37.65-22.812a.998.998 0 0 1-.905-1.422c3.816-8.193.255-17.964-7.938-21.78a.998.998 0 0 1-.484-1.328.996.996 0 0 1 1.328-.484 18.267 18.267 0 0 1 9.515 10.374 18.275 18.275 0 0 1-.609 14.062 1 1 0 0 1-.907.578z" fill="#000"/><path d="M79.855 44.703a.998.998 0 0 1-.905-1.422 24.928 24.928 0 0 0 .828-19.185c-2.294-6.296-6.904-11.321-12.98-14.15a.998.998 0 1 1 .844-1.812c13.54 6.306 19.427 22.45 13.12 35.99a.998.998 0 0 1-.907.579z" fill="#000"/><path d="M87.738 48.374a.998.998 0 0 1-.905-1.422c3.81-8.181 4.206-17.354 1.116-25.833C84.858 12.64 78.65 5.873 70.47 2.063a.998.998 0 0 1-.484-1.328.997.997 0 0 1 1.328-.484c8.665 4.035 15.239 11.203 18.513 20.184 3.274 8.981 2.854 18.697-1.183 27.361a.998.998 0 0 1-.907.578z" fill="#000"/></svg>