<svg xmlns="http://www.w3.org/2000/svg" width="113" height="35.87" viewBox="0 0 113 35.87"><g fill="#fff" fill-rule="evenodd"><path data-name="Path 59" d="M112.61 35.38H98.4V18.95h13.66v3.47h-9.75v2.68h5.86v3.44h-5.86v3.4h10.31v3.44M89.14 26.1h-5.47v-3.75h5.23a2.172 2.172 0 0 1 1.75.62 1.755 1.755 0 0 1 .5 1.24 1.917 1.917 0 0 1-2 1.9zm2.81 2.72a4.989 4.989 0 0 0 1.75-8.06 6.381 6.381 0 0 0-4.92-1.81h-9.02v16.43h3.9V29.5h4.39l3.2 5.88h4.5l-3.8-6.56zm-23.42 7.05c-4.45 0-7.44-2.6-7.44-6.46V18.95h3.93v10.46c0 2.22 1.89 3.02 3.5 3.02 2.2 0 3.56-1.16 3.56-3.02V18.95h3.93v10.46c0 3.92-2.93 6.46-7.48 6.46m-17.51 0a13.519 13.519 0 0 1-8.87-3.2l-.17-.15 2.24-2.73.17.13a10.361 10.361 0 0 0 6.67 2.65c1.58 0 3.41-.54 3.41-2.06 0-1.3-1.34-1.67-3.81-1.87-3.1-.2-7.76-.5-7.76-4.9 0-3.9 3.5-5.28 6.78-5.28a14.255 14.255 0 0 1 7.59 2.2l.19.13-2.27 2.79-.17-.13a9.25 9.25 0 0 0-5.44-1.67c-1.34 0-2.78.46-2.78 1.75 0 1.15 1.78 1.3 3.67 1.45l.3.02c2.84.2 7.61.52 7.61 5.17 0 3.62-2.68 5.7-7.36 5.7M35.36 18.95h3.91v16.43h-3.91zm-3.33 16.43H17.81V18.95h13.66v3.47h-9.75v2.68h5.86v3.44h-5.86v3.4h10.31v3.44m-16.49 0H2.29V18.95H6.2v12.99h9.34v3.44M96.05 8.8h7.74v7.72h1.42V8.8H113V7.5h-7.78V0h-1.42v7.5h-7.74v1.3"/><path data-name="Path 60" d="M99.33 16.44H86.1V.04H90V13h9.33v3.44m-15.9 0h-14.2V.04h13.64V3.5h-9.74v2.67h5.85v3.44h-5.85V13h10.3v3.44m-23.3 0h-3.28L49.29.04h4.41l4.86 11.43L63.42.03h4.27l-7.56 16.4M41.21 9.87l2.15-5.06 2.16 5.05H41.2zM45.08.02h-3.26l-7.56 16.4h4.14l1.44-3.37h7.05l1.46 3.38h4.29L45.08.04zM26.69 7.17h-5.47V3.42h5.22a2.206 2.206 0 0 1 1.75.62 1.761 1.761 0 0 1 .5 1.25 1.907 1.907 0 0 1-2 1.88zm2.8 2.71a5.046 5.046 0 0 0 3.12-4.6 5.064 5.064 0 0 0-1.37-3.45 6.45 6.45 0 0 0-4.92-1.8h-9v16.4h3.9v-5.86h4.37l3.2 5.87h4.48L29.5 9.87zM9.66 16.44h-3.9V3.5H0V.03h15.39V3.5H9.66v12.94"/></g></svg>