<svg viewBox="0 0 541.321 214.577" xmlns="http://www.w3.org/2000/svg"><path d="M417.376 167.99h113.943l10.003-8.98h-21.001l-5.376-5.655a15.503 15.503 0 0 0-11.188-4.8h-73.023c-4.209 0-8.287 1.75-11.188 4.8l-5.376 5.655h-10.453l5.007 5.267a11.99 11.99 0 0 0 8.652 3.713zm48.369-8.98H438.69v-7.455h27.055v7.455zm3-7.455h27.056v7.455h-27.056v-7.455zm44.026 3.868l3.411 3.588h-17.38v-7.455h4.956a12.486 12.486 0 0 1 9.013 3.867zm-91.051 0a12.493 12.493 0 0 1 9.014-3.868h4.957v7.455H418.31l3.41-3.587z"/><path d="M526.863 171.99H417.376a16.008 16.008 0 0 1-11.55-4.957l-7.628-8.023h-337.9l-22.671 33.54H4.624A4.638 4.638 0 0 0 0 197.174a4.638 4.638 0 0 0 4.624 4.624h417.057c8.961 0 76.044-3.468 103.806-28.573l1.376-1.235zm-370.368-5.201h35.67v7.927h-35.67v-7.927zm-4.458 7.927h-35.67v-7.927h35.67v7.927zm-60.496-3.964a3.974 3.974 0 0 1 3.963-3.963h16.404v7.927H95.505a3.976 3.976 0 0 1-3.964-3.964zm121.486 3.964h-16.404v-7.927h16.404c2.18 0 3.963 1.784 3.963 3.963s-1.783 3.964-3.963 3.964zm-62.653-30.822H90.251l-4.6 8.363h77.795l-4.422-4.651a11.985 11.985 0 0 0-8.65-3.712zm273.039 68.041v-2.769a2.65 2.65 0 0 0-2.642-2.642H21.347a2.65 2.65 0 0 0-2.642 2.642v2.769a2.65 2.65 0 0 0 2.642 2.642h399.424a2.65 2.65 0 0 0 2.642-2.642z"/><path d="M194.367 20.037h-2.312v21.237l-2.807-.033V0h-2.312v41.219c-1.215-.011-2.413-.019-3.592-.026v-5.878a4.472 4.472 0 0 0-4.459-4.459 4.472 4.472 0 0 0-4.459 4.459v5.866c-37.085.126-43.748 2.65-43.748 5.746 0 2.254 3.539 4.205 19.767 5.148l-21.61 37.43h-37.35l-7.558 9.908h30.788L92.45 139.894h57.923c4.346 0 8.556 1.807 11.55 4.956l7.042 7.407h231.768c-8-7.976-17.824-13.095-28.283-14.738l-77.567-12.185c-4.812-.756-9.398-2.834-13.377-6.06l-25.912-21.015c-4.638-3.761-9.862-6.363-15.344-7.703l.153-.145-5.297-5.572a10.751 10.751 0 0 0-7.759-3.329h-48.232a10.749 10.749 0 0 0-7.758 3.329l-4.436 4.666H156.2l11.406-36.886c3.013.039 6.25.06 9.756.06 39.686 0 108.49-2.575 108.49-5.752 0-2.758-51.846-5.062-91.486-5.622V20.037zm76.704 97.211h-114.05l7.259-16.349h86.533c.551.399 1.097.809 1.633 1.243l18.625 15.106zm-66.338-27.743V84.51h16.852v4.995h-16.852zm-3 0h-16.852V84.51h16.852v4.995zm31.2-2.599l2.69 2.83a36.012 36.012 0 0 0-3.998-.231h-7.041V84.51h2.764a7.734 7.734 0 0 1 5.585 2.396zm-59.401 0a7.736 7.736 0 0 1 5.584-2.396h2.765v4.995h-10.82l2.471-2.599z"/></svg>