<svg xmlns="http://www.w3.org/2000/svg" width="286.92" height="38.9" viewBox="0 0 286.92 38.9"><path d="M21.53 3.99c0-3.17-2.9-4.09-5.31-3.97v.5c1.45.03 2.56.53 2.56 1.52 0 .7-.48 1.57-1.93 1.57a21.405 21.405 0 0 1-5.16-1.3A17.966 17.966 0 0 0 6.31.97a5.22 5.22 0 0 0-5.35 5.2 3.619 3.619 0 0 0 2.41 3.48l.23-.38a1.671 1.671 0 0 1-.9-1.57 1.961 1.961 0 0 1 2.16-1.8 24.309 24.309 0 0 1 5.72 1.38 44.615 44.615 0 0 0 5.71 1.34v4.97l-2.37 2.03v.19l2.37 2.14v6.84a7.56 7.56 0 0 1-3.86.92 7.653 7.653 0 0 1-6.12-2.56l6.38-3.18V9l-7.83 3.6A9.5 9.5 0 0 1 8.98 8l-.11-.37C4.23 8.93 0 13.32 0 18.75a11.112 11.112 0 0 0 10.95 11.31A10.147 10.147 0 0 0 21.2 19.59l-.38-.03a11.04 11.04 0 0 1-4 5.04v-6.65l2.52-2.06-.04-.23-2.48-2.07V8.62A4.551 4.551 0 0 0 21.53 4zM7.98 21.78l-1.9.96a9.969 9.969 0 0 1-1.78-6.12 11.312 11.312 0 0 1 .45-3.44l3.26-1.5zm16.52 3.56l-2.08 1.6.26.3 1-.72 3.5 3.29 4.67-3.21-.22-.35-1.23.8-1.52-1.56V14.47l1.26-.96 2.68 2.22v9.75c0 6.08-1.3 7.07-3.98 8.06v.43c4.42.19 8.4-1.34 8.4-9.14V14.35l1.4-1.14-.25-.35-1.23 1-3.82-3.4-4.46 3.43V.68h-.33l-5.54 3.8v.35a2.279 2.279 0 0 1 1.49 2.48v18zm28.51-1.72l-3.82 3.05-3.97-3.2v-1.92l7.39-5.08v-.23l-3.68-5.82-8.06 4.44v10.55l-1.6 1.26.27.35 1.45-1.19 5.27 3.94 7.05-5.73-.3-.42zm-7.8-2.64v-7.9l.27-.19 3.41 5.54-3.67 2.53zM82.87 2.54a4.247 4.247 0 0 0-.3-1.49h-.36c-.49 1.34-1.08 2.07-2.6 2.07a4.12 4.12 0 0 1-2.94-1.46c0 .04-4.45 5.32-4.45 5.32l.37.34 1.26-1.49a5.13 5.13 0 0 0 3.83 1.53v13.38L68.53 4.45c-.7-1.22-1.89-3.06-4.08-3.06-2.45 0-4.72 2.18-4.42 5.85h.45c.1-.99.59-2.06 1.67-2.06a2.737 2.737 0 0 1 2.04 1.6v5.24c-2.82 0-4.68 1.34-4.68 3.7 0 1.23.6 3.3 2.56 3.68l.04-.35a1.465 1.465 0 0 1-.52-1.1c0-.88.63-1.45 1.78-1.45a5.017 5.017 0 0 1 .82.07v6.8c-3.3.04-5.87 1.92-5.87 5.13 0 3.06 2.56 4.51 5.23 4.36l.04-.39c-1.67-.19-2.56-.99-2.56-2.1a2.012 2.012 0 0 1 2.19-2.1 4.333 4.333 0 0 1 3.15 1.72l4.5-5.16-.37-.34-1.16 1.33a7.6 7.6 0 0 0-4.64-2.44V7.28l12.59 22.6h.9V7.36a4.88 4.88 0 0 0 4.67-4.82zm11.25 21.07l-3.82 3.06-3.97-3.22v-1.9l7.39-5.1v-.22l-3.68-5.81-8.06 4.43V25.4l-1.6 1.27.27.34 1.45-1.19 5.27 3.94 7.05-5.73-.3-.42zm-7.8-2.64v-7.89l.27-.19L90 18.43l-3.67 2.53zm33.35-8.8l-1.15.88-2.97-2.6-3.46 3.22 1.41 1.37v12.12l-3.78-2.48v-9.87l1.22-.88-3.64-3.48-3.37 3.22 1.4 1.37v11.5l-.48.31-3.3-2.4v-9.68c0-2.21-1.04-2.86-2.41-3.74-1.16-.73-1.68-1.34-1.68-2.45 0-.92.9-1.45 1.34-1.72a1.756 1.756 0 0 1-.03-.38c-1.2-.04-4.5 1.3-4.57 4.4a3.686 3.686 0 0 0 1.48 3.06 3.723 3.723 0 0 1 1.49 2.82v9.3l-1.67 1.33.26.35 1.52-1.23 4.12 3.33 3.9-2.72 4.3 2.72 8.29-4.97V14.08l2.04-1.53-.26-.39zm28.92-8.83l-1.56 1.46-3.49-3.14-5.09 3.9V1.89h-.52l.12 26.04c-.52-.08-1.82-.39-3.01-.58l-.11-21.75a3.764 3.764 0 0 0-3.9-3.82 4.6 4.6 0 0 0-4.72 4.5h.45c.15-.95.63-1.79 1.56-1.79.96 0 1.78.61 1.78 2.75v6.27c-2.86.12-4.5 1.76-4.5 3.79 0 1.26.57 3.2 2.57 3.29l.07-.39a1.155 1.155 0 0 1-.81-1.1c0-.92.85-1.3 2.04-1.3h.56v9.94a4.561 4.561 0 0 0-3.3 4.47c0 2.67 2.07 4.7 5.12 4.7a25.3 25.3 0 0 0 5.97-.84 28.343 28.343 0 0 1 4.46-.73c1.19 0 1.7.58 1.7 1.46a1.543 1.543 0 0 1-1.1 1.72l.07.38c2.56-.5 4.04-2.07 4.04-4.44 0-2.44-2.26-3.9-4.79-3.9a31.685 31.685 0 0 0-5.79.89 28.531 28.531 0 0 1-5.01.72 2.146 2.146 0 0 1-2.41-2.03c0-1.33 1.07-2.4 3.75-2.4a21.524 21.524 0 0 1 4.86.64 24.827 24.827 0 0 0 5.2.96c2.26 0 4.3-.84 4.3-4.24V5.3l1.82-1.61-.33-.35zm-6.39 9.9a2.552 2.552 0 0 1-1.85.92 2.836 2.836 0 0 1-1.9-.91V6.1l1.6-1.11 2.15 2.02v6.24zm0 4.78a2.67 2.67 0 0 0-1.85-.8 3.107 3.107 0 0 0-1.9.8v-4.2a3.12 3.12 0 0 0 1.9.84 2.665 2.665 0 0 0 1.85-.84zm0 7.5a2.427 2.427 0 0 1-2.48 2.56c-.26 0-1-.04-1.27-.08v-9.4a2.884 2.884 0 0 1 1.9-.88 2.778 2.778 0 0 1 1.85.88zm21.32-11.4l-5.05-3.7-7.58 4.47v10.47l-1.56 1.3.23.35 1.22-1.03 5.01 3.78 7.73-4.85V14.12zm-8.28 10.14V12.78l3.93 2.9v11.47l-3.93-2.9zm23.17-13.42c0 .03-.3 0-.3 0a2.21 2.21 0 0 1-1.38.65 2.425 2.425 0 0 1-1.74-.88h-.3l-2.63 2.98-2.71-2.98-4.6 3.28.21.38 1.23-.84 1.6 1.76v10.13l-2.08 1.61.26.3 1-.72 3.75 3.28 4.86-3.32-.22-.35-1.37.85-1.82-1.69V14a3.958 3.958 0 0 0 2.78 1.65c2.08 0 3.23-2.37 3.46-4.81zm18.75 15.4l-5.31 3.6-7.2-11.2 5.08-8.15.33-.03a4.073 4.073 0 0 0 2.6 1.26 2.724 2.724 0 0 0 2.27-1.26s.3.03.3 0c-.2 3.25-2.3 5.08-3.9 5.08a5.286 5.286 0 0 1-3.27-1.3l-.48.73 7.8 11.89 1.55-1 .23.38zM180 25.33l-2.08 1.6.26.3 1-.72 3.5 3.29 4.67-3.21-.26-.35-1.19.8-1.52-1.56V.67h-.33l-5.65 3.86v.34a2.26 2.26 0 0 1 1.6 2.45v18zm43.03-21.35c0-3.17-2.9-4.09-5.3-3.97v.5c1.44.03 2.55.53 2.55 1.52 0 .7-.48 1.57-1.93 1.57a21.518 21.518 0 0 1-5.16-1.3 17.894 17.894 0 0 0-5.38-1.34 5.22 5.22 0 0 0-5.35 5.2 3.625 3.625 0 0 0 2.42 3.48l.22-.38a1.671 1.671 0 0 1-.9-1.57 1.961 1.961 0 0 1 2.16-1.8c1.41 0 3.27.66 5.72 1.38a44.7 44.7 0 0 0 5.72 1.34v4.97l-2.38 2.03v.19l2.38 2.14v6.84a7.56 7.56 0 0 1-3.86.92 7.673 7.673 0 0 1-6.13-2.56l6.39-3.17V9l-7.84 3.6a9.5 9.5 0 0 1 4.12-4.6l-.1-.37c-4.65 1.3-8.88 5.7-8.88 11.12a11.112 11.112 0 0 0 10.95 11.31 10.147 10.147 0 0 0 10.25-10.47l-.37-.03a11.123 11.123 0 0 1-4.01 5.04v-6.65l2.52-2.06-.03-.23-2.5-2.07V8.62A4.553 4.553 0 0 0 223.03 4zm-13.56 17.8l-1.9.96a9.969 9.969 0 0 1-1.78-6.12 11.632 11.632 0 0 1 .45-3.44l3.27-1.5-.04 10.1zm18.9-19.27l-.22-.03-3.12 2.71v.23l2.63 3.06h.26l3.12-2.68-.03-.19zm4.75 23.74l-1.19.8-1.52-1.56v-11.1l1.49-1.15-.3-.38-1.15.92-2.71-3.33-4.46 3.22.26.42 1.12-.77 1.37 1.76v10.4l-2 1.56.22.3 1.04-.76 3.41 3.22 4.68-3.22-.26-.34zm26-.19l-1.12.77-1.67-1.57v-10.9l1.6-1.22-.27-.34-1.37 1.07-3.57-3.4-4.6 3.36-3.53-3.37-4.53 3.33-2.78-3.33-4.46 3.22.23.42 1.11-.77 1.52 1.72v10.4l-1.22 1.26 3.56 3.1 3.45-3.22-1.4-1.37V14.35l1.33-.91 2.41 2.29v9.71l-1.18 1.26 3.6 3.1 3.38-3.21-1.41-1.38V14.28l1.18-.8 2.57 2.25v9.56l-1.04 1.1 3.63 3.4 4.8-3.36-.23-.38zm13.54-2.44l-3.82 3.05-3.97-3.2v-1.92l7.38-5.08v-.23l-3.67-5.81-8.06 4.43v10.9l5.39 4.01 7.05-5.73zm-7.8-2.64v-7.9l.27-.19 3.41 5.54-3.67 2.53zm22.06-1.5l-3-2.33a8.256 8.256 0 0 0 2.78-5.85c0-.23-.04-.65-.08-1.03h-.37a2.1 2.1 0 0 1-2.11 1.56 3.673 3.673 0 0 1-2.79-1.53l-7.02 3.94v5.84l2.6 2.1c-2.63 2.41-3.12 4.1-3.12 5.32a3.265 3.265 0 0 0 2.05 3.29l.18-.35a1.368 1.368 0 0 1-.63-1.22c0-.54.63-1.3 1.82-1.3a3.86 3.86 0 0 1 2.93 1.64c0-.04 6.76-4.17 6.76-4.17v-5.91zm-1.67-4.82c-1.04 1.91-3.45 3.79-4.79 4.86l-1.7-1.38v-5.7a4.7 4.7 0 0 0 4.08 2.84 4.53 4.53 0 0 0 2.41-.62zm-2.75 12.77a5.09 5.09 0 0 0-4.45-3.1 5.36 5.36 0 0 0-2.94.77 17.632 17.632 0 0 1 5.46-5.16l1.93 1.53v5.96z" fill="#fff" fill-rule="evenodd"/></svg>