<svg xmlns="http://www.w3.org/2000/svg" width="87.2" height="34.99" viewBox="0 0 87.2 34.99"><path data-name="Path 62" d="M2.66 34.44H0v.51h14.72v-9.28h-.44s0 5.36-1.78 7.1c-1.51 1.5-3.1 1.63-5.68 1.63V17.3a4.008 4.008 0 0 1 2.66.75c1.35 1.35 1.51 3.1 1.51 5.52h.48v-13.1h-.48c0 2.42-.12 4.17-1.5 5.52a4.042 4.042 0 0 1-2.67.75V.52c2.58 0 3.81.15 5.32 1.62 1.75 1.75 1.79 7.1 1.79 7.1h.43V0H0v.52h2.66zM31.42.52v33.92c2.58 0 4.17-.16 5.68-1.63 1.74-1.74 1.78-7.1 1.78-7.1h.44v9.28H24.6v-.51h2.66v-34H24.6V0h9.24v.52zm23.65 0v33.92c2.58 0 4.16-.16 5.67-1.63 1.75-1.74 1.79-7.1 1.79-7.1h.43v9.28H48.24v-.51h2.66v-34h-2.66V0h9.25v.52zm20.07 33.92H72.5v.51h14.7v-9.28h-.44s0 5.36-1.79 7.1c-1.5 1.5-3.1 1.63-5.67 1.63V17.3a4.008 4.008 0 0 1 2.66.75c1.35 1.35 1.5 3.1 1.5 5.52h.48v-13.1h-.47c0 2.42-.12 4.17-1.51 5.52a4.008 4.008 0 0 1-2.66.75V.52c2.58 0 3.8.15 5.32 1.62 1.74 1.75 1.78 7.1 1.78 7.1h.44V0H72.49v.52h2.65z" fill="#fff" fill-rule="evenodd"/></svg>