<svg height="64" viewBox="0 0 64 64" width="64" xmlns="http://www.w3.org/2000/svg"><path d="M17.813 53.639h13.17V64h-13.17zm15.207 0h13.168V64H33.02z"/><path d="M3.027 10.613V64h12.785V51.075h32.376V64h12.785V10.613H3.027zm12.321 36.571H8.996v-6.672h6.352v6.672zm0-12.2H8.996v-6.672h6.352v6.672zm0-12.2H8.996v-6.673h6.352v6.673zm13.07 24.4h-6.354v-6.672h6.354v6.672zm0-12.2h-6.354v-6.672h6.354v6.672zm0-12.2h-6.354v-6.673h6.354v6.673zm13.068 24.4h-6.354v-6.672h6.354v6.672zm0-12.2h-6.354v-6.672h6.354v6.672zm0-12.2h-6.354v-6.673h6.354v6.673zm13.069 24.4h-6.352v-6.672h6.352v6.672zm0-12.2h-6.352v-6.672h6.352v6.672zm0-12.2h-6.352v-6.673h6.352v6.673zM51.27 0H12.73v8.863h38.54V0zM23.943 6.583h-1.146V4.687h-2.656v1.896h-1.145V2.281h1.145v1.723h2.656V2.281h1.146v4.302zm3.883.07c-1.771 0-2.891-.925-2.891-2.188 0-1.323 1.213-2.256 2.982-2.256 1.838 0 2.918.952 2.918 2.178.001 1.442-1.274 2.266-3.009 2.266zm7.908-3.715h-1.809v3.646h-1.148V2.938H30.99v-.657h4.744v.657zm4.534 3.645h-3.795V2.281h3.652v.644h-2.506v1.111h2.369v.638h-2.369v1.264h2.648v.645zm4.736 0h-3.729V2.281h1.148v3.644h2.58v.658z"/><path d="M27.891 2.844c-1.135 0-1.742.721-1.742 1.606 0 .877.641 1.57 1.742 1.57 1.109 0 1.736-.701 1.736-1.603 0-.811-.59-1.573-1.736-1.573z"/></svg>