<svg viewBox="0 0 179.3948 275.7126" xmlns="http://www.w3.org/2000/svg"><path d="M100.43 201.063c.011-.03.007-.061.016-.092 6.394-11.42 44.565-60 44.565-60s51.9-54.29 21.853-100.727C139.235-2.456 89.698.027 89.698.027S40.16-2.455 12.53 40.244C-17.516 86.68 34.383 140.97 34.383 140.97s38.246 48.675 44.585 60.035c.006.019.003.039.01.058l3.476 8.707.094.236a3.356 3.356 0 0 0-.905 1.871l-1.131 8.622H79.1c-.575 0-1.045.47-1.045 1.045 0 .55.435.994.977 1.031l1.617 8.598a1.62 1.62 0 0 0 1.592 1.321h15.617a1.62 1.62 0 0 0 1.593-1.321l1.616-8.598a1.04 1.04 0 0 0 .977-1.03c0-.575-.47-1.046-1.044-1.046h-1.412l-1.131-8.622a3.376 3.376 0 0 0-1.134-2.107c-.09-.078-.19-.142-.286-.21l3.392-8.497zm-15.842 7.908l-2.338-5.858h14.907l-2.323 5.82H85c-.14 0-.275.021-.41.038zm5.11-181.337c40.487 0 74.062 11.833 80.41 27.34-12.016-13.131-43.483-22.5-80.41-22.5-36.929 0-68.396 9.369-80.412 22.5 6.349-15.507 39.924-27.34 80.411-27.34zM56.914 164.295c5.384 4.749 18.033 8.083 32.782 8.083s27.4-3.334 32.783-8.083c-1.847 6.59-15.816 11.713-32.783 11.713s-30.935-5.123-32.782-11.713zM82.809 220.5l1.086-8.272a1.138 1.138 0 0 0 .753-.031c.421-.168.678-.561.706-.985h8.698a1.133 1.133 0 0 0 1.128 1.066c.353 0 .688-.17.904-.455.055.109.098.225.114.352l1.093 8.325H82.809z"/><circle cx="86.893" cy="217.061" r="2.062"/><circle cx="92.502" cy="217.061" r="2.062"/><path d="M71.46 275.713l18.24-4.68 18.235 4.68 3.494-1.437-18.002-4.202 11.38-2.92-3.626-.63-11.48 2.68-11.487-2.68-3.627.63 11.381 2.92-18.002 4.202zM0 243.546h179.395v1.759H0z"/></svg>