<svg xmlns="http://www.w3.org/2000/svg" width="243.3" height="29.99" viewBox="0 0 243.3 29.99"><path d="M14.68 8.44l6.34 14.2 6.2-14.06A44.455 44.455 0 0 0 30.04.54h8.15v1.67c-2.63.24-3.34 1.26-3.34 3.24a11.209 11.209 0 0 0 .13 1.7l2.01 16.58c.31 2.46 1.3 3.89 4.4 4.23v1.6H28.72v-1.6c2.55 0 3.78-1.37 3.78-3.58 0-.27-.04-.58-.07-.92l-1.9-17.1-6.69 15.57a71.39 71.39 0 0 0-2.82 7.63h-1.7c-1-2.76-2.26-5.38-3.24-7.46L8.48 6.4 6.16 21.76a17.311 17.311 0 0 0-.17 2.11c0 2.76 1.26 3.88 3.99 4.05v1.6H0v-1.6c2.52 0 3.6-1.3 4.05-4.29l2.39-15.8a15.85 15.85 0 0 0 .17-2c0-2.32-.92-3.48-3.27-3.65V.51h8.38a61.8 61.8 0 0 0 2.96 7.93zm42.48 21.05a14.409 14.409 0 0 1-11.2-14.17C45.95 6.12 52.45.01 60.33.01a17.978 17.978 0 0 1 4.53.51c6.57 1.69 11.07 6.83 11.07 14.05 0 9.23-6.33 15.4-14.24 15.4a15.266 15.266 0 0 1-4.53-.48zm-6.3-16.9c0 6 3.81 15.43 11.38 15.43 6.06 0 8.92-5.17 8.92-10.59 0-5.99-3.81-15.42-11.38-15.42-6.06 0-8.92 5.17-8.92 10.59zM83.7 3.92a5.5 5.5 0 0 0-3.92-1.74V.51h6.92l21.76 22.07V8.61c0-3.3-.78-6.47-5.07-6.47V.48h11.55v1.66c-3.2 0-4.57 2.66-4.57 6.47v12.74c0 3.61.04 5.41.28 8.55h-2.08a47.605 47.605 0 0 0-3.51-4.02L87.41 7.76v14.78c0 3.82 1.74 5.38 5.21 5.38v1.6H80.43v-1.6c3.72 0 5.19-1.16 5.19-4.46V5.79L83.7 3.91zm46.36 25.57a14.383 14.383 0 0 1-11.17-14.17c0-9.2 6.5-15.32 14.38-15.32a17.82 17.82 0 0 1 4.53.51c6.6 1.7 11.07 6.84 11.07 14.06 0 9.23-6.34 15.4-14.28 15.4a15.3 15.3 0 0 1-4.53-.48zm-6.3-16.9c0 6 3.82 15.43 11.38 15.43 6.03 0 8.89-5.17 8.89-10.59 0-5.99-3.82-15.42-11.41-15.42-6 0-8.86 5.17-8.86 10.59zm56.79-4.86a12.844 12.844 0 0 0-10.5-5.72c-6.2 0-10.35 5.41-10.35 12.02 0 6.5 3.95 14 11.79 14 5.04 0 7.42-3 9.33-7.57h2.01l-1.7 7.43a28.46 28.46 0 0 1-10.19 2.1 18.805 18.805 0 0 1-7.63-1.35 13.584 13.584 0 0 1-8.65-12.9c0-9.61 7.26-15.7 16.59-15.7a43.229 43.229 0 0 1 8.79.98l1.87 6.54-1.36.17zm7.36-5.55V.51h14.14v1.67c-3.96 0-4.84 1.67-4.84 4.09v15.86c0 3.89 1.43 5.59 5.65 5.59h.68c3.72 0 6.17-1.47 8.32-5.25h1.77l-1.77 7.09h-23.99v-1.6c4.02-.24 4.84-1.16 4.84-4.84V6.47c.07-2.9-.92-4.3-4.8-4.3zm28.78 27.38v-1.6c3.27 0 4.57-1.23 4.57-4.3V6.58c0-2.82-1.13-4.32-4.57-4.32V.58h24.36v6.5h-1.53c-1.5-3.85-3.27-4.63-6.85-4.63h-6.98v11.61h4.09c4.02 0 5.28-.68 5.48-3.7h1.7v9.25h-1.7c-.51-3.2-1.7-3.7-5.42-3.7h-4.19v6.43c0 4.12 1.16 5.34 4.98 5.34h1.87c4.77 0 6.85-1.26 8.86-5.24h1.94l-1.94 7.08h-24.67v.04z" fill="#fff" fill-rule="evenodd"/></svg>