<svg xmlns="http://www.w3.org/2000/svg" width="189.99" height="44" viewBox="0 0 189.99 44"><path d="M10.32 20.44h2.97v.59H4.2v-.59h3V2.06H5.86c-1.86 0-2.7.33-3.52 1.48A7.45 7.45 0 0 0 .95 7.62H.2V1.36h17.17v6.26h-.82a7.4 7.4 0 0 0-1.32-4.11c-.7-1.03-1.71-1.45-3.37-1.45h-1.54v18.38zm21.8-9.86V1.94h-2.47v-.58h8.12v.58h-2.56v18.5h2.56v.59h-8.12v-.59h2.47v-9.22H23.7v9.22h2.47v.59h-8.15v-.59h2.56V1.94h-2.56v-.58h8.15v.58H23.7v8.64h8.43zm21.42-3.19h-.76c-.14-2.7-.4-3.43-1.35-4.36-.79-.72-1.69-.97-3.51-.97H43.9v8.52h1.32c2.67 0 3.48-.78 3.48-3.38v-.81h.7v9.38h-.7c0-.44.03-1.03.03-1.17 0-2.57-.73-3.24-3.51-3.24H43.9v8.97h3.88a6.43 6.43 0 0 0 3.73-.78c1.55-1.04 1.97-1.96 2.05-4.5 0-.17 0-.4.03-.73h.76l.14 6.7H38.22v-.58h2.56V1.94h-2.56v-.58h15.43zM2.56 24.64H0v-.59h8.23v.59H5.68v18.5h2.55v.58H0v-.59h2.56v-18.5zm22.28 13.5v-13.5h-2.9v-.59h6.28v.59h-2.56v19.22l-.45.14-12.73-18.8v17.93h2.95v.59H9.1v-.59h2.56v-18.5H9.1v-.58h6.33l9.41 14.08zm6.4-13.5h-2.56v-.59h10.46c5.82 0 8.85 3.32 8.85 9.7 0 4.1-1.35 7.31-3.77 8.85a8.824 8.824 0 0 1-5.03 1.12H28.7v-.59h2.55v-18.5zm7.17 18.38a4.785 4.785 0 0 0 4.02-1.5c1.32-1.52 2.1-4.4 2.1-7.7 0-3.99-1.1-7.23-2.83-8.37a5.6 5.6 0 0 0-3.38-.7h-3.96v18.27h4.05zm24.67-12.94h-.76c-.14-2.7-.39-3.43-1.35-4.35-.78-.73-1.68-.98-3.5-.98h-4.03v8.52h1.32c2.67 0 3.49-.78 3.49-3.38v-.81h.7v9.39h-.7c0-.45.03-1.04.03-1.18 0-2.57-.74-3.24-3.52-3.24h-1.32v8.97h3.88a6.388 6.388 0 0 0 3.74-.78c1.54-1.04 1.97-1.96 2.05-4.5 0-.17 0-.4.03-.73h.76l.14 6.7H47.77v-.58h2.55v-18.5h-2.55v-.58h15.42l-.1 6.03zm7.46 13.05h2.72v.59h-8.4v-.59h2.56v-18.5h-2.56v-.58h8.8c3.9 0 5.81 1.73 5.81 5.3 0 3.78-1.77 5.4-5.81 5.4h-3.12v8.38zM72.19 34c3.18 0 4.05-.95 4.05-4.42 0-2.15-.5-3.74-1.38-4.33-.59-.42-1.06-.5-2.61-.5h-1.71V34h1.65zm22.85-3.92h-.76c-.14-2.7-.39-3.43-1.35-4.35-.78-.73-1.68-.98-3.5-.98H85.4v8.52h1.32c2.67 0 3.49-.78 3.49-3.38v-.81h.7v9.39h-.7c0-.45.03-1.04.03-1.18 0-2.57-.73-3.24-3.52-3.24H85.4v8.97h3.88a6.388 6.388 0 0 0 3.74-.78c1.54-1.04 1.96-1.96 2.05-4.5 0-.17 0-.4.03-.73h.76l.14 6.7H79.72v-.58h2.56v-18.5h-2.56v-.58h15.43l-.1 6.03zm17.53 8.05v-13.5h-2.89v-.58h6.27v.59h-2.56v19.22l-.45.14-12.73-18.8v17.93h2.95v.59h-6.32v-.59h2.55v-18.5h-2.55v-.58h6.32l9.41 14.08zm6.38-13.5h-2.56v-.58h10.46c5.82 0 8.85 3.32 8.85 9.7 0 4.1-1.35 7.31-3.76 8.85a8.846 8.846 0 0 1-5.03 1.12h-10.52v-.59h2.56zm7.17 18.39a4.773 4.773 0 0 0 4.02-1.5c1.32-1.52 2.1-4.4 2.1-7.7 0-3.99-1.09-7.23-2.83-8.37a5.583 5.583 0 0 0-3.38-.7h-3.96v18.27h4.05zm25.12-12.94h-.76c-.14-2.7-.4-3.43-1.35-4.35-.79-.73-1.69-.98-3.52-.98h-4.01v8.52h1.32c2.67 0 3.48-.78 3.48-3.38v-.81h.7v9.39h-.7c0-.45.03-1.04.03-1.18 0-2.57-.73-3.24-3.51-3.24h-1.32v8.97h3.87a6.389 6.389 0 0 0 3.74-.78c1.55-1.04 1.97-1.96 2.05-4.5 0-.17 0-.4.03-.73h.76l.14 6.7h-16.27v-.58h2.56v-18.5h-2.56v-.58h15.43l-.11 6.03zm17.53 8.05v-13.5h-2.9v-.58h6.28v.59h-2.56v19.22l-.45.14-12.73-18.8v17.93h2.95v.59h-6.33v-.59h2.56v-18.5h-2.56v-.58h6.33l9.41 14.08zm14.17 5h2.97v.59h-9.1v-.59h3V24.76h-1.34c-1.86 0-2.7.33-3.52 1.48a7.46 7.46 0 0 0-1.37 4.08h-.76v-6.26h17.17v6.26h-.81a7.38 7.38 0 0 0-1.33-4.11c-.7-1.03-1.71-1.45-3.37-1.45h-1.54v18.38zM76.9 10.43c.08.03-.02.24-.22.2a.21.21 0 0 1-.14-.3c.02-.05.08-.06.09-.02s0 .1.06.12a.322.322 0 0 0 .14 0 .048.048 0 0 1 .07 0zm-6.13 5.62c-.05.08-.09.06-.1-.03l-.01-.46c0-.1.05-.12.1-.05l.11.1a.2.2 0 0 1 .03.25l-.13.2zm4.62-4.1c-.06.07-.12.23-.39.07a2.369 2.369 0 0 0-.33.35c-.1.16-.17.18-.3.1a1.783 1.783 0 0 0-.3.52c-.1.29-.3.17-.35.17a5.5 5.5 0 0 1-.66.62 6.811 6.811 0 0 0 .2.95s0 .21-.14.1l.29.73a.27.27 0 0 1 0 .23 2.963 2.963 0 0 0 .97.56s.3 0 .4-.11c.13-.12.24-.26.36-.22s.15.04.23-.04.17-.19.33-.15.3.04.37-.06.31-.27.45-.07.22.14.22.14l2.03-.36a.419.419 0 0 1 .31.06l2.13 1.19a.355.355 0 0 1 .05.56l-.8.69a.516.516 0 0 1-.35.12c-.2-.02-2.67.17-3.59.25a3.836 3.836 0 0 0-.93.22c-.25.09-4.88 2.3-5.25 2.44a1.06 1.06 0 0 1-1 .08 18.591 18.591 0 0 1-2.35-.8c-.3-.17-.21-.56.14-.67l1.36-.47a4.562 4.562 0 0 0-.75-.58c-.27-.14-.36-.23.04-.33.7-.16 1.95-.67 2.86-.9a3.28 3.28 0 0 1-.7-.56.358.358 0 0 0-.17.17c-.06.17-.13.14-.15-.04l-.08-.64s-.25.1-.25-.17l.02-.9a2.411 2.411 0 0 0-.22 1c0 .17 0 .29-.14.24a1.98 1.98 0 0 1-.36-.17s-.02.25-.2.18a5.219 5.219 0 0 0-.9-.27s-.09.25-.21.23l-1.18-.14a.473.473 0 0 0-.16.18c-.05.11-.06.17-.2.1q-.353-.168-.7-.35s-.7.58-.9.77-.24.12-.24-.06v-.48a10.966 10.966 0 0 0-.85.93c-.18.23-.16.05-.18-.18a3.069 3.069 0 0 1-.06-.45 2.193 2.193 0 0 1 .28-.28c.13-.12 1.16-1.3 1.26-1.4a1 1 0 0 1 .25-.17l3.37-1.54-.26-.75s-.39.23-.5.28-.22.15-.28.01l-.27-.59a3.572 3.572 0 0 0-.46.26c-.1.07-.18.12-.26 0s-.3-.66-.3-.66a1.44 1.44 0 0 1-.28.15c-.12.04-.18.11-.21.02l-.24-.67a2.43 2.43 0 0 0-.27.11c-.12.06-.16.13-.23 0a6.071 6.071 0 0 1-.31-.75s-.35.2-.35.01.06-.8.06-.8a2.874 2.874 0 0 0-.45.15c-.1.06-.16-.04-.16-.15l.04-.7a3.7 3.7 0 0 0-.8.11c-.34.18-.19-.01-.01-.2a1.341 1.341 0 0 0 .29-.6 3.476 3.476 0 0 1-1.5.1c-.52-.18-.18-.2.03-.2a1.017 1.017 0 0 0 .77-.4 4.792 4.792 0 0 1-1.98-.24c-.22-.06-.44-.25-.05-.2a2.761 2.761 0 0 0 1.31-.13 6.6 6.6 0 0 1-2.27-.62c-.16-.07-.37-.3-.06-.2a3.525 3.525 0 0 0 1.28.15s-.18-.26-.88-.39a1.321 1.321 0 0 1-.38-.15c-.18-.12-.72-.49-.84-.59s-.23-.28.02-.16a4.549 4.549 0 0 0 1.4.4 2.014 2.014 0 0 0-.76-.47 1.656 1.656 0 0 1-.35-.27 12.591 12.591 0 0 1-.95-1c-.16-.2-.2-.4 0-.22.22.17.83.43 1.1.66a7.823 7.823 0 0 0-.54-.67 1.9 1.9 0 0 1-.35-.47l-.37-.87c-.1-.23-.08-.42.07-.23a6.56 6.56 0 0 0 2.25 1.76 15.758 15.758 0 0 1-1.01-1.31 1.322 1.322 0 0 1-.24-.45l-.21-1.02c-.06-.25.02-.37.14-.14s.8 1.22.87 1.4a1.321 1.321 0 0 0 .37.42c.16.13.7.52.81.62-.23-.3-.71-1.34-.81-1.49a2.439 2.439 0 0 1-.16-.6 5.959 5.959 0 0 1-.13-.95c0-.21.05-.37.12-.13s.6 1.23.7 1.45a1.716 1.716 0 0 0 .46.5L62 3.62s-1.09-1.64-1.15-1.78a1.656 1.656 0 0 1-.2-.58l.01-1.1.01-.16h.12a5.287 5.287 0 0 0 .82 1.63c.33.3 1.48 1.45 1.65 1.6a1.954 1.954 0 0 0 .57.3l2.64 1.04a1.363 1.363 0 0 1 .62.52c.1.2 1.87 2.88 1.87 2.88a3.684 3.684 0 0 0 .76.98c.35.25 1.16.97 1.28 1.03s.17-.08.06-.18-.35-.37-.45-.44-.06-.31.08-.23a.581.581 0 0 0 .3.05s.26-.13-.07-.17a3.451 3.451 0 0 0-.68-.06c-.14.02-.1-.23.23-.42a1.167 1.167 0 0 0-.29 0c-.15.02-.54-.08-.02-.2s1.2-.27 1.48-.34a1.365 1.365 0 0 1 .52 0l1.7.3-1.56-.5s-1.36.06-1.5.04-.07-.1.18-.15l1-.22a1.1 1.1 0 0 1 .48.04c.15.08 1.32.52 1.47.6s.31.02.08-.11-1.34-.58-1.34-.58-.35-.08-.55-.1-.83-.17-.93-.19-.08-.1.14-.1L72.3 7a.882.882 0 0 1 .52.1c.24.13 1.23.58 1.23.58a1.11 1.11 0 0 0 .66.02s.14-.06-.1-.16L73.54 7a5.53 5.53 0 0 0-.68-.25l-.98-.28c-.2-.06-.18-.13.1-.13l.84.02a1.208 1.208 0 0 1 .51.16c.21.13 1.2.62 1.4.73s.33-.06.12-.21-2.15-1.05-2.33-1.17.1-.09.3-.09c.22 0 .37.04.53.04a.984.984 0 0 1 .54.17c.14.12.78.57.78.57a1.27 1.27 0 0 0 .31.1.635.635 0 0 0 .27-.03s.24-.02-.02-.15a7.78 7.78 0 0 0-2.22-1.23c-.18-.04-.28-.14.1-.12a5.6 5.6 0 0 1 .84.1 1.235 1.235 0 0 1 .47.26 10.649 10.649 0 0 0 1 .83c.13.08.2-.05.09-.2a6.7 6.7 0 0 0-1.96-1.64c-.14-.06-.22-.2.11-.1l.78.22a2.35 2.35 0 0 1 .58.45 11.17 11.17 0 0 1 .7 1.04c.06.12.25.1.16-.08a8.124 8.124 0 0 0-1.9-2.43c-.12-.08-.22-.25.15-.06s1 .66 1 .66a.724.724 0 0 1 .28.29 8.223 8.223 0 0 1 .4 1.08c.05.2.18.15.13-.08s-.28-.85-.32-1a1.529 1.529 0 0 0-.37-.52c-.17-.2-.67-1.08-.76-1.21s-.1-.3.1-.05c.22.25.86.9 1 1.05a1.1 1.1 0 0 1 .29.5c.04.17.23 1.31.25 1.46s.1.18.1-.07-.14-1.16-.18-1.41a2.63 2.63 0 0 0-.29-.7l-.79-1.45c-.08-.14.03-.1.19.06s.74.93.87 1.08a1.344 1.344 0 0 1 .25.76l.1 1.93c0 .17.14.23.14-.08s-.02-1.64-.04-1.91a2.082 2.082 0 0 0-.24-.83l-.88-1.79c-.13-.29.1-.07.22.09s.86 1.21.94 1.31a.85.85 0 0 1 .17.45c0 .15.04 2.08.06 2.28s.2.28.18.02c-.02-.28-.12-2.19-.12-2.42a1.658 1.658 0 0 0-.2-.64c-.07-.17-.52-1.37-.58-1.6s.04-.2.2.04.66 1.02.77 1.22a1.387 1.387 0 0 1 .16.61c.02.2.02 1.82.02 2.01s.13.35.13-.02.12-1.7.1-1.99a4.524 4.524 0 0 0-.17-.83c-.08-.27-.24-1.24-.32-1.45s.02-.25.12-.02.49 1.12.55 1.3a3.3 3.3 0 0 1 .07.6c.02.23-.13 2.24-.13 2.43s.13.2.13-.02.04-.6.06-.85.12-.15.16-.02.06.3.13.2.28-.37.26-.53.21.04.21.04.12.02.18-.17l.11-.4c.04-.18-.08-.35-.17-.16a3.255 3.255 0 0 1-.45.7c-.12.1-.23.32-.18-.14a17.4 17.4 0 0 0-.13-2.88c-.1-.43.05-.29.12-.09l.6 1.81c.04.15.04.15.2.06s1.63-1.03 1.84-1.2.23.02.1.17a33.41 33.41 0 0 0-2.24 2.84 22.7 22.7 0 0 0-1.07 2.88c-.08.25-.04.37-.35.47s-1.75.65-1.75.65a.617.617 0 0 0-.27.16l-.31.46a.116.116 0 0 0 .1.18 7.185 7.185 0 0 1 1.47.42 9.843 9.843 0 0 0 1.1.72c.11.03.2.25.19.44 0 0 .23.25.39.45a.982.982 0 0 1 .23.44.428.428 0 0 1-.06.42 1.15 1.15 0 0 1-.56.33.939.939 0 0 0-.06-.54c-.11-.16-.24-.17-.32-.13-.12.07-.1.15-.05.25l.17.29s.09.12.03.2a.38.38 0 0 1-.1.09.551.551 0 0 1-.48-.03.84.84 0 0 1-.24-.23c-.05-.07-.2 0-.2 0a1.92 1.92 0 0 1-.77-.05.112.112 0 0 0-.14.04zm-6.87 7.56l.97.5c.16.1.23-.03.1-.14s-.93-.6-.93-.6l-.2.12c-.1.04.06.12.06.12zm.97 1.1a.1.1 0 0 1-.16.01s-.98-.36-1.2-.48-.09-.14.07-.1.5.07.75.12.13-.1.03-.18a4.741 4.741 0 0 0-.69-.27 1.722 1.722 0 0 0-.68.07c-.27.05-.24.22-.05.33s1.24.54 1.42.6a3.2 3.2 0 0 0 .73.13c.26.01.2-.13.21-.26a4.37 4.37 0 0 0 .02-.44s-.38.37-.45.47zm7.77-9.52a.51.51 0 0 1 .36.19.8.8 0 0 1 .16.4.315.315 0 0 0 .15-.36 3.06 3.06 0 0 0-.69-.84l.02.6zm-.35.91c.08.06.19.04.14-.06s-.17-.33-.17-.33a.153.153 0 0 0-.1-.04h-.24a1.98 1.98 0 0 0 .37.43zm-.05-.93s-.01-.11-.2-.07a1.217 1.217 0 0 0-.35.13.123.123 0 0 0-.05.16c.06.1.15.13.2.04s.18-.17.21-.11.18.16.22.08a.2.2 0 0 0-.03-.23zm-.38-.83s-.05 0-.09.14a.351.351 0 0 0 .33.44.324.324 0 0 0 .34-.28c.02-.12-.03-.26-.11-.25a1.552 1.552 0 0 1-.47-.05zm-.64-.86s-.1-.09-.14-.02a.269.269 0 0 0 .13.4l.43.12s.22.02.03-.13l-.45-.37zm-1.64.33c-.14-.06-.25-.04-.17.06.2.2.17.33.17.33s0 .09.2.09l.62-.02c.2 0 .2-.07.03-.13zm.6.87c-.14-.04-.25-.01-.16.08a.651.651 0 0 1 .2.3s0 .1.21.07l.62-.08c.2-.02.18-.09.02-.13l-.9-.24zm-.97-1.6c-.12-.07-.24-.06-.16.04a.625.625 0 0 1 .14.35s0 .08.2.1l.62.02c.2.02.2-.06.04-.13s-.84-.38-.84-.38zm-1.26 1.06c-.13-.06-.24-.04-.16.06a.863.863 0 0 1 .15.33s0 .1.2.1h.62c.2 0 .2-.07.04-.13l-.85-.36zm.66.8c-.13-.04-.24 0-.14.08a.736.736 0 0 1 .21.3s.02.09.22.05l.61-.12c.2-.04.18-.1.01-.14l-.9-.17zm1.08.42c-.11-.03-.2 0-.12.07a.609.609 0 0 1 .18.24s.01.07.17.04.34-.08.5-.1c.14-.03.13-.09 0-.11l-.73-.14zm-1.52-1.75c-.1-.06-.2-.05-.14.04a.526.526 0 0 1 .12.3s0 .07.16.08c.18.01.37.01.54.03.16 0 .16-.05.03-.11l-.7-.34zm-.94-.73c-.13-.05-.25-.03-.16.07a.654.654 0 0 1 .17.32s0 .09.21.08.44-.03.63-.04.18-.07.02-.13l-.87-.3zm-.6.62c-.12-.05-.21-.02-.14.06a.42.42 0 0 1 .16.27s0 .07.18.06l.53-.05c.16-.01.15-.07.02-.11l-.75-.23zm-.1 3.84c-.13.05-.19.19-.06.15.38-.1.35.12.35.12s.06.06.2-.1l.42-.45c.13-.14.08-.19-.07-.11zm2.47-1.35c-.14.03-.22.11-.1.14a.523.523 0 0 1 .32.19 1.6 1.6 0 0 0 .24-.15c.17-.11.08-.07.23-.17s.1-.19-.06-.15l-.63.14zm-.82.88c-.14.05-.2.15-.08.15a.555.555 0 0 1 .36.12l.2-.19.19-.21c.13-.14.07-.2-.09-.13zm-.03-1.12c-.12 0-.2.06-.1.1a.5.5 0 0 1 .24.18s.03.06.18-.01l.37-.2c.13-.06.1-.11-.03-.1s-.66.03-.66.03zm-.43-.29c-.04.2.1.09.1.09a2.276 2.276 0 0 0 .25-.28c.12-.14.02-.2-.03-.27s-.07-.12-.1-.04a2.645 2.645 0 0 0-.22.5zm2.81.42l.06-.07c.06-.06.03-.1-.06-.08l-.15.03c-.1.02-.12.08-.06.14a.156.156 0 0 0 .21-.02zm-1.15.78c.03-.08-.05-.09-.12-.02l-.27.26c-.07.06-.05.12.05.13h.02a.2.2 0 0 0 .2-.13zm-2.06 4.39l.66-.42-.23-.3a1.186 1.186 0 0 0-.24.23c-.04.09-.11.1-.17-.04q-.215-.482-.44-.96l-.13.12s-.11 0-.11-.1a1.146 1.146 0 0 0-.05-.26l-.12-.05.06 1.21.77.57zm-.11-2.04c-.05-.08-.08-.07-.06.02l.1.67c0 .1.07.11.13.05l.05-.05a.23.23 0 0 0 .03-.26l-.25-.43zm.55.19c-.08-.05-.12-.02-.09.07l.13.37c.03.08.08.09.12 0l.06-.12a.18.18 0 0 0-.07-.23l-.15-.1zm.26-.9a.14.14 0 0 0 .15-.16l-.01-.15c-.01-.1-.08-.13-.17-.1l-.62.34a.25.25 0 0 0-.12.23v.07c.02.1.08.1.14.04l.16-.16a.41.41 0 0 1 .28-.12h.2zm-.17.18l.08.36c.02.09.07.17.12.17s.07-.06.07-.15v-.2a.172.172 0 0 0-.12-.18h-.15zm-2.2 2.05c0 .1.03.18.1.19.05 0 .09-.06.08-.16v-.22a.769.769 0 0 0-.09-.28c-.04-.07-.08-.05-.08.04l-.02.43zm.2-2.05l.34-.31a.246.246 0 0 0 .08-.21c-.01-.06-.08-.06-.16-.01l-.38.26a.2.2 0 0 0-.07.24.118.118 0 0 0 .2.03zm.12.37a.31.31 0 0 0-.01.28l.02.05a.307.307 0 0 0 .16.16c.04 0 .08-.07.09-.16l.02-.6c0-.09-.03-.1-.08-.02l-.2.29zm1.97-1.46c.04-.08 0-.1-.07-.06l-.35.22a.122.122 0 0 0-.02.2l.05.06a.114.114 0 0 0 .19-.03l.2-.39zm-1.39 1.35c.03.09.1.1.17.04l.06-.06c.07-.06.12-.16.1-.2 0-.06-.08-.09-.17-.07l-.07.02a.15.15 0 0 0-.11.2l.02.07zM72 8.52c.27.03 1.67.3 1.93.32s.14-.17.14-.17.08-.09-.07-.13-.99-.2-1.27-.24l-.58-.05-.8.14s.4.1.65.13zm-7.62 7.77l1.46-1.13c.07-.06.06-.08-.03-.04l-1.25.49a.27.27 0 0 0-.16.22l-.02.42zm1.11-.52a.119.119 0 0 0 .03.2l.11.05a.243.243 0 0 0 .27-.03l1.04-1c.07-.07.05-.1-.03-.06l-.74.27a1 1 0 0 0-.28.17l-.4.4zm.97.13l.51.01a.4.4 0 0 0 .27-.12 11.481 11.481 0 0 1 1.13-1.15 4.133 4.133 0 0 0-1.9 1.26zm1.78 0a14.763 14.763 0 0 1 .8-1.5 4.775 4.775 0 0 0-1.28 1.29c-.05.07-.01.14.08.16l.4.05zm.66.04a9.11 9.11 0 0 1 .4-1.38 3.752 3.752 0 0 0-.69 1.26c-.02.09.09.1.18.11zm-1.99-1.4a.3.3 0 0 0 .23-.17l.1-.25c.04-.08 0-.12-.08-.08l-1.06.51c-.08.04-.07.07.02.06l.8-.07zm.82-.17c-.06.06-.04.1.05.06l1.25-.35c.09-.03.17-.02.17-.11v-.52c0-.09-.06-.13-.14-.09l-.3.16a1.052 1.052 0 0 0-.27.2l-.76.65zm1.9-1.17a.32.32 0 0 0-.13.25v.28c.01.1.06.11.13.05l.65-.69a.572.572 0 0 0 .14-.28l.02-.13a.62.62 0 0 1 .13-.28l.19-.2a.422.422 0 0 0 .1-.22c0-.05-.07-.07-.16-.03l-.18.08a.283.283 0 0 0-.16.2.445.445 0 0 1-.14.25l-.17.14a.248.248 0 0 0-.09.23.169.169 0 0 1-.1.2l-.22.15zm1.94-2.2a.26.26 0 0 0-.22.15l-.1.29c-.04.08-.03.17.02.19s.12-.02.17-.1l.12-.16a.267.267 0 0 1 .17-.13c.05 0 .06.08.03.16l-.17.52a.36.36 0 0 1-.21.2l-.24.08a.186.186 0 0 0-.14.2c0 .07-.15.21-.2.27-.07.05-.05.13.04.16h.2a.357.357 0 0 0 .28-.05l.74-.6a.305.305 0 0 0 .13-.2c0-.06-.05-.06-.12 0a.326.326 0 0 1-.22.11c-.05 0-.07-.07-.04-.16l.1-.3a1.127 1.127 0 0 0 .05-.32v-.15a.161.161 0 0 0-.17-.16h-.22zM61.52 2.1c-.06-.06-.08-.05-.04.03l.71 1.48a.581.581 0 0 0 .22.22 10.371 10.371 0 0 0 2.71.98 10.33 10.33 0 0 0-1.75-1c-.7-.26-.72-.35-.72-.35a.78.78 0 0 0-.14-.28l-1-1.07zm-.84 1.54a.676.676 0 0 0 .18.26l.37.3c.08.06.15.06.16 0s.1-.07.18-.04l1.91.88c.1.04.12-.07.03-.14l-.92-.7a5.771 5.771 0 0 0-.53-.31l-.28-.17-1.24-.82c-.08-.05-.11-.02-.09.07l.23.67zm4.3 1.86c.08.04.07.07-.02.08l-.97.06c-.09 0-.1.04 0 .06l.79.25c.08.03.08.07 0 .1l-.59.15c-.09.03-.12.1-.03.12l.93.06c.1.02.1.05 0 .08l-.78.18c-.08.03-.03.14.06.14l2.1-.02c.1 0 .1-.04.02-.08l-1.23-.6c-.08-.03-.08-.06.01-.06l.81.04c.1 0 .1-.03.03-.09l-1.13-.83a2.731 2.731 0 0 0 .8.14c.1 0 .11-.03.04-.08l-.27-.18a.59.59 0 0 0-.3-.08l-1.4.03c-.08 0-.14.11-.05.15l1.17.38zm-4.2-.56a.831.831 0 0 0 .39.04l.04-.01a.63.63 0 0 1 .31-.01l1.78.65c.16.07.22-.07.15-.12l-1.7-1a.265.265 0 0 0-.26.01.227.227 0 0 1-.25.01l-1.51-.9c-.08-.05-.22-.27-.28-.18l1.33 1.51zm-1.46-.2a.474.474 0 0 0 .21.21l1.5.68a1.024 1.024 0 0 0 .3.08h.09a1.226 1.226 0 0 1 .32.07l.8.3a1.029 1.029 0 0 0 .33.07l.62.03c.09 0 .1-.02.01-.06l-1.96-.9a.15.15 0 0 0-.2.08l-.02.03a16.884 16.884 0 0 1-2.09-1.06c-.08-.04-.11-.01-.08.07l.17.4zm.57 1.2a.5.5 0 0 0 .28.14l1.16.17a.541.541 0 0 1 .27.14.486.486 0 0 0 .28.13l1.42.13c.09.01.1-.01 0-.04l-1.9-.75a2.94 2.94 0 0 0-.31-.1l-1.73-.44c-.08-.03-.1 0-.04.07l.57.55zm4.4 1.55a6.218 6.218 0 0 1-1.95-.25c-.09-.01-.09-.03 0-.04l1.32-.13c.1 0 .1-.02 0-.04l-1.95-.32a.58.58 0 0 1-.27-.13.58.58 0 0 0-.27-.12l-1.09-.14c-.09 0-.1.02-.01.06l.58.3a1.816 1.816 0 0 0 .3.11l.97.22q.12.03 0 .03l-1.1-.01c-.17 0-.27.06-.1.1l1.72.34c.09.02.1.06 0 .1l-.66.1c-.39.14-.28.15.07.17l1.53.1c.1 0 .1.02 0 .04l-.97.09c-.1.02-.2.2.14.16l1.85-.1c.09 0 .15-.02.18-.07s-.03-.11-.12-.13L63 7.71c-.1-.02-.1-.04 0-.04h1.3c.1-.02.1-.13 0-.14v-.04zm.51.57a5.794 5.794 0 0 0 1.88-.26c.08-.03.09-.1.02-.13s-.07-.11.01-.15l.34-.17c.08-.04.07-.1-.02-.12l-1.34-.33a.72.72 0 0 0-.32 0l-.54.17a2.176 2.176 0 0 0 1.02.13c.09-.01.1 0 .01.05l-.65.32a3.072 3.072 0 0 0 .96-.03c.1-.02.25-.02.16.01a3.535 3.535 0 0 1-1.53.5zm3.12-.34l-.56.01a.492.492 0 0 0-.22.05s-.69.3-.88.4a1.921 1.921 0 0 1-.83.21c-.74.07-2.29.05-2.29.05a1.552 1.552 0 0 1-.16.52l.88-.1a.31.31 0 0 0 .27-.1 1.226 1.226 0 0 1 .3-.12l1.69-.08a3.44 3.44 0 0 0 1.86-.75c.08-.06-.06-.09-.06-.09zm1.58 1.65a3.6 3.6 0 0 0-.94.1c.44-.27.46-.5.46-.5.02-.08-.1-.1-.25-.11a4.751 4.751 0 0 0-1.7.44.968.968 0 0 1-.59.16c-.3-.01-2.01-.26-2.01-.26 3.01.02 4.06-.85 4.06-.85s.13-.14-.81-.06a.863.863 0 0 0-.3.09 2.749 2.749 0 0 1-2.1.5 6.419 6.419 0 0 0-1.77.32l.04.48a5.025 5.025 0 0 1 1.77-.07 3.789 3.789 0 0 1-1.24.22l.04.46a4.872 4.872 0 0 0 1.7-.35 1.266 1.266 0 0 1-.68-.07 10.279 10.279 0 0 1 1.62-.25 3.3 3.3 0 0 0 1.12-.34.537.537 0 0 1 .5-.03c-.15.13-.5.37-.67.52a.757.757 0 0 1-.32.16 8.932 8.932 0 0 1-.95 0c-.42-.03-.38.2-.38.2a12.679 12.679 0 0 1-1.7.42l.21.45c.53-.03 2.03-.3 2.03-.3a9 9 0 0 1-1.47.49l.22.42a9.687 9.687 0 0 1 1.83-.42 5.525 5.525 0 0 1-1.25.55l.22.43 1.67-.76a3.048 3.048 0 0 1-.89.05 2.88 2.88 0 0 0 1.33-.56 10.18 10.18 0 0 1-1.85.07l1.44-.43a15.244 15.244 0 0 1-2.13-.13 6.6 6.6 0 0 0 2.32-.51 2.887 2.887 0 0 1 .73-.22 1.85 1.85 0 0 1-.6.78 1.714 1.714 0 0 0 1.42-.98c.03-.09-.13-.11-.13-.11zm-.9 1.5a2.714 2.714 0 0 0 1.48-.75c.2-.2.08-.17-.16-.16s-.42.02-.5.15a5.675 5.675 0 0 1-.93.73c-.17.12.1.03.1.03zm.75.22c-.2.16-.13.2-.13.2a2.481 2.481 0 0 0 1.1-.6c.42-.09.18.22-.08.51l-.23.26a1.785 1.785 0 0 0 1.13-.74c.17-.27.05-.2-.14-.18s-.85 0-1.05-.02a.2.2 0 0 0-.23.15 2.447 2.447 0 0 1-.37.42zm-2.36 1.03l.15.42a16.528 16.528 0 0 0 1.6-.76 1.819 1.819 0 0 1-.72.62l.1.41a5.052 5.052 0 0 0 1.27-.5s-.2.4-1.09.73v.2a3.48 3.48 0 0 0 1.44-.72l-.2-.07a3.632 3.632 0 0 0 .83-.7 6.163 6.163 0 0 1-1.66.53 2.833 2.833 0 0 0 1.05-.7s-1.34.15-1.58.16a4.212 4.212 0 0 0 .9-.46 3.377 3.377 0 0 1-.76 0 1 1 0 0 1-.36.34c-.23.13-.97.45-.97.45zm2.81 2.65c.04-.14-.04-.22-.18-.18a5.667 5.667 0 0 0-.06 1.44c.04 0 .1.03.12-.01.08-.43.02-.83.12-1.25zm.33 1.07a.283.283 0 0 0-.08-.3c-.03-.02-.09 0-.09 0a8.422 8.422 0 0 0-.08 1c.02.07.12.02.12 0 .05-.18.08-.46.13-.7zm2.72 1.19a34.67 34.67 0 0 0-4.58 1.48s1.56 1.14 1.77 1.25.2.3.2.5-.03.5-.03.5 0 .04.33-.16a20.96 20.96 0 0 0 2.43-1.48c.2-.25.2 0 .11.13l-.2.31a6.405 6.405 0 0 0 2.19-1.17c.11-.14.22-.1.15.04s-.09.12-.09.12a5.053 5.053 0 0 1 1.9-.73 9 9 0 0 0 2.06-.29s.17-.07.1.08-.12.16-.12.16a4.074 4.074 0 0 0 1.63-.4c.18-.1.32-.39.18-.52s-1.87-1.13-1.87-1.13-.01-.04-.26 0c-.59.08-1.82.34-1.82.34a1.133 1.133 0 0 1-.01.31c-.04.1-.16.37-.43.31l-.18-.08a.288.288 0 0 1-.15.24l-.41-.26-1.01.1-.06.52c-.02.16-.08.37-.33.27s-.2-.07-.2-.07-.07.44-.25.29l-.2-.18s-.15.33-.26.16a6.981 6.981 0 0 0-.6-.64zm.66-.23l.34.49c.08.1.16.14.2-.04.02-.2.02-.25-.12-.32a1.084 1.084 0 0 0-.42-.13zm-.32.14c.08 0 .2.34.27.44s.12.05.12-.05a.8.8 0 0 0-.16-.4c-.1-.15-.4-.06-.51.02l.28-.01zm.62-.22a.627.627 0 0 1 .51.4c.03.17.13.14.13-.02s.03-.43-.14-.46a3.264 3.264 0 0 0-.51-.02c-.1 0-.08.09.01.1zm2.62-.37c-.01-.18-.32-.3-.32-.3a.676.676 0 0 1 .18.33c.03.1.16.14.14-.03zm.14.03c-.03.15.13.05.14-.1s-.17-.35-.4-.38c0 0 .29.29.26.48zm-.95.01c.13-.01.23.09.38.17.14.1.13-.02.11-.14s-.13-.2-.18-.25a.764.764 0 0 0-.25-.05l-.82.36.76-.09zm-5.97 2.51l-.45-.3a.306.306 0 0 0-.15-.07.2.2 0 0 0-.05 0h-.04v-.03c.05 0 .25-.07.3-.08h.04v.02l-.03.02c-.02.01 0 .04.07.1l.45.3.36.25.56.4a.339.339 0 0 0 .14.05l.07-.01h.03c.02.01.01.02 0 .02l-.29.13-.04-.01v-.02l.04-.01c0-.02-.05-.07-.1-.11l-.55-.4-.36-.25zm1.25.3a2.219 2.219 0 0 0 .34.21h.11c.02.01.01.02 0 .02a2.158 2.158 0 0 0-.25.1l-.05-.01v-.02c.02 0 .04 0 .04-.02.02-.02-.13-.14-.3-.27l-1.2-.84-.05-.05.1.03 1.01.35.72.25-1.02-.7a.6.6 0 0 0-.22-.11h-.11c-.02-.01 0-.02.01-.02l.15-.04.1-.04h.05v.03l-.03.01c-.02.02.01.06.13.13l1.36.97.05.04-.08-.01-.94-.32-.78-.28.86.6zm.24-.83l-.44-.3a.269.269 0 0 0-.16-.07l-.05.01h-.04v-.03l.18-.04.17-.06a.965.965 0 0 1 .69.03 3.979 3.979 0 0 1 .74.4 1.132 1.132 0 0 1 .42.41c.04.08.07.22-.14.28l-.26.08-.14.04h-.04c-.01-.01-.02-.02 0-.02s.03-.01.03-.02c.02-.01-.03-.07-.09-.1a4.473 4.473 0 0 0-.4-.3l-.47-.31zm.48.18l.39.27.16.1a.382.382 0 0 0 .24.01c.11-.03.15-.08.11-.17s-.17-.22-.38-.37a3.7 3.7 0 0 0-.74-.39.846.846 0 0 0-.52-.05l-.06.04.02.03.4.28.38.25zm.6-.51l-.44-.3a.279.279 0 0 0-.17-.08l-.06.01h-.04l.01-.02.18-.05q.166-.052.33-.11v-.01h.04c0 .02.03.04.12.1l.13.1.01.02-.04-.01a.92.92 0 0 0-.08-.05.24.24 0 0 0-.15-.03l-.18.04.02.02.52.36.03.02.19-.06c.02-.01.03-.02.02-.04v-.02h.02l.14.11a.758.758 0 0 0 .14.1l.03.03h-.03l-.08-.06a.23.23 0 0 0-.15-.04l-.17.05.01.02.17.11.32.22c.15.1.2.12.32.09.03-.01.08-.03.08-.05s-.02-.07-.1-.13l-.02-.02q.133.09.26.19c.05.04.04.04 0 .05l-.45.15-.04-.01c-.01 0-.02-.01 0-.02s.03-.01.03-.02c.02 0-.02-.04-.08-.09l-.47-.32-.37-.25zm.75-.26l-.43-.3a.349.349 0 0 0-.17-.06h-.09c-.01-.01 0-.02.01-.02l.17-.04.16-.06a.55.55 0 0 1 .33.02 1.19 1.19 0 0 1 .3.15c.29.2.37.38.2.43h-.05c-.02-.02-.01-.02.01-.03.06-.02.03-.14-.18-.28a1.4 1.4 0 0 0-.37-.2.345.345 0 0 0-.2-.01c-.02 0-.03 0-.03.02l.02.03.82.56q.313.2.64.38h.11v.02l-.19.05-.14.04h-.04v-.02c.02 0 .03-.01.03-.02.02-.01-.02-.04-.07-.09l-.48-.32-.36-.25zm1.73-1.02h.02c0-.01.02-.02.04 0v.02l-.03.01c-.02.02.02.05.13.13l1.26.84.05.05a.151.151 0 0 1-.08-.02l-.95-.3-.53-.19.03-.11.32.1.73.25-.9-.58-.1-.07.01-.13zm-.13.6l.65.43c.17.11.23.15.27.15a.2.2 0 0 0 .08-.01h.03c.02.02.01.02 0 .03l-.15.03-.12.04h-.05v-.02l.05-.02c.01-.02-.04-.06-.22-.18l-.58-.4.04-.05zm2.06-.74l.24.15h.03l.18-.05c.02 0 .03-.02.02-.04v-.02h.02l.14.11.14.1c.02 0 .04.02.03.02h-.03l-.08-.05a.24.24 0 0 0-.15-.04l-.17.05.02.01.16.11.33.21a.315.315 0 0 0 .32.07.089.089 0 0 0 .08-.05c0-.02-.03-.05-.1-.11-.03-.02-.03-.02-.02-.03l.04.02.22.16c.05.04.04.04 0 .05l-.34.1-.14.04h-.04c-.01-.01-.02-.02 0-.02a.037.037 0 0 0 .03-.02c.02-.01-.02-.05-.08-.09l-.44-.29-.37-.24-.21-.13.17-.02zm1.08-.47h-.13c-.02-.02 0-.02.01-.02l.16-.03.11-.03.05.01v.02c-.01 0-.04 0-.04.02-.02.01.16.12.16.12l1.14.7.05.05-.08-.01-.99-.3-.75-.2.85.5a.766.766 0 0 0 .29.14h.11c.02.01.01.02 0 .02l-.16.04-.11.04h-.05v-.02l.04-.02c.01-.02-.05-.06-.24-.18l-1.14-.7-.06-.04.11.02c.04.02.43.09.92.23l.76.23-.76-.46a1.835 1.835 0 0 0-.25-.13z" fill="#fff" fill-rule="evenodd"/></svg>