<svg xmlns="http://www.w3.org/2000/svg" width="342.41" height="39.581" viewBox="0 0 342.41 39.581"><g fill="#fff" fill-rule="evenodd"><path data-name="Path 55" d="M29.32 6.853a2.43 2.43 0 1 1 .708 1.725 2.43 2.43 0 0 1-.708-1.725m-4.91-2.74l1.88-1.47.8.73-4.2 3.59c-4.04-3.1-9.38-5.9-14.7-4.37-1.39.46-3.18 1.57-3.32 3.23.1 3.33 3.73 3.94 5.98 4.95 4.18 1.3 8.37 2.5 11.77 5.7a6.62 6.62 0 0 1 1.65 5.96 8.47 8.47 0 0 1-5.93 6.29c-5.7 1.3-11.17-.6-15.68-3.6l-1.85 1.92-.81-.7 4.25-4.34c4 2.82 8.48 5.8 13.72 5.28a4.02 4.02 0 0 0 2.3-1.61 3.88 3.88 0 0 0-.23-4.03c-3.9-4.44-10.16-3.65-14.7-6.84-2.4-1.72-4.1-4.26-3.7-7.3.28-2.92 3.13-5.56 5.8-6.44 5.74-2.4 12.32-.46 16.96 3.05m202.06 23.17l.05.1a46.108 46.108 0 0 0 11.34-1.4c-.14.29-1.2 2.8-1.2 2.8h-17.04l11.76-26.8c-4.73 0-8.1-.47-11.96 1.93l-2.07 1.22.28-4.9h20.33zm-139.42 1.5H82.2v-2.05a7.849 7.849 0 0 1-8.1 1.94c-3.07-1.25-4.64-4.49-4.87-7.63a8.883 8.883 0 0 1 4.14-8.83c1.93-1.11 5.06-1.48 7.03-.1l1.8 1.35v-4.75h-1.77v-1.38h6.6v21.44zm-6.15-14.52a3.92 3.92 0 0 0-2.74-.99 4.24 4.24 0 0 0-2.7 2.08c-1.62 3.15-1.62 8.05.68 10.87a3.189 3.189 0 0 0 2.48.88 4.3 4.3 0 0 0 3.13-3.05c.81-3.14 1.22-7.18-.85-9.79zm100.76-6.93v7.47c2.76-2.5 6.7-5.15 10.38-3.25 2.43 1.52 2.09 4.32 2.04 7.27-.09 4.75-.38 9.99-.38 9.99l-4.65-.04a115.083 115.083 0 0 0-.12-12.59 3.338 3.338 0 0 0-1.43-2.3c-2.44-.8-4.23 1.2-5.84 2.86v12.07h-5.24v-20.1h-1.91v-1.38h7.14zm90.71 3.41h4.77l.27 1.38h-5.04l.3 16.65h-5.24l.23-16.65h-3.26v-1.38h3.26v-.76s1.25-.46 2.36-.98a13.942 13.942 0 0 0 2.35-1.33v3.07zm-115.74 1.92l-1.42 1.92c-2.3-1.8-5.97-3.11-8.87-1.91a2.16 2.16 0 0 0-1.1 1.71 2.108 2.108 0 0 0 1.1 1.94c3.59 1.67 9.2 1.34 10.2 6.39a5.41 5.41 0 0 1-2.2 4.85c-3.54 2.73-9.15 2.08-13.06.74-.01-.06.92-3.01.91-3.1a14.929 14.929 0 0 0 3.55 1.62c2.12.56 5.43 1.34 6.95-.88a1.738 1.738 0 0 0 .04-1.57c-1.75-2.36-4.92-1.94-7.26-3.14-1.57-.65-3.23-1.8-3.65-3.6a5.3 5.3 0 0 1 .93-5.05c3.68-3.38 9.98-2.05 13.88.08m17.03.37l-1.04 1.55a5.719 5.719 0 0 0-6-1.91c-3.36 2.13-3.36 6.57-2.76 10.17.41 2.04 1.88 4.54 4.18 5.04a7.491 7.491 0 0 0 4-1.88c-.1-.03 1.72 1.9 1.72 1.9a6.984 6.984 0 0 1-2.18 1.1 9.688 9.688 0 0 1-9.8-1.62 9.98 9.98 0 0 1-3.07-9.44 9.375 9.375 0 0 1 6.34-6.75 9.562 9.562 0 0 1 8.61 1.84m163.79.98a2.963 2.963 0 0 1 1.75-2.64 2.794 2.794 0 0 1 2.34.47 2.863 2.863 0 0 1 .88 1.75 2.62 2.62 0 0 1-1.66 2.36 3.814 3.814 0 0 1-1.93-.04c1.1 2.54 1.52 6.38.05 8.97a10.12 10.12 0 0 1-8.28 5.18c-1.24.14-2.71.23-3.3 1.48a1.032 1.032 0 0 0 .68.88c2.67.37 6.25-.97 7.9 1.8a2.954 2.954 0 0 1-.18 2.78c-2.07 2.77-6.02 3-9.1 2.12a11.09 11.09 0 0 1-3.4-2.22l1.82-1.42c1.7 1.62 4.11 2.9 6.45 2.12a2.067 2.067 0 0 0 1.3-1.25 1.52 1.52 0 0 0-.84-1.71c-2.48-.88-7.49.84-7.44-2.36a1.859 1.859 0 0 1 .64-1.62 4.947 4.947 0 0 1 1.52-.88c-3.17-1.1-6.3-4.35-6.62-7.86a9.61 9.61 0 0 1 5.1-10 10.856 10.856 0 0 1 11.4 1.21 8.308 8.308 0 0 1 .92.88m-4.09 1.06a6.4 6.4 0 0 0-2.53-2.3 3.2 3.2 0 0 0-2.53.27c-2.7 1.8-3.3 4.9-3.26 8 .23 2.82 1.06 6.01 3.95 7.17a3.68 3.68 0 0 0 3.96-1.48 10.68 10.68 0 0 0 .41-11.66"/><path data-name="Path 56" d="M33.37 10.743s-1.15 11 .14 15.02a1.893 1.893 0 0 0 2.07 1.02 13.813 13.813 0 0 0 4.97-2.96v-11.7h-2.76v-1.38h8v18.02h-5.25v-2.77c-1.01.37-2.07 1.34-3.17 1.75-2.3 1.02-5.43 2.6-7.82.7-1.75-2.27-1.7-5.27-1.8-8.23a78.244 78.244 0 0 1 .7-8.09h-2.67l-.05-1.38h7.63zm283.36 2.54a11.7 11.7 0 0 1 .92 5.26c-.19 3.65.32 6.63 0 10.23-1.52.14-5.17 0-5.17 0s.74-8.7.05-13.23c-.18-.65-1.16-1.2-1.8-1.48-2.39-.47-4.27 1.25-5.84 2.96v11.75h-5.06v-16.65h-2v-1.38h7.06v4.2c2.44-2.32 5.52-4.8 9.01-4.2a5.39 5.39 0 0 1 2.83 2.54m-54.08-2.54v18.03h-5.23v-16.65h-2.64v-1.38zM40.34 6.853a2.415 2.415 0 1 1-.01 0m217.25 0a2.42 2.42 0 1 1 2.42 2.44 2.43 2.43 0 0 1-2.42-2.44m-142.39 3.89s-1.16 11 .14 15.02a1.886 1.886 0 0 0 2.07 1.02 13.858 13.858 0 0 0 4.96-2.96v-11.7h-2.76v-1.38h8v18.02h-5.24v-2.77c-1.01.37-2.07 1.34-3.17 1.75-2.3 1.02-5.43 2.6-7.82.7-1.74-2.27-1.7-5.27-1.8-8.23a78.245 78.245 0 0 1 .7-8.09h-2.67l-.04-1.38h7.63zm167.61 0s-1.15 11 .14 15.02a1.886 1.886 0 0 0 2.07 1.02 13.813 13.813 0 0 0 4.97-2.96v-11.7h-2.76v-1.38h8v18.02h-5.24v-2.77c-1.01.37-2.07 1.34-3.18 1.75-2.3 1.02-5.42 2.6-7.81.7-1.75-2.27-1.7-5.27-1.8-8.23a78.239 78.239 0 0 1 .7-8.09h-2.67l-.05-1.38h7.63zm-145.08 0h3.68v1.38h-3.68l.29 16.65h-5.24l.23-16.65h-3.67v-1.38H133v-.76s1.26-.46 2.36-.98a14.363 14.363 0 0 0 2.36-1.33v3.07zm-71.23 18.04h-4.83v-2.05a7.849 7.849 0 0 1-8.1 1.94c-3.07-1.25-4.64-4.49-4.87-7.63a8.883 8.883 0 0 1 4.14-8.83c1.93-1.11 5.06-1.48 7.04-.1l1.79 1.35v-4.75h-1.78v-1.38h6.61v21.44zm-6.15-14.53a3.91 3.91 0 0 0-2.73-.99 4.24 4.24 0 0 0-2.71 2.08c-1.6 3.15-1.6 8.05.69 10.87a3.189 3.189 0 0 0 2.48.88 4.313 4.313 0 0 0 3.13-3.05c.81-3.14 1.21-7.18-.86-9.79zm194.5 1.05l-10.8 9.37a4.264 4.264 0 0 0 2.75 2.89 5.908 5.908 0 0 0 5.8-2.37l1.44 1.56a10.462 10.462 0 0 1-9.78 2.8 9.573 9.573 0 0 1-6.42-6.56 9.323 9.323 0 0 1 2.8-10c2.57-2.22 6.86-3.27 9.9-1.56a13.2 13.2 0 0 1 4.3 3.87zm-3.1.12a5.06 5.06 0 0 0-3.17-3.07 3.9 3.9 0 0 0-3.81 1.1c-2.53 2.36-2.45 5.2-1.65 9.25l8.63-7.28zm-38.19-.12l-10.8 9.37a4.278 4.278 0 0 0 2.76 2.89 5.924 5.924 0 0 0 5.8-2.37l1.44 1.56a10.476 10.476 0 0 1-9.78 2.8 9.587 9.587 0 0 1-6.43-6.56 9.359 9.359 0 0 1 2.8-10c2.57-2.22 6.87-3.27 9.9-1.56a13.2 13.2 0 0 1 4.31 3.87zm-3.1.12a5.06 5.06 0 0 0-3.16-3.07 3.9 3.9 0 0 0-3.82 1.1c-2.52 2.36-2.45 5.2-1.64 9.25l8.62-7.28zm-103.09-.12l-10.8 9.37a4.264 4.264 0 0 0 2.75 2.89 5.916 5.916 0 0 0 5.8-2.37l1.44 1.56a10.476 10.476 0 0 1-9.78 2.8 9.554 9.554 0 0 1-6.42-6.56 9.323 9.323 0 0 1 2.8-10c2.57-2.22 6.86-3.27 9.9-1.56a13.2 13.2 0 0 1 4.3 3.87zm-3.1.12a5.06 5.06 0 0 0-3.17-3.07 3.9 3.9 0 0 0-3.81 1.1c-2.53 2.36-2.45 5.2-1.65 9.25l8.62-7.28z"/></g></svg>