<?xml version="1.0" encoding="UTF-8"?>
<svg width="34px" height="32px" viewBox="0 0 34 32" version="1.1" xmlns="http://www.w3.org/2000/svg" xmlns:xlink="http://www.w3.org/1999/xlink">
    <!-- Generator: Sketch 61 (89581) - https://sketch.com -->
    <title>fasilities</title>
    <desc>Created with Sketch.</desc>
    <g id="Page-1" stroke="none" stroke-width="1" fill="none" fill-rule="evenodd">
        <g id="fasilities" fill="#383838" fill-rule="nonzero">
            <path d="M17.2018342,0.0540502506 C17.1131655,-0.0180167502 16.9871195,-0.0180167502 16.8984508,0.0540502506 C14.8657826,1.80952647 9.22285288,7.90749651 15.5332259,14.4366361 C15.6242409,14.5290296 15.9883009,14.8062101 16.0489775,14.3442427 C16.0481333,14.3339946 16.0481333,14.3236929 16.0489775,14.3134448 L17.0198042,7.84590086 L17.9906308,14.2518492 L17.9906308,14.3442427 C18.0816458,14.7446144 18.3546908,14.5598275 18.4760441,14.467434 C24.8470938,7.96909217 19.2345024,1.90191996 17.2018342,0.0540502506 Z M33.9789317,12.2191925 L33.9789317,12.1883947 C34.0278552,12.0770166 33.9891554,11.9460634 33.8879167,11.8804164 C31.5215268,10.5561098 23.9672822,7.1375508 20.0839757,15.360571 C20.0536373,15.4837623 19.9019457,15.9149319 20.3570207,15.8225384 L26.6673937,14.5906253 L21.0851406,17.6704081 L20.9941256,17.701206 C20.6300656,17.9167908 20.933449,18.1323756 21.0548023,18.1939712 C29.1551369,22.1360933 32.91709,14.7446144 33.9485933,12.1883947 L33.9789317,12.2191925 Z M0.0606766637,12.2499903 C0.0117530739,12.1386123 0.0504528833,12.0076591 0.151691659,11.942012 C2.48774321,10.5869076 10.0116495,7.19914646 13.9252943,15.4529645 C13.9556326,15.545358 14.1073243,15.9765276 13.6522493,15.9149319 L7.31153797,14.6830188 L12.9241294,17.7628016 L12.984806,17.7628016 C13.348866,17.9783864 13.075821,18.1939712 12.9544677,18.2863647 C4.82379476,22.2284868 1.06184161,14.8370079 0,12.2499903 L0.0606766637,12.2499903 Z M28.7304003,31.9606006 C28.8534374,31.9615797 28.9577306,31.868941 28.9731069,31.7450158 C29.2158136,29.0348068 29.1854752,20.6577975 20.205329,20.380617 C20.0839757,20.380617 19.659239,20.4422127 19.9019457,20.8117866 L23.5728838,26.2014066 L18.5670591,22.2592846 L18.5063824,22.1976889 C18.1423224,21.9513063 18.0816458,22.2900824 18.0513074,22.4440716 C17.8389391,31.5910266 25.9999504,32.0837919 28.7304003,31.9913984 L28.7304003,31.9606006 Z M5.3395464,31.9606006 L5.30920807,31.9606006 C5.18617095,31.9615797 5.08187775,31.868941 5.06650142,31.7450158 C4.85413309,29.0348068 4.85413309,20.6577975 13.8646176,20.380617 C13.9556326,20.380617 14.4107076,20.4422127 14.168001,20.8117866 L10.4060478,26.2322045 L15.4725492,22.2592846 L15.5332259,22.1976889 C15.8669476,21.9513063 15.9579625,22.2900824 15.9579625,22.4440716 C16.1703309,31.5910266 8.00931961,32.0837919 5.30920807,31.9913984 L5.3395464,31.9606006 Z" id="Shape"></path>
        </g>
    </g>
</svg>