<?xml version="1.0" encoding="UTF-8"?>
<svg width="45px" height="45px" viewBox="0 0 45 45" version="1.1" xmlns="http://www.w3.org/2000/svg" xmlns:xlink="http://www.w3.org/1999/xlink">
    <!-- Generator: Sketch 61 (89581) - https://sketch.com -->
    <title>fitness</title>
    <desc>Created with Sketch.</desc>
    <g id="Page-1" stroke="none" stroke-width="1" fill="none" fill-rule="evenodd">
        <g id="fitness" fill="#78B3AC" fill-rule="nonzero">
            <path d="M28.8770053,31.1785714 L13.7967914,16.0714286 L16.0427807,13.8214286 L31.1229947,28.9285714 L28.8770053,31.1785714 Z M2.0855615,4.41964286 C2.71684955,5.05205821 3.7403697,5.05205821 4.37165775,4.41964286 C5.0029458,3.78722751 5.0029458,2.76187964 4.37165775,2.12946429 L2.76737968,0.522321429 C2.13609163,-0.110093905 1.11257148,-0.110093897 0.481283439,0.522321446 C-0.150004603,1.15473679 -0.150004611,2.18008465 0.481283422,2.8125 L2.0855615,4.41964286 Z M19.2513369,0 L16.0427807,3.21428571 L12.8342246,0 L0,12.8571429 L3.20855615,16.0714286 L0,19.2857143 L3.2486631,22.5401786 L22.5,3.25446429 L19.2513369,0 Z M42.8743316,40.6205357 C42.2430435,39.9881204 41.2195233,39.9881204 40.5882353,40.6205357 C39.9569472,41.2529511 39.9569472,42.2782989 40.5882353,42.9107143 L42.1925134,44.5178571 C42.6008851,44.9269582 43.1961,45.0867303 43.7539462,44.936989 C44.3117924,44.7872476 44.7475199,44.350742 44.8969943,43.7918996 C45.0464688,43.2330573 44.8869814,42.6367796 44.4786096,42.2276786 L42.8743316,40.6205357 Z M44.959893,25.7544643 L41.7112299,22.4598214 L22.459893,41.7455357 L25.7486631,45 L28.9572193,41.7857143 L32.1657754,45 L45,32.1428571 L41.7914439,28.9285714 L44.959893,25.7544643 Z" id="Shape"></path>
        </g>
    </g>
</svg>