<?xml version="1.0" encoding="UTF-8"?>
<svg width="12px" height="16px" viewBox="0 0 12 16" version="1.1" xmlns="http://www.w3.org/2000/svg" xmlns:xlink="http://www.w3.org/1999/xlink">
    <!-- Generator: Sketch 61 (89581) - https://sketch.com -->
    <title>Shape</title>
    <desc>Created with Sketch.</desc>
    <g id="Page-1" stroke="none" stroke-width="1" fill="none" fill-rule="evenodd">
        <g id="Artboard" transform="translate(-604.000000, -725.000000)" fill="#000000" fill-rule="nonzero">
            <g id="stroke-icons" transform="translate(109.000000, 0.000000)">
                <path d="M503.454613,725.451467 C502.970979,725.451467 502.970979,725.451467 502.970979,725.451467 L502.970979,733.189616 L502.970979,739.960497 C502.970979,740.495396 503.403348,740.927765 503.93728,740.927765 L504.903581,740.927765 C505.436546,740.927765 505.868915,740.495396 505.868915,739.960497 L505.868915,733.189616 C505.868915,733.189616 509.250486,728.353273 503.454613,725.451467 Z M504.903581,739.476862 C504.903581,739.743828 504.686913,739.960497 504.419947,739.960497 C504.153948,739.960497 503.93728,739.743828 503.93728,739.476862 L503.93728,734.156885 L504.903581,734.156885 L504.903581,739.476862 Z M504.903581,733.189616 L503.93728,733.189616 L503.93728,727.386005 C503.93728,727.386005 507.317884,728.836907 504.903581,733.189616 Z M499.589407,725.451467 C499.322441,725.451467 499.105773,725.668135 499.105773,725.935102 L499.105773,728.836907 C499.105773,729.468534 498.702422,730.005368 498.139472,730.204625 L498.139472,725.935102 C498.139472,725.668135 497.923771,725.451467 497.656805,725.451467 C497.390806,725.451467 497.174138,725.668135 497.174138,725.935102 L497.174138,730.204625 C496.611187,730.005368 496.207836,729.468534 496.207836,728.836907 L496.207836,725.935102 C496.207836,725.668135 495.991168,725.451467 495.725169,725.451467 C495.458203,725.451467 495.241535,725.668135 495.241535,725.935102 L495.241535,728.836907 C495.241535,729.627166 495.621672,730.321665 496.207836,730.762739 L496.207836,740.202314 C496.207836,740.602763 496.532839,740.927765 496.932321,740.927765 L498.381289,740.927765 C498.781738,740.927765 499.105773,740.602763 499.105773,740.202314 L499.105773,730.762739 C499.691938,730.321665 500.072074,729.627166 500.072074,728.836907 L500.072074,725.935102 C500.072074,725.668135 499.856374,725.451467 499.589407,725.451467 Z M498.139472,739.476862 C498.139472,739.743828 497.923771,739.960497 497.656805,739.960497 C497.390806,739.960497 497.174138,739.743828 497.174138,739.476862 L497.174138,731.206716 L498.139472,731.206716 L498.139472,739.476862 Z" id="Shape"></path>
            </g>
        </g>
    </g>
</svg>