<?xml version="1.0" encoding="UTF-8"?>
<svg width="34px" height="29px" viewBox="0 0 34 29" version="1.1" xmlns="http://www.w3.org/2000/svg" xmlns:xlink="http://www.w3.org/1999/xlink">
    <!-- Generator: Sketch 61 (89581) - https://sketch.com -->
    <title>footanim</title>
    <desc>Created with Sketch.</desc>
    <g id="Page-1" stroke="none" stroke-width="1" fill="none" fill-rule="evenodd">
        <g id="footanim" fill="#383838" fill-rule="nonzero">
            <path d="M16.0897197,5.4375 C16.0897197,8.428125 14.1781311,10.875 11.8417451,10.875 C9.50535903,10.875 7.59377045,8.428125 7.59377045,5.4375 C7.59377045,2.446875 9.50535903,0 11.8417451,0 C14.1781311,0 16.0897197,2.446875 16.0897197,5.4375 Z M22.1582549,0 C19.8218689,0 17.9102803,2.446875 17.9102803,5.4375 C17.9102803,8.428125 19.8218689,10.875 22.1582549,10.875 C24.494641,10.875 26.4062296,8.428125 26.4062296,5.4375 C26.4062296,2.446875 24.494641,0 22.1582549,0 Z M2.58722891,9.48541667 C0.493584268,10.1197917 -0.538066715,12.8083333 0.281185537,15.5270833 C1.10043779,18.2458333 3.46716651,19.9677083 5.56081116,19.3333333 C7.6544558,18.6989583 8.68610678,16.0104167 7.86685453,13.2916667 C7.04760228,10.5729167 4.68087355,8.88125 2.58722891,9.48541667 Z M26.1634881,13.2916667 C25.3442359,16.0104167 26.3758869,18.7291667 28.4695315,19.3333333 C30.5631762,19.9677083 32.8995622,18.2458333 33.7188145,15.5572917 C34.5380667,12.86875 33.5064157,10.1197917 31.4127711,9.515625 C29.3191264,8.88125 26.9827404,10.5729167 26.1634881,13.2916667 Z M17,26.5833333 C20.6107784,26.5833333 18.8509032,29 23.6753887,29 C25.1621798,28.9395833 26.9827404,27.3989583 27.0132638,24.1666667 C27.0434257,19.9979167 23.2505913,13.8958333 17,13.59375 C10.7494087,13.8958333 6.95657425,19.9979167 6.98673623,24.1666667 C7.0172596,27.3989583 8.83782016,28.9395833 10.3246113,29 C15.1490968,29 13.3892216,26.5833333 17,26.5833333 Z" id="Shape"></path>
        </g>
    </g>
</svg>