<?xml version="1.0" encoding="UTF-8"?>
<svg width="11px" height="11px" viewBox="0 0 11 11" version="1.1" xmlns="http://www.w3.org/2000/svg" xmlns:xlink="http://www.w3.org/1999/xlink">
    <!-- Generator: Sketch 61 (89581) - https://sketch.com -->
    <title>Shape</title>
    <desc>Created with Sketch.</desc>
    <g id="Page-1" stroke="none" stroke-width="1" fill="none" fill-rule="evenodd">
        <g id="Artboard" transform="translate(-509.000000, -288.000000)" fill="#000000" fill-rule="nonzero">
            <g id="stroke-icons" transform="translate(100.000000, 0.000000)">
                <path d="M418.455982,288.961625 L417.889391,288.961625 L415.623025,288.961625 C415.3097,288.961625 415.056433,289.215458 415.056433,289.528217 L415.056433,290.094808 C415.056433,290.408133 415.3097,290.6614 415.623025,290.6614 L416.121059,290.6614 L415.222445,291.560014 C415.000907,291.781551 415.000907,292.139637 415.222445,292.361174 L415.623025,292.761754 C415.844562,292.983291 416.202648,292.983291 416.424185,292.761754 L417.322799,291.86314 L417.322799,292.361174 C417.322799,292.674499 417.576065,292.927765 417.889391,292.927765 L418.455982,292.927765 C418.769307,292.927765 419.022573,292.674499 419.022573,292.361174 L419.022573,290.094808 L419.022573,289.528217 C419.022573,289.215458 418.769307,288.961625 418.455982,288.961625 Z M418.455982,292.077878 C418.455982,292.234257 418.329065,292.361174 418.172686,292.361174 C418.016307,292.361174 417.889391,292.234257 417.889391,292.077878 L417.889391,290.495388 L416.224178,292.1606 C416.113693,292.271086 415.934084,292.271086 415.823598,292.1606 C415.713113,292.050115 415.713113,291.870506 415.823598,291.76002 L417.48881,290.094808 L415.906321,290.094808 C415.749941,290.094808 415.623025,289.967892 415.623025,289.811512 C415.623025,289.655133 415.749941,289.528217 415.906321,289.528217 L418.172686,289.528217 C418.329065,289.528217 418.455982,289.655133 418.455982,289.811512 L418.455982,292.077878 Z M413.757239,294.62754 L413.356659,294.226959 C413.135122,294.005422 412.777036,294.005422 412.555499,294.226959 L411.656885,295.125573 L411.656885,294.62754 C411.656885,294.314781 411.403619,294.060948 411.090293,294.060948 L410.523702,294.060948 C410.210944,294.060948 409.957111,294.314781 409.957111,294.62754 L409.957111,296.893905 L409.957111,297.460497 C409.957111,297.773822 410.210944,298.027088 410.523702,298.027088 L411.090293,298.027088 L413.356659,298.027088 C413.669984,298.027088 413.923251,297.773822 413.923251,297.460497 L413.923251,296.893905 C413.923251,296.581147 413.669984,296.327314 413.356659,296.327314 L412.858625,296.327314 L413.757239,295.4287 C413.978777,295.207163 413.978777,294.849077 413.757239,294.62754 Z M413.156086,295.228693 L411.490874,296.893905 L413.073363,296.893905 C413.229743,296.893905 413.356659,297.020822 413.356659,297.177201 C413.356659,297.33358 413.229743,297.460497 413.073363,297.460497 L410.806998,297.460497 C410.650619,297.460497 410.523702,297.33358 410.523702,297.177201 L410.523702,294.910835 C410.523702,294.754456 410.650619,294.62754 410.806998,294.62754 C410.963377,294.62754 411.090293,294.754456 411.090293,294.910835 L411.090293,296.493325 L412.755506,294.828113 C412.865991,294.717628 413.0456,294.717628 413.156086,294.828113 C413.266571,294.938598 413.267138,295.117641 413.156086,295.228693 Z M418.455982,294.060948 L417.889391,294.060948 C417.576632,294.060948 417.322799,294.314214 417.322799,294.62754 L417.322799,295.125573 L416.424185,294.226959 C416.202648,294.005422 415.844562,294.005422 415.623025,294.226959 L415.222445,294.62754 C415.000907,294.849077 415.000907,295.207163 415.222445,295.4287 L416.121059,296.327314 L415.623025,296.327314 C415.310266,296.327314 415.056433,296.581147 415.056433,296.893905 L415.056433,297.460497 C415.056433,297.773822 415.310266,298.027088 415.623025,298.027088 L417.889391,298.027088 L418.455982,298.027088 C418.769307,298.027088 419.022573,297.773822 419.022573,297.460497 L419.022573,296.893905 L419.022573,294.62754 C419.022573,294.314214 418.769307,294.060948 418.455982,294.060948 Z M418.455982,297.177201 C418.455982,297.33358 418.329065,297.460497 418.172686,297.460497 L415.906321,297.460497 C415.749941,297.460497 415.623025,297.33358 415.623025,297.177201 C415.623025,297.020822 415.749941,296.893905 415.906321,296.893905 L417.48881,296.893905 L415.823598,295.228693 C415.713113,295.118208 415.713113,294.938598 415.823598,294.828113 C415.934084,294.717628 416.113693,294.717628 416.224178,294.828113 L417.889391,296.493325 L417.889391,294.910835 C417.889391,294.754456 418.016307,294.62754 418.172686,294.62754 C418.329065,294.62754 418.455982,294.754456 418.455982,294.910835 L418.455982,297.177201 Z M413.356659,288.961625 L411.090293,288.961625 L410.523702,288.961625 C410.210377,288.961625 409.957111,289.215458 409.957111,289.528217 L409.957111,290.094808 L409.957111,292.361174 C409.957111,292.674499 410.210377,292.927765 410.523702,292.927765 L411.090293,292.927765 C411.403619,292.927765 411.656885,292.674499 411.656885,292.361174 L411.656885,291.86314 L412.555499,292.761754 C412.777036,292.983291 413.135122,292.983291 413.356659,292.761754 L413.757239,292.361174 C413.978777,292.139637 413.978777,291.781551 413.757239,291.560014 L412.858625,290.6614 L413.356659,290.6614 C413.669984,290.6614 413.923251,290.408133 413.923251,290.094808 L413.923251,289.528217 C413.923251,289.215458 413.669418,288.961625 413.356659,288.961625 Z M413.073363,290.094808 L411.490874,290.094808 L413.156086,291.76002 C413.266571,291.870506 413.266571,292.050115 413.156086,292.1606 C413.0456,292.271086 412.865991,292.271086 412.755506,292.1606 L411.090293,290.495388 L411.090293,292.077878 C411.090293,292.234257 410.963377,292.361174 410.806998,292.361174 C410.650619,292.361174 410.523702,292.234257 410.523702,292.077878 L410.523702,289.811512 C410.523702,289.6557 410.650619,289.528217 410.806998,289.528217 L413.073363,289.528217 C413.229743,289.528217 413.356659,289.655133 413.356659,289.811512 C413.356659,289.967892 413.229743,290.094808 413.073363,290.094808 Z" id="Shape"></path>
            </g>
        </g>
    </g>
</svg>