<?xml version="1.0" encoding="utf-8"?>
<!-- Generator: Adobe Illustrator 18.0.0, SVG Export Plug-In . SVG Version: 6.00 Build 0)  -->
<!DOCTYPE svg PUBLIC "-//W3C//DTD SVG 1.1//EN" "http://www.w3.org/Graphics/SVG/1.1/DTD/svg11.dtd">
<svg version="1.1" id="Layer_1" xmlns="http://www.w3.org/2000/svg" xmlns:xlink="http://www.w3.org/1999/xlink" x="0px" y="0px"
	 viewBox="0 0 48 48" enable-background="new 0 0 48 48" xml:space="preserve">
<g>
	<path fill="#010101" d="M29.4,15.6c-2,0-3.7-1.7-3.7-3.7c0-2,1.7-3.7,3.7-3.7s3.7,1.7,3.7,3.7C33.1,13.9,31.4,15.6,29.4,15.6z
		 M29.4,10.2c-0.9,0-1.7,0.8-1.7,1.7c0,0.9,0.8,1.7,1.7,1.7c0.9,0,1.7-0.8,1.7-1.7C31.1,11,30.3,10.2,29.4,10.2z"/>
	<path fill="#010101" d="M29,48H13L8.4,29.9h25.2L29,48z M14.6,46h12.8L31,31.9H11L14.6,46z"/>
	<path fill="#010101" d="M19.7,31.6c-0.1-0.4-1.4-9.8,3.5-13.5l1.2,1.6c-4,3-2.7,11.6-2.7,11.7L19.7,31.6z"/>
	<path fill="#010101" d="M16.7,27.7c-1.9,0-3.7-0.5-5.1-1.5c-4.3-2.8-4.4-6.7-4.5-8.8l-0.1-2l1.5,0.8c1.2,0.6,2.2,0.9,3.2,1
		c6.2,0.3,9.6,3.9,10,7.1l-2,0.3c-0.3-2.4-3-5.1-8.2-5.3c-0.8-0.1-1.6-0.2-2.5-0.5c0.2,1.9,0.8,4.1,3.5,5.9c1.9,1.3,4.8,1.5,7.4,0.5
		l0.7,1.9C19.4,27.4,18,27.7,16.7,27.7z"/>
	<path fill="#010101" d="M28.2,23.8c-0.3,0-0.6,0-0.9-0.1c-2.2-0.3-4-2.1-4.4-4.3c-2.3,0-4.2-1.4-4.9-3.6c-0.8-2.4,0.1-4.9,2.1-6.2
		c-0.5-0.9-0.7-1.8-0.7-2.8c0.1-1.4,0.7-2.7,1.7-3.6c1.4-1.3,3.4-1.7,5.3-1.2c1.1-1.5,3.1-2.3,5.1-2c2.2,0.3,4,2.1,4.4,4.3
		c2.3,0,4.2,1.4,4.9,3.6c0.8,2.4-0.1,4.9-2.1,6.2c1.1,2,0.8,4.7-1,6.4c-1,0.9-2.3,1.4-3.7,1.4c0,0,0,0,0,0c-0.5,0-1.1-0.1-1.6-0.2
		C31.4,23,29.9,23.8,28.2,23.8z M25,17.1l-0.1,1.3c-0.1,1.7,1.1,3.1,2.7,3.4c0.2,0,0.4,0,0.6,0c1.3,0,2.4-0.7,2.9-1.7l0.4-0.9
		l0.9,0.4c0.5,0.2,1,0.4,1.6,0.4h0c0.9,0,1.7-0.3,2.3-0.9c1.3-1.2,1.4-3.3,0.2-4.6l-1-1.1l1.4-0.5c1.7-0.6,2.6-2.5,2-4.2
		c-0.5-1.6-2.1-2.5-3.8-2.1l-1.2,0.2l0.1-1.3c0.1-1.7-1.1-3.1-2.7-3.4c-0.2,0-0.4,0-0.6,0c-1.3,0-2.4,0.7-2.9,1.7l-0.4,0.9l-0.9-0.4
		c-1.3-0.6-2.8-0.4-3.9,0.5c-0.6,0.6-1,1.3-1.1,2.2c0,0.9,0.3,1.7,0.9,2.4l1,1.1l-1.4,0.5c-1.7,0.6-2.6,2.5-2,4.2
		c0.5,1.6,2.1,2.5,3.8,2.1L25,17.1z"/>
</g>
</svg>
