<?xml version="1.0" encoding="UTF-8"?>
<svg width="6px" height="6px" viewBox="0 0 6 6" version="1.1" xmlns="http://www.w3.org/2000/svg" xmlns:xlink="http://www.w3.org/1999/xlink">
    <!-- Generator: Sketch 61 (89581) - https://sketch.com -->
    <title>Group</title>
    <desc>Created with Sketch.</desc>
    <g id="Page-1" stroke="none" stroke-width="1" fill="none" fill-rule="evenodd">
        <g id="Artboard" transform="translate(-128.000000, -152.000000)" fill="#000000" fill-rule="nonzero">
            <g id="lineart" transform="translate(57.000000, -2.000000)">
                <g id="Group" transform="translate(71.106824, 154.261647)">
                    <path d="M5.20804329,0.458296471 C4.59666635,-0.152844235 3.60589553,-0.152844235 2.99451859,0.458296471 C2.93545976,0.517355294 2.88396047,0.580902588 2.83624094,0.646103529 C2.78875765,0.580902588 2.73702212,0.517355294 2.67819953,0.458296471 C2.06682259,-0.152844235 1.07581553,-0.152844235 0.464674824,0.458296471 C-0.146702118,1.06967341 -0.146702118,2.06044424 0.464674824,2.67182118 L2.83624094,5.04362353 L5.20804329,2.67182118 C5.819184,2.06068047 5.819184,1.06967341 5.20804329,0.458296471 Z M4.89172424,2.35597459 C4.77904,2.46865882 2.83624094,4.41145788 2.83624094,4.41145788 C2.83624094,4.41145788 0.893441882,2.46842259 0.780757647,2.35597459 C0.344194824,1.91917553 0.344194824,1.21165082 0.780757647,0.774851765 C1.21779294,0.338288941 1.92555388,0.338288941 2.36188047,0.774851765 C2.46629647,0.879031529 2.83624094,1.24921224 2.83624094,1.24921224 C2.83624094,1.24921224 3.20618541,0.879267765 3.31060141,0.774851765 C3.74740047,0.338288941 4.45539765,0.338288941 4.89172424,0.774851765 C5.32828706,1.21165082 5.32828706,1.91917553 4.89172424,2.35597459 Z" id="Shape"></path>
                </g>
            </g>
        </g>
    </g>
</svg>