<?xml version="1.0" encoding="UTF-8"?>
<svg width="12px" height="16px" viewBox="0 0 12 16" version="1.1" xmlns="http://www.w3.org/2000/svg" xmlns:xlink="http://www.w3.org/1999/xlink">
    <!-- Generator: Sketch 61 (89581) - https://sketch.com -->
    <title>Group</title>
    <desc>Created with Sketch.</desc>
    <g id="Page-1" stroke="none" stroke-width="1" fill="none" fill-rule="evenodd">
        <g id="Artboard" transform="translate(-372.000000, -783.000000)" fill="#000000" fill-rule="nonzero">
            <g id="stroke-icons" transform="translate(109.000000, 0.000000)">
                <g id="Group" transform="translate(263.097065, 783.487585)">
                    <path d="M10.6399549,0.967268623 L8.70541761,0.967268623 L8.70541761,0.483634312 C8.70541761,0.216668172 8.48874944,0 8.2217833,0 C7.95481716,0 7.73814898,0.216668172 7.73814898,0.483634312 L7.73814898,0.967268623 L3.86907449,0.967268623 L3.86907449,0.483634312 C3.86907449,0.216668172 3.65240632,0 3.38544018,0 C3.11847404,0 2.90180587,0.216668172 2.90180587,0.483634312 L2.90180587,0.967268623 L0.967268623,0.967268623 C0.433336343,0.967268623 0,1.3996377 0,1.93453725 L0,14.5090293 C0,15.0439289 0.433336343,15.476298 0.967268623,15.476298 L10.6399549,15.476298 C11.1748544,15.476298 11.6072235,15.0439289 11.6072235,14.5090293 L11.6072235,1.93453725 C11.6072235,1.3996377 11.1748544,0.967268623 10.6399549,0.967268623 Z M10.6399549,14.5090293 L8.70541761,14.5090293 L8.70541761,12.5744921 L6.77088036,12.5744921 L6.77088036,14.5090293 L4.83634312,14.5090293 L4.83634312,12.5744921 L2.90180587,12.5744921 L2.90180587,14.5090293 L0.967268623,14.5090293 L0.967268623,11.6072235 L10.6399549,11.6072235 L10.6399549,14.5090293 Z M10.6399549,10.6399549 L0.967268623,10.6399549 L0.967268623,1.93453725 L10.6399549,1.93453725 L10.6399549,10.6399549 Z" id="Shape"></path>
                    <rect id="Rectangle" x="3.86907449" y="4.83634312" width="1" height="1"></rect>
                    <rect id="Rectangle" x="6.77088036" y="4.83634312" width="1" height="1"></rect>
                    <rect id="Rectangle" x="3.86907449" y="2.90180587" width="1" height="1"></rect>
                    <rect id="Rectangle" x="6.77088036" y="2.90180587" width="1" height="1"></rect>
                    <rect id="Rectangle" x="8.70541761" y="4.83634312" width="1" height="1"></rect>
                    <rect id="Rectangle" x="8.70541761" y="2.90180587" width="1" height="1"></rect>
                    <rect id="Rectangle" x="1.93453725" y="4.83634312" width="1" height="1"></rect>
                    <rect id="Rectangle" x="1.93453725" y="2.90180587" width="1" height="1"></rect>
                    <rect id="Rectangle" x="3.86907449" y="8.70541761" width="1" height="1"></rect>
                    <rect id="Rectangle" x="6.77088036" y="8.70541761" width="1" height="1"></rect>
                    <rect id="Rectangle" x="3.86907449" y="6.77088036" width="1" height="1"></rect>
                    <rect id="Rectangle" x="6.77088036" y="6.77088036" width="1" height="1"></rect>
                    <rect id="Rectangle" x="8.70541761" y="8.70541761" width="1" height="1"></rect>
                    <rect id="Rectangle" x="8.70541761" y="6.77088036" width="1" height="1"></rect>
                    <rect id="Rectangle" x="1.93453725" y="8.70541761" width="1" height="1"></rect>
                    <rect id="Rectangle" x="1.93453725" y="6.77088036" width="1" height="1"></rect>
                </g>
            </g>
        </g>
    </g>
</svg>