<?xml version="1.0" encoding="utf-8"?>
<!-- Generator: Adobe Illustrator 18.0.0, SVG Export Plug-In . SVG Version: 6.00 Build 0)  -->
<!DOCTYPE svg PUBLIC "-//W3C//DTD SVG 1.1//EN" "http://www.w3.org/Graphics/SVG/1.1/DTD/svg11.dtd">
<svg version="1.1" id="Layer_1" xmlns="http://www.w3.org/2000/svg" xmlns:xlink="http://www.w3.org/1999/xlink" x="0px" y="0px"
	 viewBox="0 0 48 48" enable-background="new 0 0 48 48" xml:space="preserve">
<g>
	<path fill="#010101" d="M36.8,48H0V22.4l23.8-10.7l13,4.6V48z M2,46h32.8V17.6l-11-3.8L2,23.6V46z"/>
	<rect x="22.7" y="13.5" fill="#010101" width="2" height="33.5"/>
	<g>
		
			<rect x="10.6" y="17.4" transform="matrix(0.2959 0.9552 -0.9552 0.2959 31.8564 6.3803)" fill="#010101" width="2" height="14.9"/>
		
			<rect x="10.6" y="23.5" transform="matrix(0.2065 0.9784 -0.9784 0.2065 39.3401 13.0888)" fill="#010101" width="2" height="14.5"/>
		
			<rect x="10.6" y="29.6" transform="matrix(0.105 0.9945 -0.9945 0.105 46.9287 21.3547)" fill="#010101" width="2" height="14.3"/>
		<rect x="4.5" y="41.8" fill="#010101" width="14.2" height="2"/>
	</g>
	<polygon fill="#010101" points="48,48 31.7,48 31.7,46 46,46 46,6.5 32.4,2.1 19.4,7.8 19.4,14.5 17.4,14.5 17.4,6.6 32.2,-0.1 
		48,5.1 	"/>
	<rect x="40" y="8.8" fill="#010101" width="2" height="3.9"/>
	<rect x="40" y="15.8" fill="#010101" width="2" height="3.9"/>
	<rect x="40" y="22.8" fill="#010101" width="2" height="4"/>
	<rect x="40" y="29.9" fill="#010101" width="2" height="3.9"/>
	<rect x="40" y="36.9" fill="#010101" width="2" height="3.9"/>
</g>
</svg>
