<?xml version="1.0" encoding="UTF-8"?>
<svg width="25px" height="28px" viewBox="0 0 25 28" version="1.1" xmlns="http://www.w3.org/2000/svg" xmlns:xlink="http://www.w3.org/1999/xlink">
    <!-- Generator: Sketch 61 (89581) - https://sketch.com -->
    <title>SearchIcon</title>
    <desc>Created with Sketch.</desc>
    <g id="Page-1" stroke="none" stroke-width="1" fill="none" fill-rule="evenodd">
        <g id="CalendarView" transform="translate(-21.000000, -40.000000)" fill="#FFFFFF">
            <g id="LeftIconLayer" transform="translate(21.000000, 33.000000)">
                <g id="8J" transform="translate(12.500000, 21.000000) scale(-1, 1) translate(-12.500000, -21.000000) translate(0.000000, 7.000000)">
                    <path d="M3.77439024,26.11 C2.98170732,26.11 2.33536585,25.4916667 2.33536585,24.7333333 C2.33536585,23.975 2.98170732,23.3566667 3.77439024,23.3566667 C4.56707317,23.3566667 5.21341463,23.975 5.21341463,24.7333333 C5.21341463,25.4916667 4.56707317,26.11 3.77439024,26.11 Z M3.77439024,21.6066667 C1.9695122,21.6066667 0.506097561,23.0066667 0.506097561,24.7333333 C0.506097561,26.4541667 1.9695122,27.86 3.77439024,27.86 C5.57317073,27.86 7.04268293,26.4541667 7.04268293,24.7333333 C7.04268293,23.0066667 5.57317073,21.6066667 3.77439024,21.6066667 L3.77439024,21.6066667 Z M19.8658537,17.9783333 C16,21.6766667 9.71341463,21.6766667 5.84756098,17.9783333 C1.98780488,14.2858333 1.98780488,8.27166667 5.84756098,4.57333333 C7.7804878,2.72416667 10.3170732,1.8025 12.8536585,1.8025 C15.3963415,1.8025 17.9329268,2.72416667 19.8658537,4.57333333 C23.7256098,8.27166667 23.7256098,14.2858333 19.8658537,17.9783333 Z M21.1585366,3.33666667 C16.5792683,-1.03833333 9.13414634,-1.03833333 4.55487805,3.33666667 C-0.0182926829,7.7175 -0.0182926829,14.84 4.55487805,19.2208333 C6.84756098,21.4083333 9.85365854,22.4991667 12.8536585,22.4991667 C15.8597561,22.4991667 18.8658537,21.4083333 21.1585366,19.2208333 C25.7317073,14.84 25.7317073,7.7175 21.1585366,3.33666667 L21.1585366,3.33666667 Z"></path>
                </g>
            </g>
        </g>
    </g>
</svg>