<?xml version="1.0" encoding="UTF-8"?>
<svg width="512px" height="509px" viewBox="0 0 512 509" version="1.1" xmlns="http://www.w3.org/2000/svg" xmlns:xlink="http://www.w3.org/1999/xlink">
    <!-- Generator: Sketch 61 (89581) - https://sketch.com -->
    <title>magnifier</title>
    <desc>Created with Sketch.</desc>
    <g id="Page-1" stroke="none" stroke-width="1" fill="none" fill-rule="evenodd">
        <g id="magnifier" fill="#000000" fill-rule="nonzero">
            <path d="M500.835938,442.988281 L369.949219,311.652344 C367.890625,309.585938 365.03125,308.519531 362.117188,308.726562 C359.207031,308.9375 356.527344,310.40625 354.785156,312.746094 C351.421875,317.261719 347.84375,321.601562 344.101562,325.789062 L324.097656,305.785156 C352.152344,273.398438 369.148438,231.183594 369.148438,185.074219 C369.148438,83.300781 286.347656,0.5 184.574219,0.5 C82.796875,0.5 -5.68434189e-14,83.300781 -5.68434189e-14,185.074219 C-5.68434189e-14,286.847656 82.800781,369.648438 184.574219,369.648438 C233.027344,369.648438 277.171875,350.871094 310.136719,320.222656 L329.941406,340.027344 C325.839844,343.734375 321.589844,347.28125 317.164062,350.625 C314.847656,352.371094 313.402344,355.035156 313.199219,357.929688 C312.996094,360.828125 314.054688,363.667969 316.101562,365.722656 L446.867188,496.9375 C454.074219,504.140625 463.65625,508.109375 473.847656,508.109375 C484.035156,508.109375 493.617188,504.144531 500.828125,496.9375 C508.03125,489.730469 512,480.148438 512,469.957031 C512,459.769531 508.035156,450.195312 500.835938,442.988281 L500.835938,442.988281 Z M20.078125,185.074219 C20.078125,94.371094 93.871094,20.578125 184.574219,20.578125 C275.28125,20.578125 349.070312,94.371094 349.070312,185.074219 C349.070312,275.777344 275.277344,349.570312 184.574219,349.570312 C93.871094,349.570312 20.078125,275.777344 20.078125,185.074219 Z M486.628906,482.738281 C483.214844,486.152344 478.671875,488.03125 473.847656,488.03125 C469.019531,488.03125 464.480469,486.152344 461.078125,482.75 L338.230469,359.484375 C347.453125,351.6875 355.980469,343.109375 363.714844,333.839844 L486.628906,457.175781 C490.042969,460.589844 491.921875,465.128906 491.921875,469.957031 C491.921875,474.785156 490.042969,479.324219 486.628906,482.738281 Z" id="Shape"></path>
        </g>
    </g>
</svg>