<?xml version="1.0" encoding="UTF-8"?>
<svg width="18px" height="26px" viewBox="0 0 18 26" version="1.1" xmlns="http://www.w3.org/2000/svg" xmlns:xlink="http://www.w3.org/1999/xlink">
    <!-- Generator: Sketch 61 (89581) - https://sketch.com -->
    <title>10E</title>
    <desc>Created with Sketch.</desc>
    <g id="Page-1" stroke="none" stroke-width="1" fill="none" fill-rule="evenodd">
        <g id="GridViewQuickPDP-Copy-6" transform="translate(-72.000000, -35.000000)" fill="#B9B9C0">
            <g id="LeftIconLayer" transform="translate(31.000000, 29.000000)">
                <path d="M59,19.1078297 C59,18.6421475 58.6206089,18.2641509 58.1448645,18.2641509 C57.6691201,18.2641509 57.289729,18.6421475 57.289729,19.1078297 C57.289729,23.0613891 54.019739,26.2779145 49.996989,26.2779145 C45.980261,26.2779145 42.710271,23.0613891 42.710271,19.1078297 C42.710271,18.6421475 42.3308799,18.2641509 41.8551355,18.2641509 C41.3793911,18.2641509 41,18.6421475 41,19.1078297 C41,23.7071826 44.5771161,27.4954425 49.1418535,27.9226142 L49.1418535,30.3126424 L45.0950151,30.3126424 C44.6192707,30.3126424 44.2338575,30.690639 44.2338575,31.1563212 C44.2338575,31.6220035 44.6192707,32 45.0950151,32 L54.9049849,32 C55.3807293,32 55.7661425,31.6220035 55.7661425,31.1563212 C55.7661425,30.690639 55.3807293,30.3126424 54.9049849,30.3126424 L50.8581465,30.3126424 L50.8581465,27.9226142 C55.4228839,27.4954425 59,23.7071826 59,19.1078297 M47.7627969,9.74915687 C47.7627969,8.61161243 48.7022416,7.68735758 49.8584811,7.68735758 L50.1415189,7.68735758 C51.2977584,7.68735758 52.2372031,8.61161243 52.2372031,9.74915687 L52.2372031,19.6463859 C52.2372031,20.7833379 51.2977584,21.7081852 50.1415189,21.7081852 L49.8584811,21.7081852 C48.7022416,21.7081852 47.7627969,20.7833379 47.7627969,19.6463859 L47.7627969,9.74915687 Z M49.8584811,23.3955428 L50.1415189,23.3955428 C52.2432252,23.3955428 53.9474741,21.7141099 53.9474741,19.6463859 L53.9474741,9.74915687 C53.9474741,7.68202534 52.2432252,6 50.1415189,6 L49.8584811,6 C47.7567748,6 46.0465038,7.68202534 46.0465038,9.74915687 L46.0465038,19.6463859 C46.0465038,21.7141099 47.7567748,23.3955428 49.8584811,23.3955428 L49.8584811,23.3955428 Z" id="10E"></path>
            </g>
        </g>
    </g>
</svg>