<?xml version="1.0" encoding="UTF-8"?>
<svg width="26px" height="24px" viewBox="0 0 26 24" version="1.1" xmlns="http://www.w3.org/2000/svg" xmlns:xlink="http://www.w3.org/1999/xlink">
    <!-- Generator: Sketch 61 (89581) - https://sketch.com -->
    <title>39. Heart</title>
    <desc>Created with Sketch.</desc>
    <g id="Page-1" stroke="none" stroke-width="1" fill="none" fill-rule="evenodd">
        <g id="GridViewQuickPDP-Copy-4" transform="translate(-1379.000000, -32.000000)" fill="#CCCCCC">
            <path d="M1397.27106,32 C1394.89126,32 1392.79008,33.2155966 1391.56136,35.0546932 C1390.33377,33.2155966 1388.2326,32 1385.85165,32 C1382.08553,32 1379.01998,35.0398479 1379,38.7837028 C1379,43.357178 1385.20245,51.5917172 1391.10287,55.2082456 L1391.56136,55.4092273 L1392.02099,55.2082456 C1397.9214,51.5911463 1404.12271,43.356607 1404.12271,38.7831318 C1404.10273,35.0398479 1401.03718,32 1397.27106,32 L1397.27106,32 Z M1391.56136,54.1525208 C1385.98526,50.6644608 1380.14194,42.8176107 1380.14194,38.7831318 C1380.1585,35.6730544 1382.72045,33.1368026 1385.85165,33.1368026 C1387.76668,33.1368026 1389.54526,34.0880398 1390.61126,35.6827609 L1391.56136,37.1067618 L1392.51259,35.6827609 C1393.57745,34.0880398 1395.35603,33.1368026 1397.27106,33.1368026 C1400.40227,33.1368026 1402.96421,35.6724835 1402.98077,38.7894125 C1402.98077,42.8181816 1397.13745,50.6644608 1391.56136,54.1525208 L1391.56136,54.1525208 Z" id="39.-Heart"></path>
        </g>
    </g>
</svg>