<?xml version="1.0" encoding="utf-8"?>
<!-- Generator: Adobe Illustrator 18.0.0, SVG Export Plug-In . SVG Version: 6.00 Build 0)  -->
<!DOCTYPE svg PUBLIC "-//W3C//DTD SVG 1.1//EN" "http://www.w3.org/Graphics/SVG/1.1/DTD/svg11.dtd">
<svg version="1.1" id="Layer_1" xmlns="http://www.w3.org/2000/svg" xmlns:xlink="http://www.w3.org/1999/xlink" x="0px" y="0px"
	 viewBox="0 0 48 48" enable-background="new 0 0 48 48" xml:space="preserve">
<g>
	<path fill="#010101" d="M24,48.5l-0.8-0.9C22.5,46.9,5.9,27.8,5.9,18.1C5.9,8.1,14,0,24,0s18.1,8.1,18.1,18.1
		c0,9.7-16.6,28.8-17.3,29.6L24,48.5z M24,2C15.1,2,7.9,9.2,7.9,18.1c0,7.8,12.8,23.5,16.1,27.4c3.3-3.9,16.1-19.5,16.1-27.4
		C40.1,9.2,32.9,2,24,2z"/>
	<path fill="#010101" d="M24,30.2c-6.7,0-12.1-5.4-12.1-12.1C11.9,11.4,17.3,6,24,6s12.1,5.4,12.1,12.1C36.1,24.8,30.7,30.2,24,30.2
		z M24,8c-5.6,0-10.1,4.5-10.1,10.1S18.4,28.2,24,28.2s10.1-4.5,10.1-10.1S29.6,8,24,8z"/>
</g>
</svg>
