<?xml version="1.0" encoding="UTF-8"?>
<svg width="25px" height="25px" viewBox="0 0 25 25" version="1.1" xmlns="http://www.w3.org/2000/svg" xmlns:xlink="http://www.w3.org/1999/xlink">
    <!-- Generator: Sketch 61 (89581) - https://sketch.com -->
    <title>Informtion</title>
    <desc>Created with Sketch.</desc>
    <g id="Symbols" stroke="none" stroke-width="1" fill="none" fill-rule="evenodd">
        <g id="SidebarIcons" transform="translate(-3.000000, -199.000000)" fill="#B9B9C0">
            <g id="7C">
                <g transform="translate(3.000000, 199.000000)">
                    <path d="M12.4391892,10.577027 C12.9932432,10.577027 13.4527027,11.0310811 13.4527027,11.5905405 L13.4527027,11.5905405 L13.4527027,16.9391892 C13.4527027,17.4986486 12.9932432,17.9527027 12.4391892,17.9527027 C11.8783784,17.9527027 11.4256757,17.4986486 11.4256757,16.9391892 L11.4256757,16.9391892 L11.4256757,11.5905405 C11.4256757,11.0310811 11.8783784,10.577027 12.4391892,10.577027 Z M12.4391892,6.96148649 C12.9932432,6.96148649 13.4527027,7.41081081 13.4527027,7.97027027 L13.4527027,7.97027027 L13.4527027,7.97972973 C13.4527027,8.53918919 12.9932432,8.99324324 12.4391892,8.99324324 C11.8783784,8.99324324 11.4256757,8.53918919 11.4256757,7.97972973 C11.4256757,7.41959459 11.8783784,6.96148649 12.4391892,6.96148649 Z M22.6486486,20.7885135 C22.6486486,21.7202703 21.8918919,22.4777027 20.9594595,22.4777027 L3.91216216,22.4777027 C2.98648649,22.4777027 2.22297297,21.7202703 2.22297297,20.7885135 L2.22297297,3.74459459 C2.22297297,2.81283784 2.98648649,2.05540541 3.91216216,2.05540541 L20.9594595,2.05540541 C21.8918919,2.05540541 22.6486486,2.81283784 22.6486486,3.74459459 L22.6486486,20.7885135 Z M20.9594595,0.0283783784 L3.91216216,0.0283783784 C1.86486486,0.0283783784 0.195945946,1.69527027 0.195945946,3.74459459 L0.195945946,20.7885135 C0.195945946,22.8371622 1.86486486,24.5047297 3.91216216,24.5047297 L20.9594595,24.5047297 C23.0067568,24.5047297 24.6756757,22.8371622 24.6756757,20.7885135 L24.6756757,3.74459459 C24.6756757,1.69527027 23.0067568,0.0283783784 20.9594595,0.0283783784 L20.9594595,0.0283783784 Z" id="Info"></path>
                </g>
            </g>
        </g>
    </g>
</svg>