<?xml version="1.0" encoding="UTF-8"?>
<svg width="20px" height="22px" viewBox="0 0 20 22" version="1.1" xmlns="http://www.w3.org/2000/svg" xmlns:xlink="http://www.w3.org/1999/xlink">
    <!-- Generator: Sketch 61 (89581) - https://sketch.com -->
    <title>icon-guests</title>
    <desc>Created with Sketch.</desc>
    <g id="Page-1" stroke="none" stroke-width="1" fill="none" fill-rule="evenodd">
        <g id="GridViewQuickPDP-Copy-4" transform="translate(-230.000000, -102.000000)" stroke="#474A53">
            <g id="SliderMenu" transform="translate(69.000000, 90.000000)">
                <g id="icon-guests" transform="translate(162.000000, 13.000000)">
                    <path d="M8.52140902,8.92857143 C8.52140902,8.92857143 6.1882174,8.21428571 7.35481321,6.9047619 C8.52140902,5.5952381 9.22136651,3.92857143 8.75472819,2.14285714 C8.28808986,0.357142857 7.00483447,0 6.1882174,0 C5.02162159,0 2.33845122,0.238095238 2.57177038,4.04761905 C2.57177038,4.04761905 2.80508954,5.83333333 3.73836619,7.14285714 C3.97168536,7.5 3.97168536,7.97619048 3.73836619,8.33333333 C2.92174912,9.16666667 1.40517457,10.7142857 1.05519583,11.0714286 C-0.111399987,12.2619048 -0.111399987,15.2380952 0.121919175,17.6190476 C0.121919175,17.6190476 0.121919175,19.5238095 2.10513206,19.6428571 C3.97168536,19.7619048 6.30487698,19.7619048 7.70479196,19.6428571 C8.40474944,19.6428571 9.80466442,19.6428571 9.57134526,16.3095238 C9.33802609,12.9761905 9.57134526,12.6190476 9.57134526,12.6190476 C9.57134526,12.6190476 9.57134526,10.952381 11.7878773,9.88095238 C12.137856,9.76190476 12.2545156,9.28571429 12.137856,8.92857143 C11.321239,7.5 9.68800484,4.04761905 12.6044944,3.0952381 C14.937686,2.26190476 16.1042818,4.64285714 16.2209414,6.19047619 C16.2209414,6.54761905 16.1042818,7.14285714 15.8709626,7.5 C15.4043243,8.0952381 14.7043668,9.28571429 14.7043668,9.52380952 C14.5877072,10.1190476 15.6376435,10.8333333 16.5709201,11.3095238 C17.2708776,11.6666667 17.7375159,12.2619048 17.8541755,12.9761905 C18.0874947,14.1666667 17.9708351,15.8333333 17.9708351,17.5 C17.9708351,18.2142857 18.2041543,19.047619 16.4542605,19.8809524 L11.321239,20" id="Shape"></path>
                </g>
            </g>
        </g>
    </g>
</svg>