<?xml version="1.0" ?><!DOCTYPE svg  PUBLIC '-//W3C//DTD SVG 1.1//EN'  'http://www.w3.org/Graphics/SVG/1.1/DTD/svg11.dtd'><svg height="6.827in" style="shape-rendering:geometricPrecision; text-rendering:geometricPrecision; image-rendering:optimizeQuality; fill-rule:evenodd; clip-rule:evenodd" viewBox="0 0 6.827 6.827" width="6.827in" xml:space="preserve" xmlns="http://www.w3.org/2000/svg" xmlns:xlink="http://www.w3.org/1999/xlink"><defs><style type="text/css">
   <![CDATA[
    .fil1 {fill:none}
    .fil0 {fill:black;fill-rule:nonzero}
   ]]>
  </style></defs><g id="Layer_x0020_1"><g id="_456326096"><g><path class="fil0" d="M1.07163 2.59247l4.68374 0c0.0549882,0 0.104949,0.0224646 0.141142,0.0586575 0.0361929,0.0361929 0.0586575,0.0861535 0.0586575,0.141142l0 2.5c0,0.0549882 -0.0224646,0.104949 -0.0586575,0.141142 -0.0361929,0.0361929 -0.0861535,0.0586575 -0.141142,0.0586575l-4.68374 0c-0.0549882,0 -0.104949,-0.0224646 -0.141142,-0.0586575 -0.0361929,-0.0361929 -0.0586575,-0.0861535 -0.0586575,-0.141142l0 -2.5c0,-0.0549882 0.0224646,-0.104949 0.0586575,-0.141142 0.0361929,-0.0361929 0.0861535,-0.0586575 0.141142,-0.0586575zm4.68374 0.0833386l-4.68374 0c-0.0319843,0 -0.0610945,0.0131142 -0.0822205,0.0342402 -0.021126,0.021126 -0.0342402,0.0502362 -0.0342402,0.0822205l0 2.5c0,0.0319843 0.0131142,0.0610945 0.0342402,0.0822205 0.021126,0.021126 0.0502362,0.0342402 0.0822205,0.0342402l4.68374 0c0.0319843,0 0.0610945,-0.0131142 0.0822205,-0.0342402 0.021126,-0.021126 0.0342402,-0.0502362 0.0342402,-0.0822205l0 -2.5c0,-0.0319843 -0.0131142,-0.0610945 -0.0342402,-0.0822205 -0.021126,-0.021126 -0.0502362,-0.0342402 -0.0822205,-0.0342402z" id="_456327896"/><path class="fil0" d="M1.11586 1.75663l0.561949 0c0.0230118,0 0.0416693,0.0186575 0.0416693,0.0416693l0 0.173193c0,0.0506181 0.0207441,0.0966772 0.0541496,0.130083 0.0334055,0.0334055 0.0794646,0.0541496 0.130083,0.0541496 0.0506181,0 0.0966772,-0.0207441 0.130083,-0.0541496 0.0334055,-0.0334055 0.0541496,-0.0794646 0.0541496,-0.130083l0 -0.173193c0,-0.0230118 0.0186575,-0.0416693 0.0416693,-0.0416693l2.56778 0c0.0230118,0 0.0416693,0.0186575 0.0416693,0.0416693l0 0.173193c0,0.0506181 0.0207441,0.0966772 0.0541496,0.130083 0.0334055,0.0334055 0.0794646,0.0541496 0.130083,0.0541496 0.050622,0 0.0966772,-0.0207441 0.130083,-0.0541496 0.0334055,-0.0334055 0.0541496,-0.0794646 0.0541496,-0.130083l0 -0.173193c0,-0.0230118 0.0186575,-0.0416693 0.0416693,-0.0416693l0.561945 0c0.0671535,0 0.128177,0.0274449 0.172382,0.0716496 0.0442047,0.0442047 0.0716496,0.105228 0.0716496,0.172378l0 0.777508c0,0.00335039 -7.87402e-005,-0.00142126 -0.000208661,0.00451969l-0.000173228 -3.93701e-006 7.87402e-006 0.000114173 0.000318898 7.87402e-006c-2.75591e-005,0.0012874 -0.00011811,0.00255118 -0.000259843,0.00380709l-3.93701e-006 9.05512e-005 -7.87402e-006 0 -1.1811e-005 0.000102362 0.000165354 3.93701e-006c-0.000685039,0.023 -0.0198937,0.0410906 -0.0428937,0.0404055 -0.0229528,-0.000685039 -0.0410157,-0.019815 -0.0404094,-0.042752 -0.00196457,-0.029752 -0.0153819,-0.0566457 -0.0358898,-0.0763031 -0.0208701,-0.0200039 -0.0492402,-0.0323465 -0.0804331,-0.0323465l-4.68374 0c-0.0311929,0 -0.059563,0.0123425 -0.0804331,0.0323465 -0.0211339,0.0202559 -0.0347362,0.0481969 -0.0360394,0.0790315l-0.0415039 -0.00162598 0.0416299 0.00176378c-0.000972441,0.0229882 -0.0204055,0.0408386 -0.0433937,0.0398661 -0.0229882,-0.000972441 -0.0408386,-0.0204055 -0.0398661,-0.0433937l3.93701e-005 0 -1.9685e-005 -0.000688976 -0.000149606 3.93701e-006c-3.54331e-005,-0.00115354 -1.9685e-005,-0.00229528 3.93701e-005,-0.00342913 -6.29921e-005,-0.000759843 -0.000102362,0.000791339 -0.000102362,-0.00151969l0 -0.777508c0,-0.0671496 0.0274449,-0.128173 0.0716496,-0.172378 0.0442047,-0.0442047 0.105228,-0.0716496 0.172382,-0.0716496zm0.52028 0.0833386l-0.52028 0c-0.0441496,0 -0.0843228,0.0180945 -0.113461,0.0472323 -0.0291378,0.0291378 -0.0472323,0.069311 -0.0472323,0.113457l0 0.629606c0.0328819,-0.0237559 0.0731378,-0.0377913 0.116461,-0.0377913l4.68374 0c0.0433228,0 0.0835787,0.0140354 0.116461,0.0377913l0 -0.629606c0,-0.0441457 -0.0180945,-0.0843189 -0.0472323,-0.113457 -0.0291378,-0.0291378 -0.069311,-0.0472323 -0.113461,-0.0472323l-0.520276 0 0 0.131524c0,0.073622 -0.0300945,0.140531 -0.0785669,0.189004 -0.0484724,0.0484724 -0.115378,0.0785669 -0.189004,0.0785669 -0.073622,0 -0.140531,-0.0300945 -0.189004,-0.0785669 -0.0484724,-0.0484724 -0.0785669,-0.115382 -0.0785669,-0.189004l0 -0.131524 -2.48444 0 0 0.131524c0,0.073622 -0.0300945,0.140531 -0.0785669,0.189004 -0.0484724,0.0484724 -0.115382,0.0785669 -0.189004,0.0785669 -0.073622,0 -0.140531,-0.0300945 -0.189004,-0.0785669 -0.0484724,-0.0484724 -0.0785669,-0.115382 -0.0785669,-0.189004l0 -0.131524z" id="_456327584"/><g><path class="fil0" d="M1.90371 1.33494c0.073622,0 0.140531,0.0300945 0.189004,0.0785669 0.0484724,0.0484724 0.0785669,0.115378 0.0785669,0.189004l0 0.36898c0,0.073622 -0.0300945,0.140531 -0.0785669,0.189004 -0.0484724,0.0484724 -0.115382,0.0785669 -0.189004,0.0785669 -0.073622,0 -0.140531,-0.0300945 -0.189004,-0.0785669 -0.0484724,-0.0484724 -0.0785669,-0.115382 -0.0785669,-0.189004l0 -0.36898c0,-0.073622 0.0300945,-0.140531 0.0785669,-0.189004 0.0484724,-0.0484724 0.115382,-0.0785669 0.189004,-0.0785669zm0.130083 0.137488c-0.0334055,-0.0334055 -0.0794646,-0.0541496 -0.130083,-0.0541496 -0.0506181,0 -0.0966772,0.0207441 -0.130083,0.0541496 -0.0334055,0.0334055 -0.0541496,0.0794646 -0.0541496,0.130083l0 0.36898c0,0.0506181 0.0207441,0.0966772 0.0541496,0.130083 0.0334055,0.0334055 0.0794646,0.0541496 0.130083,0.0541496 0.0506181,0 0.0966772,-0.0207441 0.130083,-0.0541496 0.0334055,-0.0334055 0.0541496,-0.0794646 0.0541496,-0.130083l0 -0.36898c0,-0.050622 -0.0207441,-0.0966772 -0.0541496,-0.130083z" id="_456327560"/><path class="fil0" d="M4.92329 1.33494c0.073626,0 0.140531,0.0300945 0.189004,0.0785669 0.0484724,0.0484724 0.0785669,0.115378 0.0785669,0.189004l0 0.36898c0,0.073622 -0.0300945,0.140531 -0.0785669,0.189004 -0.0484724,0.0484724 -0.115378,0.0785669 -0.189004,0.0785669 -0.073622,0 -0.140531,-0.0300945 -0.189004,-0.0785669 -0.0484724,-0.0484724 -0.0785669,-0.115382 -0.0785669,-0.189004l0 -0.36898c0,-0.073622 0.0300945,-0.140531 0.0785669,-0.189004 0.0484724,-0.0484724 0.115382,-0.0785669 0.189004,-0.0785669zm0.130083 0.137488c-0.0334055,-0.0334055 -0.0794606,-0.0541496 -0.130083,-0.0541496 -0.0506181,0 -0.0966772,0.0207441 -0.130083,0.0541496 -0.0334055,0.0334055 -0.0541496,0.0794646 -0.0541496,0.130083l0 0.36898c0,0.0506181 0.0207441,0.0966772 0.0541496,0.130083 0.0334055,0.0334055 0.0794646,0.0541496 0.130083,0.0541496 0.050622,0 0.0966772,-0.0207441 0.130083,-0.0541496 0.0334055,-0.0334055 0.0541496,-0.0794646 0.0541496,-0.130083l0 -0.36898c0,-0.050622 -0.0207441,-0.0966772 -0.0541496,-0.130083z" id="_456327680"/></g><path class="fil0" d="M1.30856 4.49409c0,0.0230118 0.0186575,0.0416693 0.0416693,0.0416693 0.0230118,0 0.0416693,-0.0186575 0.0416693,-0.0416693l0 -1.85995c0,-0.0230118 -0.0186575,-0.0416693 -0.0416693,-0.0416693 -0.0230118,0 -0.0416693,0.0186575 -0.0416693,0.0416693l0 1.85995z" id="_456326456"/><path class="fil0" d="M1.3919 4.87059c0,-0.0230118 -0.0186575,-0.0416693 -0.0416693,-0.0416693 -0.0230118,0 -0.0416693,0.0186575 -0.0416693,0.0416693l0 0.150606c0,0.0230118 0.0186575,0.0416693 0.0416693,0.0416693 0.0230118,0 0.0416693,-0.0186575 0.0416693,-0.0416693l0 -0.150606z" id="_456326384"/><path class="fil0" d="M4.82763 3.41025c0.248551,0 0.473579,0.100752 0.636465,0.263638 0.162886,0.162886 0.263638,0.387917 0.263638,0.636465 0,0.248551 -0.100752,0.473579 -0.263638,0.636465 -0.162886,0.162886 -0.387913,0.263638 -0.636465,0.263638 -0.248547,0 -0.473579,-0.100752 -0.636461,-0.263638 -0.162886,-0.162886 -0.263638,-0.387913 -0.263638,-0.636465 0,-0.248551 0.100752,-0.473579 0.263638,-0.636465 0.162882,-0.162886 0.387913,-0.263638 0.636461,-0.263638zm0.577543 0.322559c-0.147799,-0.147799 -0.351996,-0.23922 -0.577543,-0.23922 -0.225543,0 -0.429744,0.0914213 -0.577539,0.23922 -0.147799,0.147799 -0.23922,0.351996 -0.23922,0.577543 0,0.225547 0.0914213,0.429744 0.23922,0.577543 0.147795,0.147799 0.351996,0.23922 0.577539,0.23922 0.225547,0 0.429744,-0.0914213 0.577543,-0.23922 0.147799,-0.147799 0.23922,-0.351996 0.23922,-0.577543 0,-0.225543 -0.0914213,-0.429744 -0.23922,-0.577543z" id="_456326912"/><path class="fil0" d="M4.82776 3.93384c0.0207205,-0.0320197 0.0429882,-0.0583031 0.0688346,-0.0789803 0.0442008,-0.0353583 0.096189,-0.0530472 0.16448,-0.0530472 0.0759291,0 0.144709,0.030811 0.194496,0.0806024 0.0497913,0.0497913 0.0806024,0.118567 0.0806024,0.194496 0,0.126929 -0.061748,0.251571 -0.154358,0.375055 -0.0899764,0.119976 -0.20735,0.23735 -0.324717,0.354709l-0.0294606 -0.0294606 0.0294606 0.0294646c-0.0162717,0.0162677 -0.0426575,0.0162677 -0.0589252,-3.93701e-006l-0.000149606 -0.000153543c-0.117311,-0.117307 -0.234622,-0.23463 -0.324559,-0.354555 -0.0926142,-0.123484 -0.154362,-0.248126 -0.154362,-0.375055 0,-0.0759291 0.030815,-0.144705 0.0806024,-0.194496 0.0497913,-0.0497913 0.118571,-0.0806024 0.1945,-0.0806024 0.111949,0 0.17737,0.0440197 0.233555,0.132028zm0.120591 -0.0142008c-0.030437,0.0243504 -0.0559016,0.0626063 -0.0819528,0.114197 -0.00363386,0.00923228 -0.0105551,0.0172047 -0.020126,0.0219882 -0.0205787,0.0102874 -0.0456142,0.00194488 -0.0559016,-0.0186339l0.00015748 -7.87402e-005c-0.0506496,-0.101303 -0.100047,-0.151961 -0.196323,-0.151961 -0.0529252,0 -0.10087,0.0214764 -0.135579,0.056185 -0.0347047,0.0347047 -0.056185,0.0826496 -0.056185,0.135575 0,0.106508 0.0549764,0.215311 0.137433,0.325252 0.0778858,0.103854 0.181728,0.209898 0.287764,0.316114 0.106035,-0.106213 0.209882,-0.21226 0.287768,-0.316114 0.0824528,-0.109941 0.137429,-0.218744 0.137429,-0.325252 0,-0.0529252 -0.0214764,-0.100866 -0.056185,-0.135575 -0.0347047,-0.0347047 -0.0826496,-0.056185 -0.135575,-0.056185 -0.0484213,0 -0.0839882,0.0115 -0.112724,0.0344882z" id="_456327128"/><path class="fil0" d="M1.76085 3.36054l0.308228 0 0 -0.308224 -0.308228 0 0 0.308224zm0.349898 0.0833386l-0.391567 0c-0.0230118,0 -0.0416693,-0.0186575 -0.0416693,-0.0416693l0 -0.391563c0,-0.0230118 0.0186575,-0.0416693 0.0416693,-0.0416693l0.391567 0c0.0230118,0 0.0416693,0.0186575 0.0416693,0.0416693l0 0.391563c0,0.0230118 -0.0186575,0.0416693 -0.0416693,0.0416693z" id="_456326576"/><path class="fil0" d="M2.46115 3.36054l0.308228 0 0 -0.308224 -0.308228 0 0 0.308224zm0.349898 0.0833386l-0.391567 0c-0.0230118,0 -0.0416693,-0.0186575 -0.0416693,-0.0416693l0 -0.391563c0,-0.0230118 0.0186575,-0.0416693 0.0416693,-0.0416693l0.391567 0c0.0230118,0 0.0416693,0.0186575 0.0416693,0.0416693l0 0.391563c0,0.0230118 -0.0186575,0.0416693 -0.0416693,0.0416693z" id="_456326480"/><path class="fil0" d="M3.16145 3.36054l0.308228 0 0 -0.308224 -0.308228 0 0 0.308224zm0.349898 0.0833386l-0.391567 0c-0.0230118,0 -0.0416693,-0.0186575 -0.0416693,-0.0416693l0 -0.391563c0,-0.0230118 0.0186575,-0.0416693 0.0416693,-0.0416693l0.391567 0c0.0230118,0 0.0416693,0.0186575 0.0416693,0.0416693l0 0.391563c0,0.0230118 -0.0186575,0.0416693 -0.0416693,0.0416693z" id="_456326528"/><path class="fil0" d="M3.86175 3.36054l0.308228 0 0 -0.308224 -0.308228 0 0 0.308224zm0.349898 0.0833386l-0.391567 0c-0.0230118,0 -0.0416693,-0.0186575 -0.0416693,-0.0416693l0 -0.391563c0,-0.0230118 0.0186575,-0.0416693 0.0416693,-0.0416693l0.391567 0c0.0230118,0 0.0416693,0.0186575 0.0416693,0.0416693l0 0.391563c0,0.0230118 -0.0186575,0.0416693 -0.0416693,0.0416693z" id="_456326504"/><path class="fil0" d="M1.76085 4.1512l0.308228 0 0 -0.308224 -0.308228 0 0 0.308224zm0.349898 0.0833386l-0.391567 0c-0.0230118,0 -0.0416693,-0.0186575 -0.0416693,-0.0416693l0 -0.391563c0,-0.0230118 0.0186575,-0.0416693 0.0416693,-0.0416693l0.391567 0c0.0230118,0 0.0416693,0.0186575 0.0416693,0.0416693l0 0.391563c0,0.0230118 -0.0186575,0.0416693 -0.0416693,0.0416693z" id="_456326768"/><path class="fil0" d="M2.46115 4.1512l0.308228 0 0 -0.308224 -0.308228 0 0 0.308224zm0.349898 0.0833386l-0.391567 0c-0.0230118,0 -0.0416693,-0.0186575 -0.0416693,-0.0416693l0 -0.391563c0,-0.0230118 0.0186575,-0.0416693 0.0416693,-0.0416693l0.391567 0c0.0230118,0 0.0416693,0.0186575 0.0416693,0.0416693l0 0.391563c0,0.0230118 -0.0186575,0.0416693 -0.0416693,0.0416693z" id="_456326600"/><path class="fil0" d="M3.16145 4.1512l0.308228 0 0 -0.308224 -0.308228 0 0 0.308224zm0.349898 0.0833386l-0.391567 0c-0.0230118,0 -0.0416693,-0.0186575 -0.0416693,-0.0416693l0 -0.391563c0,-0.0230118 0.0186575,-0.0416693 0.0416693,-0.0416693l0.391567 0c0.0230118,0 0.0416693,0.0186575 0.0416693,0.0416693l0 0.391563c0,0.0230118 -0.0186575,0.0416693 -0.0416693,0.0416693z" id="_456326216"/><path class="fil0" d="M1.76085 4.94187l0.308228 0 0 -0.308224 -0.308228 0 0 0.308224zm0.349898 0.0833386l-0.391567 0c-0.0230118,0 -0.0416693,-0.0186575 -0.0416693,-0.0416693l0 -0.391563c0,-0.0230118 0.0186575,-0.0416693 0.0416693,-0.0416693l0.391567 0c0.0230118,0 0.0416693,0.0186575 0.0416693,0.0416693l0 0.391563c0,0.0230118 -0.0186575,0.0416693 -0.0416693,0.0416693z" id="_456326048"/><path class="fil0" d="M2.46115 4.94187l0.308228 0 0 -0.308224 -0.308228 0 0 0.308224zm0.349898 0.0833386l-0.391567 0c-0.0230118,0 -0.0416693,-0.0186575 -0.0416693,-0.0416693l0 -0.391563c0,-0.0230118 0.0186575,-0.0416693 0.0416693,-0.0416693l0.391567 0c0.0230118,0 0.0416693,0.0186575 0.0416693,0.0416693l0 0.391563c0,0.0230118 -0.0186575,0.0416693 -0.0416693,0.0416693z" id="_456326024"/></g></g></g><rect class="fil1" height="6.827" width="6.827"/></svg>