<?xml version="1.0" ?><svg id="Layer_1" style="enable-background:new 0 0 472.076 134.706;" version="1.1" viewBox="0 0 472.076 134.706" xml:space="preserve" xmlns="http://www.w3.org/2000/svg" xmlns:xlink="http://www.w3.org/1999/xlink"><g><path d="M61.916,62.199l0.218,3.306l-24.33,1.606l5.152,9.601l-9.252,0.816l1.184,17.944l108.332,31.742   c0,0,1.613-0.109,4.548-0.309c-0.738-1.207-1.15-2.507-1.242-3.905c-0.251-3.801,1.931-7.193,6.705-10.295L109.53,98.326   L95.779,81.624l4.858-1.388l3.738,2.907l9.414,11.435l45.453,14.955c3.92-1.723,8.766-3.359,14.584-4.931   c15.746-4.255,37.06-7.571,60.016-9.338l0.18-0.013c5.115-0.338,10.064,1.76,12.917,5.473c2.61,3.397,5.811,8.799,6.236,15.237   c0.206,3.116-0.268,6.074-1.052,8.72l56.476-4.103l24.998-3.848l28.076-4.322c19.242-1.519,110.953-15.047,110.401-23.404   c-0.561-8.5-60.355-18.401-60.355-18.401s-13.135-12.176-20.713-17.037c-7.578-4.861-186.608,8.901-186.608,8.901l-84.045,7.414   L44.24,0L4.226,4.538L32.15,56.575L0,58.696l2.284,3.169l2.937,4.075L61.916,62.199z M388.602,61.696c0,0,9.393,5.783,11.593,10.38   l-44.294,3.16l-2.972-11.503L388.602,61.696z M314.659,65.944l0.727,11.018l-10.389,0.686l-0.727-11.018L314.659,65.944z    M296.872,67.117l0.727,11.018l-10.389,0.686l-0.727-11.018L296.872,67.117z M279.085,68.291l0.727,11.018l-10.389,0.686   l-0.727-11.018L279.085,68.291z M239.576,70.898l0.727,11.018l-10.389,0.686l-0.727-11.018L239.576,70.898z M221.789,72.072   l0.727,11.018l-10.389,0.686l-0.727-11.018L221.789,72.072z M204.002,73.246l0.727,11.018l-10.389,0.686l-0.727-11.018   L204.002,73.246z"/><path d="M204.536,103.546c-31.605,4.68-53.482,12.142-53.021,19.125c0.461,6.983,23.128,11.505,55.074,11.991L204.536,103.546z"/><path d="M214.817,102.167c-2.112,0.256-4.194,0.522-6.236,0.802l2.094,31.733c2.061,0.009,4.16-0.001,6.287-0.025L214.817,102.167z   "/><path d="M248.186,116.291c-0.338-5.119-2.933-9.555-5.212-12.521c-1.892-2.463-5.265-3.789-8.748-3.521   c-5.264,0.405-10.39,0.893-15.359,1.447l2.172,32.916c4.998-0.104,10.144-0.294,15.416-0.584c3.488-0.192,6.657-1.95,8.209-4.64   C246.533,126.149,248.524,121.41,248.186,116.291z"/></g></svg>