<?xml version="1.0" ?><svg id="Layer_1" style="enable-background:new 0 0 55 55;" version="1.1" viewBox="0 0 55 55" xml:space="preserve" xmlns="http://www.w3.org/2000/svg" xmlns:xlink="http://www.w3.org/1999/xlink"><style type="text/css">
	.st0{fill:none;stroke:#000000;stroke-linecap:round;stroke-linejoin:round;stroke-miterlimit:10;}
</style><g><g><path d="M51.2861328,52.0001717H3.7138672c-0.2763672,0-0.5-0.2236328-0.5-0.5v-7.3564453    c0-8.4365234,6.8642578-15.300293,15.3007813-15.300293c0.1328125,0,0.2597656,0.0527344,0.3535156,0.1464844L27.5,37.6217537    l8.6318359-8.6318359c0.09375-0.09375,0.2207031-0.1464844,0.3535156-0.1464844    c8.4365234,0,15.3007813,6.8637695,15.3007813,15.300293v7.3564453    C51.7861328,51.7765388,51.5625,52.0001717,51.2861328,52.0001717z M4.2138672,51.0001717h46.5722656v-6.8564453    c0-7.8164063-6.3046875-14.1879883-14.0947266-14.2988281l-8.8378906,8.8374023    c-0.1953125,0.1953125-0.5117188,0.1953125-0.7070313,0l-8.8378906-8.8374023    c-7.7900391,0.1108398-14.0947266,6.4824219-14.0947266,14.2988281V51.0001717z"/></g><g><path d="M27.4951172,25.8317146c-6.1132813,0-11.1904297-4.8632813-11.4042969-11.0200195    C15.8730469,8.5211678,20.8134766,3.2257578,27.1035156,3.0074961    c6.2939453-0.2294922,11.5859375,4.7207031,11.8056641,11.0117188c0,0,0,0,0,0.0004883    c0.2177734,6.2905273-4.7226563,11.5859375-11.0126953,11.8046875    C27.7626953,25.8292732,27.6279297,25.8317146,27.4951172,25.8317146z M27.5048828,4.0001721    c-0.1220703,0-0.2431641,0.0024414-0.3662109,0.0063477C21.3984375,4.2057385,16.8916016,9.037281,17.0908203,14.7770271    c0.1982422,5.7392578,5.0244141,10.2329102,10.7705078,10.0483398c5.7402344-0.199707,10.2470703-5.0317383,10.0478516-10.7709961    l0,0C37.7138672,8.4371834,33.0810547,4.0001721,27.5048828,4.0001721z"/></g></g></svg>