<?xml version="1.0" ?><svg id="Layer_1" style="enable-background:new 0 0 55 55;" version="1.1" viewBox="0 0 55 55" xml:space="preserve" xmlns="http://www.w3.org/2000/svg" xmlns:xlink="http://www.w3.org/1999/xlink"><g><path d="M3.0742188,12.65625l24,39.1054688c0.0006104,0.0009766,0.00177,0.0012207,0.0023804,0.0021973   c0.0401611,0.0644531,0.0967407,0.1142578,0.1603394,0.1542969c0.0152588,0.0096436,0.0296631,0.017334,0.0458984,0.0252686   C27.3497925,51.9763184,27.4216309,52,27.5,52s0.1502075-0.0236816,0.2171631-0.0565186   c0.0162354-0.0079346,0.0306396-0.015625,0.0458984-0.0252686c0.0635986-0.0400391,0.1201782-0.0898438,0.1603394-0.1542969   c0.0006104-0.0009766,0.00177-0.0012207,0.0023804-0.0021973l24-39.1054688   c0.0046997-0.0076904,0.0023804-0.0171509,0.0066528-0.0250244C51.9717407,12.5598145,52,12.4818726,52,12.3945313   c0-0.003479-0.0018921-0.0062866-0.0019531-0.0097046c-0.0001831-0.0089111-0.0045166-0.0164795-0.005127-0.0253296   c-0.0059204-0.081665-0.0328979-0.1547241-0.0733032-0.2207642c-0.0058594-0.0097046-0.0038452-0.0219116-0.010437-0.031311   l-6.2451172-8.8945313c-0.0079956-0.0113525-0.0215454-0.0160522-0.0303345-0.0266113   c-0.0125122-0.0151978-0.0185547-0.0336914-0.0331421-0.0476074c-0.022583-0.0216675-0.0508423-0.0316162-0.0761108-0.0481567   c-0.0214844-0.0141602-0.0400391-0.029541-0.0634155-0.0402222c-0.055481-0.0252686-0.1132813-0.0383301-0.1730347-0.0421753   C45.2764282,3.0073242,45.2666016,3,45.2548828,3H9.7460938C9.7359009,3,9.727356,3.0064697,9.7172241,3.0070801   C9.6558838,3.010498,9.5965576,3.024353,9.5396118,3.050415C9.5164795,3.0609741,9.4980469,3.0761719,9.4768066,3.09021   C9.451416,3.1068726,9.4230957,3.1168213,9.4003906,3.1386719c-0.0145874,0.013916-0.0206299,0.0324097-0.0331421,0.0476074   C9.3584595,3.1968384,9.3449097,3.2015381,9.3369141,3.2128906l-6.2460938,8.8945313   c-0.0065918,0.0093994-0.0045776,0.0216064-0.010437,0.031311c-0.0404053,0.06604-0.0673828,0.1390991-0.0733032,0.2207642   c-0.0006104,0.0088501-0.0049438,0.0164185-0.005127,0.0253296C3.0018921,12.3882446,3,12.3910522,3,12.3945313   c0,0.0873413,0.0282593,0.1652832,0.0675659,0.2366943C3.0718384,12.6390991,3.069519,12.6485596,3.0742188,12.65625z    M9.8054199,4.2854004l7.2791138,7.6091309H4.461792L9.8054199,4.2854004z M50.538269,11.8945313H37.9164429l7.2791138-7.6090698   L50.538269,11.8945313z M36.1143188,12.8945313L27.5,49.3271484l-8.6133423-36.4326172H36.1143188z M19.4958496,11.8945313   L27.5,4.1938477l8.0050659,7.7006836H19.4958496z M37.1414185,12.8945313h13.4654541L28.703125,48.5836182L37.1414185,12.8945313z    M36.7314453,11.6865234L28.7410278,4h15.3435059L36.7314453,11.6865234z M18.2695313,11.6865234L10.9164429,4h15.3425903   L18.2695313,11.6865234z M17.8594971,12.8945313l8.4375,35.68927l-21.9038696-35.68927H17.8594971z"/></g></svg>