<?xml version="1.0" ?><svg id="Layer_1" style="enable-background:new 0 0 648.249 113.467;" version="1.1" viewBox="0 0 648.249 113.467" xml:space="preserve" xmlns="http://www.w3.org/2000/svg" xmlns:xlink="http://www.w3.org/1999/xlink"><g><path d="M644.744,70.777h-1.796c-0.556-14.053-2.695-36.522-10.67-37.391v-1.961c0.015,0,0.03,0.007,0.045,0.007   c1.395,0,1.395-8.211,0-8.211s-2.526,1.838-2.526,4.105c0,1.4,0.433,2.633,1.092,3.374v2.65   c-10.28-0.104-44.477-1.801-64.461-2.693c-7.804-0.348-19.15-2.771-25.705-7.02L516.464,7.057C509.358,2.451,501.071,0,492.603,0   H118.707c-3.599,0-7.148,0.828-10.376,2.42c-10.74,5.297-45.078,20.529-57.339,25.288c-2.917,1.132-5.947,1.93-9.043,2.383   l-29.591,5.457c-4.12,0.603-7.204,4.09-7.298,8.253L4.447,70.777H3.505c-4.673,0-4.673,16.991,0,16.991h31.198   c-0.005,0.251-0.019,0.5-0.019,0.752v3h4.252h1.748v-3c0-16.104,13.101-29.204,29.205-29.204c16.103,0,29.204,13.101,29.204,29.204   v3h1.749h4.251v-3c0-0.252-0.014-0.501-0.019-0.752h446.911c-0.005,0.251-0.019,0.5-0.019,0.752v3h4.251h1.749v-3   c0-16.104,13.101-29.204,29.204-29.204c16.104,0,29.205,13.101,29.205,29.204v3h1.749h4.251v-3c0-0.252-0.014-0.501-0.019-0.752   h22.39C649.417,87.768,649.417,70.777,644.744,70.777z M636.762,66.48l-5.344-11.427h4.232   C636.122,58.542,636.503,62.41,636.762,66.48z M631.257,39.353c1.501,1.48,2.875,6.152,3.92,12.541h-5.236l-5.939-12.699   C627.09,39.287,629.581,39.343,631.257,39.353z M99.439,39.925c0-1.181,0.966-2.147,2.147-2.147h17.937   c1.181,0,2.147,0.966,2.147,2.147s-0.966,2.147-2.147,2.147h-17.937C100.406,42.072,99.439,41.106,99.439,39.925z M172.841,31.899   L175.816,7.8h257.183l2.975,24.099H172.841z M466.681,39.925c0-1.181,0.966-2.147,2.147-2.147h17.937   c1.181,0,2.147,0.966,2.147,2.147s-0.966,2.147-2.147,2.147h-17.937C467.647,42.072,466.681,41.106,466.681,39.925z M492.603,7.8   c7.31,0,14.463,2.116,20.597,6.091l20.039,14.781c1.861,1.206,3.795,2.283,5.788,3.226h-96.021L437.361,7.8H492.603z    M111.071,9.559c2.377-1.167,4.989-1.759,7.637-1.759h52.746l-5.645,24.099H92.928c-3.888,0-7.669-1.278-10.759-3.637l-0.931-0.71   C92.056,21.423,103.198,13.424,111.071,9.559z"/><path d="M94.725,86.21C93.558,73.516,82.888,63.574,69.89,63.574c-13,0-23.672,9.942-24.838,22.636   c-0.071,0.76-0.112,1.53-0.112,2.31c0,13.777,11.169,24.946,24.949,24.946c13.777,0,24.944-11.17,24.944-24.946   C94.834,87.74,94.794,86.97,94.725,86.21z M69.89,104.716c-8.932,0-16.198-7.266-16.198-16.196c0-0.473,0.024-0.966,0.074-1.507   c0.769-8.376,7.7-14.689,16.124-14.689c8.421,0,15.351,6.314,16.121,14.687c0.048,0.528,0.072,1.024,0.072,1.509   C86.083,97.45,78.819,104.716,69.89,104.716z"/><path d="M69.89,81.075c-3.871,0-7.057,2.897-7.411,6.75c-0.025,0.265-0.037,0.492-0.037,0.696c0,4.105,3.341,7.445,7.448,7.445   c4.104,0,7.442-3.34,7.442-7.445c0-0.216-0.012-0.452-0.035-0.708C76.945,83.971,73.76,81.075,69.89,81.075z"/><path d="M612.007,86.21c-1.167-12.694-11.837-22.636-24.835-22.636c-13,0-23.672,9.942-24.838,22.636   c-0.071,0.76-0.112,1.53-0.112,2.31c0,13.777,11.169,24.946,24.949,24.946c13.777,0,24.944-11.17,24.944-24.946   C612.116,87.74,612.076,86.97,612.007,86.21z M587.172,104.716c-8.932,0-16.198-7.266-16.198-16.196   c0-0.473,0.024-0.966,0.074-1.507c0.769-8.376,7.701-14.689,16.124-14.689c8.421,0,15.351,6.314,16.121,14.687   c0.048,0.528,0.072,1.024,0.072,1.509C603.365,97.45,596.101,104.716,587.172,104.716z"/><path d="M587.172,81.075c-3.871,0-7.057,2.897-7.411,6.75c-0.025,0.265-0.037,0.492-0.037,0.696c0,4.105,3.341,7.445,7.448,7.445   c4.104,0,7.442-3.34,7.442-7.445c0-0.216-0.012-0.452-0.035-0.708C594.226,83.971,591.041,81.075,587.172,81.075z"/></g></svg>