<?xml version="1.0" ?><svg id="Layer_1" style="enable-background:new 0 0 854.414 305.945;" version="1.1" viewBox="0 0 854.414 305.945" xml:space="preserve" xmlns="http://www.w3.org/2000/svg" xmlns:xlink="http://www.w3.org/1999/xlink"><g><path d="M718.631,278.943c50.104-16.695,135.783-45.477,135.783-47.073c0-4.365-35.623-7.981-82.139-8.623   c0.006-0.006,0.006-0.012,0.012-0.018h-1.536c-3.213-0.04-6.487-0.061-9.79-0.073v-29.923h-3.739v29.912   c-1.885,0-3.752,0.008-5.609,0.018v-63.355h-3.739v63.385c-1.252,0.011-2.512,0.02-3.75,0.035H92.243   c-15.413,0-30.123,6.446-40.571,17.777l-13.486,14.626h206.328v3.963H34.532L5.874,290.677h640.44   C670.894,290.677,695.311,286.714,718.631,278.943z M365.59,263.832c-3.892,0-7.047-3.155-7.047-7.047s3.155-7.047,7.047-7.047   s7.047,3.155,7.047,7.047S369.482,263.832,365.59,263.832z M444.447,263.832c-3.892,0-7.047-3.155-7.047-7.047   s3.155-7.047,7.047-7.047s7.047,3.155,7.047,7.047S448.338,263.832,444.447,263.832z M523.303,263.832   c-3.892,0-7.047-3.155-7.047-7.047s3.155-7.047,7.047-7.047s7.047,3.155,7.047,7.047S527.194,263.832,523.303,263.832z    M602.159,263.832c-3.892,0-7.047-3.155-7.047-7.047s3.155-7.047,7.047-7.047s7.047,3.155,7.047,7.047   S606.051,263.832,602.159,263.832z"/><path d="M122.143,213.163h472.633l-43.378-13.881H422.163v-14.429h84.145l-19.473-6.232c-11.969-3.83-24.399-5.996-36.958-6.44   c-43.25-1.528-220.02,0.102-268.548,0.587c-7.998,0.08-15.696,2.984-21.76,8.2L122.143,213.163z M378.54,184.853h14.429v14.429   H378.54V184.853z M349.444,184.853h14.429v14.429h-14.429V184.853z M320.349,184.853h14.429v14.429h-14.429V184.853z    M291.253,184.853h14.429v14.429h-14.429V184.853z M262.157,184.853h14.429v14.429h-14.429V184.853z M233.062,184.853h14.429   v14.429h-14.429V184.853z M203.966,184.853h14.429v14.429h-14.429V184.853z"/><circle cx="307.916" cy="33.178" r="8.599"/><path d="M250.83,123.905v7.747c-12.041,0.136-22.523,0.278-29.905,0.384c-7.318,0.105-14.363,2.778-19.911,7.551l-26.142,22.488   h292.594l-80.064-25.62c-5.153-1.649-10.423-2.868-15.758-3.677l-21.154-23.972h-17.365V53.354h-3.739v55.451h-5.609V0h-3.739   v43.227l-50.658,80.678H250.83z M272.102,150.506h-16.009v-6.208h16.009V150.506z M288.375,150.506v-6.208h16.009v6.208H288.375z    M320.656,150.506v-6.208h16.009v6.208H320.656z M352.937,150.506v-6.208h16.009v6.208H352.937z M297.472,108.805v15.1h-17.315   l39.881-63.514v48.414H297.472z M320.038,46.048V57.57l-41.652,66.335h-7.234L320.038,46.048z"/><path d="M2.642,305.945h660.463c1.453,0,2.642-1.189,2.642-2.642v-2.769c0-1.453-1.189-2.642-2.642-2.642H2.642   c-1.453,0-2.642,1.189-2.642,2.642v2.769C0,304.756,1.189,305.945,2.642,305.945z"/><ellipse cx="344.642" cy="70.789" rx="8.599" ry="8.599" transform="matrix(0.9732 -0.2298 0.2298 0.9732 -7.0445 81.076)"/></g></svg>