<?xml version="1.0" encoding="UTF-8"?>
<svg width="34px" height="34px" viewBox="0 0 34 34" version="1.1" xmlns="http://www.w3.org/2000/svg" xmlns:xlink="http://www.w3.org/1999/xlink">
    <!-- Generator: Sketch 61 (89581) - https://sketch.com -->
    <title>info</title>
    <desc>Created with Sketch.</desc>
    <g id="Page-1" stroke="none" stroke-width="1" fill="none" fill-rule="evenodd">
        <g id="info" fill="#383838" fill-rule="nonzero">
            <path d="M13,23.294148 L14.3125,17.9824267 C14.53125,17.14861 14.5625,16.8089069 14.3125,16.8089069 C13.3363089,17.0466256 12.40695,17.4432151 11.5625,17.9824267 L11,17.0559637 C13.0742497,15.1791607 15.6406304,13.9164276 18.40625,13.4118759 C19.5625,13.4118759 19.75,14.7398062 19.1875,16.8089069 L17.625,22.367685 C17.40625,23.3867943 17.53125,23.6956153 17.78125,23.6956153 C18.7242631,23.4956399 19.6037854,23.0716556 20.34375,22.4603313 L21,23.294148 C18.3125,25.9808907 15.3125,27 14.1875,27 C13.0625,27 12.1875,26.2897117 13,23.294148 L13,23.294148 Z M21,8.16191883 C20.966006,9.70687194 19.6887277,10.941673 18.125,10.9413079 C16.75,10.9413079 15.9375,10.1074911 16,8.77956083 C15.9999536,8.03703903 16.3005556,7.32536989 16.8347799,6.80323645 C17.3690041,6.281103 18.0924289,5.99192156 18.84375,6.00017181 C20.28125,6.00017181 21,6.98839902 21,8.16191883 Z" id="Shape"></path>
            <path d="M17,2.42857143 C25.0475778,2.42857143 31.5714286,8.95242222 31.5714286,17 C31.5714286,25.0475778 25.0475778,31.5714286 17,31.5714286 C8.95242222,31.5714286 2.42857143,25.0475778 2.42857143,17 C2.42857143,8.95242222 8.95242222,2.42857143 17,2.42857143 M17,0 C7.61115925,0 0,7.61115925 0,17 C0,26.3888407 7.61115925,34 17,34 C26.3888407,34 34,26.3888407 34,17 C34,7.61115925 26.3888407,0 17,0 Z" id="Shape"></path>
        </g>
    </g>
</svg>