<?xml version="1.0" ?><svg style="enable-background:new 0 0 48 48;" version="1.1" viewBox="0 0 48 48" xml:space="preserve" xmlns="http://www.w3.org/2000/svg" xmlns:xlink="http://www.w3.org/1999/xlink"><style type="text/css">
	.Round_x0020_Corners_x0020_2_x0020_pt{fill:#FFFFFF;stroke:#231F20;stroke-miterlimit:10;}
	.Live_x0020_Reflect_x0020_X{fill:none;}
	.Bevel_x0020_Soft{fill:url(#SVGID_1_);}
	.Dusk{fill:#FFFFFF;}
	.Foliage_GS{fill:#FFDD00;}
	.Pompadour_GS{fill-rule:evenodd;clip-rule:evenodd;fill:#44ADE2;}
	.st0{fill:none;stroke:#30302F;stroke-linecap:round;stroke-miterlimit:10;}
	.st1{fill:none;stroke:#30302F;stroke-linecap:round;stroke-linejoin:round;stroke-miterlimit:10;}
	.st2{fill:#30302F;}
	.st3{fill:none;stroke:#30302F;stroke-width:0.7;stroke-linecap:round;stroke-linejoin:round;stroke-miterlimit:10;}
	.st4{fill:#303030;}
</style><linearGradient gradientUnits="userSpaceOnUse" id="SVGID_1_" x1="-232" x2="-231.29289" y1="-174" y2="-173.29289"><stop offset="0" style="stop-color:#DEDFE3"/><stop offset="0.17833" style="stop-color:#DADBDF"/><stop offset="0.36114" style="stop-color:#CECFD3"/><stop offset="0.54604" style="stop-color:#B9BCBF"/><stop offset="0.7324" style="stop-color:#9CA0A2"/><stop offset="0.91815" style="stop-color:#787D7E"/><stop offset="1" style="stop-color:#656B6C"/></linearGradient><g id="Padding__x26__Artboard"/><g id="Icons"><g><path class="st1" d="M30.96707,34.03168c-0.1781,0.1222-0.2905,0.2103-0.413,0.2821c-0.9225,0.5353-1.8043,1.1658-2.7784,1.5777    c-1.3271,0.5614-1.6427,0.2647-1.46179-1.1414c0.01849-0.1419,0.04459-0.2844,0.08019-0.4241    c0.8966-3.5034,1.8254-6.9994,2.6747-10.5151c0.26711-1.1077,0.4059-2.2653,0.4452-3.4055    c0.0446-1.2973-0.7456-2.0145-2.02809-1.9068c-0.91481,0.0771-1.84841,0.2069-2.72041,0.4827    c-3.5241,1.1152-6.4302,3.2717-9.2028,5.6297c-0.02579,0.0226,0.6,1.08,0.8393,1.5308c1.1451-0.5835,2.1236-1.1298,3.1934-1.6008    c0.09451-0.0417,0.1944-0.0714,0.2967-0.0944c1.1274-0.2399,1.1594,0.7294,1.1449,1.0167    c-0.00809,0.1182-0.023,0.2352-0.0494,0.35c-0.6749,2.9454-1.3971,5.8801-2.09469,8.8191    c-0.36961,1.5598-0.78151,3.1113-0.66891,4.7439c0.1162,1.664,1.0893,2.5523,2.7516,2.4497    c0.267-0.0162,0.5364-0.0371,0.7948-0.098c2.5858-0.617,4.8673-1.8782,6.987-3.4327c1.1524-0.847,2.2086-1.8262,3.32651-2.7613    C31.65707,34.96038,31.31707,34.50378,30.96707,34.03168z"/><path class="st1" d="M24.99347,15.26329c2.5597,0,4.9629-2.0748,5.3685-4.6339c0.4052-2.5597-1.341-4.6344-3.9003-4.6344    c-2.5595,0-4.9629,2.0747-5.3685,4.6344C20.68788,13.18849,22.43407,15.26329,24.99347,15.26329z"/></g></g></svg>