<?xml version="1.0" ?><svg enable-background="new 0 0 100 100" id="Layer_1" version="1.1" viewBox="0 0 100 100" xml:space="preserve" xmlns="http://www.w3.org/2000/svg" xmlns:xlink="http://www.w3.org/1999/xlink"><g><path d="M29.8,65.3h40.4c0.8,0,1.4-0.6,1.4-1.4s-0.6-1.4-1.4-1.4H29.8c-0.8,0-1.4,0.6-1.4,1.4S29,65.3,29.8,65.3z"/><path d="M29.8,51.4h15c0.8,0,1.4-0.6,1.4-1.4s-0.6-1.4-1.4-1.4h-15c-0.8,0-1.4,0.6-1.4,1.4S29,51.4,29.8,51.4z"/><path d="M29.8,37.5h30.1c0.8,0,1.4-0.6,1.4-1.4c0-0.8-0.6-1.4-1.4-1.4H29.8c-0.8,0-1.4,0.6-1.4,1.4C28.4,36.8,29,37.5,29.8,37.5z"/></g></svg>