<?xml version="1.0" encoding="utf-8"?>
<!-- Generator: Adobe Illustrator 18.0.0, SVG Export Plug-In . SVG Version: 6.00 Build 0)  -->
<!DOCTYPE svg PUBLIC "-//W3C//DTD SVG 1.1//EN" "http://www.w3.org/Graphics/SVG/1.1/DTD/svg11.dtd">
<svg version="1.1" id="Layer_1" xmlns="http://www.w3.org/2000/svg" xmlns:xlink="http://www.w3.org/1999/xlink" x="0px" y="0px"
	 viewBox="0 0 48 48" enable-background="new 0 0 48 48" xml:space="preserve">
<g>
	<polyline fill="none" stroke="#000000" stroke-width="2" stroke-miterlimit="10" points="29.6,11.5 22.3,15.3 11.6,9.8 1,15.3 
		1,47 11.6,41.5 22.3,47 32.9,41.5 43.5,47 43.5,17.3 	"/>
	<path fill="none" stroke="#000000" stroke-width="2" stroke-miterlimit="10" d="M47,9.7c0,4.8-8.8,14.4-8.8,14.4s-8.8-9.6-8.8-14.4
		S33.4,1,38.2,1S47,4.9,47,9.7z"/>
	<ellipse fill="none" stroke="#000000" stroke-width="2" stroke-miterlimit="10" cx="38.2" cy="9.7" rx="4.4" ry="4.4"/>
	<g>
		<g>
			<path fill="none" stroke="#000000" stroke-width="2" stroke-miterlimit="10" d="M4.6,36.3c0.1-0.5,0.3-0.9,0.5-1.4"/>
			<path fill="none" stroke="#000000" stroke-width="2" stroke-miterlimit="10" stroke-dasharray="3.0539,3.0539" d="M6.9,32.4
				c1.2-1.3,2.7-2.3,4.3-2.8c5.8-1.8,12,1.8,18,0.7c1.9-0.3,3.6-1.1,5.1-2.3"/>
			<path fill="none" stroke="#000000" stroke-width="2" stroke-miterlimit="10" d="M35.4,27c0.4-0.4,0.7-0.7,1-1.1"/>
		</g>
	</g>
</g>
</svg>
