<?xml version="1.0" encoding="UTF-8"?>
<svg width="16px" height="21px" viewBox="0 0 16 21" version="1.1" xmlns="http://www.w3.org/2000/svg" xmlns:xlink="http://www.w3.org/1999/xlink">
    <!-- Generator: Sketch 61 (89581) - https://sketch.com -->
    <title>03. Office</title>
    <desc>Created with Sketch.</desc>
    <g id="Page-1" stroke="none" stroke-width="1" fill="none" fill-rule="evenodd">
        <g id="CalendarView-Copy" transform="translate(-163.000000, -88.000000)" fill="#5D5D5D">
            <g id="SliderMenu-Copy" transform="translate(90.000000, 75.000000)">
                <g id="Menu-Filters-Copy" transform="translate(61.000000, 6.000000)">
                    <path d="M17.3333333,18.5555556 L16.8888889,18.5555556 C16.6435556,18.5555556 16.4444444,18.7546667 16.4444444,19 L16.4444444,19.4444444 C16.4444444,19.6897778 16.6435556,19.8888889 16.8888889,19.8888889 L17.3333333,19.8888889 C17.5786667,19.8888889 17.7777778,19.6897778 17.7777778,19.4444444 L17.7777778,19 C17.7777778,18.7546667 17.5786667,18.5555556 17.3333333,18.5555556 L17.3333333,18.5555556 Z M21.3333333,25.2222222 L21.7777778,25.2222222 C22.0231111,25.2222222 22.2222222,25.0231111 22.2222222,24.7777778 L22.2222222,24.3333333 C22.2222222,24.088 22.0231111,23.8888889 21.7777778,23.8888889 L21.3333333,23.8888889 C21.088,23.8888889 20.8888889,24.088 20.8888889,24.3333333 L20.8888889,24.7777778 C20.8888889,25.0231111 21.088,25.2222222 21.3333333,25.2222222 L21.3333333,25.2222222 Z M15.1111111,15.8888889 L14.6666667,15.8888889 C14.4213333,15.8888889 14.2222222,16.088 14.2222222,16.3333333 L14.2222222,16.7777778 C14.2222222,17.0231111 14.4213333,17.2222222 14.6666667,17.2222222 L15.1111111,17.2222222 C15.3564444,17.2222222 15.5555556,17.0231111 15.5555556,16.7777778 L15.5555556,16.3333333 C15.5555556,16.088 15.3564444,15.8888889 15.1111111,15.8888889 L15.1111111,15.8888889 Z M17.3333333,23.8888889 L16.8888889,23.8888889 C16.6435556,23.8888889 16.4444444,24.088 16.4444444,24.3333333 L16.4444444,24.7777778 C16.4444444,25.0231111 16.6435556,25.2222222 16.8888889,25.2222222 L17.3333333,25.2222222 C17.5786667,25.2222222 17.7777778,25.0231111 17.7777778,24.7777778 L17.7777778,24.3333333 C17.7777778,24.088 17.5786667,23.8888889 17.3333333,23.8888889 L17.3333333,23.8888889 Z M17.3333333,21.2222222 L16.8888889,21.2222222 C16.6435556,21.2222222 16.4444444,21.4213333 16.4444444,21.6666667 L16.4444444,22.1111111 C16.4444444,22.3564444 16.6435556,22.5555556 16.8888889,22.5555556 L17.3333333,22.5555556 C17.5786667,22.5555556 17.7777778,22.3564444 17.7777778,22.1111111 L17.7777778,21.6666667 C17.7777778,21.4213333 17.5786667,21.2222222 17.3333333,21.2222222 L17.3333333,21.2222222 Z M21.3333333,22.5555556 L21.7777778,22.5555556 C22.0231111,22.5555556 22.2222222,22.3564444 22.2222222,22.1111111 L22.2222222,21.6666667 C22.2222222,21.4213333 22.0231111,21.2222222 21.7777778,21.2222222 L21.3333333,21.2222222 C21.088,21.2222222 20.8888889,21.4213333 20.8888889,21.6666667 L20.8888889,22.1111111 C20.8888889,22.3564444 21.088,22.5555556 21.3333333,22.5555556 L21.3333333,22.5555556 Z M17.3333333,15.8888889 L16.8888889,15.8888889 C16.6435556,15.8888889 16.4444444,16.088 16.4444444,16.3333333 L16.4444444,16.7777778 C16.4444444,17.0231111 16.6435556,17.2222222 16.8888889,17.2222222 L17.3333333,17.2222222 C17.5786667,17.2222222 17.7777778,17.0231111 17.7777778,16.7777778 L17.7777778,16.3333333 C17.7777778,16.088 17.5786667,15.8888889 17.3333333,15.8888889 L17.3333333,15.8888889 Z M25.3333333,25.2222222 L25.7777778,25.2222222 C26.0231111,25.2222222 26.2222222,25.0231111 26.2222222,24.7777778 L26.2222222,24.3333333 C26.2222222,24.088 26.0231111,23.8888889 25.7777778,23.8888889 L25.3333333,23.8888889 C25.088,23.8888889 24.8888889,24.088 24.8888889,24.3333333 L24.8888889,24.7777778 C24.8888889,25.0231111 25.088,25.2222222 25.3333333,25.2222222 L25.3333333,25.2222222 Z M15.1111111,18.5555556 L14.6666667,18.5555556 C14.4213333,18.5555556 14.2222222,18.7546667 14.2222222,19 L14.2222222,19.4444444 C14.2222222,19.6897778 14.4213333,19.8888889 14.6666667,19.8888889 L15.1111111,19.8888889 C15.3564444,19.8888889 15.5555556,19.6897778 15.5555556,19.4444444 L15.5555556,19 C15.5555556,18.7546667 15.3564444,18.5555556 15.1111111,18.5555556 L15.1111111,18.5555556 Z M25.3333333,22.5555556 L25.7777778,22.5555556 C26.0231111,22.5555556 26.2222222,22.3564444 26.2222222,22.1111111 L26.2222222,21.6666667 C26.2222222,21.4213333 26.0231111,21.2222222 25.7777778,21.2222222 L25.3333333,21.2222222 C25.088,21.2222222 24.8888889,21.4213333 24.8888889,21.6666667 L24.8888889,22.1111111 C24.8888889,22.3564444 25.088,22.5555556 25.3333333,22.5555556 L25.3333333,22.5555556 Z M28,16.3333333 L27.5555556,16.3333333 L27.5555556,15 L24.8888889,15 L24.8888889,16.3333333 L23.1111111,16.3333333 L23.1111111,19 L20,19 L20,15.4444444 C20,14.4626667 19.204,13.6666667 18.2222222,13.6666667 L18.2222222,11.8888889 C18.2222222,11.3982222 17.824,11 17.3333333,11 L16.4444444,11 L16.4444444,7.44444444 C16.4444444,7.19911111 16.2453333,7 16,7 C15.7546667,7 15.5555556,7.19911111 15.5555556,7.44444444 L15.5555556,11 L14.6666667,11 C14.176,11 13.7777778,11.3982222 13.7777778,11.8888889 L13.7777778,13.6666667 C12.796,13.6666667 12,14.4626667 12,15.4444444 L12,27.4444444 L28,27.4444444 L28,16.3333333 L28,16.3333333 Z M14.6666667,12.3333333 C14.6666667,12.088 14.8657778,11.8888889 15.1111111,11.8888889 L16.8888889,11.8888889 C17.1342222,11.8888889 17.3333333,12.088 17.3333333,12.3333333 L17.3333333,13.6666667 L14.6666667,13.6666667 L14.6666667,12.3333333 L14.6666667,12.3333333 Z M19.1111111,26.5555556 L12.8888889,26.5555556 L12.8888889,15.4444444 C12.8888889,14.9537778 13.2871111,14.5555556 13.7777778,14.5555556 L18.2222222,14.5555556 C18.7128889,14.5555556 19.1111111,14.9537778 19.1111111,15.4444444 L19.1111111,26.5555556 L19.1111111,26.5555556 Z M23.1111111,26.5555556 L20,26.5555556 L20,19.8888889 L23.1111111,19.8888889 L23.1111111,26.5555556 L23.1111111,26.5555556 Z M27.1111111,26.5555556 L24,26.5555556 L24,17.2222222 L27.1111111,17.2222222 L27.1111111,26.5555556 L27.1111111,26.5555556 Z M25.3333333,19.8888889 L25.7777778,19.8888889 C26.0231111,19.8888889 26.2222222,19.6897778 26.2222222,19.4444444 L26.2222222,19 C26.2222222,18.7546667 26.0231111,18.5555556 25.7777778,18.5555556 L25.3333333,18.5555556 C25.088,18.5555556 24.8888889,18.7546667 24.8888889,19 L24.8888889,19.4444444 C24.8888889,19.6897778 25.088,19.8888889 25.3333333,19.8888889 L25.3333333,19.8888889 Z M15.1111111,21.2222222 L14.6666667,21.2222222 C14.4213333,21.2222222 14.2222222,21.4213333 14.2222222,21.6666667 L14.2222222,22.1111111 C14.2222222,22.3564444 14.4213333,22.5555556 14.6666667,22.5555556 L15.1111111,22.5555556 C15.3564444,22.5555556 15.5555556,22.3564444 15.5555556,22.1111111 L15.5555556,21.6666667 C15.5555556,21.4213333 15.3564444,21.2222222 15.1111111,21.2222222 L15.1111111,21.2222222 Z M15.1111111,23.8888889 L14.6666667,23.8888889 C14.4213333,23.8888889 14.2222222,24.088 14.2222222,24.3333333 L14.2222222,24.7777778 C14.2222222,25.0231111 14.4213333,25.2222222 14.6666667,25.2222222 L15.1111111,25.2222222 C15.3564444,25.2222222 15.5555556,25.0231111 15.5555556,24.7777778 L15.5555556,24.3333333 C15.5555556,24.088 15.3564444,23.8888889 15.1111111,23.8888889 L15.1111111,23.8888889 Z" id="03.-Office"></path>
                </g>
            </g>
        </g>
    </g>
</svg>