<?xml version="1.0" encoding="UTF-8"?>
<svg width="45px" height="45px" viewBox="0 0 45 45" version="1.1" xmlns="http://www.w3.org/2000/svg" xmlns:xlink="http://www.w3.org/1999/xlink">
    <!-- Generator: Sketch 61 (89581) - https://sketch.com -->
    <title>parking</title>
    <desc>Created with Sketch.</desc>
    <g id="Page-1" stroke="none" stroke-width="1" fill="none" fill-rule="evenodd">
        <g id="parking" fill="#78B3AC" fill-rule="nonzero">
            <path d="M24.5384615,15 L19,15 L19,21 L24.5384615,21 C26.4502164,21 28,19.6568542 28,18 C28,16.3431458 26.4502164,15 24.5384615,15 Z" id="Path"></path>
            <path d="M40.1785714,0 L4.82142857,0 C2.1586271,0 0,2.1586271 0,4.82142857 L0,40.1785714 C0,42.8413729 2.1586271,45 4.82142857,45 L40.1785714,45 C42.8413729,45 45,42.8413729 45,40.1785714 L45,4.82142857 C45,2.1586271 42.8413729,0 40.1785714,0 Z M24.9107143,27.3214286 L20.0892857,27.3214286 L20.0892857,36.9642857 L13.6607143,36.9642857 L13.6607143,8.03571429 L24.9107143,8.03571429 C30.2363172,8.03571429 34.5535714,12.3529685 34.5535714,17.6785714 C34.5535714,23.0041744 30.2363172,27.3214286 24.9107143,27.3214286 Z" id="Shape"></path>
        </g>
    </g>
</svg>