<svg xmlns="http://www.w3.org/2000/svg" width="512" height="462" viewBox="0 0 512 462"><g data-name="Group 4"><g data-name="Group 3"><path data-name="Path 4" d="M492 302a20 20 0 0 0 20-20V152a80.091 80.091 0 0 0-80-80h-30.361a20 20 0 0 1-18.934-13.556l-6.051-17.777A59.986 59.986 0 0 0 319.854 0H192.083a60.16 60.16 0 0 0-56.432 39.621l-6.923 19.172A20.055 20.055 0 0 1 109.917 72H80a80.091 80.091 0 0 0-80 80v230a80.091 80.091 0 0 0 80 80h352a80.091 80.091 0 0 0 80-80 20 20 0 0 0-40 0 40.045 40.045 0 0 1-40 40H80a40.045 40.045 0 0 1-40-40V152a40.045 40.045 0 0 1 40-40h29.917a60.16 60.16 0 0 0 56.432-39.621l6.923-19.172A20.055 20.055 0 0 1 192.083 40h127.771a20 20 0 0 1 18.934 13.556l6.051 17.777a59.984 59.984 0 0 0 56.8 40.667H432a40.045 40.045 0 0 1 40 40v130a20 20 0 0 0 20 20z" fill="#fff"/></g></g><g data-name="Group 6"><g data-name="Group 5"><path data-name="Path 5" d="M257 132a125 125 0 1 0 125 125 125.142 125.142 0 0 0-125-125zm0 210a85 85 0 1 1 85-85 85.1 85.1 0 0 1-85 85z" fill="#fff"/></g></g></svg>