<svg xmlns="http://www.w3.org/2000/svg" width="512" height="462" viewBox="0 0 512 462">
  <g id="photo-camera" transform="translate(0 -25)">
    <g id="Group_4" data-name="Group 4">
      <g id="Group_3" data-name="Group 3">
        <path id="Path_4" data-name="Path 4" d="M492,327a20,20,0,0,0,20-20V177a80.091,80.091,0,0,0-80-80H401.639a20,20,0,0,1-18.934-13.556l-6.051-17.777A59.986,59.986,0,0,0,319.854,25H192.083a60.16,60.16,0,0,0-56.432,39.621l-6.923,19.172A20.055,20.055,0,0,1,109.917,97H80A80.091,80.091,0,0,0,0,177V407a80.091,80.091,0,0,0,80,80H432a80.091,80.091,0,0,0,80-80,20,20,0,0,0-40,0,40.045,40.045,0,0,1-40,40H80a40.045,40.045,0,0,1-40-40V177a40.045,40.045,0,0,1,40-40h29.917a60.16,60.16,0,0,0,56.432-39.621l6.923-19.172A20.055,20.055,0,0,1,192.083,65H319.854a20,20,0,0,1,18.934,13.556l6.051,17.777A59.984,59.984,0,0,0,401.639,137H432a40.045,40.045,0,0,1,40,40V307A20,20,0,0,0,492,327Z" fill="#fff"/>
      </g>
    </g>
    <g id="Group_6" data-name="Group 6">
      <g id="Group_5" data-name="Group 5">
        <path id="Path_5" data-name="Path 5" d="M257,157A125,125,0,1,0,382,282,125.142,125.142,0,0,0,257,157Zm0,210a85,85,0,1,1,85-85A85.1,85.1,0,0,1,257,367Z" fill="#fff"/>
      </g>
    </g>
  </g>
</svg>
