<?xml version="1.0" encoding="UTF-8"?>
<svg width="10px" height="11px" viewBox="0 0 10 11" version="1.1" xmlns="http://www.w3.org/2000/svg" xmlns:xlink="http://www.w3.org/1999/xlink">
    <!-- Generator: Sketch 61 (89581) - https://sketch.com -->
    <title>Group</title>
    <desc>Created with Sketch.</desc>
    <g id="Page-1" stroke="none" stroke-width="1" fill="none" fill-rule="evenodd">
        <g id="Artboard" transform="translate(-204.000000, -135.000000)" fill="#000000" fill-rule="nonzero">
            <g id="stroke-icons" transform="translate(187.000000, 0.000000)">
                <g id="Group" transform="translate(16.997743, 135.981941)">
                    <path d="M8.49887133,0 L0.566591422,0 C0.253832957,0 0,0.253832957 0,0.566591422 L0,8.49887133 C0,8.8116298 0.253832957,9.06546275 0.566591422,9.06546275 L8.49887133,9.06546275 C8.8116298,9.06546275 9.06546275,8.8116298 9.06546275,8.49887133 L9.06546275,0.566591422 C9.06546275,0.253832957 8.8116298,0 8.49887133,0 Z M5.66591422,0.566591422 L6.79909707,0.566591422 L6.79909707,1.69977427 L5.66591422,1.69977427 L5.66591422,0.566591422 Z M3.96613995,0.566591422 L5.0993228,0.566591422 L5.0993228,1.69977427 L3.96613995,1.69977427 L3.96613995,0.566591422 Z M2.26636569,0.566591422 L3.39954853,0.566591422 L3.39954853,1.69977427 L2.26636569,1.69977427 L2.26636569,0.566591422 Z M0.566591422,0.566591422 L1.69977427,0.566591422 L1.69977427,1.69977427 L0.566591422,1.69977427 L0.566591422,0.566591422 Z M1.69977427,8.49887133 L0.566591422,8.49887133 L0.566591422,7.36568849 L1.69977427,7.36568849 L1.69977427,8.49887133 Z M3.39954853,8.49887133 L2.26636569,8.49887133 L2.26636569,7.36568849 L3.39954853,7.36568849 L3.39954853,8.49887133 Z M5.0993228,8.49887133 L3.96613995,8.49887133 L3.96613995,7.36568849 L5.0993228,7.36568849 L5.0993228,8.49887133 Z M6.79909707,8.49887133 L5.66591422,8.49887133 L5.66591422,7.36568849 L6.79909707,7.36568849 L6.79909707,8.49887133 Z M8.49887133,8.49887133 L7.36568849,8.49887133 L7.36568849,7.36568849 L8.49887133,7.36568849 L8.49887133,8.49887133 Z M8.49887133,6.79909707 L0.566591422,6.79909707 L0.566591422,2.26636569 L8.49887133,2.26636569 L8.49887133,6.79909707 Z M8.49887133,1.69977427 L7.36568849,1.69977427 L7.36568849,0.566591422 L8.49887133,0.566591422 L8.49887133,1.69977427 Z" id="Shape"></path>
                    <polygon id="Path" points="3.96613995 2.83295711 3.96613995 6.23250564 5.66591422 4.53273138"></polygon>
                </g>
            </g>
        </g>
    </g>
</svg>