<?xml version="1.0" encoding="UTF-8"?>
<svg width="513px" height="513px" viewBox="0 0 513 513" version="1.1" xmlns="http://www.w3.org/2000/svg" xmlns:xlink="http://www.w3.org/1999/xlink">
    <!-- Generator: Sketch 61 (89581) - https://sketch.com -->
    <title>shapes</title>
    <desc>Created with Sketch.</desc>
    <g id="Page-1" stroke="none" stroke-width="1" fill="none" fill-rule="evenodd">
        <g id="Artboard" transform="translate(-625.000000, -349.000000)" fill="#000000" fill-rule="nonzero">
            <g id="shapes" transform="translate(881.500000, 605.000000) rotate(-90.000000) translate(-881.500000, -605.000000) translate(625.000000, 349.000000)">
                <g id="Group" transform="translate(40.000000, 0.000000)">
                    <path d="M397.02,75.112 C348.667,26.76 284.38,0.133 216,0.133 C174.782,0.133 133.811,10.166 97.515,29.149 C76.586,40.094 57.191,54.029 40,70.302 L40,0.133 L0,0.133 L0,140.133 L140,140.133 L140,100.133 L66.662,100.133 C106.549,62.058 160.073,40.133 216,40.133 C335.102,40.133 432,137.029 432,256.132 C431.999,262.764 431.696,269.449 431.099,276.002 L470.935,279.63 C471.641,271.877 472,263.972 472,256.135 L452,256.133 L472,256.133 C472,187.752 445.371,123.466 397.02,75.112 Z" id="Path"></path>
                    <polygon id="Path" points="472 256.132 472 256.132 472 256.133"></polygon>
                </g>
                <path d="M87.724,391.566 L56.579,416.667 C65.627,427.893 75.693,438.429 86.499,447.982 L112.993,418.015 C103.867,409.946 95.365,401.049 87.724,391.566 Z" id="Path"></path>
                <path d="M52.219,327.943 L14.492,341.239 C19.286,354.84 25.288,368.135 32.334,380.756 L67.26,361.259 C61.319,350.617 56.259,339.407 52.219,327.943 Z" id="Path"></path>
                <path d="M40,256.133 L0,256.133 C0,270.603 1.22,285.119 3.624,299.278 L43.06,292.58 C41.029,280.627 40,268.365 40,256.133 Z" id="Path"></path>
                <path d="M142.33,439.841 L121.248,473.834 C133.519,481.445 146.513,488.049 159.866,493.463 L174.895,456.394 C163.637,451.831 152.68,446.26 142.33,439.841 Z" id="Path"></path>
                <path d="M464.717,311.981 C461.58,323.729 457.41,335.292 452.322,346.346 L488.657,363.073 C494.694,349.958 499.642,336.238 503.363,322.296 L464.717,311.981 Z" id="Path"></path>
                <path d="M383.554,430.468 C373.721,437.676 363.219,444.084 352.341,449.515 L370.208,485.303 C383.104,478.865 395.55,471.27 407.202,462.729 L383.554,430.468 Z" id="Path"></path>
                <path d="M434.282,378.123 C427.399,388.158 419.61,397.683 411.13,406.434 L439.855,434.271 C449.896,423.91 459.12,412.629 467.27,400.744 L434.282,378.123 Z" id="Path"></path>
                <path d="M318.37,462.995 C306.738,466.498 294.708,469.025 282.614,470.51 L287.487,510.212 C301.83,508.451 316.099,505.452 329.899,501.298 L318.37,462.995 Z" id="Path"></path>
                <path d="M209.794,467.185 L201.28,506.268 C215.334,509.33 229.785,511.214 244.233,511.868 L246.042,471.909 C233.844,471.357 221.648,469.766 209.794,467.185 Z" id="Path"></path>
            </g>
        </g>
    </g>
</svg>