<?xml version="1.0" encoding="utf-8"?>
<!-- Generator: Adobe Illustrator 18.0.0, SVG Export Plug-In . SVG Version: 6.00 Build 0)  -->
<!DOCTYPE svg PUBLIC "-//W3C//DTD SVG 1.1//EN" "http://www.w3.org/Graphics/SVG/1.1/DTD/svg11.dtd">
<svg version="1.1" id="Layer_1" xmlns="http://www.w3.org/2000/svg" xmlns:xlink="http://www.w3.org/1999/xlink" x="0px" y="0px"
	 viewBox="0 0 48 48" enable-background="new 0 0 48 48" xml:space="preserve">
<g>
	<g>
		<path fill="none" stroke="#010101" stroke-width="2" stroke-miterlimit="10" d="M37.5,17.8h-27v-4.3c0-1.6,1.3-3,3-3h21.1
			c1.6,0,3,1.3,3,3V17.8z"/>
		<line fill="none" stroke="#010101" stroke-width="2" stroke-miterlimit="10" x1="24" y1="17.8" x2="24" y2="37.4"/>
		<path fill="none" stroke="#010101" stroke-width="2" stroke-miterlimit="10" d="M16.2,37.5c0-3.3,3.5-6,7.8-6s7.8,2.7,7.8,6"/>
	</g>
	<g>
		<polyline fill="none" stroke="#010101" stroke-width="2" stroke-miterlimit="10" points="34.5,37.4 34.5,25.5 47,25.5 47,10.5 		
			"/>
		<line fill="none" stroke="#010101" stroke-width="2" stroke-miterlimit="10" x1="47" y1="25.5" x2="47" y2="37.4"/>
		<g>
			<polyline fill="none" stroke="#010101" stroke-width="2" stroke-miterlimit="10" points="13.5,37.4 13.5,25.5 1,25.5 1,10.5 			
				"/>
			<line fill="none" stroke="#010101" stroke-width="2" stroke-miterlimit="10" x1="1" y1="25.5" x2="1" y2="37.4"/>
		</g>
	</g>
</g>
</svg>
