<?xml version="1.0" encoding="utf-8"?>
<!-- Generator: Adobe Illustrator 18.0.0, SVG Export Plug-In . SVG Version: 6.00 Build 0)  -->
<!DOCTYPE svg PUBLIC "-//W3C//DTD SVG 1.1//EN" "http://www.w3.org/Graphics/SVG/1.1/DTD/svg11.dtd">
<svg version="1.1" id="Layer_1" xmlns="http://www.w3.org/2000/svg" xmlns:xlink="http://www.w3.org/1999/xlink" x="0px" y="0px"
	 viewBox="0 0 48 48" enable-background="new 0 0 48 48" xml:space="preserve">
<g>
	<path d="M25.5,38.5C17.5,38.5,11,32,11,24S17.5,9.5,25.5,9.5S40,16,40,24S33.5,38.5,25.5,38.5z M25.5,11.5C18.6,11.5,13,17.1,13,24
		s5.6,12.5,12.5,12.5S38,30.9,38,24S32.4,11.5,25.5,11.5z"/>
	<path d="M25.5,33.4c-5.2,0-9.4-4.2-9.4-9.4c0-5.2,4.2-9.4,9.4-9.4c5.2,0,9.4,4.2,9.4,9.4C34.9,29.2,30.7,33.4,25.5,33.4z
		 M25.5,16.6c-4.1,0-7.4,3.3-7.4,7.4c0,4.1,3.3,7.4,7.4,7.4c4.1,0,7.4-3.3,7.4-7.4C32.9,19.9,29.6,16.6,25.5,16.6z"/>
	<path d="M45.4,39.9L45.4,39.9c-0.9,0-1.7-0.3-2.5-1c-0.3-0.2-0.4-0.6-0.4-0.9l1.1-7.2c-1.1-0.3-2.5-0.9-2.6-2.2
		c-0.2-0.9,1.3-16.2,4.1-19.5c0.7-0.9,1.7-1.1,2.5-0.6c0.3,0.2,0.5,0.5,0.5,0.9v28.8c0,0.2-0.1,0.5-0.3,0.7
		C47.8,38.9,46.8,39.9,45.4,39.9z M44.6,37.6c0.6,0.3,1.2,0.2,1.5,0V11.1c-1.7,3.5-3.2,15.5-3.1,17.3c0.2,0.2,1.1,0.6,1.9,0.7
		c0.5,0.1,0.9,0.6,0.8,1.1L44.6,37.6z"/>
	<path d="M5.8,21.8C2.6,21.8,0,18.7,0,15s2.6-6.8,5.8-6.8s5.8,3.1,5.8,6.8S9,21.8,5.8,21.8z M5.8,10.2C3.7,10.2,2,12.4,2,15
		s1.7,4.8,3.8,4.8c2.1,0,3.8-2.2,3.8-4.8S7.9,10.2,5.8,10.2z"/>
	<rect x="4.8" y="20.8" width="2" height="18"/>
</g>
</svg>
