<?xml version="1.0" encoding="utf-8"?>
<!-- Generator: Adobe Illustrator 18.0.0, SVG Export Plug-In . SVG Version: 6.00 Build 0)  -->
<!DOCTYPE svg PUBLIC "-//W3C//DTD SVG 1.1//EN" "http://www.w3.org/Graphics/SVG/1.1/DTD/svg11.dtd">
<svg version="1.1" id="Layer_1" xmlns="http://www.w3.org/2000/svg" xmlns:xlink="http://www.w3.org/1999/xlink" x="0px" y="0px"
	 viewBox="0 0 48 48" enable-background="new 0 0 48 48" xml:space="preserve">
<g>
	<path fill="#010101" d="M40.1,15.3H7.9V0h32.2V15.3z M9.9,13.3h28.2V2H9.9V13.3z"/>
	<path fill="#010101" d="M48,41.8H0V27.3h48V41.8z M2,39.8h44V29.3H2V39.8z"/>
	<rect y="42.7" fill="#010101" width="2" height="4.3"/>
	<rect x="46" y="42.7" fill="#010101" width="2" height="4.3"/>
	<polygon fill="#010101" points="21.7,37.3 19.7,37.3 19.7,33.2 6.1,33.2 6.1,37.3 4.1,37.3 4.1,31.2 21.7,31.2 	"/>
	<polygon fill="#010101" points="42.5,37.3 40.5,37.3 40.5,33.2 27,33.2 27,37.3 25,37.3 25,31.2 42.5,31.2 	"/>
	<polygon fill="#010101" points="35.2,12.9 33.2,12.9 33.2,6.7 14.8,6.7 14.8,12.9 12.8,12.9 12.8,4.7 35.2,4.7 	"/>
	<g>
		<rect x="5.2" y="13.8" transform="matrix(0.9275 0.3739 -0.3739 0.9275 8.3955 -0.7768)" fill="#010101" width="2" height="15"/>
		
			<rect x="34.3" y="20.3" transform="matrix(0.3736 0.9276 -0.9276 0.3736 45.8925 -25.4621)" fill="#010101" width="15" height="2"/>
	</g>
</g>
</svg>
