<?xml version="1.0" encoding="UTF-8"?>
<svg width="34px" height="24px" viewBox="0 0 34 24" version="1.1" xmlns="http://www.w3.org/2000/svg" xmlns:xlink="http://www.w3.org/1999/xlink">
    <!-- Generator: Sketch 61 (89581) - https://sketch.com -->
    <title>service</title>
    <desc>Created with Sketch.</desc>
    <g id="Page-1" stroke="none" stroke-width="1" fill="none" fill-rule="evenodd">
        <g id="service" fill="#383838" fill-rule="nonzero">
            <path d="M34,22.8 C34,23.4627417 33.4563458,24 32.7857143,24 L1.21428571,24 C0.543654232,24 0,23.4627417 0,22.8 C0,22.1372583 0.543654232,21.6 1.21428571,21.6 L32.7857143,21.6 C33.4563458,21.6 34,22.1372583 34,22.8 Z M14.5714286,2.4 L19.4285714,2.4 C20.0992029,2.4 20.6428571,1.8627417 20.6428571,1.2 C20.6428571,0.5372583 20.0992029,0 19.4285714,0 L14.5714286,0 C13.9007971,0 13.3571429,0.5372583 13.3571429,1.2 C13.3571429,1.8627417 13.9007971,2.4 14.5714286,2.4 Z M17,4.8 C8.95242222,4.8 2.42857143,11.2470996 2.42857143,19.2 L31.5714286,19.2 C31.5714286,11.2470996 25.0475778,4.8 17,4.8 L17,4.8 Z" id="Shape"></path>
        </g>
    </g>
</svg>