<svg xmlns="http://www.w3.org/2000/svg" viewBox="0 0 503.873 503.873"><path d="M40.635 251.937h16.254c0-35.759 29.257-65.016 65.016-65.016v-16.254c-44.699 0-81.27 36.571-81.27 81.27z"/><path d="M422.603 341.333c-27.632 0-51.2 13.816-65.829 34.133l-125.156-70.705c8.127-16.254 12.19-34.133 12.19-52.825s-4.876-36.571-12.19-52.825l125.156-70.705c14.629 21.13 39.01 34.133 65.829 34.133 44.698 0 81.27-36.571 81.27-81.27 0-44.698-36.571-81.27-81.27-81.27s-81.27 36.571-81.27 81.27c0 11.378 2.438 22.756 7.314 32.508l-125.156 70.705c-21.943-33.321-59.327-54.451-101.587-54.451C54.451 130.032 0 184.483 0 251.937s54.451 121.905 121.905 121.905c42.26 0 79.644-21.943 101.587-54.451l124.343 70.705c-4.063 9.752-7.314 21.13-7.314 32.508 0 44.698 36.571 81.27 81.27 81.27 44.698 0 81.27-36.571 81.27-81.27.812-44.699-35.759-81.271-80.458-81.271zm0-325.079c35.759 0 65.016 29.257 65.016 65.016s-29.257 65.016-65.016 65.016-65.016-29.257-65.016-65.016 29.257-65.016 65.016-65.016zM121.905 357.587c-58.514 0-105.651-47.137-105.651-105.651s47.136-105.65 105.651-105.65 105.651 47.136 105.651 105.651-47.137 105.65-105.651 105.65zm300.698 130.032c-35.759 0-65.016-29.257-65.016-65.016s29.257-65.016 65.016-65.016 65.016 29.257 65.016 65.016-29.257 65.016-65.016 65.016z"/></svg>