<?xml version="1.0" encoding="UTF-8"?>
<svg width="16px" height="14px" viewBox="0 0 16 14" version="1.1" xmlns="http://www.w3.org/2000/svg" xmlns:xlink="http://www.w3.org/1999/xlink">
    <!-- Generator: Sketch 61 (89581) - https://sketch.com -->
    <title>Shape</title>
    <desc>Created with Sketch.</desc>
    <g id="Page-1" stroke="none" stroke-width="1" fill="none" fill-rule="evenodd">
        <g id="Artboard" transform="translate(-370.000000, -464.000000)" fill="#000000" fill-rule="nonzero">
            <g id="stroke-icons" transform="translate(109.000000, 0.000000)">
                <path d="M276.155192,469.125282 L274.904514,469.125282 L270.315791,464.53656 C270.127174,464.347942 269.72479,464.250248 269.535205,464.439833 C269.346588,464.62845 269.352392,464.940878 269.541009,465.129495 L273.536796,469.125282 L264.264559,469.125282 L268.268084,465.121757 C268.456701,464.93314 268.450897,464.631352 268.26228,464.442735 C268.073663,464.254117 267.689657,464.330532 267.50104,464.520116 L262.896841,469.125282 L261.646163,469.125282 C261.379196,469.125282 261.162528,469.34195 261.162528,469.608916 C261.162528,469.875883 261.379196,470.092551 261.646163,470.092551 L262.129797,470.092551 L263.097065,476.863431 C263.097065,477.398331 263.529435,477.8307 264.064334,477.8307 L273.73702,477.8307 C274.27192,477.8307 274.704289,477.398331 274.704289,476.863431 L275.671558,470.092551 L276.155192,470.092551 C276.422158,470.092551 276.638826,469.875883 276.638826,469.608916 C276.638826,469.34195 276.422158,469.125282 276.155192,469.125282 Z M273.73702,476.863431 L264.064334,476.863431 L263.226679,470.162194 L263.29729,470.092551 L274.504064,470.092551 L274.574675,470.162194 L273.73702,476.863431 Z" id="Shape"></path>
            </g>
        </g>
    </g>
</svg>