<?xml version="1.0" encoding="UTF-8"?>
<svg width="16px" height="16px" viewBox="0 0 16 16" version="1.1" xmlns="http://www.w3.org/2000/svg" xmlns:xlink="http://www.w3.org/1999/xlink">
    <!-- Generator: Sketch 61 (89581) - https://sketch.com -->
    <title>Shape</title>
    <desc>Created with Sketch.</desc>
    <g id="Page-1" stroke="none" stroke-width="1" fill="none" fill-rule="evenodd">
        <g id="Artboard" transform="translate(-486.000000, -783.000000)" fill="#000000" fill-rule="nonzero">
            <g id="stroke-icons" transform="translate(109.000000, 0.000000)">
                <path d="M380.616334,795.094808 C380.884267,795.094808 381.099968,794.87814 381.099968,794.611174 L381.099968,793.643905 C381.099968,793.377906 380.884267,793.160271 380.616334,793.160271 L379.651,793.160271 C379.385001,793.160271 379.167366,793.377906 379.167366,793.643905 L379.167366,794.611174 C379.167366,794.87814 379.385001,795.094808 379.651,795.094808 L380.616334,795.094808 Z M383.515238,795.094808 C383.782204,795.094808 383.997905,794.87814 383.997905,794.611174 L383.997905,793.643905 C383.997905,793.377906 383.782204,793.160271 383.515238,793.160271 L382.548937,793.160271 C382.282938,793.160271 382.06627,793.377906 382.06627,793.643905 L382.06627,794.611174 C382.06627,794.87814 382.282938,795.094808 382.548937,795.094808 L383.515238,795.094808 Z M391.727349,791.578787 L391.727349,797.51298 C391.727349,797.779946 391.510681,797.996614 391.244682,797.996614 L389.795713,797.996614 L389.795713,793.885722 C389.795713,793.485273 389.470711,793.160271 389.070262,793.160271 L386.655959,793.160271 C386.25551,793.160271 385.930508,793.485273 385.930508,793.885722 L385.930508,797.996614 L378.684699,797.996614 C378.417733,797.996614 378.202032,797.779946 378.202032,797.51298 L378.202032,791.578787 C378.06081,791.661972 377.895407,791.709368 377.718397,791.709368 C377.542354,791.709368 377.377919,791.661972 377.23573,791.578787 L377.23573,797.996614 C377.23573,798.531514 377.668099,798.963883 378.202032,798.963883 L385.930508,798.963883 C386.896809,798.963883 386.896809,797.996614 386.896809,797.996614 L386.896809,794.12754 L388.828445,794.12754 L388.828445,797.996614 C388.828445,798.963883 389.795713,798.963883 389.795713,798.963883 L391.727349,798.963883 C392.261281,798.963883 392.69365,798.531514 392.69365,797.996614 L392.69365,791.578787 C392.552429,791.661972 392.387026,791.709368 392.210016,791.709368 C392.03494,791.709368 391.870505,791.661972 391.727349,791.578787 Z M392.69365,786.873025 L391.727349,785.905756 L391.727349,784.454853 C391.727349,783.919954 391.29498,783.487585 390.761047,783.487585 L379.167366,783.487585 C378.634401,783.487585 378.202032,783.919954 378.202032,784.454853 L378.202032,785.905756 L377.23573,786.873025 L377.23573,788.807562 L377.233796,788.807562 C377.233796,788.807562 377.242501,789.762256 377.242501,790.258465 C377.240567,790.258465 377.238632,790.258465 377.23573,790.258465 C377.254108,790.742099 377.712594,790.742099 377.712594,790.742099 C378.208802,790.742099 378.208802,790.258465 378.208802,790.258465 C378.208802,790.252661 378.208802,790.247825 378.208802,790.242989 C378.314235,789.969252 378.623761,789.774831 378.933287,789.774831 C379.248616,789.774831 379.563946,789.97699 379.664542,790.258465 C379.660673,790.258465 379.658738,790.258465 379.654869,790.258465 C379.673247,790.742099 380.130765,790.742099 380.130765,790.742099 C380.624072,790.742099 380.624072,790.258465 380.624072,790.258465 C380.624072,790.258465 380.622138,790.258465 380.618269,790.258465 C380.717897,789.97699 381.033227,789.774831 381.348556,789.774831 C381.663886,789.774831 381.980183,789.97699 382.078844,790.258465 C382.096255,790.742099 382.549904,790.742099 382.549904,790.742099 C383.039342,790.742099 383.032571,790.258465 383.032571,790.258465 C383.032571,790.258465 383.167989,789.774831 383.763826,789.774831 C384.360631,789.774831 384.491212,790.258465 384.491212,790.258465 C384.491212,790.736296 384.965174,790.742099 384.965174,790.742099 C384.965174,790.742099 385.447841,790.742099 385.447841,790.258465 C385.447841,789.774831 386.091074,789.774831 386.176194,789.774831 C386.873595,789.774831 386.913253,790.258465 386.913253,790.258465 C386.930664,790.742099 387.382378,790.742099 387.382378,790.742099 C387.868914,790.742099 387.863111,790.258465 387.863111,790.258465 C387.863111,790.258465 387.935656,789.774831 388.594366,789.774831 C389.252108,789.774831 389.325621,790.258465 389.325621,790.258465 L389.324653,790.258465 C389.343032,790.742099 389.795713,790.742099 389.795713,790.742099 C390.285151,790.742099 390.279348,790.258465 390.279348,790.258465 C390.279348,790.258465 390.400256,789.774831 391.009635,789.774831 C391.619015,789.774831 391.739923,790.258465 391.739923,790.258465 C391.757334,790.742099 392.210983,790.742099 392.210983,790.742099 C392.700421,790.742099 392.700421,790.258465 392.700421,790.258465 C392.700421,789.762256 392.709126,788.807562 392.709126,788.807562 L392.69365,786.873025 Z M391.009635,788.807562 C390.536641,788.807562 390.109108,789.001983 389.801517,789.315378 C389.49586,789.001983 389.06736,788.807562 388.594366,788.807562 C388.121371,788.807562 387.692871,789.001983 387.387214,789.315378 C387.079623,789.001983 386.65209,788.807562 386.179096,788.807562 C385.706102,788.807562 385.278569,789.001983 384.970977,789.315378 C384.665321,789.001983 384.236821,788.807562 383.763826,788.807562 C383.290832,788.807562 382.862332,789.001983 382.556675,789.315378 C382.249084,789.001983 381.821551,788.807562 381.348556,788.807562 C380.875562,788.807562 380.448029,789.001983 380.140438,789.315378 C379.834781,789.001983 379.406281,788.807562 378.933287,788.807562 C378.455456,788.807562 378.401289,788.888813 378.197195,789.059052 C378.203966,789.02423 378.202032,788.807562 378.202032,788.807562 L378.202032,787.356659 L379.167366,786.389391 L379.167366,784.938488 C379.167366,784.672489 379.385001,784.454853 379.651,784.454853 L390.27838,784.454853 C390.544379,784.454853 390.761047,784.672489 390.761047,784.938488 L390.761047,786.389391 L391.727349,787.356659 L391.727349,788.807562 L391.745727,788.913962 C391.745727,788.913962 391.218565,788.807562 391.009635,788.807562 Z" id="Shape"></path>
            </g>
        </g>
    </g>
</svg>