<?xml version="1.0" encoding="UTF-8"?>
<svg width="472px" height="390px" viewBox="0 0 472 390" version="1.1" xmlns="http://www.w3.org/2000/svg" xmlns:xlink="http://www.w3.org/1999/xlink">
    <!-- Generator: Sketch 61 (89581) - https://sketch.com -->
    <title>swimming, swim, water, pool</title>
    <desc>Created with Sketch.</desc>
    <g id="Page-1" stroke="none" stroke-width="1" fill="none" fill-rule="evenodd" stroke-linecap="round" stroke-linejoin="round">
        <g id="Artboard" transform="translate(-173.000000, -352.000000)" stroke="#000000" stroke-width="15">
            <g id="swimming,-swim,-water,-pool" transform="translate(180.000000, 360.000000)">
                <path d="M457.129,298.926 C446.731,293.102 435.987,287.082 423.923,283.821 C419.133,282.544 414.105,281.889 408.982,281.889 C388.716,281.889 369.084,291.833 352.274,301.154 C338.927,308.521 326.479,312.256 315.263,312.256 C309.586,312.256 304.233,311.266 299.365,309.318 C292.201,306.434 285.253,302.6 277.892,298.547 C263.835,290.799 249.302,282.788 232.81,281.616 C231.577,281.533 230.304,281.489 229.055,281.489 C210.877,281.489 194.2,290.465 178.072,299.143 C173.439,301.643 168.649,304.218 163.963,306.495 C156.492,310.105 148.425,311.934 139.976,311.934 C130.376,311.934 120.529,309.47 111.505,304.809 C108.729,303.368 105.963,301.89 103.205,300.412 L102.979,300.291 C85.781,291.089 68.003,281.564 49.135,281.564 C46.564,281.564 43.989,281.745 41.476,282.088 C26.609,284.21 13.527,291.5 0.871,298.546" id="Path"></path>
                <path d="M457.129,360.676 C446.731,354.849 435.987,348.831 423.923,345.571 C419.133,344.295 414.105,343.639 408.982,343.639 C388.716,343.639 369.084,353.583 352.274,362.903 C338.927,370.272 326.479,374.003 315.263,374.003 C309.586,374.003 304.233,373.016 299.365,371.064 C292.201,368.179 285.253,364.351 277.892,360.294 C263.835,352.544 249.302,344.533 232.81,343.365 C231.577,343.278 230.304,343.236 229.055,343.236 C210.877,343.236 194.2,352.215 178.072,360.893 C173.439,363.391 168.649,365.963 163.963,368.242 C156.492,371.856 148.425,373.684 139.976,373.684 C130.376,373.684 120.529,371.215 111.505,366.557 C108.729,365.118 105.963,363.636 103.205,362.158 L102.979,362.039 C85.781,352.834 68.003,343.31 49.135,343.31 C46.564,343.31 43.989,343.492 41.476,343.839 C26.609,345.955 13.527,353.246 0.871,360.294" id="Path"></path>
                <g id="Group" transform="translate(86.000000, 0.000000)">
                    <path d="M261.642,275.731 C269.128,269.193 275.262,263.731 276.944,262.42 C287.991,253.852 290.006,237.96 281.442,226.91 L240.741,174.403 L208.779,133.1 C208.672,132.957 208.529,132.85 208.416,132.712 L158.628,68.482 L280.167,50.34 C293.987,48.277 303.528,35.397 301.46,21.569 C299.401,7.747 286.502,-1.785 272.694,0.277 L108.407,24.802 C99.518,26.129 92.001,32.066 88.653,40.404 C85.306,48.749 86.635,58.236 92.14,65.339 L153.551,144.555 L0.338,266.767" id="Path"></path>
                    <path d="M364.958,140.159 C364.183,169.535 339.734,192.715 310.366,191.936 C280.986,191.156 257.804,166.707 258.583,137.332 C259.367,107.958 283.812,84.777 313.187,85.558 C342.557,86.338 365.743,110.784 364.958,140.159 Z" id="Path"></path>
                </g>
            </g>
        </g>
    </g>
</svg>