<?xml version="1.0" encoding="utf-8"?>
<!-- Generator: Adobe Illustrator 18.0.0, SVG Export Plug-In . SVG Version: 6.00 Build 0)  -->
<!DOCTYPE svg PUBLIC "-//W3C//DTD SVG 1.1//EN" "http://www.w3.org/Graphics/SVG/1.1/DTD/svg11.dtd">
<svg version="1.1" id="Layer_1" xmlns="http://www.w3.org/2000/svg" xmlns:xlink="http://www.w3.org/1999/xlink" x="0px" y="0px"
	 viewBox="0 0 48 48" enable-background="new 0 0 48 48" xml:space="preserve">
<g>
	<path fill="#010101" d="M39,20.2c-3.6,0-6.6-3-6.6-6.6S35.4,7,39,7s6.6,3,6.6,6.6S42.6,20.2,39,20.2z M39,9c-2.5,0-4.6,2.1-4.6,4.6
		s2.1,4.6,4.6,4.6s4.6-2.1,4.6-4.6S41.5,9,39,9z"/>
	<path fill="#010101" d="M14.4,28.3L14.4,28.3c-2.7,0-4-2-4.3-3l-0.2-0.7l10.6-7.8c-3-1.5-6.6-1.8-9.3-1.8c-0.6,0-1.6,0-2.6,0.1l0,0
		c-1.8,0.3-3.4-1-3.7-2.8c-0.3-1.8,1-3.5,2.8-3.7c0.9-0.2,16.1-1.9,22.4,8.3c0,0.1,0.1,0.2,0.3,0.4c5.5,8.3,5.3,9.4,4.3,10.1
		l-0.1,0.1c-0.2,0.1-0.4,0.1-0.6,0.1l0,0c-0.7,0-1.4-0.4-3-1.3c-1.9-1.1-4.6-2.7-6.8-2.9c-0.1,0-0.2,0-0.4,0c-1.8,0-3.6,1.5-5.2,2.7
		C17.1,27.2,15.8,28.2,14.4,28.3L14.4,28.3z M12.4,25.3c0.3,0.5,0.9,1,2,1c0.7,0,1.9-1,3-1.9c2-1.6,4.3-3.4,7-3.1
		c2.6,0.2,5.5,1.9,7.6,3.2c0.2,0.1,0.5,0.3,0.7,0.4c-0.5-1.1-1.7-3.1-4-6.6c-0.2-0.3-0.3-0.5-0.3-0.5c-4-6.5-12.4-7.4-17.1-7.4
		c-2,0-3.2,0.2-3.3,0.2c-0.8,0.1-1.3,0.7-1.2,1.5c0.1,0.8,0.7,1.3,1.5,1.2l0.2,0C9.6,13,10.6,13,11.3,13c3.3,0,8.1,0.5,11.7,2.9
		l1.2,0.8L12.4,25.3z"/>
	<path fill="#010101" d="M36.6,33.7c-3.7,0-5.4-1.6-6.9-3.1c-1.3-1.3-2.4-2.3-4.8-2.3c-2.5,0-3.7,1.2-5.1,2.5
		c-1.5,1.4-3.1,2.9-6.1,2.9c-2.8,0-4.5-1.4-6.1-2.7c-1.7-1.4-3.3-2.7-6.6-2.7v-2c4,0,6,1.7,7.9,3.2c1.5,1.2,2.7,2.2,4.8,2.2
		c2.2,0,3.3-1.1,4.7-2.4c1.5-1.4,3.3-3,6.5-3c3.2,0,4.8,1.5,6.2,2.9c1.4,1.4,2.7,2.5,5.5,2.5c2.8,0,3.6-1,4.6-2.4
		c1.1-1.4,2.3-3,5.8-3v2c-2.5,0-3.2,1-4.2,2.2C41.7,32,40.3,33.7,36.6,33.7z"/>
	<path fill="#010101" d="M36.6,41c-3.7,0-5.4-1.6-6.9-3.1c-1.3-1.3-2.4-2.3-4.8-2.3c-2.5,0-3.7,1.2-5.1,2.5
		c-1.5,1.4-3.1,2.9-6.1,2.9c-2.8,0-4.5-1.4-6.1-2.7c-1.7-1.4-3.3-2.7-6.6-2.7v-2c4,0,6,1.7,7.9,3.2c1.5,1.2,2.7,2.2,4.8,2.2
		c2.2,0,3.3-1.1,4.7-2.4c1.5-1.4,3.3-3,6.5-3c3.2,0,4.8,1.5,6.2,2.9c1.4,1.4,2.7,2.5,5.5,2.5c2.8,0,3.6-1,4.6-2.4
		c1.1-1.4,2.3-3,5.8-3v2c-2.5,0-3.2,1-4.2,2.2C41.7,39.3,40.3,41,36.6,41z"/>
</g>
</svg>
