<?xml version="1.0" encoding="utf-8"?>
<!-- Generator: Adobe Illustrator 18.0.0, SVG Export Plug-In . SVG Version: 6.00 Build 0)  -->
<!DOCTYPE svg PUBLIC "-//W3C//DTD SVG 1.1//EN" "http://www.w3.org/Graphics/SVG/1.1/DTD/svg11.dtd">
<svg version="1.1" id="Layer_1" xmlns="http://www.w3.org/2000/svg" xmlns:xlink="http://www.w3.org/1999/xlink" x="0px" y="0px"
	 viewBox="0 0 48 48" enable-background="new 0 0 48 48" xml:space="preserve">
<g>
	<polygon fill="none" stroke="#000000" stroke-width="2" stroke-miterlimit="10" points="5.9,16.6 44.9,16.6 44.9,11.6 1,11.6 
		1,34.2 5.9,34.2 	"/>
	<g>
		<path d="M10.3,20H9.2v-0.4h2.7V20h-1.1v3.2h-0.5V20z"/>
		<path d="M12.8,19.6v3.6h-0.5v-3.6H12.8z"/>
		<path d="M16.1,23.1c-0.2,0.1-0.5,0.2-1,0.2c-1,0-1.8-0.6-1.8-1.8c0-1.1,0.8-1.9,1.9-1.9c0.5,0,0.7,0.1,0.9,0.2L16,20.1
			c-0.2-0.1-0.4-0.2-0.7-0.2c-0.9,0-1.4,0.5-1.4,1.5c0,0.9,0.5,1.5,1.4,1.5c0.3,0,0.6-0.1,0.8-0.2L16.1,23.1z"/>
		<path d="M16.7,19.6h0.5v1.8h0c0.1-0.1,0.2-0.3,0.3-0.4l1.1-1.4h0.6l-1.3,1.5l1.4,2.1h-0.6l-1.2-1.8l-0.3,0.4v1.4h-0.5V19.6z"/>
		<path d="M20.5,20h-1.1v-0.4h2.7V20h-1.1v3.2h-0.5V20z"/>
	</g>
	<line fill="none" stroke="#000000" stroke-width="2" stroke-miterlimit="10" x1="37" y1="28.4" x2="22.1" y2="28.4"/>
	<line fill="none" stroke="#000000" stroke-width="2" stroke-miterlimit="10" x1="37" y1="32.2" x2="22.1" y2="32.2"/>
	<line fill="none" stroke="#000000" stroke-width="2" stroke-miterlimit="10" x1="43.7" y1="20.8" x2="37" y2="20.8"/>
	<line fill="none" stroke="#000000" stroke-width="2" stroke-miterlimit="10" x1="43.7" y1="24.6" x2="37" y2="24.6"/>
	<polygon fill="none" stroke="#000000" stroke-width="2" stroke-miterlimit="10" points="47,16.6 5.9,16.6 5.9,36.4 39.1,36.4 
		47,29.7 	"/>
	
		<polygon fill="none" stroke="#000000" stroke-width="2" stroke-linecap="round" stroke-linejoin="round" stroke-miterlimit="10" points="
		39.4,36.2 46.7,29.9 39.4,29.9 	"/>
</g>
</svg>
