<?xml version="1.0" encoding="UTF-8"?>
<svg width="16px" height="16px" viewBox="0 0 16 16" version="1.1" xmlns="http://www.w3.org/2000/svg" xmlns:xlink="http://www.w3.org/1999/xlink">
    <!-- Generator: Sketch 61 (89581) - https://sketch.com -->
    <title>Shape</title>
    <desc>Created with Sketch.</desc>
    <g id="Page-1" stroke="none" stroke-width="1" fill="none" fill-rule="evenodd">
        <g id="Artboard" transform="translate(-138.000000, -667.000000)" fill="#000000" fill-rule="nonzero">
            <g id="stroke-icons" transform="translate(109.000000, 0.000000)">
                <path d="M43.527088,667.41535 L29.9853273,667.41535 C29.451395,667.41535 29.0180587,667.847719 29.0180587,668.382619 L29.0180587,679.989842 C29.0180587,680.524742 29.451395,680.957111 29.9853273,680.957111 L29.9853273,682.408014 C29.9853273,682.67498 30.2019955,682.891648 30.4689616,682.891648 L32.4034989,682.891648 C32.670465,682.891648 32.8871332,682.67498 32.8871332,682.408014 L32.8871332,680.957111 L40.6252822,680.957111 L40.6252822,682.408014 C40.6252822,682.67498 40.8419503,682.891648 41.1089165,682.891648 L43.0434537,682.891648 C43.3104199,682.891648 43.527088,682.67498 43.527088,682.408014 L43.527088,680.957111 C44.0610203,680.957111 44.4943567,680.524742 44.4943567,679.989842 L44.4943567,668.382619 C44.4943567,667.847719 44.0610203,667.41535 43.527088,667.41535 Z M29.9853273,668.866253 C29.9853273,668.600254 30.2019955,668.382619 30.4689616,668.382619 L34.8216704,668.382619 L34.8216704,674.18623 L29.9853273,674.18623 L29.9853273,668.866253 Z M43.527088,679.506208 C43.527088,679.773174 43.3104199,679.989842 43.0434537,679.989842 L41.1089165,679.989842 L32.4034989,679.989842 L30.4689616,679.989842 C30.2019955,679.989842 29.9853273,679.773174 29.9853273,679.506208 L29.9853273,675.153499 L43.527088,675.153499 L43.527088,679.506208 Z M43.527088,674.18623 L35.7889391,674.18623 L35.7889391,668.382619 L43.0434537,668.382619 C43.3104199,668.382619 43.527088,668.600254 43.527088,668.866253 L43.527088,674.18623 Z M35.3053047,677.088036 L38.2071106,677.088036 C38.4740767,677.088036 38.6907449,676.871368 38.6907449,676.604402 C38.6907449,676.338403 38.4740767,676.120767 38.2071106,676.120767 L35.3053047,676.120767 C35.0383386,676.120767 34.8216704,676.338403 34.8216704,676.604402 C34.8216704,676.871368 35.0383386,677.088036 35.3053047,677.088036 Z M35.3053047,679.022573 L38.2071106,679.022573 C38.4740767,679.022573 38.6907449,678.805905 38.6907449,678.538939 C38.6907449,678.27294 38.4740767,678.055305 38.2071106,678.055305 L35.3053047,678.055305 C35.0383386,678.055305 34.8216704,678.27294 34.8216704,678.538939 C34.8216704,678.805905 35.0383386,679.022573 35.3053047,679.022573 Z M31.4362302,679.022573 L33.3707675,679.022573 C33.6377336,679.022573 33.8544018,678.805905 33.8544018,678.538939 L33.8544018,676.604402 C33.8544018,676.338403 33.6377336,676.120767 33.3707675,676.120767 L31.4362302,676.120767 C31.1692641,676.120767 30.9525959,676.338403 30.9525959,676.604402 L30.9525959,678.538939 C30.9525959,678.805905 31.1692641,679.022573 31.4362302,679.022573 Z M31.9198646,677.088036 L32.8871332,677.088036 L32.8871332,678.055305 L31.9198646,678.055305 L31.9198646,677.088036 Z M40.1416479,679.022573 L42.0761851,679.022573 C42.3431512,679.022573 42.5598194,678.805905 42.5598194,678.538939 L42.5598194,676.604402 C42.5598194,676.338403 42.3431512,676.120767 42.0761851,676.120767 L40.1416479,676.120767 C39.8746817,676.120767 39.6580135,676.338403 39.6580135,676.604402 L39.6580135,678.538939 C39.6580135,678.805905 39.8746817,679.022573 40.1416479,679.022573 Z M40.6252822,677.088036 L41.5925508,677.088036 L41.5925508,678.055305 L40.6252822,678.055305 L40.6252822,677.088036 Z" id="Shape"></path>
            </g>
        </g>
    </g>
</svg>