<?xml version="1.0" ?><svg id="Icons" style="enable-background:new 0 0 100 100;" version="1.1" viewBox="0 0 100 100" xml:space="preserve" xmlns="http://www.w3.org/2000/svg" xmlns:xlink="http://www.w3.org/1999/xlink"><path d="M38,98c-14.889,0-27-12.113-27-27s12.111-27,27-27c1.658,0,3,1.343,3,3s-1.342,3-3,3  c-11.578,0-21,9.42-21,21s9.422,21,21,21s21-9.42,21-21c0-1.657,1.342-3,3-3s3,1.343,3,3C65,85.887,52.889,98,38,98z M68,17  c0-6.617-5.382-12-12-12s-12,5.383-12,12s5.382,12,12,12S68,23.617,68,17z M62,17c0,3.309-2.692,6-6,6s-6-2.691-6-6s2.692-6,6-6  S62,13.691,62,17z M92,89c0-1.657-1.342-3-3-3h-6.539l-5.036-25.179C76.865,58.027,74.39,56,71.542,56H56c-1.655,0-3-1.346-3-3V41  h18c1.658,0,3-1.343,3-3s-1.342-3-3-3H53c-3.308,0-6,2.691-6,6v12c0,4.963,4.037,9,9,9h15.542l5.517,27.589  C77.34,90.991,78.57,92,80,92h9C90.658,92,92,90.657,92,89z" id="Wheelchair"/></svg>