<?xml version="1.0" encoding="UTF-8"?>
<svg width="45px" height="39px" viewBox="0 0 45 39" version="1.1" xmlns="http://www.w3.org/2000/svg" xmlns:xlink="http://www.w3.org/1999/xlink">
    <!-- Generator: Sketch 61 (89581) - https://sketch.com -->
    <title>wifi-d</title>
    <desc>Created with Sketch.</desc>
    <g id="Page-1" stroke="none" stroke-width="1" fill="none" fill-rule="evenodd">
        <g id="wifi-d" fill="#383838" fill-rule="nonzero">
            <ellipse id="Oval" cx="22.5" cy="33.5" rx="4.5" ry="5.5"></ellipse>
            <path d="M44.3082131,6.69881213 C37.8942537,2.2945257 30.2837814,-0.0429751988 22.5000628,0.000598284598 C14.7163443,-0.0429751988 7.10587202,2.2945257 0.691912612,6.69881213 C-0.040061956,7.2082995 -0.219874874,8.21391614 0.290289219,8.94491976 C0.800453312,9.67592338 1.80740565,9.85549778 2.53938022,9.34601041 C8.41087532,5.31599556 15.3756366,3.17475819 22.5000628,3.20932348 C29.6244891,3.17475819 36.5892504,5.31599556 42.4607455,9.34601041 C42.93425,9.67559095 43.5478489,9.72785936 44.0704054,9.48312663 C44.5929619,9.2383939 44.9450872,8.73384076 44.9941392,8.15952749 C45.0431912,7.58521422 44.7817176,7.02839267 44.3082131,6.69881213 L44.3082131,6.69881213 Z M32.0185373,21.0177483 C25.9997748,18.1410752 19.0003509,18.1410752 12.9815884,21.0177483 C12.2714852,21.441065 11.9992008,22.333599 12.3523327,23.0804157 C12.7054646,23.8272324 13.5686211,24.1842972 14.347108,23.905601 C19.5021015,21.4402172 25.4980242,21.4402172 30.6530177,23.905601 C31.4315046,24.1842972 32.2946611,23.8272324 32.647793,23.0804157 C33.0009249,22.333599 32.7286405,21.441065 32.0185373,21.0177483 L32.0185373,21.0177483 Z" id="Shape"></path>
            <path d="M39.1784852,13.665217 C29.1410932,7.44492766 16.8589068,7.44492766 6.82151478,13.665217 C6.31576338,13.9816113 6.0026099,14.5693619 6,15.2070687 C5.99742257,15.8447755 6.30578275,16.4355558 6.80894049,16.7568683 C7.31209823,17.0781808 7.9336119,17.0812105 8.4393633,16.7648162 C17.4755499,11.1770975 28.5244501,11.1770975 37.5606367,16.7648162 C38.0663881,17.0812105 38.6879018,17.0781808 39.1910595,16.7568683 C39.6942172,16.4355558 40.0025774,15.8447755 40,15.2070687 C39.9973901,14.5693619 39.6842366,13.9816113 39.1784852,13.665217 Z" id="Path"></path>
        </g>
    </g>
</svg>