<?xml version="1.0" encoding="utf-8"?>
<!-- Generator: Adobe Illustrator 18.0.0, SVG Export Plug-In . SVG Version: 6.00 Build 0)  -->
<!DOCTYPE svg PUBLIC "-//W3C//DTD SVG 1.1//EN" "http://www.w3.org/Graphics/SVG/1.1/DTD/svg11.dtd">
<svg version="1.1" id="Layer_1" xmlns="http://www.w3.org/2000/svg" xmlns:xlink="http://www.w3.org/1999/xlink" x="0px" y="0px"
	 viewBox="0 0 48 48" enable-background="new 0 0 48 48" xml:space="preserve">
<g>
	<path fill="#010101" d="M24,42.5c-3,0-5.5-2.5-5.5-5.5s2.5-5.5,5.5-5.5c3,0,5.5,2.5,5.5,5.5S27,42.5,24,42.5z M24,33.5
		c-1.9,0-3.5,1.6-3.5,3.5s1.6,3.5,3.5,3.5s3.5-1.6,3.5-3.5S25.9,33.5,24,33.5z"/>
	<path fill="#010101" d="M13.6,28.7l-1.4-1.4c3.1-3.1,7.3-4.9,11.8-4.9c4.4,0,8.6,1.7,11.8,4.9l-1.4,1.4c-2.8-2.8-6.4-4.3-10.3-4.3
		C20,24.4,16.4,25.9,13.6,28.7z"/>
	<path fill="#010101" d="M40.1,23c-8.9-8.9-23.3-8.9-32.2,0l-1.4-1.4c9.7-9.7,25.4-9.7,35,0L40.1,23z"/>
	<path fill="#010101" d="M46.3,16.8C34,4.5,14,4.5,1.7,16.8l-1.4-1.4c13.1-13.1,34.3-13.1,47.4,0L46.3,16.8z"/>
</g>
</svg>
