<?xml version="1.0" encoding="UTF-8"?>
<svg width="16px" height="12px" viewBox="0 0 16 12" version="1.1" xmlns="http://www.w3.org/2000/svg" xmlns:xlink="http://www.w3.org/1999/xlink">
    <!-- Generator: Sketch 61 (89581) - https://sketch.com -->
    <title>Shape</title>
    <desc>Created with Sketch.</desc>
    <g id="Page-1" stroke="none" stroke-width="1" fill="none" fill-rule="evenodd">
        <g id="Artboard" transform="translate(-602.000000, -468.000000)" fill="#000000" fill-rule="nonzero">
            <g id="stroke-icons" transform="translate(109.000000, 0.000000)">
                <path d="M507.816027,468.158014 L494.274266,468.158014 C493.739367,468.158014 493.306998,468.59135 493.306998,469.125282 L493.306998,478.797968 C493.306998,479.332868 493.739367,479.765237 494.274266,479.765237 L507.816027,479.765237 C508.350927,479.765237 508.783296,479.332868 508.783296,478.797968 L508.783296,469.125282 C508.783296,468.59135 508.350927,468.158014 507.816027,468.158014 Z M507.816027,478.314334 C507.816027,478.5813 507.599359,478.797968 507.332393,478.797968 L494.757901,478.797968 C494.491902,478.797968 494.274266,478.5813 494.274266,478.314334 L494.274266,472.994357 L507.816027,472.994357 L507.816027,478.314334 Z M507.816027,470.092551 L507.816027,471.059819 L494.274266,471.059819 L494.274266,470.092551 L494.274266,469.608916 C494.274266,469.34195 494.491902,469.125282 494.757901,469.125282 L507.332393,469.125282 C507.599359,469.125282 507.816027,469.34195 507.816027,469.608916 L507.816027,470.092551 Z M500.077878,474.928894 L496.208804,474.928894 L496.208804,475.896163 L500.077878,475.896163 L500.077878,474.928894 Z M502.979684,474.928894 L501.045147,474.928894 L501.045147,475.896163 L502.979684,475.896163 L502.979684,474.928894 Z" id="Shape"></path>
            </g>
        </g>
    </g>
</svg>