<svg viewBox="0 0 48 48" xmlns="http://www.w3.org/2000/svg"><style>.Round_x0020_Corners_x0020_2_x0020_pt{fill:#fff;stroke:#231f20;stroke-miterlimit:10}.Live_x0020_Reflect_x0020_X{fill:none}.Bevel_x0020_Soft{fill:url(#SVGID_1_)}.Dusk{fill:#fff}.Foliage_GS{fill:#fd0}.Pompadour_GS{fill-rule:evenodd;clip-rule:evenodd;fill:#44ade2}.st0,.st1{fill:none;stroke:#30302f;stroke-linecap:round;stroke-miterlimit:10}.st1{stroke-linejoin:round}.st2{fill:#30302f}.st3{fill:none;stroke:#30302f;stroke-width:.7;stroke-linecap:round;stroke-linejoin:round;stroke-miterlimit:10}.st4{fill:#303030}</style><linearGradient gradientUnits="userSpaceOnUse" id="SVGID_1_" x1="-232" x2="-231.293" y1="-174" y2="-173.293"><stop offset="0" stop-color="#dedfe3"/><stop offset=".178" stop-color="#dadbdf"/><stop offset=".361" stop-color="#cecfd3"/><stop offset=".546" stop-color="#b9bcbf"/><stop offset=".732" stop-color="#9ca0a2"/><stop offset=".918" stop-color="#787d7e"/><stop offset="1" stop-color="#656b6c"/></linearGradient><path class="st1" d="M30.967 34.032c-.178.122-.29.21-.413.282-.922.535-1.804 1.166-2.778 1.577-1.327.562-1.643.265-1.462-1.14a3.61 3.61 0 0 1 .08-.425c.897-3.503 1.825-7 2.675-10.515a17.13 17.13 0 0 0 .445-3.406c.045-1.297-.746-2.014-2.028-1.906-.915.077-1.849.206-2.72.482-3.525 1.115-6.43 3.272-9.203 5.63-.026.023.6 1.08.839 1.53 1.145-.583 2.124-1.129 3.193-1.6.095-.042.195-.071.297-.094 1.127-.24 1.16.729 1.145 1.016a2.242 2.242 0 0 1-.05.35c-.674 2.946-1.397 5.88-2.094 8.82-.37 1.56-.782 3.11-.669 4.743.116 1.664 1.09 2.553 2.752 2.45a4.67 4.67 0 0 0 .794-.098c2.586-.617 4.868-1.878 6.987-3.433 1.153-.847 2.209-1.826 3.327-2.761l-1.117-1.502zm-5.974-18.769c2.56 0 4.963-2.075 5.369-4.634.405-2.56-1.341-4.634-3.9-4.634-2.56 0-4.963 2.075-5.369 4.634-.405 2.56 1.341 4.634 3.9 4.634z" id="Icons"/></svg>