<?xml version="1.0" encoding="UTF-8"?>
<svg width="178px" height="179px" viewBox="0 0 178 179" version="1.1" xmlns="http://www.w3.org/2000/svg" xmlns:xlink="http://www.w3.org/1999/xlink">
    <!-- Generator: Sketch 61 (89581) - https://sketch.com -->
    <title>iconfinder_beauty-spa-50_1494396</title>
    <desc>Created with Sketch.</desc>
    <g id="Page-1" stroke="none" stroke-width="1" fill="none" fill-rule="evenodd">
        <g id="Artboard" transform="translate(-278.000000, -483.000000)" fill="#231F20">
            <g id="iconfinder_beauty-spa-50_1494396" transform="translate(278.000000, 483.000000)">
                <path d="M89.0350256,170.091051 C70.1912633,177.392895 62.1353798,179 42.0306966,179 C25.4285714,179 23.9224715,177.253147 10.4025974,169.706743 C7.56552538,167.959891 8.16096025,159.295501 8.16096025,159.295501 C9.14167651,148.534888 58.6328217,139.73075 62.3455333,137.389968 C63.5714286,136.516541 72.3978749,123.659705 72.3978749,113.493022 C72.3978749,103.221528 67.1790634,97.9110959 67.1790634,87.0107348 C64.9374262,101.474676 61.2247147,107.169415 55.4104683,119.432322 C52.2931917,126.105299 25.04329,145.285742 19.0889414,147.137406 C15.2361275,148.360203 0,144.552064 0,140.32468 C0,134.140822 0.245179063,123.869328 1.22589532,120.410559 C3.95789059,121.283986 4.58835104,123.240461 4.69342778,124.498195 C4.83353011,126.978725 5.32388823,132.918025 7.42542306,134.385381 C11.2782369,137.110471 14.8508461,136.621353 17.9681228,136.481604 C21.8209366,136.481604 45.3581267,114.960379 46.4789453,110.732995 C48.9657615,101.334927 52.2931917,65.9436908 60.1038961,61.9608666 C63.8166076,60.1092027 79.4380165,56.1613155 81.0491932,55.2878891 C82.6603699,54.3096516 81.9248327,45.7500732 81.9248327,45.7500732 C80.4537584,45.3657656 79.5781189,44.5272763 78.317198,43.0249829 C62.9409681,23.9842881 76.7060213,5.64233434 84.5167257,6.13145311 C79.5430933,-2.0438177 98.4218811,-2.0438177 93.4482487,6.13145311 C101.258953,5.64233434 114.883904,23.949351 99.5076741,43.0249829 C98.3868556,44.5272763 97.4061393,45.3657656 96.0401417,45.7500732 C96.0401417,45.7500732 95.1645022,54.2747146 96.7756789,55.2878891 C98.3868556,56.1613155 114.148367,60.1092027 117.861078,61.9608666 C125.671783,65.9087538 128.894136,101.29999 131.380952,110.732995 C132.606848,114.925442 156.179063,136.481604 159.891775,136.481604 C163.114128,136.621353 166.581661,137.110471 170.539551,134.385381 C172.536009,132.883088 173.131444,126.943788 173.271547,124.498195 C173.271547,123.275398 173.902007,121.283986 176.634002,120.410559 C177.754821,123.869328 178,134.140822 178,140.32468 C178,144.517127 162.763872,148.360203 158.911059,147.137406 C152.851633,145.285742 125.566706,126.105299 122.449429,119.432322 C116.74026,107.169415 113.027548,101.474676 110.680834,87.0107348 C110.680834,97.9110959 105.462023,103.221528 105.462023,113.493022 C105.462023,123.624768 114.253444,136.516541 115.514364,137.389968 C119.227076,139.73075 168.718221,148.534888 169.698937,159.295501 C169.83904,159.295501 170.434475,167.959891 167.4573,169.706743 C154.007477,177.253147 152.64148,179 136.039355,179 C115.934671,179 107.773711,177.392895 89.0350256,170.091051 L89.0350256,170.091051 Z" id="XMLID_205_"/>
            </g>
        </g>
    </g>
</svg>